<svg width="21" height="21" viewBox="0 0 21 21" fill="none" xmlns="http://www.w3.org/2000/svg">
<path fill-rule="evenodd" clip-rule="evenodd" d="M5.25 4.375C5.01794 4.375 4.79538 4.46719 4.63128 4.63128C4.46719 4.79538 4.375 5.01794 4.375 5.25V17.5C4.375 17.7321 4.46719 17.9546 4.63128 18.1187C4.79538 18.2828 5.01794 18.375 5.25 18.375H15.75C15.9821 18.375 16.2046 18.2828 16.3687 18.1187C16.5328 17.9546 16.625 17.7321 16.625 17.5V5.25C16.625 5.01794 16.5328 4.79538 16.3687 4.63128C16.2046 4.46719 15.9821 4.375 15.75 4.375H14C13.5168 4.375 13.125 3.98325 13.125 3.5C13.125 3.01675 13.5168 2.625 14 2.625H15.75C16.4462 2.625 17.1139 2.90156 17.6062 3.39384C18.0984 3.88613 18.375 4.55381 18.375 5.25V17.5C18.375 18.1962 18.0984 18.8639 17.6062 19.3562C17.1139 19.8484 16.4462 20.125 15.75 20.125H5.25C4.55381 20.125 3.88613 19.8484 3.39384 19.3562C2.90156 18.8639 2.625 18.1962 2.625 17.5V5.25C2.625 4.55381 2.90156 3.88613 3.39384 3.39384C3.88613 2.90156 4.55381 2.625 5.25 2.625H7C7.48325 2.625 7.875 3.01675 7.875 3.5C7.875 3.98325 7.48325 4.375 7 4.375H5.25Z" fill="#000000"/>
<path fill-rule="evenodd" clip-rule="evenodd" d="M6.125 2.625C6.125 1.6585 6.9085 0.875 7.875 0.875H13.125C14.0915 0.875 14.875 1.6585 14.875 2.625V4.375C14.875 5.3415 14.0915 6.125 13.125 6.125H7.875C6.9085 6.125 6.125 5.3415 6.125 4.375V2.625ZM13.125 2.625H7.875V4.375H13.125V2.625Z" fill="#000000"/>
</svg>
