<svg  viewBox="0 0 25 25" id="close" fill="none" xmlns="http://www.w3.org/2000/svg">
  <path fill-rule="evenodd" clip-rule="evenodd"
        d="M19.4853 5.51213C19.8921 5.91892 19.8921 6.57847 19.4853 6.98527L6.98527 19.4853C6.57847 19.8921 5.91892 19.8921 5.51213 19.4853C5.10533 19.0785 5.10533 18.4189 5.51213 18.0121L18.0121 5.51213C18.4189 5.10533 19.0785 5.10533 19.4853 5.51213Z"
        fill="#fff63d"/>
  <path fill-rule="evenodd" clip-rule="evenodd"
        d="M5.51213 5.51213C5.91892 5.10533 6.57847 5.10533 6.98527 5.51213L19.4853 18.0121C19.8921 18.4189 19.8921 19.0785 19.4853 19.4853C19.0785 19.8921 18.4189 19.8921 18.0121 19.4853L5.51213 6.98527C5.10533 6.57847 5.10533 5.91892 5.51213 5.51213Z"
        fill="#fff63d"/>
</svg>
