<svg width="21" height="21" viewBox="0 0 21 21" fill="none" xmlns="http://www.w3.org/2000/svg">
<path d="M3.6764 3.6764L3.78246 3.78246L3.67639 3.6764C1.85399 5.49884 0.85 7.92268 0.85 10.5C0.85 13.0773 1.85399 15.5012 3.67639 17.3236C5.49884 19.146 7.92268 20.15 10.5 20.15C13.0773 20.15 15.5012 19.146 17.3236 17.3236C19.146 15.5012 20.15 13.0773 20.15 10.5C20.15 7.92268 19.146 5.49884 17.3236 3.6764L17.2175 3.78246L17.3236 3.6764C15.5012 1.85395 13.0773 0.85 10.5 0.85C7.92268 0.85 5.49884 1.85395 3.6764 3.6764ZM10.5 18.7367C5.95838 18.7367 2.26328 15.0416 2.26328 10.5C2.26328 5.95838 5.95838 2.26328 10.5 2.26328C15.0416 2.26328 18.7367 5.95838 18.7367 10.5C18.7367 15.0416 15.0416 18.7367 10.5 18.7367Z" fill="black" stroke="black" stroke-width="0.3"/>
<path d="M11.0973 9.7941H9.90485C9.30833 9.7941 8.82282 9.30859 8.82282 8.71211C8.82282 8.11559 9.30836 7.63008 9.90485 7.63008H12.2898C12.68 7.63008 12.9964 7.31369 12.9964 6.92344C12.9964 6.53318 12.68 6.2168 12.2898 6.2168H11.2077V5.13477C11.2077 4.74451 10.8913 4.42812 10.5011 4.42812C10.1108 4.42812 9.79444 4.74451 9.79444 5.13477V6.21921C8.46943 6.27718 7.40957 7.37308 7.40957 8.71211C7.40957 10.0881 8.52886 11.2074 9.90489 11.2074H11.0974C11.6938 11.2074 12.1794 11.6929 12.1794 12.2894C12.1794 12.8859 11.6938 13.3714 11.0974 13.3714H8.71245C8.32219 13.3714 8.00581 13.6878 8.00581 14.0781C8.00581 14.4683 8.32219 14.7847 8.71245 14.7847H9.79444V15.8668C9.79444 16.2571 10.1108 16.5734 10.5011 16.5734C10.8913 16.5734 11.2077 16.2571 11.2077 15.8668V14.7823C12.5327 14.7244 13.5926 13.6285 13.5926 12.2894C13.5926 10.9134 12.4734 9.7941 11.0973 9.7941Z" fill="black" stroke="black" stroke-width="0.3"/>
</svg>
