<svg width="21" height="21" viewBox="0 0 21 21" fill="none" xmlns="http://www.w3.org/2000/svg">
<path d="M11.145 20C8.43931 20 5.89446 19.0144 3.97931 17.2251C2.05804 15.4299 1 13.0416 1 10.5C1 7.95844 2.05804 5.57011 3.97931 3.77494C5.89446 1.98557 8.43931 1 11.145 1C12.5834 1 13.9738 1.27629 15.2772 1.82133C16.5375 2.3484 17.6535 3.09871 18.5945 4.05152C19.1218 4.58555 19.4386 5.74681 19.0309 6.69194C18.8289 7.1603 18.2738 7.94902 16.8253 7.97004C14.2842 8.00671 14.2842 9.15131 14.2842 9.58227C14.2842 10.6889 16.07 11.3167 17.9996 11.8304C19.2614 12.1662 19.7286 12.8802 19.8985 13.42C20.2551 14.5542 19.6087 15.8269 18.9467 16.572C17.0117 18.7506 14.168 20 11.145 20ZM11.145 2.15764C6.20931 2.15764 2.19394 5.90003 2.19394 10.5C2.19394 15.1 6.20931 18.8424 11.145 18.8424C13.8201 18.8424 16.3342 17.7395 18.0422 15.8166C18.5266 15.2713 18.9568 14.3945 18.7566 13.7577C18.6368 13.3771 18.2759 13.1043 17.6837 12.9466C16.6966 12.6839 15.5711 12.3501 14.7073 11.8658C13.6343 11.2644 13.0902 10.4959 13.0902 9.58227C13.0902 8.64816 13.4785 7.90495 14.2132 7.43326C14.8384 7.03172 15.687 6.82878 16.8075 6.81255C17.6903 6.79979 17.8703 6.38245 17.9295 6.24532C18.1373 5.76348 17.9558 5.0787 17.7322 4.85213C16.0411 3.13973 13.6403 2.15764 11.145 2.15764Z" fill="black" stroke="black" stroke-width="0.4"/>
<path d="M13.5001 17C12.1216 17 11 16.1027 11 14.9999C11 13.8971 12.1216 13 13.5001 13C14.8786 13 16 13.8971 16 14.9999C16 16.1027 14.8786 17 13.5001 17ZM13.5001 13.9514C12.7773 13.9514 12.1893 14.4217 12.1893 14.9999C12.1893 15.578 12.7773 16.0485 13.5001 16.0485C14.2228 16.0485 14.8108 15.5781 14.8108 14.9999C14.8108 14.4217 14.2228 13.9514 13.5001 13.9514Z" fill="black" stroke="black" stroke-width="0.4"/>
<path d="M7.49993 16C6.12159 16 5 14.8784 5 13.4999C5 12.1214 6.12159 11 7.49993 11C8.87856 11 10 12.1214 10 13.4999C10 14.8784 8.87856 16 7.49993 16ZM7.49993 12.1892C6.77732 12.1892 6.18935 12.7772 6.18935 13.4999C6.18935 14.2227 6.77732 14.8107 7.49993 14.8107C8.22268 14.8107 8.81065 14.2227 8.81065 13.4999C8.81065 12.7772 8.22268 12.1892 7.49993 12.1892Z" fill="black" stroke="black" stroke-width="0.4"/>
<path d="M7.00006 10C5.89727 10 5 8.87856 5 7.50007C5 6.12159 5.89727 5 7.00006 5C8.10285 5 9 6.12159 9 7.50007C9 8.87856 8.10285 10 7.00006 10ZM7.00006 6.18935C6.42186 6.18935 5.95148 6.77732 5.95148 7.50007C5.95148 8.22283 6.42186 8.8108 7.00006 8.8108C7.57814 8.8108 8.04852 8.22283 8.04852 7.50007C8.04852 6.77732 7.57814 6.18935 7.00006 6.18935Z" fill="black" stroke="black" stroke-width="0.4"/>
<path d="M12 7C10.8972 7 10 6.10277 10 5C10 3.89723 10.8972 3 12 3C13.1029 3 14 3.89723 14 5C14 6.10277 13.1029 7 12 7ZM12 4.19188C11.5544 4.19188 11.192 4.55444 11.192 5C11.192 5.44556 11.5546 5.80797 12 5.80797C12.4456 5.80797 12.8081 5.44556 12.8081 5C12.8081 4.55444 12.4456 4.19188 12 4.19188Z" fill="black" stroke="black" stroke-width="0.4"/>
</svg>
