<svg width="19" height="19" id="comparison-bg"  viewBox="0 0 19 19" fill="none" xmlns="http://www.w3.org/2000/svg">
  <path d="M18.8044 11.5727L15.6428 6.30298L18.4802 5.51482C18.7728 5.43357 18.944 5.13053 18.8628 4.83798C18.7815 4.54542 18.4784 4.37411 18.1859 4.4554L14.6588 5.43511L10.0498 6.71535V0.666964C10.0498 0.363341 9.80369 0.117188 9.50007 0.117188C9.19645 0.117188 8.95029 0.363341 8.95029 0.666964V7.02077L4.05937 8.37931L0.519976 9.36242C0.227385 9.44368 0.0561478 9.74671 0.137368 10.0393C0.204991 10.2826 0.425964 10.442 0.666767 10.442C0.715477 10.442 0.76503 10.4355 0.814217 10.4218L3.02014 9.80909L0.195754 14.517C0.144515 14.6024 0.117393 14.7002 0.117393 14.7998C0.117393 17.0511 1.94899 18.8826 4.20029 18.8826C6.45167 18.8826 8.28323 17.0511 8.28323 14.7998C8.28323 14.7002 8.25615 14.6024 8.20487 14.517L5.04321 9.24719L13.6196 6.86493L10.7952 11.5727C10.744 11.6582 10.7169 11.756 10.7169 11.8556C10.7169 14.1069 12.5485 15.9384 14.7998 15.9384C15.8903 15.9384 16.9156 15.5137 17.6869 14.7425C18.4581 13.9713 18.8827 12.9461 18.8827 11.8555C18.8827 11.7559 18.8557 11.6581 18.8044 11.5727Z"
        fill="#fff63d"
  />
  <path fill-rule="evenodd" clip-rule="evenodd"
        d="M8.83313 0.667063C8.83313 0.298664 9.13179 0 9.50019 0C9.86859 0 10.1673 0.298664 10.1673 0.667063V6.56115L14.626 5.32265L14.6267 5.32243L14.6276 5.3222L18.1546 4.3425C18.5095 4.24385 18.8773 4.45173 18.9759 4.80667C19.0744 5.16162 18.8667 5.52934 18.5117 5.62793L15.8227 6.37486L18.9051 11.5125C18.9673 11.6161 19.0002 11.7348 19.0001 11.8556M19.0001 11.8556C19.0001 12.9773 18.5631 14.0324 17.7699 14.8256C16.9767 15.6188 15.9216 16.0558 14.7999 16.0558C12.4838 16.0558 10.5997 14.1718 10.5997 11.8557C10.5997 11.7348 10.6326 11.6161 10.6948 11.5125L13.368 7.05668L5.22317 9.31906L8.30555 14.4567C8.36777 14.5604 8.40064 14.679 8.40064 14.7999C8.40064 17.116 6.51656 19 4.20041 19C1.88434 19 0.000227065 17.116 0.000227065 14.7999C0.000227065 14.679 0.0331419 14.5604 0.0952912 14.4568L2.76851 10.0009L0.845745 10.5349C0.845739 10.5349 0.845751 10.5349 0.845745 10.5349C0.786224 10.5515 0.726088 10.5594 0.666887 10.5594C0.374757 10.5594 0.106572 10.3662 0.0244848 10.0708C-0.0740563 9.71583 0.133689 9.34811 0.488712 9.24951L4.03463 8.26456L8.83313 6.93172V0.667063M9.50019 0.234572C9.26134 0.234572 9.0677 0.428214 9.0677 0.667063V7.11002L4.09171 8.49218L4.09088 8.49241L4.08759 8.49329L0.551486 9.47553C0.321326 9.53944 0.1866 9.77783 0.250499 10.008C0.303667 10.1993 0.477421 10.3248 0.666887 10.3248C0.7051 10.3248 0.744083 10.3197 0.782929 10.3089L3.27202 9.61754L0.296458 14.5774C0.256128 14.6446 0.234799 14.7216 0.234799 14.7999C0.234799 16.9864 2.01389 18.7654 4.20041 18.7654C6.38702 18.7654 8.16607 16.9864 8.16607 14.7999C8.16607 14.7216 8.14476 14.6446 8.10443 14.5774L4.8635 9.17551L13.8715 6.67337L10.8959 11.6332C10.8556 11.7004 10.8343 11.7774 10.8343 11.8557C10.8343 14.0422 12.6134 15.8212 14.7999 15.8212C15.8594 15.8212 16.8548 15.4089 17.6041 14.6597C18.3533 13.9105 18.7656 12.9151 18.7655 11.8556C18.7656 11.7774 18.7443 11.7004 18.704 11.6332L15.4631 6.23131L18.4489 5.40192C18.6791 5.338 18.8138 5.09961 18.7499 4.86945C18.6859 4.6393 18.4475 4.50457 18.2174 4.5685L14.6912 5.54798L14.6904 5.5482L14.6896 5.54843L9.93268 6.86976V0.667063C9.93268 0.428214 9.73904 0.234572 9.50019 0.234572ZM14.7999 6.80727L17.5693 11.4232H12.0305L14.7999 6.80727ZM14.7999 7.26321L12.4448 11.1886H17.155L14.7999 7.26321ZM4.20041 9.75147L6.96981 14.3674H1.43109L4.20041 9.75147ZM4.20042 10.2074L6.55552 14.1328H1.84537L4.20042 10.2074ZM11.7266 12.2882H17.8733L17.8473 12.427C17.5782 13.8645 16.3148 14.9563 14.8 14.9563C13.2852 14.9563 12.0217 13.8645 11.7526 12.427L11.7266 12.2882ZM12.0128 12.5227C12.3143 13.7824 13.4496 14.7217 14.8 14.7217C16.1504 14.7217 17.2856 13.7824 17.5871 12.5227H12.0128ZM1.12714 15.2324H7.27368L7.2477 15.3712C6.97869 16.8088 5.71523 17.9005 4.20041 17.9005C2.68564 17.9005 1.42217 16.8088 1.15313 15.3712L1.12714 15.2324ZM1.41329 15.4669C1.7148 16.7266 2.85004 17.6659 4.20041 17.6659C5.55083 17.6659 6.68606 16.7266 6.98754 15.4669H1.41329Z"
        fill="#fff63d"/>
</svg>