<svg  id="comparison" viewBox="0 0 30 30" fill="none" xmlns="http://www.w3.org/2000/svg">
  <path d="M29.8745 18.3135L24.8201 9.88898L29.3561 8.62898C29.8239 8.49908 30.0977 8.01463 29.9678 7.54693C29.8378 7.07924 29.3533 6.80537 28.8857 6.93533L23.2472 8.50154C23.2468 8.50166 23.2463 8.50178 23.2459 8.50189L15.8789 10.5482V0.878906C15.8789 0.393516 15.4854 0 15 0C14.5146 0 14.1211 0.393516 14.1211 0.878906V11.0365L6.3022 13.2083C6.30179 13.2084 6.30138 13.2086 6.30097 13.2086L0.643922 14.78C0.176168 14.9099 -0.0975817 15.3943 0.032262 15.862C0.140367 16.251 0.493629 16.5059 0.87859 16.5059C0.956461 16.5059 1.03568 16.4955 1.11431 16.4736L4.64084 15.4941L0.125602 23.0204C0.0436878 23.1569 0.000328413 23.3133 0.000328413 23.4725C0.000328413 27.0715 2.92843 29.9995 6.5275 29.9995C10.1267 29.9995 13.0547 27.0715 13.0547 23.4725C13.0547 23.3133 13.0114 23.1569 12.9294 23.0204L7.87503 14.5958L21.5858 10.7873L17.0706 18.3135C16.9886 18.4501 16.9453 18.6064 16.9453 18.7657C16.9453 22.3648 19.8734 25.2927 23.4725 25.2927C25.2159 25.2927 26.855 24.6138 28.0879 23.381C29.3208 22.1481 29.9997 20.509 29.9996 18.7656C29.9997 18.6064 29.9564 18.4501 29.8745 18.3135ZM6.5275 28.2418C4.19798 28.2418 2.25408 26.5626 1.84023 24.3514H11.2148C10.801 26.5626 8.85707 28.2418 6.5275 28.2418ZM10.6237 22.5936H2.43144L6.5275 15.7662L10.6237 22.5936ZM23.4725 11.0595L27.5687 17.8867H19.3763L23.4725 11.0595ZM23.4726 23.535C21.1431 23.535 19.1991 21.8558 18.7852 19.6446H28.1599C27.746 21.8558 25.8021 23.535 23.4726 23.535Z"
        fill="currentColor"/>
  <path fill-rule="evenodd" clip-rule="evenodd"
        d="M13.9337 0.878906C13.9337 0.289962 14.4111 -0.1875 15.0001 -0.1875C15.589 -0.1875 16.0665 0.289962 16.0665 0.878906V10.3015L23.1945 8.32161L23.1957 8.32126L23.197 8.32088L28.8355 6.75468C29.4029 6.59698 29.9908 6.92929 30.1485 7.49673C30.306 8.06417 29.9739 8.65203 29.4064 8.80964L25.1076 10.0037L30.0353 18.217C30.1347 18.3827 30.1873 18.5724 30.1872 18.7656M30.1872 18.7656C30.1872 20.5588 29.4886 22.2455 28.2206 23.5135C26.9525 24.7816 25.2657 25.4802 23.4725 25.4802C19.7699 25.4802 16.7578 22.4683 16.7578 18.7657C16.7578 18.5724 16.8104 18.3828 16.9098 18.2171L21.1834 11.0937L8.16257 14.7105L13.0903 22.9239C13.1897 23.0896 13.2423 23.2793 13.2423 23.4725C13.2423 27.1751 10.2303 30.187 6.52753 30.187C2.82492 30.187 -0.187137 27.1751 -0.187137 23.4725C-0.187137 23.2792 -0.134517 23.0896 -0.0351617 22.9239L4.2384 15.8005L1.16456 16.6543C1.16455 16.6543 1.16457 16.6543 1.16456 16.6543C1.0694 16.6807 0.973267 16.6934 0.878625 16.6934C0.411609 16.6934 -0.0171276 16.3844 -0.148357 15.9122C-0.305891 15.3448 0.0262238 14.7569 0.593784 14.5993L6.2625 13.0247L13.9337 10.894V0.878906M15.0001 0.1875C14.6182 0.1875 14.3087 0.497069 14.3087 0.878906V11.179L6.35375 13.3886L6.35242 13.389L6.34717 13.3904L0.694139 14.9606C0.326191 15.0628 0.110809 15.4439 0.212963 15.8119C0.29796 16.1176 0.575734 16.3184 0.878625 16.3184C0.939715 16.3184 1.00203 16.3102 1.06414 16.293L5.04334 15.1877L0.286435 23.1168C0.221962 23.2243 0.187863 23.3473 0.187863 23.4725C0.187863 26.968 3.03202 29.812 6.52753 29.812C10.0232 29.812 12.8673 26.968 12.8673 23.4725C12.8673 23.3473 12.8332 23.2243 12.7687 23.1169L7.58757 14.481L21.9883 10.4809L17.2314 18.41C17.1669 18.5175 17.1328 18.6405 17.1328 18.7657C17.1328 22.2612 19.977 25.1052 23.4725 25.1052C25.1662 25.1052 26.7576 24.4461 27.9554 23.2484C29.1531 22.0507 29.8123 20.4593 29.8122 18.7656C29.8123 18.6405 29.7782 18.5174 29.7138 18.41L24.5327 9.77424L29.306 8.44832C29.6739 8.34614 29.8893 7.96504 29.7872 7.59709C29.6849 7.22916 29.3037 7.01377 28.9359 7.11598L23.2987 8.68183L23.2975 8.68218L23.2962 8.68255L15.6915 10.7949V0.878906C15.6915 0.497069 15.3819 0.1875 15.0001 0.1875ZM23.4725 10.695L27.8999 18.0742H19.0452L23.4725 10.695ZM23.4725 11.4239L19.7075 17.6992H27.2376L23.4725 11.4239ZM6.52753 15.4018L10.9549 22.7811H2.10033L6.52753 15.4018ZM6.52753 16.1307L10.2926 22.4061H2.76262L6.52753 16.1307ZM18.5594 19.4571H28.3858L28.3442 19.6791C27.9141 21.9772 25.8943 23.7225 23.4726 23.7225C21.051 23.7225 19.0311 21.9772 18.6009 19.6791L18.5594 19.4571ZM19.0168 19.8321C19.4989 21.8458 21.3138 23.3475 23.4726 23.3475C25.6315 23.3475 27.4463 21.8458 27.9283 19.8321H19.0168ZM1.61442 24.1639H11.4406L11.3991 24.3859C10.969 26.684 8.9492 28.4293 6.52753 28.4293C4.10592 28.4293 2.08607 26.684 1.65597 24.3859L1.61442 24.1639ZM2.07188 24.5389C2.55388 26.5526 4.36874 28.0543 6.52753 28.0543C8.68638 28.0543 10.5012 26.5526 10.9832 24.5389H2.07188Z"
        fill="currentColor"/>
</svg>