<svg width="30" height="30" viewBox="0 0 30 30" fill="none" xmlns="http://www.w3.org/2000/svg">
    <path d="M22.4316 2.43949L14.9998 9.8713L7.568 2.43949C6.98985 1.86134 6.02448 1.86134 5.44633 2.43949L5.44628 2.43955L2.43942 5.4469C2.4394 5.44692 2.43938 5.44694 2.43937 5.44696C1.85353 6.03286 1.85355 6.98268 2.43942 7.56856L9.87099 15.0001L2.43942 22.4317C1.85354 23.0176 1.85353 23.9674 2.43939 24.5533C2.4394 24.5533 2.43941 24.5533 2.43942 24.5534L5.44631 27.5605L5.44633 27.5605C5.72746 27.8416 6.10906 28 6.50717 28C6.90527 28 7.28687 27.8416 7.568 27.5605L14.9998 20.1287L22.4316 27.5605C22.7128 27.8416 23.0943 28 23.4925 28C23.89 28 24.272 27.8418 24.5533 27.5605L24.5533 27.5605L27.5602 24.5534C27.5602 24.5533 27.5602 24.5533 27.5602 24.5533C28.1458 23.9677 28.1465 23.0172 27.5597 22.4312L20.1286 15.0001L27.5599 7.56856C27.56 7.56856 27.56 7.56855 27.56 7.56855C28.1458 6.98265 28.1458 6.03279 27.5599 5.4469L24.5534 2.43957L24.5533 2.43949C24.272 2.15816 23.89 2 23.4925 2C23.0944 2 22.7128 2.15835 22.4316 2.43949Z" stroke="#FF441B" stroke-width="2"/>
</svg>
