<svg  id="eye" viewBox="0 0 15 15" fill="none" xmlns="http://www.w3.org/2000/svg">
  <path fill-rule="evenodd" clip-rule="evenodd"
        d="M1.33796 7.5C1.40627 7.61804 1.49683 7.76847 1.60901 7.94217C1.89715 8.38832 2.32385 8.98162 2.87784 9.57254C3.9972 10.7665 5.56219 11.875 7.5 11.875C9.43781 11.875 11.0028 10.7665 12.1222 9.57254C12.6761 8.98162 13.1029 8.38832 13.391 7.94217C13.5032 7.76847 13.5937 7.61804 13.662 7.5C13.5937 7.38196 13.5032 7.23153 13.391 7.05783C13.1029 6.61168 12.6761 6.01838 12.1222 5.42746C11.0028 4.23347 9.43781 3.125 7.5 3.125C5.56219 3.125 3.9972 4.23347 2.87784 5.42746C2.32385 6.01838 1.89715 6.61168 1.60901 7.05783C1.49683 7.23153 1.40627 7.38196 1.33796 7.5ZM14.375 7.5C14.934 7.22049 14.9339 7.22028 14.9338 7.22005L14.9328 7.21804L14.9306 7.21377L14.9235 7.19989C14.9176 7.1883 14.9092 7.17207 14.8983 7.15152C14.8765 7.11044 14.845 7.05202 14.8038 6.97874C14.7214 6.83228 14.6001 6.62595 14.441 6.37967C14.1237 5.88832 13.652 5.23162 13.0341 4.57254C11.8097 3.26653 9.93719 1.875 7.5 1.875C5.06281 1.875 3.1903 3.26653 1.96591 4.57254C1.34802 5.23162 0.876291 5.88832 0.55896 6.37967C0.399906 6.62595 0.27862 6.83228 0.196232 6.97874C0.155015 7.05202 0.123463 7.11044 0.101721 7.15152C0.0908479 7.17207 0.082422 7.1883 0.0764612 7.19989L0.0693687 7.21377L0.0672118 7.21804L0.0664813 7.2195C0.0663665 7.21973 0.065983 7.22049 0.625 7.5L0.065983 7.22049C-0.0219943 7.39645 -0.0219943 7.60355 0.065983 7.77951L0.625 7.5C0.065983 7.77951 0.0658682 7.77928 0.065983 7.77951L0.0672118 7.78196L0.0693687 7.78623L0.0764612 7.80011C0.082422 7.8117 0.0908479 7.82793 0.101721 7.84848C0.123463 7.88956 0.155015 7.94798 0.196232 8.02126C0.27862 8.16772 0.399906 8.37405 0.55896 8.62033C0.876291 9.11168 1.34802 9.76838 1.96591 10.4275C3.1903 11.7335 5.06281 13.125 7.5 13.125C9.93719 13.125 11.8097 11.7335 13.0341 10.4275C13.652 9.76838 14.1237 9.11168 14.441 8.62033C14.6001 8.37405 14.7214 8.16772 14.8038 8.02126C14.845 7.94798 14.8765 7.88956 14.8983 7.84848C14.9092 7.82793 14.9176 7.8117 14.9235 7.80011L14.9306 7.78623L14.9328 7.78196L14.9335 7.7805C14.9336 7.78027 14.934 7.77951 14.375 7.5ZM14.375 7.5L14.934 7.77951C15.022 7.60355 15.0218 7.39601 14.9338 7.22005L14.375 7.5Z"
        fill="currentColor"/>
  <path fill-rule="evenodd" clip-rule="evenodd"
        d="M7.5 6.25C6.80964 6.25 6.25 6.80964 6.25 7.5C6.25 8.19036 6.80964 8.75 7.5 8.75C8.19036 8.75 8.75 8.19036 8.75 7.5C8.75 6.80964 8.19036 6.25 7.5 6.25ZM5 7.5C5 6.11929 6.11929 5 7.5 5C8.88071 5 10 6.11929 10 7.5C10 8.88071 8.88071 10 7.5 10C6.11929 10 5 8.88071 5 7.5Z"
        fill="currentColor"/>
</svg>
