<svg width="66" height="66" viewBox="0 0 66 66" fill="none" xmlns="http://www.w3.org/2000/svg">
    <g clip-path="url(#clip0)">
        <rect x="-61.0215" y="-62.3242" width="58.9603" height="269.006" rx="4" transform="rotate(-45 -61.0215 -62.3242)" fill="black"/>
        <path d="M40.7305 9.24268L37.3363 5.84855C36.868 5.38017 36.1076 5.38017 35.6392 5.84855L28.8511 12.6367C28.3827 13.1051 28.3827 13.8654 28.8511 14.3338C29.3194 14.8022 30.0798 14.8022 30.5482 14.3338L36.4879 8.39413L39.0335 10.9397C39.5018 11.4081 40.2622 11.4081 40.7306 10.9397C41.1989 10.4713 41.1989 9.71107 40.7305 9.24268Z" fill="#FFF63D"/>
        <path d="M35.6387 10.9401L33.9417 9.24308C33.4733 8.7747 32.713 8.7747 32.2446 9.24308C31.7762 9.71147 31.7763 10.4717 32.2447 10.9401L33.9417 12.6371C34.4101 13.1055 35.1704 13.1055 35.6388 12.6371C36.1072 12.1687 36.1071 11.4085 35.6387 10.9401Z" fill="#FFF63D"/>
        <path d="M41.0811 19.733C42.4914 20.8208 44.5295 20.7173 45.821 19.4258C47.2245 18.0223 47.2245 15.7381 45.821 14.3346L44.1239 12.6376C43.6556 12.1692 42.8952 12.1692 42.4268 12.6376L39.0396 16.0249C39.0361 16.0283 39.031 16.0334 39.0277 16.0368L35.6387 19.4258C35.1703 19.8942 35.1703 20.6545 35.6387 21.1229C36.107 21.5913 36.8674 21.5913 37.3358 21.1229L38.6815 19.7772L38.6798 23.6685C38.6816 23.9994 38.8155 24.2998 39.0328 24.517C39.25 24.7343 39.5503 24.8683 39.8813 24.8666C40.5432 24.8666 41.0812 24.3287 41.0812 23.6668L41.0811 19.733ZM41.5784 16.8803L43.2754 15.1833L44.1239 16.0318C44.5907 16.4985 44.5923 17.2605 44.1239 17.7289C43.6556 18.1973 42.8936 18.1956 42.4268 17.7289L41.5783 16.8804L41.5784 16.8803Z" fill="#FFF63D"/>
        <path d="M47.5205 29.609L44.9749 27.0634L50.0661 21.9723L52.6117 24.5178C53.0801 24.9862 53.8404 24.9862 54.3088 24.5178C54.7772 24.0494 54.7771 23.2892 54.3087 22.8208L50.9146 19.4267C50.4462 18.9583 49.6858 18.9583 49.2175 19.4267L42.4293 26.2149C41.9609 26.6832 41.9609 27.4436 42.4293 27.912L45.8234 31.3061C46.2918 31.7745 47.0521 31.7745 47.5205 31.3061C47.9889 30.8377 47.9889 30.0774 47.5205 29.609Z" fill="#FFF63D"/>
        <path d="M49.2168 24.5182L47.5198 22.8212C47.0514 22.3528 46.291 22.3528 45.8227 22.8212C45.3543 23.2896 45.3543 24.0498 45.8227 24.5182L47.5198 26.2153C47.9881 26.6836 48.7485 26.6836 49.2169 26.2153C49.6852 25.7469 49.6852 24.9866 49.2168 24.5182Z" fill="#FFF63D"/>
        <path d="M54.3052 36.398L51.7596 33.8525L56.8508 28.7613L59.3964 31.3069C59.8647 31.7753 60.6251 31.7753 61.0935 31.3069C61.5619 30.8385 61.5618 30.0783 61.0934 29.6099L57.6993 26.2157C57.2309 25.7474 56.4705 25.7474 56.0022 26.2157L49.214 33.0039C48.7456 33.4723 48.7456 34.2326 49.214 34.701L52.6081 38.0951C53.0765 38.5635 53.8368 38.5635 54.3052 38.0952C54.7736 37.6268 54.7736 36.8664 54.3052 36.398Z" fill="#FFF63D"/>
        <path d="M56.0015 31.3073L54.3045 29.6103C53.8361 29.1419 53.0757 29.1419 52.6074 29.6103C52.139 30.0787 52.139 30.8389 52.6074 31.3073L54.3045 33.0043C54.7728 33.4727 55.5332 33.4727 56.0016 33.0043C56.4699 32.5359 56.4699 31.7757 56.0015 31.3073Z" fill="#FFF63D"/>
    </g>
    <defs>
        <clipPath id="clip0">
            <path d="M0 0H62C64.2091 0 66 1.79086 66 4V66H0V0Z" fill="white"/>
        </clipPath>
    </defs>
</svg>
