<svg width="94" height="94" viewBox="0 0 94 94" fill="none" xmlns="http://www.w3.org/2000/svg">
<rect width="94" height="94" rx="4" fill="black"/>
<path d="M27.0001 37H19.0001C17.8961 37 17 37.8961 17 39.0001V54.9999C17 56.1039 17.8961 56.9999 19.0001 56.9999C20.104 56.9999 21.0001 56.1039 21.0001 54.9999V40.9999H27.0001C28.1041 40.9999 29.0001 40.1039 29.0001 38.9999C29.0001 37.8959 28.1041 37 27.0001 37Z" fill="#FFF63D"/>
<path d="M23 45H19.0001C17.8961 45 17 45.8961 17 47C17 48.104 17.8961 48.9999 19.0001 48.9999H23C24.104 48.9999 25 48.1039 25 46.9999C25 45.8959 24.104 45 23 45Z" fill="#FFF63D"/>
<path d="M39.7775 48.948C42.7214 48.5679 45.0014 46.044 45.0014 43C45.0014 39.6919 42.3095 37 39.0014 37H35.0015C33.8975 37 33.0015 37.8961 33.0015 39.0001V46.9839C33.0015 46.992 33.0015 47.004 33.0015 47.0119V54.9999C33.0015 56.1039 33.8975 56.9999 35.0015 56.9999C36.1055 56.9999 37.0016 56.1039 37.0016 54.9999V51.828L41.5855 56.4159C41.9776 56.8038 42.4895 56.9999 43.0015 56.9999C43.5136 56.9999 44.0255 56.804 44.4136 56.412C45.1936 55.632 45.1936 54.3639 44.4136 53.5839L39.7775 48.948ZM37.0016 45V41.0001H39.0016C40.1017 41.0001 41.0017 41.8962 41.0017 43.0002C41.0017 44.1041 40.1017 45.0002 39.0016 45.0002H37.0016V45Z" fill="#FFF63D"/>
<path d="M58.9991 52.9998H52.9991V40.9999H58.9991C60.1031 40.9999 60.9991 40.1039 60.9991 38.9999C60.9991 37.8959 60.1031 37 58.9991 37H50.9991C49.8951 37 48.999 37.8961 48.999 39.0001V54.9999C48.999 56.1039 49.8951 56.9999 50.9991 56.9999H58.9991C60.1031 56.9999 60.9991 56.1039 60.9991 54.9999C60.9991 53.8959 60.1031 52.9998 58.9991 52.9998Z" fill="#FFF63D"/>
<path d="M54.9975 45H50.9976C49.8936 45 48.9976 45.8961 48.9976 47C48.9976 48.104 49.8936 48.9999 50.9976 48.9999H54.9975C56.1015 48.9999 56.9976 48.1039 56.9976 46.9999C56.9976 45.8959 56.1015 45 54.9975 45Z" fill="#FFF63D"/>
<path d="M75.0006 52.9998H69.0006V40.9999H75.0006C76.1045 40.9999 77.0006 40.1039 77.0006 38.9999C77.0006 37.8959 76.1045 37 75.0006 37H67.0005C65.8965 37 65.0005 37.8961 65.0005 39.0001V54.9999C65.0005 56.1039 65.8965 56.9999 67.0005 56.9999H75.0006C76.1045 56.9999 77.0006 56.1039 77.0006 54.9999C77.0006 53.8959 76.1045 52.9998 75.0006 52.9998Z" fill="#FFF63D"/>
<path d="M71.0014 45H67.0015C65.8975 45 65.0015 45.8961 65.0015 47C65.0015 48.104 65.8975 48.9999 67.0015 48.9999H71.0014C72.1054 48.9999 73.0015 48.1039 73.0015 46.9999C73.0015 45.8959 72.1054 45 71.0014 45Z" fill="#FFF63D"/>
</svg>
