<svg width="12" height="12" viewBox="0 0 12 12" fill="none" xmlns="http://www.w3.org/2000/svg">
<path d="M10.4666 0H1.5334C0.687867 0 0 0.687891 0 1.53342V10.4666C0 11.3121 0.687867 12 1.5334 12H10.4666C11.3121 12 12 11.3121 12 10.4666V1.53342C12 0.687891 11.3121 0 10.4666 0ZM11.2932 10.4666C11.2932 10.9224 10.9224 11.2932 10.4666 11.2932H1.5334C1.07761 11.2932 0.706805 10.9224 0.706805 10.4666V9.17737L3.03309 7.19805C3.11798 7.12582 3.24183 7.12514 3.32752 7.1963L4.78472 8.40633C4.92523 8.52298 5.13148 8.51341 5.26059 8.38416L8.72299 4.91648C8.78557 4.85379 8.85853 4.8477 8.89662 4.84964C8.93459 4.85159 9.00666 4.86513 9.06251 4.93392L11.2932 7.68056V10.4666H11.2932ZM11.2932 6.55934L9.61116 4.48826C9.44435 4.28285 9.19711 4.15727 8.93283 4.1437C8.66873 4.13034 8.40977 4.22977 8.22281 4.41703L4.98825 7.65659L3.77911 6.65255C3.42851 6.36141 2.92216 6.36443 2.57505 6.65977L0.706805 8.24934V1.53342C0.706805 1.07763 1.07761 0.706828 1.5334 0.706828H10.4666C10.9224 0.706828 11.2932 1.07763 11.2932 1.53342V6.55934Z" fill="black"/>
<path d="M3.77843 1.47656C2.8387 1.47656 2.07422 2.24109 2.07422 3.18077C2.07422 4.12048 2.83873 4.88498 3.77843 4.88498C4.71813 4.88498 5.48264 4.12048 5.48264 3.18077C5.48264 2.24107 4.71816 1.47656 3.77843 1.47656ZM3.77843 4.17818C3.22845 4.17818 2.78102 3.73073 2.78102 3.18077C2.78102 2.63079 3.22845 2.18337 3.77843 2.18337C4.32841 2.18337 4.77584 2.63081 4.77584 3.18077C4.77584 3.73073 4.32841 4.17818 3.77843 4.17818Z" fill="black"/>
</svg>
