<svg width="26" height="30" viewBox="0 0 26 30" fill="none" xmlns="http://www.w3.org/2000/svg">
<path d="M25.3909 14.7813L17.0371 0.220781C17.0366 0.219844 17.0359 0.219082 17.0354 0.218145C17.0346 0.216855 17.0341 0.215391 17.0333 0.214102C17.028 0.205078 17.0216 0.196875 17.0156 0.188379C17.0113 0.182227 17.0074 0.175781 17.0029 0.16998C16.9956 0.160605 16.9875 0.151992 16.9796 0.14332C16.9746 0.13793 16.9701 0.132246 16.965 0.12709C16.9565 0.118711 16.9473 0.111211 16.9382 0.103594C16.9328 0.0990234 16.9277 0.0941016 16.9221 0.0898242C16.9125 0.0825 16.9022 0.0761719 16.892 0.0697266C16.8863 0.0660352 16.8808 0.061875 16.8749 0.0584766C16.8642 0.0523242 16.8529 0.0472852 16.8417 0.0420703C16.8358 0.0393164 16.8301 0.0359766 16.824 0.033457C16.8121 0.0285352 16.7998 0.0247852 16.7875 0.020918C16.7817 0.0191016 16.7761 0.0166992 16.7703 0.0151172C16.7565 0.0114258 16.7425 0.00902344 16.7284 0.00667969C16.7236 0.00585938 16.7189 0.00445312 16.7141 0.00380859C16.6949 0.00134766 16.6756 0 16.6561 0H16.656H9.33986H9.3398C9.33969 0 9.33963 0 9.33951 0C9.32158 0 9.304 0.00140625 9.2866 0.00351562C9.28174 0.00410156 9.27699 0.00498047 9.27219 0.00574219C9.25889 0.00779297 9.24576 0.0104297 9.23293 0.0136523C9.22842 0.0147656 9.22397 0.0158203 9.21951 0.0171094C9.20322 0.0217383 9.18717 0.0270703 9.1717 0.033457C9.17129 0.0336328 9.17088 0.03375 9.17047 0.0339258C9.15436 0.0406641 9.13883 0.0485156 9.12377 0.0570703C9.11973 0.0593555 9.11586 0.061875 9.11188 0.0642773C9.10098 0.0708984 9.09043 0.0779297 9.08024 0.0854883C9.07584 0.0887109 9.0715 0.091875 9.06723 0.0952148C9.05516 0.104766 9.0435 0.114902 9.03254 0.125625C9.03037 0.127734 9.02826 0.129844 9.02615 0.132012C9.01531 0.143086 9.00518 0.154746 8.99557 0.166875C8.99217 0.171211 8.98895 0.175664 8.98566 0.180117C8.97787 0.190723 8.97061 0.20168 8.96381 0.21293C8.96217 0.215625 8.96018 0.217969 8.95865 0.220723L8.12762 1.66922C8.0068 1.87975 8.07957 2.14834 8.2901 2.2691C8.50057 2.38986 8.76916 2.31715 8.88998 2.10662L9.59434 0.878906H15.9206L8.43412 14.7918C8.42557 14.8076 8.41842 14.8239 8.41197 14.8403C8.41139 14.8419 8.41086 14.8435 8.41027 14.845C8.40465 14.86 8.3999 14.875 8.39592 14.8903C8.39533 14.8925 8.39481 14.8947 8.39428 14.8969C8.39047 14.9126 8.38748 14.9285 8.38549 14.9443C8.38537 14.9453 8.3852 14.9464 8.38502 14.9474C8.3808 14.9825 8.3808 15.0178 8.38502 15.0524C8.3852 15.0537 8.38543 15.0549 8.38555 15.0561C8.38754 15.0716 8.39047 15.087 8.3941 15.1021C8.3948 15.1049 8.39551 15.1078 8.39621 15.1106C8.4002 15.1259 8.40488 15.1409 8.41045 15.1556C8.41092 15.1568 8.41127 15.158 8.41168 15.1591C8.41842 15.1764 8.42621 15.1934 8.43506 15.2097L9.43168 17.0619C9.5467 17.2757 9.81324 17.3556 10.0269 17.2407C10.2406 17.1257 10.3207 16.8592 10.2056 16.6455L9.32035 15L12.9979 8.16551L16.6755 15L12.9979 21.8345L11.1122 18.33C10.9972 18.1163 10.7308 18.0363 10.517 18.1512C10.3033 18.2663 10.2232 18.5327 10.3382 18.7464L12.4989 22.7619L9.32756 28.6559L1.49275 15L7.88047 3.86613C8.00129 3.65561 7.92852 3.38701 7.71799 3.26625C7.50752 3.14543 7.23893 3.2182 7.11811 3.42873L0.604941 14.7813C0.603652 14.7836 0.602773 14.7861 0.601484 14.7884C0.594805 14.8005 0.588711 14.813 0.583203 14.8257C0.581445 14.8298 0.57957 14.8339 0.57793 14.838C0.571601 14.8539 0.566035 14.8701 0.561641 14.8866C0.561055 14.8888 0.560762 14.891 0.560234 14.8931C0.556602 14.9077 0.553731 14.9224 0.551563 14.9372C0.550859 14.9421 0.550332 14.9469 0.549805 14.9517C0.548281 14.9652 0.547402 14.9787 0.547168 14.9924C0.547109 14.9961 0.546875 14.9997 0.546875 15.0034C0.546992 15.021 0.548047 15.0386 0.550273 15.0562C0.550332 15.0568 0.550508 15.0574 0.550566 15.058C0.552734 15.0744 0.556074 15.0907 0.560176 15.1069C0.561231 15.1112 0.562461 15.1153 0.563633 15.1195C0.567324 15.1324 0.57166 15.1453 0.576582 15.158C0.578223 15.1623 0.579805 15.1666 0.581562 15.1709C0.588418 15.1871 0.595977 15.2031 0.604941 15.2187L8.95865 29.7792C9.03705 29.9159 9.18254 30 9.3398 30C9.33986 30 9.33986 30 9.33992 30H16.656C16.8134 30 16.9589 29.9158 17.0371 29.7792L17.8585 28.3475C17.9793 28.137 17.9066 27.8684 17.696 27.7477C17.4856 27.6268 17.217 27.6996 17.0962 27.9101L16.4015 29.1211H10.0753L13.3849 22.9702L17.5616 15.2082C17.6315 15.0782 17.6315 14.9218 17.5616 14.7918L13.4969 7.23797L16.6684 1.34408L24.5031 15L18.0799 26.1955C17.9592 26.406 18.0319 26.6746 18.2424 26.7954C18.3114 26.8349 18.3865 26.8537 18.4607 26.8537C18.613 26.8537 18.7611 26.7745 18.8423 26.6329L25.391 15.2187C25.4687 15.0833 25.4687 14.9167 25.3909 14.7813Z" fill="black"/>
</svg>
