<svg width="21" height="21" viewBox="0 0 21 21" fill="none" xmlns="http://www.w3.org/2000/svg">
<path fill-rule="evenodd" clip-rule="evenodd" d="M3.5 4.375C3.02075 4.375 2.625 4.77075 2.625 5.25V15.75C2.625 16.2293 3.02075 16.625 3.5 16.625H17.5C17.9793 16.625 18.375 16.2293 18.375 15.75V5.25C18.375 4.77075 17.9793 4.375 17.5 4.375H3.5ZM0.875 5.25C0.875 3.80425 2.05425 2.625 3.5 2.625H17.5C18.9457 2.625 20.125 3.80425 20.125 5.25V15.75C20.125 17.1957 18.9457 18.375 17.5 18.375H3.5C2.05425 18.375 0.875 17.1957 0.875 15.75V5.25Z" fill="#000000"/>
<path fill-rule="evenodd" clip-rule="evenodd" d="M1.03325 4.7483C1.31037 4.3524 1.85596 4.25612 2.25185 4.53325L10.5001 10.307L18.7483 4.53325C19.1442 4.25612 19.6898 4.3524 19.9669 4.7483C20.244 5.14419 20.1477 5.68978 19.7519 5.9669L11.0019 12.0919C10.7006 12.3028 10.2996 12.3028 9.99829 12.0919L1.2483 5.9669C0.852402 5.68978 0.756122 5.14419 1.03325 4.7483Z" fill="#000000"/>
</svg>
