<svg width="60" height="60" viewBox="0 0 60 60" fill="none" xmlns="http://www.w3.org/2000/svg">
<g clip-path="url(#clip0)">
<path d="M32.8025 28.9795C32.3171 28.9795 31.9236 29.373 31.9236 29.8584C31.9236 30.9294 31.0523 31.8007 29.9813 31.8007C28.9103 31.8007 28.0391 30.9294 28.0391 29.8584C28.0391 29.373 27.6455 28.9795 27.1602 28.9795C26.6748 28.9795 26.2812 29.373 26.2812 29.8584C26.2812 31.8986 27.9411 33.5585 29.9813 33.5585C32.0216 33.5585 33.6814 31.8986 33.6814 29.8584C33.6814 29.3729 33.2879 28.9795 32.8025 28.9795Z" fill="black"/>
<path d="M23.4961 22.3809C23.0107 22.3809 22.6172 22.7744 22.6172 23.2598V25.7061C22.6172 26.1914 23.0107 26.585 23.4961 26.585C23.9815 26.585 24.375 26.1914 24.375 25.7061V23.2598C24.375 22.7744 23.9815 22.3809 23.4961 22.3809Z" fill="black"/>
<path d="M36.4648 22.3809C35.9795 22.3809 35.5859 22.7744 35.5859 23.2598V25.7061C35.5859 26.1914 35.9795 26.585 36.4648 26.585C36.9502 26.585 37.3438 26.1914 37.3438 25.7061V23.2598C37.3438 22.7744 36.9502 22.3809 36.4648 22.3809Z" fill="black"/>
<path d="M42.641 41.0742H36.3828V38.4659C40.1162 36.575 42.9005 33.0734 43.817 28.881C46.5287 28.6106 48.6534 26.316 48.6534 23.5343V23.5066C48.6534 21.9247 47.966 20.5007 46.8746 19.5165C46.975 19.3737 47.0346 19.1999 47.0346 19.012V9.83613C47.0346 8.2691 46.6767 6.77086 45.9709 5.38301C45.7508 4.95035 45.2218 4.77785 44.789 4.99805C44.3564 5.21801 44.184 5.74723 44.4041 6.17988C44.9831 7.31848 45.2768 8.54871 45.2768 9.83613V18.1331C26.56 18.1331 27.7104 18.1653 26.9146 18.0612C23.3402 17.587 20.4637 14.8091 19.8966 11.2316C19.8343 10.8113 19.8062 10.3819 19.7948 9.90375V7.5048C19.7948 4.33488 22.3762 1.75781 25.5418 1.75781H37.1984C38.9626 1.75781 40.6384 2.31598 42.0445 3.37207C42.4326 3.66352 42.9835 3.58523 43.2751 3.19711C43.5665 2.80898 43.4882 2.25809 43.1001 1.96652C41.387 0.680039 39.3463 0 37.1983 0H25.5417C22.5942 0 20.0393 1.70883 18.8124 4.18699C14.9432 4.79777 12.1307 8.3707 12.6022 12.3956L13.4053 19.2499C12.1297 20.2334 11.3056 21.7752 11.3056 23.5066V23.5343C11.3056 26.3173 13.4323 28.6126 16.1458 28.8812C17.0653 33.0873 19.865 36.5978 23.6169 38.4843V41.0742H17.3587C13.3872 41.0742 10.1564 44.3052 10.1564 48.2766V51.1137C10.1564 51.5991 10.5499 51.9926 11.0353 51.9926C11.5207 51.9926 11.9142 51.5991 11.9142 51.1137V48.2766C11.9142 45.2745 14.3566 42.832 17.3587 42.832H23.6169V42.9336C23.6169 46.4532 26.4802 49.3166 29.9998 49.3166C33.5195 49.3166 36.3828 46.4532 36.3828 42.9336V42.832H42.641C45.6431 42.832 48.0855 45.2745 48.0855 48.2766V58.2422H11.9141V55.2152C11.9141 54.7298 11.5205 54.3363 11.0352 54.3363C10.5498 54.3363 10.1562 54.7298 10.1562 55.2152V59.1211C10.1562 59.6065 10.5498 60 11.0352 60H48.9644C49.4498 60 49.8433 59.6065 49.8433 59.1211V48.2766C49.8434 44.3052 46.6125 41.0742 42.641 41.0742ZM44.0923 19.983C45.6962 20.3527 46.8955 21.7923 46.8955 23.5068V23.5344C46.8955 25.249 45.6959 26.6886 44.092 27.0582C44.1871 25.9371 44.1555 20.7338 44.0923 19.983ZM13.0634 23.5344V23.5068C13.0634 21.7902 14.2652 20.3518 15.869 19.9843C15.817 20.6161 15.7557 25.7027 15.8708 27.0591C14.265 26.6909 13.0634 25.2503 13.0634 23.5344ZM16.1413 18.1601C16.0241 18.176 15.6233 18.2053 15.073 18.3782L14.348 12.1912C14.022 9.40875 15.7471 6.96422 18.1593 6.14918C18.0171 6.92566 17.9405 10.1251 18.1616 11.5136C18.2302 11.9692 18.3328 12.4269 18.4872 12.9156C17.3911 14.4328 16.5646 16.2013 16.1413 18.1601ZM34.625 42.9336C34.625 45.484 32.5502 47.5588 29.9998 47.5588C27.4495 47.5588 25.3747 45.484 25.3747 42.9336C25.3747 41.7323 25.3747 40.8431 25.3747 39.2237C28.3443 40.2405 31.6662 40.2329 34.625 39.2106V42.9336ZM35.1379 37.1021C27.8554 40.4374 19.0634 36.0266 17.738 27.8481C17.4529 26.08 17.5302 20.4503 17.7429 19.1544C17.9925 17.6336 18.5329 16.1659 19.3241 14.8406C20.743 17.3411 23.2646 19.21 26.2503 19.7368C27.5826 19.9748 27.3059 19.8909 42.3159 19.8909C42.37 20.4139 42.5156 26.049 42.2244 27.8509C41.5848 31.7909 39.0344 35.317 35.1379 37.1021Z" fill="black"/>
</g>
<defs>
<clipPath id="clip0">
<rect width="60" height="60" fill="white"/>
</clipPath>
</defs>
</svg>
