<svg width="19" height="19" viewBox="0 0 19 19" fill="none" xmlns="http://www.w3.org/2000/svg">
<path fill-rule="evenodd" clip-rule="evenodd" d="M7.91797 9.50033C7.91797 8.62587 8.62685 7.91699 9.5013 7.91699C10.3758 7.91699 11.0846 8.62587 11.0846 9.50033C11.0846 10.3748 10.3758 11.0837 9.5013 11.0837C8.62685 11.0837 7.91797 10.3748 7.91797 9.50033Z" fill="black"/>
<path fill-rule="evenodd" clip-rule="evenodd" d="M7.91797 3.95833C7.91797 3.08388 8.62685 2.375 9.5013 2.375C10.3758 2.375 11.0846 3.08388 11.0846 3.95833C11.0846 4.83278 10.3758 5.54167 9.5013 5.54167C8.62685 5.54167 7.91797 4.83278 7.91797 3.95833Z" fill="black"/>
<path fill-rule="evenodd" clip-rule="evenodd" d="M7.91797 15.0413C7.91797 14.1669 8.62685 13.458 9.5013 13.458C10.3758 13.458 11.0846 14.1669 11.0846 15.0413C11.0846 15.9158 10.3758 16.6247 9.5013 16.6247C8.62685 16.6247 7.91797 15.9158 7.91797 15.0413Z" fill="black"/>
</svg>
