<svg width="27" height="27" viewBox="0 0 27 27" fill="none" xmlns="http://www.w3.org/2000/svg">
<rect width="27" height="27" rx="2" fill="black"/>
<path d="M13.5 20.25C14.1213 20.25 14.625 19.7463 14.625 19.125C14.625 18.5037 14.1213 18 13.5 18C12.8787 18 12.375 18.5037 12.375 19.125C12.375 19.7463 12.8787 20.25 13.5 20.25Z" fill="#FFF63D"/>
<path fill-rule="evenodd" clip-rule="evenodd" d="M13.9005 9.63203C13.3542 9.65601 13.0629 9.8758 12.9621 10.0901C12.6975 10.6522 12.0273 10.8935 11.4651 10.6289C10.9029 10.3643 10.6617 9.69408 10.9263 9.13191C11.5137 7.88372 12.7793 7.42907 13.8018 7.38419C14.7855 7.34102 16.0095 7.65433 16.6867 8.53741C17.2079 9.21697 17.5006 10.0784 17.3824 10.9841C17.2625 11.9025 16.7387 12.7263 15.8887 13.3517C14.7536 14.1867 14.7556 14.6127 14.7559 14.6748C14.7559 14.6757 14.7559 14.6765 14.7559 14.6772C14.7559 15.2986 14.2523 15.8022 13.6309 15.8022C13.0096 15.8022 12.5059 15.2986 12.5059 14.6772C12.5059 13.6009 13.132 12.5864 14.5553 11.5393C14.9929 11.2174 15.1231 10.9094 15.1513 10.6929C15.1812 10.4637 15.1163 10.1869 14.9013 9.9066C14.8862 9.88688 14.804 9.80482 14.5982 9.73087C14.4018 9.66028 14.1548 9.62087 13.9005 9.63203Z" fill="#FFF63D"/>
<path d="M13.5 25.875C6.6375 25.875 1.125 20.3625 1.125 13.5C1.125 6.6375 6.6375 1.125 13.5 1.125C20.3625 1.125 25.875 6.6375 25.875 13.5C25.875 20.3625 20.3625 25.875 13.5 25.875ZM13.5 3.375C7.875 3.375 3.375 7.875 3.375 13.5C3.375 19.125 7.875 23.625 13.5 23.625C19.125 23.625 23.625 19.125 23.625 13.5C23.625 7.875 19.125 3.375 13.5 3.375Z" fill="black"/>
</svg>
