<svg id="square" viewBox="0 0 20 20" fill="none" xmlns="http://www.w3.org/2000/svg">
  <path fill-rule="evenodd" clip-rule="evenodd"
        d="M4.16663 3.33268C3.70639 3.33268 3.33329 3.70578 3.33329 4.16602V15.8327C3.33329 16.2929 3.70639 16.666 4.16663 16.666H15.8333C16.2935 16.666 16.6666 16.2929 16.6666 15.8327V4.16602C16.6666 3.70578 16.2935 3.33268 15.8333 3.33268H4.16663ZM1.66663 4.16602C1.66663 2.7853 2.78591 1.66602 4.16663 1.66602H15.8333C17.214 1.66602 18.3333 2.7853 18.3333 4.16602V15.8327C18.3333 17.2134 17.214 18.3327 15.8333 18.3327H4.16663C2.78591 18.3327 1.66663 17.2134 1.66663 15.8327V4.16602Z"
        fill="currentColor"/>
</svg>
