<svg width="19" height="19" viewBox="0 0 19 19" fill="none" xmlns="http://www.w3.org/2000/svg">
  <path fill-rule="evenodd" clip-rule="evenodd"
        d="M9.49986 0.792969C9.80118 0.792969 10.0764 0.964026 10.2098 1.23422L12.472 5.81726L17.531 6.55671C17.8291 6.60028 18.0767 6.80929 18.1696 7.09588C18.2625 7.38247 18.1847 7.69696 17.9689 7.90717L14.3089 11.4721L15.1726 16.5083C15.2236 16.8053 15.1015 17.1055 14.8576 17.2826C14.6138 17.4598 14.2906 17.4831 14.0239 17.3428L9.49986 14.9637L4.97584 17.3428C4.70912 17.4831 4.38589 17.4598 4.14207 17.2826C3.89825 17.1055 3.77614 16.8053 3.82709 16.5083L4.69086 11.4721L1.03082 7.90717C0.814999 7.69696 0.7372 7.38247 0.830124 7.09588C0.923048 6.80929 1.17059 6.60028 1.4687 6.55671L6.52774 5.81726L8.78997 1.23422C8.92334 0.964026 9.19854 0.792969 9.49986 0.792969Z"
        fill="#fff63d"/>
</svg>