<svg width="18" height="18" viewBox="0 0 18 18" fill="none" xmlns="http://www.w3.org/2000/svg">
<path fill-rule="evenodd" clip-rule="evenodd" d="M8.25 3.75C6.17893 3.75 4.5 5.42893 4.5 7.5V8.25V13.5H2.25C1.42157 13.5 0.75 12.8284 0.75 12V9C0.75 8.17157 1.42157 7.5 2.25 7.5L3 7.5C3 4.6005 5.35051 2.25 8.25 2.25H9.75C12.6495 2.25 15 4.60051 15 7.5H15.75C16.5784 7.5 17.25 8.17157 17.25 9V12C17.25 12.8284 16.5784 13.5 15.75 13.5H14.9055C14.5725 14.7939 13.3979 15.75 12 15.75H11.0493C10.79 16.1984 10.3052 16.5 9.75 16.5C8.92157 16.5 8.25 15.8284 8.25 15C8.25 14.1716 8.92157 13.5 9.75 13.5C10.3052 13.5 10.79 13.8016 11.0493 14.25H12C12.8284 14.25 13.5 13.5784 13.5 12.75V8.25V7.5C13.5 5.42893 11.8211 3.75 9.75 3.75H8.25ZM3 9H2.25L2.25 12H3V9ZM8.25 9.1875C8.25 9.70527 7.83027 10.125 7.3125 10.125C6.79473 10.125 6.375 9.70527 6.375 9.1875C6.375 8.66973 6.79473 8.25 7.3125 8.25C7.83027 8.25 8.25 8.66973 8.25 9.1875ZM10.6875 10.125C11.2053 10.125 11.625 9.70527 11.625 9.1875C11.625 8.66973 11.2053 8.25 10.6875 8.25C10.1697 8.25 9.75 8.66973 9.75 9.1875C9.75 9.70527 10.1697 10.125 10.6875 10.125ZM15 9H15.75V12H15V9Z" fill="#000000"/>
</svg>
