<svg width="49" height="49" viewBox="0 0 49 49" fill="none" xmlns="http://www.w3.org/2000/svg">
  <rect x="0.5" y="0.5" width="48" height="48" rx="3.5" fill="#FFF63D" stroke="black"/>
  <path d="M34.44 22.529L30.3382 18.0214C29.5266 17.2098 28.2044 17.2087 27.3851 18.0279C27.1255 18.2876 26.9488 18.5985 26.8571 18.9301C26.0412 18.3051 24.8641 18.3672 24.1124 19.1189C23.8539 19.3785 23.6771 19.6894 23.5833 20.02C22.7673 19.3971 21.5902 19.4581 20.8397 20.2098C20.5855 20.464 20.4109 20.7672 20.316 21.0901L18.3829 19.157C17.5713 18.3454 16.2491 18.3443 15.4298 19.1636C14.6171 19.9752 14.6171 21.2974 15.4298 22.1101L22.8567 29.537L18.4516 30.2286C17.2614 30.3988 16.3636 31.433 16.3636 32.6363C16.3636 33.5385 17.0978 34.2727 18 34.2727H28.2862C29.8888 34.2727 31.3953 33.6486 32.5287 32.5152L34.2447 30.7992C35.3771 29.6679 36 28.1625 36 26.5621C36 25.0675 35.4458 23.6352 34.44 22.529ZM33.4734 30.0279L31.7574 31.7439C30.8302 32.6712 29.5974 33.1817 28.2861 33.1817H18C17.6989 33.1817 17.4545 32.9373 17.4545 32.6362C17.4545 31.9729 17.9497 31.4024 18.6141 31.3075L24.085 30.4479C24.2879 30.4162 24.4549 30.2733 24.5192 30.078C24.5825 29.8839 24.5313 29.6689 24.3861 29.5239L16.2011 21.3388C15.8138 20.9516 15.8138 20.321 16.2066 19.9272C16.4007 19.7341 16.6549 19.637 16.9091 19.637C17.1633 19.637 17.4175 19.7341 17.6117 19.9283L23.0695 25.3861C23.2822 25.5988 23.6281 25.5988 23.8408 25.3861C23.9466 25.2792 24.0001 25.1396 24.0001 24.9999C24.0001 24.8603 23.9467 24.7207 23.8397 24.6138L21.611 22.385C21.2238 21.9978 21.2238 21.3683 21.6176 20.9745C22.0037 20.5883 22.6354 20.5883 23.0216 20.9745L25.2514 23.2043C25.4641 23.417 25.8099 23.417 26.0226 23.2043C26.1285 23.0974 26.1819 22.9578 26.1819 22.8181C26.1819 22.6784 26.1285 22.5388 26.0216 22.4319L24.8837 21.2941C24.4965 20.9068 24.4965 20.2773 24.8903 19.8835C25.2765 19.4974 25.9081 19.4974 26.2943 19.8835L27.4375 21.0268C27.4397 21.0279 27.4386 21.0279 27.4386 21.0279L27.4397 21.0289C27.4408 21.03 27.4408 21.03 27.4408 21.03C27.4418 21.0311 27.4418 21.0311 27.4418 21.0311H27.4429C27.444 21.0311 27.444 21.0322 27.444 21.0322C27.6578 21.2351 27.996 21.2307 28.2043 21.0213C28.4171 20.8085 28.4171 20.4627 28.2043 20.25L28.1574 20.2031C27.9698 20.0155 27.8662 19.7656 27.8662 19.5005C27.8662 19.2354 27.9687 18.9867 28.1629 18.7925C28.5513 18.4064 29.1797 18.4074 29.5495 18.774L33.6338 23.2631C34.4552 24.1675 34.9091 25.3392 34.9091 26.5621C34.9091 27.8712 34.3996 29.1017 33.4734 30.0279Z" fill="black"/>
  <path d="M21.3774 18.6218C20.5833 16.8643 18.8291 15.7275 16.9091 15.7275C14.2025 15.7275 12 17.9301 12 20.6366C12 22.5567 13.1367 24.3108 14.8942 25.1061C14.9672 25.1388 15.0436 25.1541 15.1189 25.1541C15.3262 25.1541 15.5247 25.0341 15.6164 24.8334C15.7397 24.5585 15.6174 24.2356 15.3437 24.1112C13.9757 23.4927 13.0909 22.129 13.0909 20.6366C13.0909 18.5312 14.8037 16.8184 16.9091 16.8184C18.4015 16.8184 19.7652 17.7031 20.3837 19.0711C20.507 19.3461 20.831 19.4693 21.1048 19.3439C21.3796 19.2195 21.5018 18.8967 21.3774 18.6218Z" fill="black"/>
</svg>
