<svg width="52" height="52" viewBox="0 0 52 52" fill="none" xmlns="http://www.w3.org/2000/svg">
<rect width="52" height="52" rx="4" fill="#FFF63D"/>
<path d="M33.8269 16.9043H18.1731C16.4234 16.9043 15 18.3277 15 20.0774V31.9235C15 33.6732 16.4234 35.0966 18.1731 35.0966H33.8269C35.5766 35.0966 37 33.6732 37 31.9235V20.0774C37 18.3277 35.5766 16.9043 33.8269 16.9043ZM35.7308 27.9043H31.0769C30.0272 27.9043 29.1731 27.0503 29.1731 26.0004C29.1731 24.9506 30.0271 24.0966 31.0769 24.0966H35.7308V27.9043ZM35.7308 22.8274H31.0769C29.3273 22.8274 27.9039 24.2508 27.9039 26.0004C27.9039 27.7501 29.3273 29.1735 31.0769 29.1735H35.7308V31.9235C35.7308 32.9733 34.8767 33.8274 33.8269 33.8274H18.1731C17.1233 33.8274 16.2692 32.9733 16.2692 31.9235V20.0774C16.2692 19.0276 17.1233 18.1735 18.1731 18.1735H33.8269C34.8767 18.1735 35.7308 19.0276 35.7308 20.0774V22.8274Z" fill="black"/>
<path d="M31.9232 25.3652H31.077C30.7266 25.3652 30.4424 25.6494 30.4424 25.9998C30.4424 26.3503 30.7266 26.6344 31.077 26.6344H31.9232C32.2737 26.6344 32.5578 26.3503 32.5578 25.9998C32.5578 25.6493 32.2737 25.3652 31.9232 25.3652Z" fill="black"/>
</svg>
