<svg width="21" height="21" viewBox="0 0 21 21" fill="none" xmlns="http://www.w3.org/2000/svg">
<path d="M17.1411 2.63223H3.85905C2.29166 2.63223 1.01675 3.90714 1.01675 5.47453V15.5258C1.01675 17.0932 2.29166 18.3681 3.85905 18.3681H17.1411C18.7085 18.3681 19.9834 17.0932 19.9834 15.5258V5.47453C19.9834 3.90714 18.7085 2.63223 17.1411 2.63223ZM18.6065 11.9656H14.8078C13.9999 11.9656 13.3424 11.3081 13.3424 10.5002C13.3424 9.69226 13.9999 9.03477 14.8078 9.03477H18.6065V11.9656ZM18.6065 7.65786H14.8078C13.2404 7.65786 11.9655 8.93277 11.9655 10.5002C11.9655 12.0676 13.2404 13.3425 14.8078 13.3425H18.6065V15.5258C18.6065 16.3337 17.949 16.9912 17.1411 16.9912H3.85905C3.05118 16.9912 2.39365 16.3337 2.39365 15.5258V5.47453C2.39365 4.66666 3.05115 4.00913 3.85905 4.00913H17.1411C17.949 4.00913 18.6065 4.66662 18.6065 5.47453V7.65786Z" fill="#000000" stroke="#000000" stroke-width="0.3"/>
<path d="M16.5802 9.74453H15.7725C15.3551 9.74453 15.0167 10.0829 15.0167 10.5003C15.0167 10.9177 15.3551 11.2561 15.7725 11.2561H16.5802C16.9976 11.2561 17.3359 10.9177 17.3359 10.5003C17.3359 10.0829 16.9976 9.74453 16.5802 9.74453Z" fill="#000000" stroke="#000000" stroke-width="0.3"/>
</svg>
