<svg width="21" height="21" viewBox="0 0 21 21" fill="none" xmlns="http://www.w3.org/2000/svg">
<path d="M15.0692 5.92905L15.0692 5.92905C14.8773 5.73725 14.7715 5.48067 14.7716 5.20555C14.7716 4.93042 14.8774 4.67387 15.0692 4.48203L17.7184 1.83281C17.8778 1.67336 17.9489 1.44575 17.9085 1.22385C17.8681 1.00199 17.7214 0.814052 17.5159 0.72102L17.4786 0.803439L17.5159 0.721016C16.5005 0.261317 15.3812 0.119411 14.2791 0.310467L14.2946 0.399577L14.2791 0.310468C13.151 0.506052 12.1252 1.0389 11.3131 1.85094L11.3771 1.91492L11.3131 1.85095C9.82742 3.33667 9.36425 5.46291 9.92209 7.34819L3.90917 13.3611C2.93655 13.3665 2.00386 13.7525 1.30983 14.4466C-0.13537 15.8918 -0.13537 18.2431 1.30983 19.6883C2.03256 20.4111 2.98168 20.7724 3.93073 20.7723C4.87951 20.7722 5.82902 20.4109 6.5516 19.6884C7.24558 18.9944 7.63163 18.0617 7.63699 17.0891L13.6471 11.079C14.1545 11.2295 14.6864 11.3075 15.2302 11.3075C16.7097 11.3075 18.101 10.7312 19.1472 9.68507C19.9593 8.87302 20.4921 7.84726 20.6877 6.71909C20.8788 5.61701 20.7369 4.49764 20.2772 3.4823C20.1842 3.27684 19.9963 3.13009 19.7744 3.08969L19.7582 3.1787L19.7744 3.08969C19.5523 3.04929 19.3249 3.12034 19.1654 3.27983L16.5162 5.92905C16.3244 6.12089 16.0678 6.22667 15.7927 6.22667C15.5176 6.22667 15.261 6.12089 15.0692 5.92905ZM6.25471 16.8721L6.25471 16.8721C6.31201 17.5584 6.06604 18.2305 5.57997 18.7166C4.67067 19.6259 3.19085 19.6259 2.28155 18.7166C1.37225 17.8073 1.37225 16.3275 2.28155 15.4182L2.21757 15.3542L2.28155 15.4182C2.76763 14.9321 3.44012 14.6861 4.12615 14.7434L4.12622 14.7434C4.32751 14.7601 4.52615 14.6875 4.66914 14.5445L10.5235 8.69013C10.7432 9.04394 11.0064 9.37816 11.3132 9.68495C11.6174 9.98912 11.9509 10.2534 12.3072 10.4755L6.4536 16.3291C6.31068 16.472 6.23795 16.6706 6.25471 16.8721ZM14.0975 6.90069L14.1615 6.83671L14.0975 6.90069C14.549 7.35213 15.1513 7.6008 15.7927 7.6008C16.4342 7.6008 17.0365 7.35213 17.4879 6.90069L19.3333 5.0554C19.5571 6.36806 19.1419 7.74691 18.1755 8.71331C17.3887 9.50013 16.343 9.93329 15.2302 9.93329C14.1174 9.93329 13.0717 9.50013 12.2849 8.71331C10.6609 7.08931 10.6609 4.44662 12.2849 2.82262C13.0799 2.02764 14.1537 1.60563 15.2407 1.60563C15.4751 1.60563 15.71 1.62524 15.9428 1.66497L14.0975 3.51028C13.6461 3.96171 13.3974 4.56408 13.3974 5.20546C13.3974 5.84685 13.6461 6.44925 14.0975 6.90069Z" fill="black" stroke="black" stroke-width="0.180952"/>
</svg>
