<svg width="80" height="87" viewBox="0 0 80 87" fill="none" xmlns="http://www.w3.org/2000/svg">
<path d="M35.25 45.2188C35.25 53.3021 33.8958 59.2292 31.1875 63C28.4792 66.75 24.3333 68.625 18.75 68.625C13.2917 68.625 9.17708 66.6667 6.40625 62.75C3.63542 58.8125 2.25 52.9688 2.25 45.2188C2.25 37.0938 3.60417 31.1354 6.3125 27.3438C9.02083 23.5521 13.1667 21.6562 18.75 21.6562C24.1875 21.6562 28.2917 23.6354 31.0625 27.5938C33.8542 31.5312 35.25 37.4062 35.25 45.2188ZM14.5312 45.2188C14.5312 50.3854 14.8542 53.9375 15.5 55.875C16.1458 57.8125 17.2292 58.7812 18.75 58.7812C20.2917 58.7812 21.375 57.7812 22 55.7812C22.6458 53.7812 22.9688 50.2604 22.9688 45.2188C22.9688 40.1562 22.6458 36.6146 22 34.5938C21.3542 32.5521 20.2708 31.5312 18.75 31.5312C17.2292 31.5312 16.1458 32.5104 15.5 34.4688C14.8542 36.4271 14.5312 40.0104 14.5312 45.2188ZM66.9375 68H54.4062V43.8125C54.4062 40.875 54.4688 38.1875 54.5938 35.75C53.8229 36.6875 52.8646 37.6667 51.7188 38.6875L46.5312 42.9688L40.125 35.0938L55.8125 22.3125H66.9375V68Z" fill="black"/>
<path d="M36.1875 63L36.9982 63.5855L36.9997 63.5834L36.1875 63ZM11.4062 62.75L10.5884 63.3255L10.5899 63.3275L11.4062 62.75ZM36.0625 27.5938L35.2433 28.1672L35.2467 28.1721L36.0625 27.5938ZM27 55.7812L26.0483 55.4739L26.0455 55.483L27 55.7812ZM27 34.5938L26.0466 34.8953L26.0475 34.8982L27 34.5938ZM20.5 34.4688L21.4497 34.7819L20.5 34.4688ZM39.25 45.2188C39.25 53.2306 37.9002 58.9011 35.3753 62.4166L36.9997 63.5834C39.8914 59.5572 41.25 53.3736 41.25 45.2188H39.25ZM35.3768 62.4145C32.8965 65.8488 29.0873 67.625 23.75 67.625V69.625C29.5793 69.625 34.0618 67.6512 36.9982 63.5855L35.3768 62.4145ZM23.75 67.625C18.5646 67.625 14.7781 65.7847 12.2226 62.1725L10.5899 63.3275C13.5761 67.5487 18.0187 69.625 23.75 69.625V67.625ZM12.2241 62.1745C9.62423 58.48 8.25 52.8779 8.25 45.2188H6.25C6.25 53.0596 7.64661 59.145 10.5884 63.3255L12.2241 62.1745ZM8.25 45.2188C8.25 37.1646 9.59994 31.4618 12.1262 27.925L10.4988 26.7625C7.60839 30.809 6.25 37.0229 6.25 45.2188H8.25ZM12.1262 27.925C14.6083 24.4501 18.417 22.6562 23.75 22.6562V20.6562C17.9164 20.6562 13.4334 22.654 10.4988 26.7625L12.1262 27.925ZM23.75 22.6562C28.9087 22.6562 32.6852 24.5129 35.2433 28.1672L36.8817 27.0203C33.8981 22.7579 29.4663 20.6562 23.75 20.6562V22.6562ZM35.2467 28.1721C37.865 31.865 39.25 37.4961 39.25 45.2188H41.25C41.25 37.3164 39.8434 31.1975 36.8783 27.0154L35.2467 28.1721ZM18.5312 45.2188C18.5312 50.3776 18.848 54.0813 19.5513 56.1912L21.4487 55.5588C20.8603 53.7937 20.5312 50.3932 20.5312 45.2188H18.5312ZM19.5513 56.1912C19.9081 57.2617 20.4167 58.162 21.1303 58.8001C21.8644 59.4566 22.7562 59.7812 23.75 59.7812V57.7812C23.223 57.7812 22.8127 57.6215 22.4635 57.3093C22.0937 56.9786 21.7377 56.4258 21.4487 55.5588L19.5513 56.1912ZM23.75 59.7812C24.7596 59.7812 25.6616 59.445 26.397 58.7661C27.1104 58.1075 27.6105 57.1802 27.9545 56.0795L26.0455 55.483C25.7645 56.3823 25.4104 56.955 25.0405 57.2964C24.6926 57.6175 24.2821 57.7812 23.75 57.7812V59.7812ZM27.9516 56.0885C28.6508 53.9233 28.9688 50.2595 28.9688 45.2188H26.9688C26.9688 50.2613 26.6409 53.6392 26.0484 55.474L27.9516 56.0885ZM28.9688 45.2188C28.9688 40.1565 28.6506 36.4737 27.9525 34.2893L26.0475 34.8982C26.641 36.7555 26.9688 40.156 26.9688 45.2188H28.9688ZM27.9534 34.2922C27.6003 33.1756 27.0973 32.2366 26.3889 31.5691C25.6573 30.8797 24.7592 30.5312 23.75 30.5312V32.5312C24.2616 32.5312 24.6656 32.6933 25.0173 33.0247C25.3923 33.378 25.7539 33.9702 26.0466 34.8953L27.9534 34.2922ZM23.75 30.5312C22.7531 30.5312 21.86 30.8606 21.1263 31.5238C20.4138 32.1678 19.9064 33.0759 19.5503 34.1556L21.4497 34.7819C21.7395 33.9033 22.0967 33.3426 22.4674 33.0075C22.8171 32.6915 23.2261 32.5312 23.75 32.5312V30.5312ZM19.5503 34.1556C18.8482 36.2847 18.5312 40.0179 18.5312 45.2188H20.5312C20.5312 40.0029 20.8602 36.5695 21.4497 34.7819L19.5503 34.1556ZM71.9375 68V69H72.9375V68H71.9375ZM59.4062 68H58.4062V69H59.4062V68ZM59.5938 35.75L60.5924 35.8012L60.7478 32.7719L58.8213 35.1149L59.5938 35.75ZM56.7188 38.6875L57.3553 39.4588L57.3698 39.4467L57.384 39.4342L56.7188 38.6875ZM51.5312 42.9688L50.7555 43.5998L51.391 44.381L52.1678 43.74L51.5312 42.9688ZM45.125 35.0938L44.4934 34.3185L43.7187 34.9496L44.3493 35.7248L45.125 35.0938ZM60.8125 22.3125V21.3125H60.4567L60.1809 21.5372L60.8125 22.3125ZM71.9375 22.3125H72.9375V21.3125H71.9375V22.3125ZM71.9375 67H59.4062V69H71.9375V67ZM60.4062 68V43.8125H58.4062V68H60.4062ZM60.4062 43.8125C60.4062 40.8888 60.4685 38.2187 60.5924 35.8012L58.5951 35.6988C58.469 38.1563 58.4062 40.8612 58.4062 43.8125H60.4062ZM58.8213 35.1149C58.0905 36.0037 57.1704 36.9458 56.0535 37.9408L57.384 39.4342C58.5588 38.3875 59.5553 37.3713 60.3662 36.3851L58.8213 35.1149ZM56.0822 37.9162L50.8947 42.1975L52.1678 43.74L57.3553 39.4588L56.0822 37.9162ZM52.307 42.3377L45.9007 34.4627L44.3493 35.7248L50.7555 43.5998L52.307 42.3377ZM45.7566 35.869L61.4441 23.0878L60.1809 21.5372L44.4934 34.3185L45.7566 35.869ZM60.8125 23.3125H71.9375V21.3125H60.8125V23.3125ZM70.9375 22.3125V68H72.9375V22.3125H70.9375Z" fill="black"/>
</svg>
