<svg width="80" height="87" viewBox="0 0 80 87" fill="none" xmlns="http://www.w3.org/2000/svg">
<path d="M35.25 45.2188C35.25 53.3021 33.8958 59.2292 31.1875 63C28.4792 66.75 24.3333 68.625 18.75 68.625C13.2917 68.625 9.17708 66.6667 6.40625 62.75C3.63542 58.8125 2.25 52.9688 2.25 45.2188C2.25 37.0938 3.60417 31.1354 6.3125 27.3438C9.02083 23.5521 13.1667 21.6562 18.75 21.6562C24.1875 21.6562 28.2917 23.6354 31.0625 27.5938C33.8542 31.5312 35.25 37.4062 35.25 45.2188ZM14.5312 45.2188C14.5312 50.3854 14.8542 53.9375 15.5 55.875C16.1458 57.8125 17.2292 58.7812 18.75 58.7812C20.2917 58.7812 21.375 57.7812 22 55.7812C22.6458 53.7812 22.9688 50.2604 22.9688 45.2188C22.9688 40.1562 22.6458 36.6146 22 34.5938C21.3542 32.5521 20.2708 31.5312 18.75 31.5312C17.2292 31.5312 16.1458 32.5104 15.5 34.4688C14.8542 36.4271 14.5312 40.0104 14.5312 45.2188ZM72.5625 68H39.4062V59.875L50.5625 48.5938C53.75 45.2604 55.8333 42.9896 56.8125 41.7812C57.7917 40.5521 58.4688 39.5 58.8438 38.625C59.2396 37.75 59.4375 36.8333 59.4375 35.875C59.4375 34.6875 59.0521 33.75 58.2812 33.0625C57.5104 32.375 56.4271 32.0312 55.0312 32.0312C53.5938 32.0312 52.1354 32.4479 50.6562 33.2812C49.1979 34.0938 47.5417 35.3021 45.6875 36.9062L38.9062 28.9688C41.2604 26.8646 43.2396 25.3646 44.8438 24.4688C46.4479 23.5521 48.1875 22.8542 50.0625 22.375C51.9583 21.8958 54.0833 21.6562 56.4375 21.6562C59.3958 21.6562 62.0312 22.1771 64.3438 23.2188C66.6771 24.2604 68.4792 25.75 69.75 27.6875C71.0417 29.6042 71.6875 31.7604 71.6875 34.1562C71.6875 35.9479 71.4583 37.6042 71 39.125C70.5625 40.6458 69.875 42.1458 68.9375 43.625C68 45.0833 66.75 46.625 65.1875 48.25C63.6458 49.875 60.3438 52.9583 55.2812 57.5V57.8125H72.5625V68Z" fill="black"/>
<path d="M36.1875 63L36.9982 63.5855L36.9997 63.5834L36.1875 63ZM11.4062 62.75L10.5884 63.3255L10.5899 63.3275L11.4062 62.75ZM36.0625 27.5938L35.2433 28.1672L35.2467 28.1721L36.0625 27.5938ZM27 55.7812L26.0483 55.4739L26.0455 55.483L27 55.7812ZM27 34.5938L26.0466 34.8953L26.0475 34.8982L27 34.5938ZM20.5 34.4688L21.4497 34.7819L20.5 34.4688ZM39.25 45.2188C39.25 53.2306 37.9002 58.9011 35.3753 62.4166L36.9997 63.5834C39.8914 59.5572 41.25 53.3736 41.25 45.2188H39.25ZM35.3768 62.4145C32.8965 65.8488 29.0873 67.625 23.75 67.625V69.625C29.5793 69.625 34.0618 67.6512 36.9982 63.5855L35.3768 62.4145ZM23.75 67.625C18.5646 67.625 14.7781 65.7847 12.2226 62.1725L10.5899 63.3275C13.5761 67.5487 18.0187 69.625 23.75 69.625V67.625ZM12.2241 62.1745C9.62423 58.48 8.25 52.8779 8.25 45.2188H6.25C6.25 53.0596 7.64661 59.145 10.5884 63.3255L12.2241 62.1745ZM8.25 45.2188C8.25 37.1646 9.59994 31.4618 12.1262 27.925L10.4988 26.7625C7.60839 30.809 6.25 37.0229 6.25 45.2188H8.25ZM12.1262 27.925C14.6083 24.4501 18.417 22.6562 23.75 22.6562V20.6562C17.9164 20.6562 13.4334 22.654 10.4988 26.7625L12.1262 27.925ZM23.75 22.6562C28.9087 22.6562 32.6852 24.5129 35.2433 28.1672L36.8817 27.0203C33.8981 22.7579 29.4663 20.6562 23.75 20.6562V22.6562ZM35.2467 28.1721C37.865 31.865 39.25 37.4961 39.25 45.2188H41.25C41.25 37.3164 39.8434 31.1975 36.8783 27.0154L35.2467 28.1721ZM18.5312 45.2188C18.5312 50.3776 18.848 54.0813 19.5513 56.1912L21.4487 55.5588C20.8603 53.7937 20.5312 50.3932 20.5312 45.2188H18.5312ZM19.5513 56.1912C19.9081 57.2617 20.4167 58.162 21.1303 58.8001C21.8644 59.4566 22.7562 59.7812 23.75 59.7812V57.7812C23.223 57.7812 22.8127 57.6215 22.4635 57.3093C22.0937 56.9786 21.7377 56.4258 21.4487 55.5588L19.5513 56.1912ZM23.75 59.7812C24.7596 59.7812 25.6616 59.445 26.397 58.7661C27.1104 58.1075 27.6105 57.1802 27.9545 56.0795L26.0455 55.483C25.7645 56.3823 25.4104 56.955 25.0405 57.2964C24.6926 57.6175 24.2821 57.7812 23.75 57.7812V59.7812ZM27.9516 56.0885C28.6508 53.9233 28.9688 50.2595 28.9688 45.2188H26.9688C26.9688 50.2613 26.6409 53.6392 26.0484 55.474L27.9516 56.0885ZM28.9688 45.2188C28.9688 40.1565 28.6506 36.4737 27.9525 34.2893L26.0475 34.8982C26.641 36.7555 26.9688 40.156 26.9688 45.2188H28.9688ZM27.9534 34.2922C27.6003 33.1756 27.0973 32.2366 26.3889 31.5691C25.6573 30.8797 24.7592 30.5312 23.75 30.5312V32.5312C24.2616 32.5312 24.6656 32.6933 25.0173 33.0247C25.3923 33.378 25.7539 33.9702 26.0466 34.8953L27.9534 34.2922ZM23.75 30.5312C22.7531 30.5312 21.86 30.8606 21.1263 31.5238C20.4138 32.1678 19.9064 33.0759 19.5503 34.1556L21.4497 34.7819C21.7395 33.9033 22.0967 33.3426 22.4674 33.0075C22.8171 32.6915 23.2261 32.5312 23.75 32.5312V30.5312ZM19.5503 34.1556C18.8482 36.2847 18.5312 40.0179 18.5312 45.2188H20.5312C20.5312 40.0029 20.8602 36.5695 21.4497 34.7819L19.5503 34.1556ZM77.5625 68V69H78.5625V68H77.5625ZM44.4062 68H43.4062V69H44.4062V68ZM44.4062 59.875L43.6952 59.1718L43.4062 59.464V59.875H44.4062ZM55.5625 48.5938L56.2735 49.2969L56.2794 49.2909L56.2852 49.2849L55.5625 48.5938ZM61.8125 41.7812L62.5895 42.4109L62.5947 42.4043L61.8125 41.7812ZM63.8438 38.625L62.9326 38.2128L62.9285 38.2219L62.9246 38.2311L63.8438 38.625ZM55.6562 33.2812L56.143 34.1548L56.1471 34.1525L55.6562 33.2812ZM50.6875 36.9062L49.9272 37.5558L50.5808 38.3209L51.3418 37.6625L50.6875 36.9062ZM43.9062 28.9688L43.2398 28.2232L42.5108 28.8748L43.1459 29.6183L43.9062 28.9688ZM49.8438 24.4688L50.3313 25.3419L50.3399 25.337L49.8438 24.4688ZM55.0625 22.375L54.8175 21.4055L54.8149 21.4061L55.0625 22.375ZM69.3438 23.2188L68.933 24.1305L68.9361 24.1319L69.3438 23.2188ZM74.75 27.6875L73.9138 28.236L73.9207 28.2464L74.75 27.6875ZM76 39.125L75.0425 38.8364L75.039 38.8485L76 39.125ZM73.9375 43.625L74.7787 44.1658L74.7821 44.1603L73.9375 43.625ZM70.1875 48.25L69.4667 47.5569L69.462 47.5617L70.1875 48.25ZM60.2812 57.5L59.6135 56.7556L59.2812 57.0537V57.5H60.2812ZM60.2812 57.8125H59.2812V58.8125H60.2812V57.8125ZM77.5625 57.8125H78.5625V56.8125H77.5625V57.8125ZM77.5625 67H44.4062V69H77.5625V67ZM45.4062 68V59.875H43.4062V68H45.4062ZM45.1173 60.5782L56.2735 49.2969L54.8515 47.8906L43.6952 59.1718L45.1173 60.5782ZM56.2852 49.2849C59.4682 45.9562 61.5802 43.6563 62.5894 42.4108L61.0356 41.1517C60.0865 42.3229 58.0318 44.5646 54.8398 47.9026L56.2852 49.2849ZM62.5947 42.4043C63.5984 41.1443 64.3373 40.0119 64.7629 39.0189L62.9246 38.2311C62.6002 38.9881 61.9849 39.9599 61.0303 41.1582L62.5947 42.4043ZM64.7549 39.0372C65.2092 38.0329 65.4375 36.9758 65.4375 35.875H63.4375C63.4375 36.6909 63.27 37.4671 62.9326 38.2128L64.7549 39.0372ZM65.4375 35.875C65.4375 34.4496 64.9633 33.2227 63.9469 32.3162L62.6156 33.8088C63.1409 34.2773 63.4375 34.9254 63.4375 35.875H65.4375ZM63.9469 32.3162C62.9368 31.4153 61.5854 31.0312 60.0312 31.0312V33.0312C61.2688 33.0312 62.084 33.3347 62.6156 33.8088L63.9469 32.3162ZM60.0312 31.0312C58.393 31.0312 56.7672 31.5076 55.1654 32.41L56.1471 34.1525C57.5037 33.3882 58.7945 33.0312 60.0312 33.0312V31.0312ZM55.1695 32.4077C53.6308 33.265 51.9174 34.5198 50.0332 36.15L51.3418 37.6625C53.1659 36.0843 54.765 34.9225 56.143 34.1548L55.1695 32.4077ZM51.4478 36.2567L44.6666 28.3192L43.1459 29.6183L49.9272 37.5558L51.4478 36.2567ZM44.5727 29.7143C46.9051 27.6296 48.8209 26.1853 50.3313 25.3418L49.3562 23.5957C47.6582 24.5439 45.6157 26.0996 43.2398 28.2232L44.5727 29.7143ZM50.3399 25.337C51.8625 24.4669 53.518 23.8019 55.3101 23.3439L54.8149 21.4061C52.857 21.9065 51.0334 22.6372 49.3476 23.6005L50.3399 25.337ZM55.3075 23.3445C57.109 22.8892 59.1498 22.6562 61.4375 22.6562V20.6562C59.0169 20.6562 56.8077 20.9025 54.8175 21.4055L55.3075 23.3445ZM61.4375 22.6562C64.2776 22.6562 66.7694 23.1559 68.933 24.1305L69.7545 22.307C67.2931 21.1983 64.5141 20.6562 61.4375 20.6562V22.6562ZM68.9361 24.1319C71.1133 25.1038 72.7586 26.4748 73.9138 28.236L75.5862 27.139C74.1997 25.0252 72.2409 23.417 69.7514 22.3056L68.9361 24.1319ZM73.9207 28.2464C75.0969 29.9916 75.6875 31.9518 75.6875 34.1562H77.6875C77.6875 31.569 76.9865 29.2167 75.5793 27.1286L73.9207 28.2464ZM75.6875 34.1562C75.6875 35.8625 75.4693 37.4203 75.0425 38.8364L76.9575 39.4136C77.4473 37.788 77.6875 36.0334 77.6875 34.1562H75.6875ZM75.039 38.8485C74.6304 40.2688 73.9848 41.6824 73.0929 43.0897L74.7821 44.1603C75.7652 42.6093 76.4946 41.0228 76.961 39.4015L75.039 38.8485ZM73.0963 43.0842C72.2025 44.4746 70.9968 45.9656 69.4667 47.5569L70.9083 48.9431C72.5032 47.2844 73.7975 45.6921 74.7787 44.1658L73.0963 43.0842ZM69.462 47.5617C67.9528 49.1526 64.6813 52.2092 59.6135 56.7556L60.949 58.2444C66.0062 53.7074 69.3389 50.5974 70.913 48.9383L69.462 47.5617ZM59.2812 57.5V57.8125H61.2812V57.5H59.2812ZM60.2812 58.8125H77.5625V56.8125H60.2812V58.8125ZM76.5625 57.8125V68H78.5625V57.8125H76.5625Z" fill="black"/>
</svg>
