<svg width="80" height="87" viewBox="0 0 80 87" fill="none" xmlns="http://www.w3.org/2000/svg">
<path d="M35.25 45.2188C35.25 53.3021 33.8958 59.2292 31.1875 63C28.4792 66.75 24.3333 68.625 18.75 68.625C13.2917 68.625 9.17708 66.6667 6.40625 62.75C3.63542 58.8125 2.25 52.9688 2.25 45.2188C2.25 37.0938 3.60417 31.1354 6.3125 27.3438C9.02083 23.5521 13.1667 21.6562 18.75 21.6562C24.1875 21.6562 28.2917 23.6354 31.0625 27.5938C33.8542 31.5312 35.25 37.4062 35.25 45.2188ZM14.5312 45.2188C14.5312 50.3854 14.8542 53.9375 15.5 55.875C16.1458 57.8125 17.2292 58.7812 18.75 58.7812C20.2917 58.7812 21.375 57.7812 22 55.7812C22.6458 53.7812 22.9688 50.2604 22.9688 45.2188C22.9688 40.1562 22.6458 36.6146 22 34.5938C21.3542 32.5521 20.2708 31.5312 18.75 31.5312C17.2292 31.5312 16.1458 32.5104 15.5 34.4688C14.8542 36.4271 14.5312 40.0104 14.5312 45.2188ZM71.0312 32.2188C71.0312 35.0521 70.1667 37.4896 68.4375 39.5312C66.7083 41.5521 64.2083 43.0208 60.9375 43.9375V44.125C68.5625 45.0833 72.375 48.6875 72.375 54.9375C72.375 59.1875 70.6875 62.5312 67.3125 64.9688C63.9583 67.4062 59.2917 68.625 53.3125 68.625C50.8542 68.625 48.5729 68.4479 46.4688 68.0938C44.3854 67.7396 42.125 67.0938 39.6875 66.1562V55.9062C41.6875 56.9271 43.7188 57.6875 45.7812 58.1875C47.8646 58.6667 49.7812 58.9062 51.5312 58.9062C54.2396 58.9062 56.2083 58.5312 57.4375 57.7812C58.6875 57.0104 59.3125 55.8125 59.3125 54.1875C59.3125 52.9375 58.9896 51.9792 58.3438 51.3125C57.6979 50.625 56.6562 50.1146 55.2188 49.7812C53.7812 49.4271 51.9062 49.25 49.5938 49.25H46.7812V39.9688H49.6562C55.9271 39.9688 59.0625 38.3646 59.0625 35.1562C59.0625 33.9479 58.5938 33.0521 57.6562 32.4688C56.7396 31.8854 55.5 31.5938 53.9375 31.5938C51.0208 31.5938 48 32.5729 44.875 34.5312L39.75 26.2812C42.1667 24.6146 44.6354 23.4271 47.1562 22.7188C49.6979 22.0104 52.6042 21.6562 55.875 21.6562C60.6042 21.6562 64.3125 22.5938 67 24.4688C69.6875 26.3438 71.0312 28.9271 71.0312 32.2188Z" fill="black"/>
<path d="M36.1875 63L36.9982 63.5855L36.9997 63.5834L36.1875 63ZM11.4062 62.75L10.5884 63.3255L10.5899 63.3275L11.4062 62.75ZM36.0625 27.5938L35.2433 28.1672L35.2467 28.1721L36.0625 27.5938ZM27 55.7812L26.0483 55.4739L26.0455 55.483L27 55.7812ZM27 34.5938L26.0466 34.8953L26.0475 34.8982L27 34.5938ZM20.5 34.4688L21.4497 34.7819L20.5 34.4688ZM39.25 45.2188C39.25 53.2306 37.9002 58.9011 35.3753 62.4166L36.9997 63.5834C39.8914 59.5572 41.25 53.3736 41.25 45.2188H39.25ZM35.3768 62.4145C32.8965 65.8488 29.0873 67.625 23.75 67.625V69.625C29.5793 69.625 34.0618 67.6512 36.9982 63.5855L35.3768 62.4145ZM23.75 67.625C18.5646 67.625 14.7781 65.7847 12.2226 62.1725L10.5899 63.3275C13.5761 67.5487 18.0187 69.625 23.75 69.625V67.625ZM12.2241 62.1745C9.62423 58.48 8.25 52.8779 8.25 45.2188H6.25C6.25 53.0596 7.64661 59.145 10.5884 63.3255L12.2241 62.1745ZM8.25 45.2188C8.25 37.1646 9.59994 31.4618 12.1262 27.925L10.4988 26.7625C7.60839 30.809 6.25 37.0229 6.25 45.2188H8.25ZM12.1262 27.925C14.6083 24.4501 18.417 22.6562 23.75 22.6562V20.6562C17.9164 20.6562 13.4334 22.654 10.4988 26.7625L12.1262 27.925ZM23.75 22.6562C28.9087 22.6562 32.6852 24.5129 35.2433 28.1672L36.8817 27.0203C33.8981 22.7579 29.4663 20.6562 23.75 20.6562V22.6562ZM35.2467 28.1721C37.865 31.865 39.25 37.4961 39.25 45.2188H41.25C41.25 37.3164 39.8434 31.1975 36.8783 27.0154L35.2467 28.1721ZM18.5312 45.2188C18.5312 50.3776 18.848 54.0813 19.5513 56.1912L21.4487 55.5588C20.8603 53.7937 20.5312 50.3932 20.5312 45.2188H18.5312ZM19.5513 56.1912C19.9081 57.2617 20.4167 58.162 21.1303 58.8001C21.8644 59.4566 22.7562 59.7812 23.75 59.7812V57.7812C23.223 57.7812 22.8127 57.6215 22.4635 57.3093C22.0937 56.9786 21.7377 56.4258 21.4487 55.5588L19.5513 56.1912ZM23.75 59.7812C24.7596 59.7812 25.6616 59.445 26.397 58.7661C27.1104 58.1075 27.6105 57.1802 27.9545 56.0795L26.0455 55.483C25.7645 56.3823 25.4104 56.955 25.0405 57.2964C24.6926 57.6175 24.2821 57.7812 23.75 57.7812V59.7812ZM27.9516 56.0885C28.6508 53.9233 28.9688 50.2595 28.9688 45.2188H26.9688C26.9688 50.2613 26.6409 53.6392 26.0484 55.474L27.9516 56.0885ZM28.9688 45.2188C28.9688 40.1565 28.6506 36.4737 27.9525 34.2893L26.0475 34.8982C26.641 36.7555 26.9688 40.156 26.9688 45.2188H28.9688ZM27.9534 34.2922C27.6003 33.1756 27.0973 32.2366 26.3889 31.5691C25.6573 30.8797 24.7592 30.5312 23.75 30.5312V32.5312C24.2616 32.5312 24.6656 32.6933 25.0173 33.0247C25.3923 33.378 25.7539 33.9702 26.0466 34.8953L27.9534 34.2922ZM23.75 30.5312C22.7531 30.5312 21.86 30.8606 21.1263 31.5238C20.4138 32.1678 19.9064 33.0759 19.5503 34.1556L21.4497 34.7819C21.7395 33.9033 22.0967 33.3426 22.4674 33.0075C22.8171 32.6915 23.2261 32.5312 23.75 32.5312V30.5312ZM19.5503 34.1556C18.8482 36.2847 18.5312 40.0179 18.5312 45.2188H20.5312C20.5312 40.0029 20.8602 36.5695 21.4497 34.7819L19.5503 34.1556ZM73.4375 39.5312L74.1973 40.1814L74.2006 40.1775L73.4375 39.5312ZM65.9375 43.9375L65.6676 42.9746L64.9375 43.1792V43.9375H65.9375ZM65.9375 44.125H64.9375V45.0072L65.8128 45.1172L65.9375 44.125ZM72.3125 64.9688L71.727 64.1581L71.7246 64.1598L72.3125 64.9688ZM51.4688 68.0938L51.3012 69.0796L51.3028 69.0799L51.4688 68.0938ZM44.6875 66.1562H43.6875V66.843L44.3285 67.0896L44.6875 66.1562ZM44.6875 55.9062L45.1421 55.0156L43.6875 54.2731V55.9062H44.6875ZM50.7812 58.1875L50.5456 59.1594L50.5571 59.1621L50.7812 58.1875ZM62.4375 57.7812L62.9584 58.6349L62.9624 58.6324L62.4375 57.7812ZM63.3438 51.3125L62.6149 51.9972L62.6202 52.0028L62.6255 52.0083L63.3438 51.3125ZM60.2188 49.7812L59.9795 50.7523L59.9929 50.7554L60.2188 49.7812ZM51.7812 49.25H50.7812V50.25H51.7812V49.25ZM51.7812 39.9688V38.9688H50.7812V39.9688H51.7812ZM62.6562 32.4688L62.1193 33.3125L62.1279 33.3178L62.6562 32.4688ZM49.875 34.5312L49.0256 35.0589L49.5553 35.9117L50.406 35.3786L49.875 34.5312ZM44.75 26.2812L44.1823 25.458L43.3976 25.9992L43.9006 26.8089L44.75 26.2812ZM52.1562 22.7188L51.8878 21.7555L51.8857 21.756L52.1562 22.7188ZM75.0312 32.2188C75.0312 34.8305 74.2411 37.0351 72.6744 38.885L74.2006 40.1775C76.0922 37.9441 77.0312 35.2736 77.0312 32.2188H75.0312ZM72.6777 38.8811C71.1087 40.7147 68.8004 42.0966 65.6676 42.9746L66.2074 44.9004C69.6163 43.945 72.308 42.3894 74.1973 40.1814L72.6777 38.8811ZM64.9375 43.9375V44.125H66.9375V43.9375H64.9375ZM65.8128 45.1172C69.5082 45.5816 72.1337 46.6712 73.8287 48.2736C75.4972 49.8509 76.375 52.0305 76.375 54.9375H78.375C78.375 51.5945 77.3466 48.847 75.2026 46.8202C73.0851 44.8184 69.9918 43.6267 66.0622 43.1328L65.8128 45.1172ZM76.375 54.9375C76.375 58.8743 74.8353 61.9132 71.727 64.1581L72.898 65.7794C76.5397 63.1493 78.375 59.5007 78.375 54.9375H76.375ZM71.7246 64.1598C68.6019 66.4291 64.1702 67.625 58.3125 67.625V69.625C64.4131 69.625 69.3148 68.3834 72.9004 65.7777L71.7246 64.1598ZM58.3125 67.625C55.9016 67.625 53.6765 67.4513 51.6347 67.1076L51.3028 69.0799C53.4693 69.4445 55.8067 69.625 58.3125 69.625V67.625ZM51.6363 67.1079C49.6315 66.7671 47.4359 66.1419 45.0465 65.2229L44.3285 67.0896C46.8141 68.0456 49.1393 68.7121 51.3012 69.0796L51.6363 67.1079ZM45.6875 66.1562V55.9062H43.6875V66.1562H45.6875ZM44.2329 56.7969C46.2984 57.8512 48.403 58.6399 50.5457 59.1594L51.0168 57.2156C49.0345 56.7351 47.0766 56.0029 45.1421 55.0156L44.2329 56.7969ZM50.5571 59.1621C52.6984 59.6546 54.6914 59.9062 56.5312 59.9062V57.9062C54.8711 57.9062 53.0308 57.6788 51.0054 57.2129L50.5571 59.1621ZM56.5312 59.9062C59.2867 59.9062 61.4866 59.5329 62.9584 58.6349L61.9166 56.9276C60.9301 57.5296 59.1925 57.9062 56.5312 57.9062V59.9062ZM62.9624 58.6324C64.5434 57.6574 65.3125 56.1153 65.3125 54.1875H63.3125C63.3125 55.5097 62.8316 56.3634 61.9126 56.9301L62.9624 58.6324ZM65.3125 54.1875C65.3125 52.77 64.9439 51.5271 64.062 50.6167L62.6255 52.0083C63.0353 52.4313 63.3125 53.105 63.3125 54.1875H65.3125ZM64.0726 50.6278C63.2349 49.7361 61.9744 49.1618 60.4446 48.8071L59.9929 50.7554C61.3381 51.0673 62.161 51.5139 62.6149 51.9972L64.0726 50.6278ZM60.458 48.8103C58.9113 48.4292 56.9472 48.25 54.5938 48.25V50.25C56.8653 50.25 58.6512 50.4249 59.9795 50.7522L60.458 48.8103ZM54.5938 48.25H51.7812V50.25H54.5938V48.25ZM52.7812 49.25V39.9688H50.7812V49.25H52.7812ZM51.7812 40.9688H54.6562V38.9688H51.7812V40.9688ZM54.6562 40.9688C57.8445 40.9688 60.3869 40.5663 62.1664 39.6559C63.0707 39.1932 63.806 38.585 64.3125 37.8076C64.8223 37.025 65.0625 36.1287 65.0625 35.1562H63.0625C63.0625 35.788 62.9107 36.2953 62.6367 36.7158C62.3594 37.1415 61.9189 37.5359 61.2555 37.8754C59.8996 38.5691 57.7388 38.9688 54.6562 38.9688V40.9688ZM65.0625 35.1562C65.0625 33.6414 64.4471 32.4053 63.1846 31.6197L62.1279 33.3178C62.7404 33.6989 63.0625 34.2544 63.0625 35.1562H65.0625ZM63.1931 31.6251C62.0603 30.9042 60.6111 30.5938 58.9375 30.5938V32.5938C60.3889 32.5938 61.4189 32.8666 62.1194 33.3124L63.1931 31.6251ZM58.9375 30.5938C55.7892 30.5938 52.5864 31.652 49.344 33.6839L50.406 35.3786C53.4136 33.4939 56.2525 32.5938 58.9375 32.5938V30.5938ZM50.7244 34.0036L45.5994 25.7536L43.9006 26.8089L49.0256 35.0589L50.7244 34.0036ZM45.3177 27.1045C47.6546 25.4929 50.024 24.3566 52.4268 23.6815L51.8857 21.756C49.2468 22.4976 46.6788 23.7363 44.1823 25.458L45.3177 27.1045ZM52.4247 23.682C54.861 23.0031 57.6742 22.6562 60.875 22.6562V20.6562C57.5342 20.6562 54.5348 21.0178 51.8878 21.7555L52.4247 23.682ZM60.875 22.6562C65.4863 22.6562 68.9675 23.5724 71.4278 25.2889L72.5722 23.6486C69.6575 21.6151 65.722 20.6562 60.875 20.6562V22.6562ZM71.4278 25.2889C73.8458 26.9758 75.0312 29.2522 75.0312 32.2188H77.0312C77.0312 28.602 75.5292 25.7117 72.5722 23.6486L71.4278 25.2889Z" fill="black"/>
</svg>
