<svg width="132" height="38" viewBox="0 0 132 38" fill="none" xmlns="http://www.w3.org/2000/svg">
    <path d="M9.40625 22.2188H0.6875V15.9375H9.40625V7.33594H15.7109V15.9375H24.4297V22.2188H15.7109V30.6797H9.40625V22.2188ZM31.0859 36L42.8516 9.44531H28.0156V1.78125H52.7422V7.24219L40.6719 36H31.0859ZM80.75 18.9141C80.75 24.9766 79.7344 29.4219 77.7031 32.25C75.6719 35.0625 72.5625 36.4688 68.375 36.4688C64.2812 36.4688 61.1953 35 59.1172 32.0625C57.0391 29.1094 56 24.7266 56 18.9141C56 12.8203 57.0156 8.35156 59.0469 5.50781C61.0781 2.66406 64.1875 1.24219 68.375 1.24219C72.4531 1.24219 75.5312 2.72656 77.6094 5.69531C79.7031 8.64844 80.75 13.0547 80.75 18.9141ZM65.2109 18.9141C65.2109 22.7891 65.4531 25.4531 65.9375 26.9062C66.4219 28.3594 67.2344 29.0859 68.375 29.0859C69.5312 29.0859 70.3438 28.3359 70.8125 26.8359C71.2969 25.3359 71.5391 22.6953 71.5391 18.9141C71.5391 15.1172 71.2969 12.4609 70.8125 10.9453C70.3281 9.41406 69.5156 8.64844 68.375 8.64844C67.2344 8.64844 66.4219 9.38281 65.9375 10.8516C65.4531 12.3203 65.2109 15.0078 65.2109 18.9141ZM90.3594 12.0469C90.3594 13.8438 90.5078 15.1406 90.8047 15.9375C91.1016 16.7344 91.5469 17.1328 92.1406 17.1328C92.7344 17.1328 93.1719 16.7422 93.4531 15.9609C93.75 15.1797 93.8984 13.875 93.8984 12.0469C93.8984 10.25 93.75 8.95312 93.4531 8.15625C93.1719 7.35938 92.7344 6.96094 92.1406 6.96094C91.5312 6.96094 91.0781 7.36719 90.7812 8.17969C90.5 8.99219 90.3594 10.2812 90.3594 12.0469ZM100.977 11.9531C100.977 15.3906 100.203 18.0547 98.6562 19.9453C97.1094 21.8203 94.9062 22.7578 92.0469 22.7578C89.3594 22.7578 87.2266 21.7891 85.6484 19.8516C84.0859 17.8984 83.3047 15.2656 83.3047 11.9531C83.3047 8.51562 84.0703 5.875 85.6016 4.03125C87.1328 2.17188 89.2812 1.24219 92.0469 1.24219C94.7812 1.24219 96.9531 2.20312 98.5625 4.125C100.172 6.04688 100.977 8.65625 100.977 11.9531ZM118.062 1.73438L99.0547 36H92.0938L111.102 1.73438H118.062ZM116.422 25.6875C116.422 27.4844 116.57 28.7812 116.867 29.5781C117.164 30.375 117.609 30.7734 118.203 30.7734C118.875 30.7734 119.336 30.3203 119.586 29.4141C119.852 28.4922 119.984 27.25 119.984 25.6875C119.984 24.125 119.852 22.8906 119.586 21.9844C119.336 21.0625 118.875 20.6016 118.203 20.6016C117.594 20.6016 117.141 21.0078 116.844 21.8203C116.562 22.6328 116.422 23.9219 116.422 25.6875ZM127.039 25.5938C127.039 29.0156 126.258 31.6719 124.695 33.5625C123.148 35.4375 120.953 36.375 118.109 36.375C115.422 36.375 113.289 35.4062 111.711 33.4688C110.148 31.5156 109.367 28.8906 109.367 25.5938C109.367 22.1562 110.133 19.5156 111.664 17.6719C113.195 15.8125 115.344 14.8828 118.109 14.8828C120.844 14.8828 123.016 15.8438 124.625 17.7656C126.234 19.6875 127.039 22.2969 127.039 25.5938Z" fill="black"/>
    <path d="M12.4062 22.2188H13.4062V21.2188H12.4062V22.2188ZM3.6875 22.2188H2.6875V23.2188H3.6875V22.2188ZM3.6875 15.9375V14.9375H2.6875V15.9375H3.6875ZM12.4062 15.9375V16.9375H13.4062V15.9375H12.4062ZM12.4062 7.33594V6.33594H11.4062V7.33594H12.4062ZM18.7109 7.33594H19.7109V6.33594H18.7109V7.33594ZM18.7109 15.9375H17.7109V16.9375H18.7109V15.9375ZM27.4297 15.9375H28.4297V14.9375H27.4297V15.9375ZM27.4297 22.2188V23.2188H28.4297V22.2188H27.4297ZM18.7109 22.2188V21.2188H17.7109V22.2188H18.7109ZM18.7109 30.6797V31.6797H19.7109V30.6797H18.7109ZM12.4062 30.6797H11.4062V31.6797H12.4062V30.6797ZM12.4062 21.2188H3.6875V23.2188H12.4062V21.2188ZM4.6875 22.2188V15.9375H2.6875V22.2188H4.6875ZM3.6875 16.9375H12.4062V14.9375H3.6875V16.9375ZM13.4062 15.9375V7.33594H11.4062V15.9375H13.4062ZM12.4062 8.33594H18.7109V6.33594H12.4062V8.33594ZM17.7109 7.33594V15.9375H19.7109V7.33594H17.7109ZM18.7109 16.9375H27.4297V14.9375H18.7109V16.9375ZM26.4297 15.9375V22.2188H28.4297V15.9375H26.4297ZM27.4297 21.2188H18.7109V23.2188H27.4297V21.2188ZM17.7109 22.2188V30.6797H19.7109V22.2188H17.7109ZM18.7109 29.6797H12.4062V31.6797H18.7109V29.6797ZM13.4062 30.6797V22.2188H11.4062V30.6797H13.4062ZM34.0859 36L33.1717 35.5949L32.5491 37H34.0859V36ZM45.8516 9.44531L46.7658 9.8504L47.3884 8.44531H45.8516V9.44531ZM31.0156 9.44531H30.0156V10.4453H31.0156V9.44531ZM31.0156 1.78125V0.78125H30.0156V1.78125H31.0156ZM55.7422 1.78125H56.7422V0.78125H55.7422V1.78125ZM55.7422 7.24219L56.6643 7.6292L56.7422 7.44354V7.24219H55.7422ZM43.6719 36V37H44.3367L44.5939 36.387L43.6719 36ZM35.0002 36.4051L46.7658 9.8504L44.9373 9.04022L33.1717 35.5949L35.0002 36.4051ZM45.8516 8.44531H31.0156V10.4453H45.8516V8.44531ZM32.0156 9.44531V1.78125H30.0156V9.44531H32.0156ZM31.0156 2.78125H55.7422V0.78125H31.0156V2.78125ZM54.7422 1.78125V7.24219H56.7422V1.78125H54.7422ZM54.8201 6.85517L42.7498 35.613L44.5939 36.387L56.6643 7.6292L54.8201 6.85517ZM43.6719 35H34.0859V37H43.6719V35ZM80.7031 32.25L81.5138 32.8355L81.5153 32.8334L80.7031 32.25ZM62.1172 32.0625L61.2994 32.638L61.3008 32.64L62.1172 32.0625ZM80.6094 5.69531L79.7901 6.26879L79.7936 6.27369L80.6094 5.69531ZM73.8125 26.8359L72.8608 26.5286L72.858 26.5377L73.8125 26.8359ZM73.8125 10.9453L72.8591 11.2469L72.86 11.2497L73.8125 10.9453ZM82.75 18.9141C82.75 24.9051 81.7388 29.0939 79.8909 31.6666L81.5153 32.8334C83.73 29.7499 84.75 25.048 84.75 18.9141H82.75ZM79.8924 31.6645C78.0892 34.1613 75.3165 35.4688 71.375 35.4688V37.4688C75.8085 37.4688 79.2545 35.9637 81.5138 32.8355L79.8924 31.6645ZM71.375 35.4688C67.5542 35.4688 64.7963 34.118 62.9336 31.485L61.3008 32.64C63.5943 35.882 67.0083 37.4688 71.375 37.4688V35.4688ZM62.935 31.487C61.0279 28.7769 60 24.6357 60 18.9141H58C58 24.8174 59.0503 29.4419 61.2994 32.638L62.935 31.487ZM60 18.9141C60 12.8912 61.0114 8.67794 62.8606 6.08905L61.2331 4.92657C59.0198 8.02518 58 12.7494 58 18.9141H60ZM62.8606 6.08905C64.6656 3.56212 67.4378 2.24219 71.375 2.24219V0.242188C66.9372 0.242188 63.4907 1.76601 61.2331 4.92657L62.8606 6.08905ZM71.375 2.24219C75.1743 2.24219 77.9248 3.60404 79.7901 6.26877L81.4286 5.12185C79.1377 1.84908 75.7319 0.242188 71.375 0.242188V2.24219ZM79.7936 6.27369C81.7139 8.98222 82.75 13.1445 82.75 18.9141H84.75C84.75 12.9648 83.6923 8.31466 81.4251 5.11694L79.7936 6.27369ZM67.2109 18.9141C67.2109 22.7813 67.447 25.5969 67.9888 27.2225L69.8862 26.59C69.4593 25.3093 69.2109 22.7969 69.2109 18.9141H67.2109ZM67.9888 27.2225C68.2649 28.0508 68.6654 28.7694 69.2436 29.2864C69.8423 29.8218 70.5713 30.0859 71.375 30.0859V28.0859C71.0381 28.0859 70.7905 27.9868 70.5767 27.7956C70.3424 27.586 70.0945 27.2149 69.8862 26.59L67.9888 27.2225ZM71.375 30.0859C72.1919 30.0859 72.9298 29.8121 73.5298 29.2582C74.1078 28.7247 74.5012 27.9849 74.767 27.1342L72.858 26.5377C72.6551 27.187 72.4078 27.5722 72.1733 27.7886C71.9608 27.9847 71.7144 28.0859 71.375 28.0859V30.0859ZM74.7641 27.1432C75.3019 25.478 75.5391 22.6944 75.5391 18.9141H73.5391C73.5391 22.6962 73.2919 25.1939 72.8609 26.5286L74.7641 27.1432ZM75.5391 18.9141C75.5391 15.1174 75.3017 12.3201 74.765 10.6409L72.86 11.2497C73.2921 12.6018 73.5391 15.117 73.5391 18.9141H75.5391ZM74.7659 10.6437C74.4935 9.7824 74.0986 9.03477 73.5256 8.49487C72.9294 7.93305 72.1941 7.64844 71.375 7.64844V9.64844C71.6965 9.64844 71.9378 9.74664 72.154 9.95045C72.3936 10.1762 72.6471 10.577 72.8591 11.2469L74.7659 10.6437ZM71.375 7.64844C70.5682 7.64844 69.8379 7.9166 69.2396 8.45735C68.6625 8.979 68.2631 9.70351 67.9878 10.5384L69.8872 11.1648C70.0962 10.5309 70.3454 10.1538 70.5807 9.94109C70.7949 9.74746 71.0412 9.64844 71.375 9.64844V7.64844ZM67.9878 10.5384C67.4471 12.1779 67.2109 15.0153 67.2109 18.9141H69.2109C69.2109 15.0003 69.4591 12.4627 69.8872 11.1648L67.9878 10.5384ZM96.4531 15.9609L95.5183 15.6057L95.5152 15.6139L95.5122 15.6222L96.4531 15.9609ZM96.4531 8.15625L95.5101 8.48907L95.513 8.49724L95.516 8.50536L96.4531 8.15625ZM93.7812 8.17969L92.842 7.83649L92.8391 7.84451L92.8363 7.85258L93.7812 8.17969ZM101.656 19.9453L102.428 20.5817L102.43 20.5785L101.656 19.9453ZM88.6484 19.8516L87.8675 20.4763L87.8731 20.4831L88.6484 19.8516ZM88.6016 4.03125L89.3709 4.67016L89.3735 4.66696L88.6016 4.03125ZM121.062 1.73438L121.937 2.21946L122.761 0.734375H121.062V1.73438ZM102.055 36V37H102.644L102.929 36.4851L102.055 36ZM95.0938 36L94.2193 35.5149L93.3955 37H95.0938V36ZM114.102 1.73438V0.734375H113.513L113.227 1.24929L114.102 1.73438ZM122.586 29.4141L121.625 29.1372L121.622 29.1481L122.586 29.4141ZM122.586 21.9844L121.621 22.2461L121.623 22.2559L121.626 22.2656L122.586 21.9844ZM119.844 21.8203L118.904 21.4771L118.902 21.4851L118.899 21.4932L119.844 21.8203ZM127.695 33.5625L126.924 32.9255L126.924 32.9261L127.695 33.5625ZM114.711 33.4688L113.93 34.0935L113.936 34.1003L114.711 33.4688ZM114.664 17.6719L115.433 18.3108L115.436 18.3076L114.664 17.6719ZM92.3594 12.0469C92.3594 13.8603 92.5041 15.311 92.8676 16.2866L94.7418 15.5884C94.5115 14.9703 94.3594 13.8272 94.3594 12.0469H92.3594ZM92.8676 16.2866C93.0502 16.7768 93.3107 17.2358 93.6945 17.5792C94.0993 17.9413 94.596 18.1328 95.1406 18.1328V16.1328C95.0915 16.1328 95.0687 16.1251 95.0281 16.0887C94.9666 16.0337 94.856 15.8951 94.7418 15.5884L92.8676 16.2866ZM95.1406 18.1328C95.6798 18.1328 96.1756 17.9469 96.5801 17.5858C96.9637 17.2432 97.2191 16.7855 97.394 16.2997L95.5122 15.6222C95.4059 15.9176 95.3019 16.0458 95.248 16.0939C95.2242 16.1152 95.2095 16.1217 95.2024 16.1244C95.1951 16.1272 95.1774 16.1328 95.1406 16.1328V18.1328ZM97.3879 16.3162C97.7546 15.3511 97.8984 13.8867 97.8984 12.0469H95.8984C95.8984 13.8633 95.7454 15.0083 95.5183 15.6057L97.3879 16.3162ZM97.8984 12.0469C97.8984 10.2335 97.7537 8.78276 97.3902 7.80714L95.516 8.50536C95.7463 9.12349 95.8984 10.2665 95.8984 12.0469H97.8984ZM97.3961 7.82343C97.2226 7.33179 96.9693 6.86821 96.5874 6.52042C96.1838 6.15287 95.6856 5.96094 95.1406 5.96094V7.96094C95.175 7.96094 95.1906 7.96626 95.1962 7.96844C95.2018 7.97061 95.2163 7.97686 95.2407 7.99911C95.2964 8.04976 95.4024 8.18383 95.5101 8.48907L97.3961 7.82343ZM95.1406 5.96094C94.5899 5.96094 94.0865 6.15322 93.6762 6.52106C93.2869 6.87005 93.0244 7.33714 92.842 7.83649L94.7205 8.52288C94.8349 8.20974 94.9474 8.06745 95.0113 8.01019C95.0541 7.97178 95.082 7.96094 95.1406 7.96094V5.96094ZM92.8363 7.85258C92.4974 8.83155 92.3594 10.2617 92.3594 12.0469H94.3594C94.3594 10.3008 94.5026 9.15283 94.7262 8.5068L92.8363 7.85258ZM102.977 11.9531C102.977 15.2523 102.234 17.6606 100.882 19.3121L102.43 20.5785C104.173 18.4488 104.977 15.5289 104.977 11.9531H102.977ZM100.885 19.3089C99.5623 20.912 97.6663 21.7578 95.0469 21.7578V23.7578C98.1462 23.7578 100.656 22.7286 102.428 20.5817L100.885 19.3089ZM95.0469 21.7578C92.6341 21.7578 90.7962 20.905 89.4238 19.22L87.8731 20.4831C89.6569 22.6732 92.0846 23.7578 95.0469 23.7578V21.7578ZM89.4293 19.2269C88.0488 17.5012 87.3047 15.1125 87.3047 11.9531H85.3047C85.3047 15.4188 86.1231 18.2956 87.8676 20.4763L89.4293 19.2269ZM87.3047 11.9531C87.3047 8.64973 88.0417 6.27052 89.3708 4.67015L87.8323 3.39235C86.0989 5.47948 85.3047 8.38152 85.3047 11.9531H87.3047ZM89.3735 4.66696C90.6853 3.074 92.5304 2.24219 95.0469 2.24219V0.242188C92.0321 0.242188 89.5803 1.26975 87.8296 3.39554L89.3735 4.66696ZM95.0469 2.24219C97.5158 2.24219 99.3952 3.09442 100.796 4.76702L102.329 3.48298C100.511 1.31183 98.0467 0.242188 95.0469 0.242188V2.24219ZM100.796 4.76702C102.213 6.45882 102.977 8.81614 102.977 11.9531H104.977C104.977 8.49636 104.131 5.63493 102.329 3.48298L100.796 4.76702ZM120.188 1.24929L101.18 35.5149L102.929 36.4851L121.937 2.21946L120.188 1.24929ZM102.055 35H95.0938V37H102.055V35ZM95.9682 36.4851L114.976 2.21946L113.227 1.24929L94.2193 35.5149L95.9682 36.4851ZM114.102 2.73438H121.062V0.734375H114.102V2.73438ZM118.422 25.6875C118.422 27.5009 118.567 28.9516 118.93 29.9272L120.804 29.229C120.574 28.6109 120.422 27.4679 120.422 25.6875H118.422ZM118.93 29.9272C119.113 30.4174 119.373 30.8764 119.757 31.2199C120.162 31.582 120.658 31.7734 121.203 31.7734V29.7734C121.154 29.7734 121.131 29.7657 121.091 29.7294C121.029 29.6743 120.919 29.5357 120.804 29.229L118.93 29.9272ZM121.203 31.7734C121.79 31.7734 122.328 31.5651 122.754 31.1467C123.154 30.7532 123.398 30.2305 123.55 29.68L121.622 29.1481C121.524 29.5039 121.412 29.6609 121.352 29.7205C121.325 29.7464 121.307 29.7555 121.296 29.76C121.284 29.7648 121.257 29.7734 121.203 29.7734V31.7734ZM123.547 29.6909C123.849 28.6406 123.984 27.2928 123.984 25.6875H121.984C121.984 27.2072 121.854 28.3438 121.625 29.1372L123.547 29.6909ZM123.984 25.6875C123.984 24.0833 123.85 22.7408 123.546 21.7031L121.626 22.2656C121.853 23.0405 121.984 24.1667 121.984 25.6875H123.984ZM123.551 21.7226C123.4 21.1664 123.158 20.6384 122.76 20.2402C122.335 19.8158 121.795 19.6016 121.203 19.6016V21.6016C121.255 21.6016 121.28 21.6099 121.291 21.6142C121.301 21.6183 121.318 21.6272 121.346 21.6544C121.408 21.7171 121.522 21.8804 121.621 22.2461L123.551 21.7226ZM121.203 19.6016C120.652 19.6016 120.149 19.7938 119.739 20.1617C119.349 20.5107 119.087 20.9778 118.904 21.4771L120.783 22.1635C120.897 21.8504 121.01 21.7081 121.074 21.6508C121.117 21.6124 121.144 21.6016 121.203 21.6016V19.6016ZM118.899 21.4932C118.56 22.4722 118.422 23.9024 118.422 25.6875H120.422C120.422 23.9414 120.565 22.7935 120.789 22.1474L118.899 21.4932ZM129.039 25.5938C129.039 28.874 128.29 31.2734 126.924 32.9255L128.466 34.1995C130.226 32.0703 131.039 29.1573 131.039 25.5938H129.039ZM126.924 32.9261C125.6 34.5306 123.711 35.375 121.109 35.375V37.375C124.195 37.375 126.697 36.3444 128.467 34.1989L126.924 32.9261ZM121.109 35.375C118.697 35.375 116.859 34.5221 115.486 32.8372L113.936 34.1003C115.719 36.2904 118.147 37.375 121.109 37.375V35.375ZM115.492 32.8441C114.111 31.1177 113.367 28.7361 113.367 25.5938H111.367C111.367 29.0451 112.186 31.9136 113.93 34.0934L115.492 32.8441ZM113.367 25.5938C113.367 22.2904 114.104 19.9111 115.433 18.3108L113.895 17.033C112.161 19.1201 111.367 22.0221 111.367 25.5938H113.367ZM115.436 18.3076C116.748 16.7146 118.593 15.8828 121.109 15.8828V13.8828C118.095 13.8828 115.643 14.9104 113.892 17.0362L115.436 18.3076ZM121.109 15.8828C123.578 15.8828 125.458 16.735 126.858 18.4076L128.392 17.1236C126.574 14.9525 124.109 13.8828 121.109 13.8828V15.8828ZM126.858 18.4076C128.275 20.0994 129.039 22.4568 129.039 25.5938H131.039C131.039 22.137 130.194 19.2756 128.392 17.1236L126.858 18.4076Z" fill="black"/>
</svg>
