<svg width="94" height="87" viewBox="0 0 94 87" fill="none" xmlns="http://www.w3.org/2000/svg">
    <path d="M33.9059 71.4118C33.2671 72.1445 32.1623 72.2004 31.4508 71.5359L4.55459 46.4136C3.8431 45.7491 3.81216 44.6311 4.48509 43.9289L13.0544 34.9928C13.7277 34.2906 14.8606 34.2601 15.5721 34.9242L30.2645 48.6466C30.9759 49.3111 32.0808 49.2552 32.7195 48.5225L61.4232 15.6091C62.062 14.8764 63.1925 14.7927 63.9345 15.4235L73.3828 23.449C74.1253 24.0794 74.21 25.195 73.5709 25.9277L33.9059 71.4118Z" fill="black"/>
    <path d="M39.5291 71.0832L39.529 71.0833C39.0766 71.6022 38.2974 71.6424 37.7921 71.1705L10.8959 46.0482L10.8959 46.0482C10.3879 45.5738 10.3661 44.7757 10.8461 44.2749L19.4153 35.3388C19.8989 34.8345 20.719 34.8119 21.231 35.2897L35.9232 49.012L36.2645 48.6466L35.9232 49.012C36.8408 49.8691 38.2712 49.7975 39.0964 48.8511C39.0964 48.8511 39.0964 48.8511 39.0964 48.8511L67.8 15.9377L67.8001 15.9376C68.2585 15.4118 69.0766 15.3504 69.6107 15.8045L69.6108 15.8046L79.0592 23.83L79.0592 23.8301C79.5899 24.2807 79.6494 25.0771 79.1941 25.599L79.194 25.5991L39.5291 71.0832Z" stroke="black"/>
</svg>
