<svg id="Слой_1" data-name="Слой 1" xmlns="http://www.w3.org/2000/svg" viewBox="0 0 170.08 126.72"><defs><style>.cls-1{fill:#171c21;}</style></defs><polygon class="cls-1" points="44.67 124.96 55.23 121.52 55.25 121.47 55.25 117.09 57.33 110.86 59.03 101.17 62.67 97.97 63.59 94.01 57.69 99.51 46.03 100.04 38.21 92.69 43.36 93.18 48.77 92.69 54.65 91.14 58.5 86.72 63.23 78.58 71.75 72.8 78.36 69.28 86.92 66.81 105.91 50.97 101.75 47.22 107.05 43.7 111.93 35.98 114.03 36.98 119.36 29.14 122.16 30.76 122.16 32.66 123.66 33.71 122.94 45.95 123.66 61.6 121.08 72.42 115.01 80.48 112.55 87.54 110.55 91.01 110.27 103.64 113.89 102.47 121.13 105.87 124.7 118.13 134.42 116.1 132.45 126.72 170.08 126.72 140.78 0 83.2 0 0 126.72 43.2 126.72 44.67 124.96"/><path class="cls-1" d="M71.72,116l-.39-8.63,1.1-7.3-8.8,5.83-3.38,9.7s.25,1.93.58,4.14l10.94-3.56Z"/><polygon class="cls-1" points="106.36 102.9 103.61 86.82 100.58 88.46 100.58 103.84 102.1 106.3 105.98 105.04 106.36 102.9"/><polygon class="cls-1" points="96.94 105.78 95.75 101.17 94.4 89.08 87.28 90.89 85.04 100.04 74.78 108.53 75.65 114.89 96.63 108.07 96.94 105.78"/></svg>