<svg id="Слой_1" data-name="Слой 1" xmlns="http://www.w3.org/2000/svg" viewBox="0 0 335.49 67.07"><defs><style>.cls-1{fill:#fff63d;}</style></defs><path class="cls-1" d="M184.83,0l-8,35.93a39.28,39.28,0,0,1-5.34,13.38A34.12,34.12,0,0,1,162,59.06a43.28,43.28,0,0,1-13.6,6,69.42,69.42,0,0,1-17.52,2A62.52,62.52,0,0,1,113.19,65a24.92,24.92,0,0,1-10.92-6.12,17.86,17.86,0,0,1-4.83-9.77A35.47,35.47,0,0,1,98,36l8-36h23.83l-8,36a18.18,18.18,0,0,0-.42,6.09,8.48,8.48,0,0,0,1.86,4.49,9.41,9.41,0,0,0,4.28,2.77,21,21,0,0,0,6.86,1,24.6,24.6,0,0,0,7.27-1,16.07,16.07,0,0,0,5.43-2.81,15,15,0,0,0,3.74-4.5,21.77,21.77,0,0,0,2.17-6l8-36Z"/><path class="cls-1" d="M217.88,16.7l-2.27,10.68h35.58L247.69,44H212.12l-4.92,23H183.37L197.63,0h64.55l-3.59,16.7Z"/><path class="cls-1" d="M291.19,16.7l-2.26,10.68h35.58L321,44H285.43l-4.91,23H256.68L271,0h64.54l-3.58,16.7Z"/><polygon class="cls-1" points="23.64 66.14 29.23 64.32 29.24 64.29 29.24 61.97 30.35 58.68 31.24 53.55 33.17 51.85 33.66 49.76 30.53 52.67 24.36 52.95 20.23 49.06 22.95 49.32 25.81 49.06 28.93 48.24 30.96 45.9 33.47 41.59 37.97 38.53 41.47 36.67 46 35.36 56.06 26.98 53.86 24.99 56.66 23.13 59.24 19.04 60.35 19.57 63.18 15.42 64.66 16.28 64.66 17.29 65.45 17.84 65.07 24.32 65.45 32.6 64.08 38.33 60.87 42.6 59.57 46.33 58.51 48.17 58.36 54.86 60.28 54.23 64.11 56.04 66 62.53 71.15 61.45 70.11 67.07 90.02 67.07 74.51 0 44.04 0 0 67.07 22.87 67.07 23.64 66.14"/><path class="cls-1" d="M38,61.38l-.21-4.56L38.34,53,33.68,56l-1.79,5.13s.13,1,.31,2.19L38,61.48Z"/><polygon class="cls-1" points="56.29 54.46 54.84 45.95 53.23 46.82 53.23 54.96 54.04 56.26 56.09 55.59 56.29 54.46"/><polygon class="cls-1" points="51.31 55.99 50.68 53.55 49.96 47.15 46.2 48.11 45.01 52.95 39.58 57.44 40.04 60.81 51.15 57.2 51.31 55.99"/></svg>