<svg id="instagram" width="27" height="27" viewBox="0 0 27 27" fill="none" xmlns="http://www.w3.org/2000/svg">
  <path d="M19.6913 0H7.30864C3.27859 0 0 3.27859 0 7.30864V19.6915C0 23.7214 3.27859 26.9999 7.30864 26.9999H19.6915C23.7214 26.9999 26.9999 23.7214 26.9999 19.6915V7.30864C26.9999 3.27859 23.7214 0 19.6913 0V0ZM25.4171 19.6915C25.4171 22.8486 22.8486 25.4171 19.6913 25.4171H7.30864C4.15138 25.4171 1.58285 22.8486 1.58285 19.6915V7.30864C1.58285 4.15138 4.15138 1.58285 7.30864 1.58285H19.6915C22.8486 1.58285 25.4171 4.15138 25.4171 7.30864V19.6915Z"
        fill="currentColor">
  </path>
  <path d="M13.5 6.11743C9.42919 6.11743 6.11743 9.42919 6.11743 13.5C6.11743 17.5709 9.42919 20.8826 13.5 20.8826C17.5709 20.8826 20.8826 17.5709 20.8826 13.5C20.8826 9.42919 17.5709 6.11743 13.5 6.11743ZM13.5 19.2998C10.3022 19.2998 7.70028 16.6981 7.70028 13.5C7.70028 10.3022 10.3022 7.70028 13.5 7.70028C16.6981 7.70028 19.2998 10.3022 19.2998 13.5C19.2998 16.6981 16.6981 19.2998 13.5 19.2998Z"
        fill="currentColor">
  </path>
  <path d="M21.0592 3.49561C19.8562 3.49561 18.8777 4.47428 18.8777 5.67707C18.8777 6.88007 19.8562 7.85875 21.0592 7.85875C22.2622 7.85875 23.2408 6.88007 23.2408 5.67707C23.2408 4.47407 22.2622 3.49561 21.0592 3.49561ZM21.0592 6.27569C20.7292 6.27569 20.4605 6.00708 20.4605 5.67707C20.4605 5.34687 20.7292 5.07846 21.0592 5.07846C21.3894 5.07846 21.658 5.34687 21.658 5.67707C21.658 6.00708 21.3894 6.27569 21.0592 6.27569Z"
        fill="currentColor">
  </path>
</svg>