<svg width="27" height="27" viewBox="0 0 22 22" fill="none" id="telegram" xmlns="http://www.w3.org/2000/svg">
  <path d="M16.5533 5.23753L7.50542 10.8101C6.99341 11.1262 6.75111 11.7505 6.91606 12.3279L7.89437 15.7654C7.97795 16.0585 8.23877 16.2533 8.53886 16.2533C8.55557 16.2533 8.57246 16.2527 8.58939 16.2515C8.91019 16.2282 9.16405 15.9893 9.20672 15.6708L9.46109 13.7859C9.49538 13.5323 9.61759 13.2964 9.80489 13.122L17.2713 6.18155C17.497 5.97234 17.5268 5.62975 17.3409 5.3847C17.1546 5.13943 16.8162 5.07601 16.5533 5.23753ZM9.20788 12.4803C8.87238 12.7926 8.6538 13.2146 8.59244 13.6686L8.46908 14.5829L7.75893 12.0876C7.70123 11.8855 7.78622 11.6669 7.9654 11.5563L14.5937 7.47396L9.20788 12.4803Z"
        fill="currentColor"/>
  <path d="M21.6421 1.60727C21.3594 1.36767 20.9693 1.30171 20.6238 1.43518L0.647981 9.14128C0.252367 9.29386 -0.00200759 9.66636 1.19374e-05 10.0902C0.00207444 10.5145 0.260188 10.885 0.658121 11.0341L5.3241 12.7755L7.14421 18.629C7.24416 18.9507 7.49643 19.2008 7.81895 19.2978C8.1413 19.3947 8.48943 19.3254 8.74965 19.1126L11.4627 16.9009C11.593 16.7947 11.779 16.7894 11.9151 16.8882L16.8085 20.4409C16.9845 20.5689 17.1923 20.6347 17.4024 20.6347C17.5255 20.6347 17.6495 20.6121 17.7684 20.5662C18.0901 20.4418 18.324 20.166 18.394 19.8287L21.9789 2.58493C22.0542 2.22185 21.9251 1.84725 21.6421 1.60727ZM21.1207 2.40683L17.5359 19.6505C17.5229 19.7128 17.4781 19.7387 17.4525 19.7487C17.4267 19.7586 17.3758 19.7697 17.3237 19.7318L12.4301 16.1789C12.2113 16.0201 11.9541 15.9413 11.6974 15.9413C11.4173 15.9413 11.1376 16.0351 10.909 16.2214L8.1954 18.4336C8.1471 18.4731 8.09696 18.4661 8.07143 18.4584C8.04574 18.4507 7.99989 18.4288 7.98124 18.3688L6.09728 12.3099C6.05702 12.1805 5.95905 12.0769 5.83203 12.0295L0.965176 10.213C0.892301 10.1858 0.876789 10.1289 0.876574 10.086C0.87636 10.0435 0.891313 9.98686 0.9635 9.95902L20.9394 2.25296C20.9395 2.25291 20.9396 2.25287 20.9397 2.25283C21.0046 2.22778 21.0526 2.25657 21.0755 2.2759C21.0984 2.29545 21.1349 2.33842 21.1207 2.40683Z"
        fill="currentColor"/>
</svg>
