<svg height="27" id="viber" viewBox="0 0 22 22" fill="none" xmlns="http://www.w3.org/2000/svg">
  <path d="M13.0956 0H8.90513C4.51611 0 0.945312 3.56996 0.945312 7.95814V11.733C0.945312 15.0009 2.95339 17.9378 5.97283 19.1339V21.581C5.97283 21.7469 6.07045 21.8969 6.22211 21.964C6.27658 21.9883 6.33439 22 6.39179 22C6.4936 22 6.59457 21.9627 6.67291 21.8915L9.10246 19.6911H13.0956C17.4846 19.6911 21.0554 16.1212 21.0554 11.733V7.95814C21.0554 3.56996 17.4846 0 13.0956 0ZM20.2175 11.733C20.2175 15.659 17.0229 18.8532 13.0956 18.8532H8.94074C8.83684 18.8532 8.73671 18.8917 8.65962 18.9617L6.81075 20.6363V18.8436C6.81075 18.6659 6.69889 18.5076 6.5313 18.4489C3.69159 17.4446 1.78323 14.7457 1.78323 11.733V7.95814C1.78323 4.03207 4.97822 0.83792 8.90513 0.83792H13.0956C17.0229 0.83792 20.2175 4.03207 20.2175 7.95814V11.733Z"
        fill="currentColor"/>
  <path d="M16.5383 12.7751L13.9634 11.1026C13.6818 10.9195 13.3467 10.8575 13.0186 10.9254C12.6902 10.9945 12.4078 11.1885 12.2247 11.4713L12.1036 11.6573C10.9892 11.289 9.76037 10.8185 9.02468 8.68895L9.32926 8.42416C9.85213 7.96959 9.90701 7.17441 9.45244 6.65071L7.43808 4.33344C7.28642 4.15873 7.02163 4.14072 6.84693 4.29196L5.58209 5.39131C4.47268 6.35576 4.99093 7.78232 5.16145 8.25113C5.16899 8.27208 5.17821 8.29219 5.1891 8.31188C5.23309 8.39065 6.28343 10.2651 7.97979 11.9929C9.68287 13.7278 12.7576 15.3299 12.8519 15.3764C13.203 15.6043 13.598 15.7136 13.9889 15.7136C14.6752 15.7136 15.348 15.3772 15.7494 14.7605L16.6619 13.3553C16.7876 13.1605 16.7323 12.9012 16.5383 12.7751ZM15.0464 14.3038C14.6689 14.8854 13.8888 15.0504 13.2729 14.6533C13.2423 14.6373 10.1877 13.0465 8.57765 11.4063C7.07275 9.87335 6.07353 8.17027 5.93736 7.93272C5.60555 7.00221 5.6642 6.43033 6.13176 6.02394L7.08071 5.19943L8.82023 7.20038C8.97482 7.37802 8.95681 7.63778 8.78001 7.79153L8.26594 8.23815C8.14067 8.34708 8.09124 8.51927 8.14026 8.67763C9.01672 11.5257 10.721 12.085 11.9654 12.4935L12.1468 12.5534C12.3282 12.6146 12.5268 12.5446 12.6307 12.3846L12.9277 11.9271C12.9889 11.8324 13.0827 11.7683 13.1917 11.7453C13.301 11.7218 13.4124 11.7436 13.5071 11.8052L15.731 13.2493L15.0464 14.3038Z"
        fill="currentColor"/>
  <path d="M11.9573 6.80742C11.7344 6.74332 11.5027 6.87278 11.4394 7.09567C11.3762 7.31814 11.5052 7.54982 11.7277 7.61308C12.3519 7.79072 12.8492 8.28887 13.0252 8.91354C13.0771 9.09788 13.2451 9.21896 13.4282 9.21896C13.4659 9.21896 13.5041 9.21393 13.5422 9.20346C13.7646 9.14061 13.8945 8.90935 13.8317 8.68646C13.5774 7.78402 12.8589 7.06383 11.9573 6.80742Z"
        fill="currentColor"/>
  <path d="M15.1446 9.30889C15.1824 9.30889 15.2205 9.30386 15.2586 9.29339C15.4815 9.23055 15.6109 8.99886 15.5481 8.77639C15.0537 7.02388 13.659 5.62623 11.9078 5.12767C11.6853 5.06357 11.4536 5.19387 11.3903 5.41633C11.3271 5.6388 11.4561 5.87049 11.6786 5.93375C13.1521 6.35271 14.3256 7.52957 14.7416 9.00389C14.794 9.18823 14.9616 9.30889 15.1446 9.30889Z"
        fill="currentColor"/>
  <path d="M11.728 3.17656C11.5051 3.11246 11.2734 3.24192 11.2102 3.46523C11.1469 3.68769 11.2759 3.91938 11.4984 3.98264C13.995 4.69278 15.9838 6.68619 16.6885 9.18445C16.7404 9.36879 16.9084 9.48987 17.0915 9.48987C17.1292 9.48987 17.1674 9.48484 17.2055 9.47437C17.428 9.41152 17.5578 9.17984 17.495 8.95737C16.712 6.18092 14.5024 3.9663 11.728 3.17656Z"
        fill="currentColor"/>
</svg>
