<svg height="27" viewBox="0 0 22 22" id="whatsapp" fill="none" xmlns="http://www.w3.org/2000/svg">
  <path d="M11.0364 0C5.02651 0 0.145679 4.88079 0.145679 10.8543C0.145679 12.7484 0.655621 14.5695 1.60264 16.2451L0 22L5.86422 20.4338C7.57613 21.3444 9.36091 21.8543 11.0364 21.8543C16.9735 21.8543 22 16.8278 22 10.8543C22 4.88079 17.0828 0 11.0364 0ZM11.0364 21.1258C9.43377 21.1258 7.72185 20.6159 6.08276 19.7053L5.93708 19.6325L1.01988 20.9801L2.36753 16.1358L2.29467 15.9901C1.38406 14.4239 0.874161 12.6391 0.874161 10.8543C0.874161 5.28146 5.42714 0.728482 11.0364 0.728482C16.6821 0.728482 21.2715 5.28146 21.2715 10.8543C21.2715 16.4272 16.5729 21.1258 11.0364 21.1258Z"
        fill="currentColor"/>
  <path d="M11.0368 1.82031C6.04677 1.82031 1.96729 5.86335 1.96729 10.8534C1.96729 12.6382 2.47723 14.3137 3.3878 15.8071L3.53348 15.9892L2.55009 19.4495L6.11963 18.5389L6.30177 18.6481C7.79514 19.5587 9.43423 20.0322 11.0369 20.0322C16.0634 20.0322 20.1792 15.9163 20.1792 10.8534C20.1792 5.86335 16.0633 1.82031 11.0368 1.82031ZM11.0004 19.3402C9.54346 19.3402 8.05009 18.8667 6.66599 18.029L6.2289 17.7376L3.56997 18.3932L4.29845 15.8435L4.00705 15.37C3.13289 14.0223 2.69581 12.4561 2.69581 10.8535C2.69581 6.30047 6.44744 2.54884 11.0369 2.54884C15.6627 2.54884 19.4508 6.30047 19.4508 10.8535C19.4508 15.5157 15.6627 19.3037 11.0004 19.3402Z"
        fill="currentColor"/>
  <path d="M16.5008 12.8577L14.2061 11.8014C13.8783 11.6557 13.5505 11.765 13.3319 12.0199L12.4578 13.1491C11.8021 12.8942 9.98095 12.0928 8.92466 10.1259L9.726 9.17888C9.90813 8.96034 9.94454 8.66894 9.83527 8.41399L8.85184 6.08286C8.74257 5.82792 8.52403 5.64578 8.23263 5.64578L7.54056 5.60938C7.24916 5.60938 6.92135 5.68224 6.70281 5.90078C6.375 6.19218 5.75578 6.81139 5.57365 7.64914C5.3187 8.85111 5.71933 10.2717 6.73922 11.6558C7.35843 12.5299 9.25247 15.1161 12.8948 16.1359C13.2591 16.2452 13.6233 16.2816 13.9511 16.2816C14.5703 16.2816 15.1531 16.0994 15.663 15.8081C16.2458 15.4439 16.6465 14.8246 16.7922 14.169L16.9015 13.659C16.9743 13.3312 16.7922 13.0034 16.5008 12.8577ZM16.0273 13.9868C15.918 14.4603 15.6266 14.8974 15.2259 15.1524C14.6067 15.553 13.8782 15.6259 13.0769 15.4073C9.68951 14.4603 7.90473 12.0199 7.32197 11.2186C6.44781 10.0166 6.08355 8.77817 6.30209 7.79473C6.44777 7.13911 6.9213 6.66558 7.2127 6.41063C7.28557 6.33777 7.39484 6.30136 7.50411 6.30136L8.23259 6.37422L9.21602 8.66894L8.34186 9.65237C8.19618 9.8345 8.15973 10.1259 8.269 10.3444C9.47097 12.6756 11.6564 13.5862 12.312 13.8047C12.567 13.8776 12.822 13.8047 13.0041 13.5862L13.8783 12.4206L16.173 13.4769L16.0273 13.9868Z"
        fill="currentColor"/>
</svg>
