<svg width="389" height="324" viewBox="0 0 389 324" fill="none" xmlns="http://www.w3.org/2000/svg">
<path d="M119.844 174.491C113.225 183.898 107.529 194.076 98.2929 201.786C82.5911 214.74 58.5766 218.133 45.3378 233.863C31.1754 250.672 37.4869 274.576 52.5729 288.763C62.7329 298.17 76.2796 304.185 90.288 307.732C120.768 315.596 324.583 306.806 334.589 302.334C348.136 296.32 354.14 284.908 353.216 271.954C351.677 250.672 333.512 233.4 313.808 221.68C293.949 209.96 271.474 201.786 253.002 188.524C242.38 180.968 233.451 171.715 223.291 163.696C214.825 156.91 205.434 150.896 194.813 147.349C167.258 137.788 134.622 153.672 119.844 174.491Z" fill="#E6DE37"/>
<path d="M158.489 23.3638C163.415 35.7009 161.414 52.9729 149.561 57.7535C137.707 62.5341 120.62 52.9729 115.54 40.6357C110.614 28.2986 116.156 14.2651 128.009 9.48449C139.862 4.70385 153.409 10.8724 158.489 23.3638Z" fill="white" stroke="black" stroke-width="2" stroke-miterlimit="10" stroke-linecap="round" stroke-linejoin="round"/>
<path d="M245.153 53.5938C237.148 67.3189 219.599 77.9596 206.361 70.4031C193.276 62.8466 189.581 39.7145 197.586 25.9895C205.591 12.2644 222.678 7.32957 235.763 14.8861C249.002 22.4425 253.158 39.8687 245.153 53.5938Z" fill="white" stroke="black" stroke-width="2" stroke-miterlimit="10" stroke-linecap="round" stroke-linejoin="round"/>
<path d="M246.694 206.103L186.504 165.39C183.579 163.386 179.885 163.386 177.114 165.39L116.924 206.103V279.509C116.924 282.593 118.155 285.215 120.157 287.219C120.618 287.682 121.234 288.145 121.696 288.607C122.004 288.762 122.312 288.916 122.62 289.224C123.543 289.687 124.467 290.15 125.544 290.304C126.314 290.458 126.93 290.458 127.7 290.458H235.765C236.534 290.458 237.304 290.458 237.92 290.304C238.998 290.15 239.921 289.687 240.845 289.224C241.153 289.07 241.461 288.762 241.768 288.607C242.384 288.145 242.846 287.682 243.308 287.219C245.155 285.369 246.387 282.901 246.387 279.971C246.387 279.817 246.387 279.663 246.387 279.509L246.694 206.103Z" fill="#FFF63D" stroke="black" stroke-width="2" stroke-miterlimit="10" stroke-linecap="round" stroke-linejoin="round"/>
<path d="M246.693 279.51C246.693 279.664 246.693 279.819 246.693 279.973C246.54 282.749 245.462 285.37 243.615 287.221C243.153 287.683 242.537 288.146 242.075 288.609C241.767 288.763 241.46 288.917 241.152 289.226C240.228 289.688 239.304 290.151 238.227 290.305C237.611 290.459 236.841 290.459 236.072 290.459H127.699C126.929 290.459 126.159 290.459 125.543 290.305C124.466 290.151 123.542 289.688 122.619 289.226C122.311 289.071 122.003 288.917 121.695 288.609C121.079 288.146 120.617 287.683 120.156 287.221C118.154 285.216 116.923 282.594 116.923 279.51L155.1 245.583L176.497 226.615C179.576 223.993 184.04 223.993 186.965 226.615L208.363 245.583L246.693 279.51Z" stroke="black" stroke-width="2" stroke-miterlimit="10" stroke-linecap="round" stroke-linejoin="round"/>
<path d="M233.299 252.367H148.787C147.555 252.367 146.478 251.287 146.478 250.053V180.966C146.478 179.732 147.555 178.652 148.787 178.652H233.145C234.377 178.652 235.454 179.732 235.454 180.966V250.053C235.608 251.441 234.531 252.367 233.299 252.367Z" fill="white" stroke="black" stroke-width="2" stroke-miterlimit="10" stroke-linecap="round" stroke-linejoin="round"/>
<path d="M222.832 282.907H139.705C138.473 282.907 137.396 281.828 137.396 280.594V188.837C137.396 187.603 138.473 186.523 139.705 186.523H222.832C224.063 186.523 225.141 187.603 225.141 188.837V280.594C225.141 281.828 224.063 282.907 222.832 282.907Z" fill="white" stroke="black" stroke-width="2" stroke-miterlimit="10" stroke-linecap="round" stroke-linejoin="round"/>
<path d="M148.325 201.324H214.057" stroke="black" stroke-width="2" stroke-miterlimit="10" stroke-linecap="round" stroke-linejoin="round"/>
<path d="M148.325 213.973H214.057" stroke="black" stroke-width="2" stroke-miterlimit="10" stroke-linecap="round" stroke-linejoin="round"/>
<path d="M148.325 226.613H214.057" stroke="black" stroke-width="2" stroke-miterlimit="10" stroke-linecap="round" stroke-linejoin="round"/>
<path d="M161.408 62.2257C165.872 76.4134 159.253 93.5312 145.706 97.8492C132.159 102.167 116.919 91.8348 112.455 77.6471C107.991 63.4594 115.38 48.5007 128.927 44.3369C142.319 40.0189 156.944 48.038 161.408 62.2257Z" fill="#E6DE37" stroke="black" stroke-width="2" stroke-miterlimit="10" stroke-linecap="round" stroke-linejoin="round"/>
<path d="M147.247 97.2264C153.559 89.8241 155.868 78.4123 152.789 68.3883C148.325 54.2006 133.854 46.1815 120.308 50.4995C119.384 50.8079 118.614 51.1164 117.845 51.4248C120.77 48.1863 124.464 45.5647 128.928 44.1767C142.475 39.8587 157.099 47.8779 161.563 62.0656C165.72 75.7906 159.716 92.1373 147.247 97.2264Z" fill="#D9D124"/>
<path d="M161.408 62.2257C165.872 76.4134 159.253 93.5312 145.706 97.8492C132.159 102.167 116.919 91.8348 112.455 77.6471C107.991 63.4594 115.38 48.5007 128.927 44.3369C142.319 40.0189 156.944 48.038 161.408 62.2257Z" stroke="black" stroke-width="2" stroke-miterlimit="10" stroke-linecap="round" stroke-linejoin="round"/>
<path d="M160.485 239.262H202.049" stroke="black" stroke-width="2" stroke-miterlimit="10" stroke-linecap="round" stroke-linejoin="round"/>
<path d="M298.263 323.001L327.357 264.554C328.127 262.857 330.59 262.857 331.514 264.554L361.993 323.001" stroke="black" stroke-width="2" stroke-miterlimit="10" stroke-linecap="round" stroke-linejoin="round"/>
<path d="M233.606 322.997L279.48 230.931C280.866 228.309 284.56 228.309 285.946 230.931L333.975 322.997" fill="white"/>
<path d="M233.606 322.997L279.48 230.931C280.866 228.309 284.56 228.309 285.946 230.931L333.975 322.997" stroke="black" stroke-width="2" stroke-miterlimit="10" stroke-linecap="round" stroke-linejoin="round"/>
<path d="M48.7285 322.996L71.8194 276.731C72.2812 275.652 73.8206 275.652 74.2824 276.731L98.4508 322.996" stroke="black" stroke-width="2" stroke-miterlimit="10" stroke-linecap="round" stroke-linejoin="round"/>
<path d="M75.9736 322.997L111.38 252.058C112.457 250.053 115.228 250.053 116.306 252.058L153.251 322.997" fill="white"/>
<path d="M75.9736 322.997L111.38 252.058C112.457 250.053 115.228 250.053 116.306 252.058L153.251 322.997" stroke="black" stroke-width="2" stroke-miterlimit="10" stroke-linecap="round" stroke-linejoin="round"/>
<path d="M247.769 83.1979C242.381 96.6146 226.68 105.405 213.903 100.316C201.126 95.0724 195.892 77.9547 201.28 64.538C206.668 51.1214 221.446 44.336 234.377 49.5793C247.154 54.6683 253.157 69.7813 247.769 83.1979Z" fill="#E6DE37" stroke="black" stroke-width="2" stroke-miterlimit="10" stroke-linecap="round" stroke-linejoin="round"/>
<path d="M247.77 83.1939C242.382 96.6106 226.68 105.401 213.903 100.312C213.596 100.157 213.288 100.157 213.134 100.003C223.91 100.003 234.685 92.1384 238.996 81.3434C244.383 68.081 238.534 53.1222 226.065 47.8789C228.836 47.8789 231.606 48.4958 234.377 49.5753C247.154 54.6643 253.312 69.7773 247.77 83.1939Z" fill="#D9D124"/>
<path d="M247.769 83.1979C242.381 96.6146 226.68 105.405 213.903 100.316C201.126 95.0724 195.892 77.9547 201.28 64.538C206.668 51.1214 221.446 44.336 234.377 49.5793C247.154 54.6683 253.157 69.7813 247.769 83.1979Z" stroke="black" stroke-width="2" stroke-miterlimit="10" stroke-linecap="round" stroke-linejoin="round"/>
<path d="M205.435 105.255L213.901 100.32L216.672 109.727L205.435 105.255Z" fill="#E6DE37" stroke="black" stroke-width="2" stroke-miterlimit="10" stroke-linecap="round" stroke-linejoin="round"/>
<path d="M181.885 90.5977C183.116 112.804 183.578 141.643 183.424 163.849" stroke="black" stroke-width="2" stroke-miterlimit="10" stroke-linecap="round" stroke-linejoin="round"/>
<path d="M209.9 107.711C203.281 124.983 194.199 148.886 183.423 163.999" stroke="black" stroke-width="2" stroke-miterlimit="10" stroke-linecap="round" stroke-linejoin="round"/>
<path d="M149.868 101.395C161.26 120.054 172.189 145.191 183.427 163.851" stroke="black" stroke-width="2" stroke-miterlimit="10" stroke-linecap="round" stroke-linejoin="round"/>
<path d="M75.5126 166.777C73.8193 166.777 72.4338 167.393 71.3562 168.473C70.7405 164.618 67.5078 161.688 63.8132 161.688C59.9648 161.688 56.886 164.618 56.2702 168.627C55.0387 167.702 53.4993 167.239 51.806 167.239C47.9575 167.239 44.7248 170.015 43.9551 173.87C43.8011 174.179 44.109 174.487 44.5708 174.487H57.5017H59.9648H69.509H70.2787H81.978C82.2859 170.323 79.2071 166.777 75.5126 166.777Z" stroke="black" stroke-width="2" stroke-miterlimit="10" stroke-linecap="round" stroke-linejoin="round"/>
<path d="M262.856 141.64C264.549 141.64 265.935 142.257 267.012 143.336C267.628 139.481 270.861 136.551 274.555 136.551C278.404 136.551 281.482 139.481 282.098 143.49C283.33 142.565 284.869 142.102 286.562 142.102C290.411 142.102 293.644 144.878 294.413 148.734C294.567 149.042 294.259 149.351 293.798 149.351H280.867H278.404H268.859H268.09H256.39C256.083 145.341 259.161 141.64 262.856 141.64Z" stroke="black" stroke-width="2" stroke-miterlimit="10" stroke-linecap="round" stroke-linejoin="round"/>
<path d="M325.814 171.715H348.443" stroke="black" stroke-width="2" stroke-miterlimit="10" stroke-linecap="round" stroke-linejoin="round"/>
<path d="M359.685 180.82H387.394" stroke="black" stroke-width="2" stroke-miterlimit="10" stroke-linecap="round" stroke-linejoin="round"/>
<path d="M345.673 180.82H352.6" stroke="black" stroke-width="2" stroke-miterlimit="10" stroke-linecap="round" stroke-linejoin="round"/>
<path d="M31.6377 134.703H54.2667" stroke="black" stroke-width="2" stroke-miterlimit="10" stroke-linecap="round" stroke-linejoin="round"/>
<path d="M17.6299 143.645H42.8759" stroke="black" stroke-width="2" stroke-miterlimit="10" stroke-linecap="round" stroke-linejoin="round"/>
<path d="M1.31348 143.645H9.47225" stroke="black" stroke-width="2" stroke-miterlimit="10" stroke-linecap="round" stroke-linejoin="round"/>
<path d="M159.868 302.184H179.88" stroke="black" stroke-width="2" stroke-miterlimit="10" stroke-linecap="round" stroke-linejoin="round"/>
<path d="M193.431 302.184H203.437" stroke="black" stroke-width="2" stroke-miterlimit="10" stroke-linecap="round" stroke-linejoin="round"/>
<path d="M184.345 302.184H188.809" stroke="black" stroke-width="2" stroke-miterlimit="10" stroke-linecap="round" stroke-linejoin="round"/>
<path d="M194.661 313.281H196.508" stroke="black" stroke-width="2" stroke-miterlimit="10" stroke-linecap="round" stroke-linejoin="round"/>
<path d="M172.341 313.281H190.814" stroke="black" stroke-width="2" stroke-miterlimit="10" stroke-linecap="round" stroke-linejoin="round"/>
<path d="M198.512 290.457H127.7C126.93 290.457 126.16 290.457 125.544 290.302C124.467 290.148 123.543 289.686 122.62 289.223C122.312 289.069 122.004 288.915 121.696 288.606C121.08 288.143 120.618 287.681 120.157 287.218C118.155 285.213 116.924 282.592 116.924 279.507V206.102L155.101 245.58L181.732 273.03L198.512 290.457Z" fill="#FFF63D" stroke="black" stroke-width="2" stroke-miterlimit="10" stroke-linecap="round" stroke-linejoin="round"/>
<path d="M246.694 206.102V279.507V280.124C246.54 282.9 245.463 285.522 243.615 287.372C243.154 287.835 242.538 288.298 242.076 288.76C241.768 288.915 241.46 289.069 241.152 289.377C240.229 289.84 239.305 290.302 238.227 290.457C237.612 290.611 236.842 290.611 236.072 290.611H165.106L181.886 273.339L208.517 245.889L246.54 206.718L246.694 206.102Z" fill="#FFF63D" stroke="black" stroke-width="2" stroke-miterlimit="10" stroke-linecap="round" stroke-linejoin="round"/>
<path d="M246.694 206.102V279.507V280.124C246.54 282.9 245.463 285.522 243.615 287.372C243.154 287.835 242.538 288.298 242.076 288.76C241.768 288.915 241.46 289.069 241.152 289.377C240.229 289.84 239.305 290.302 238.227 290.457C237.612 290.611 236.842 290.611 236.072 290.611H165.106L172.496 282.9H225.604C226.374 282.9 227.144 282.9 227.76 282.746C228.837 282.592 229.761 282.129 230.684 281.666C230.992 281.512 231.3 281.204 231.608 281.05C232.224 280.587 232.686 280.279 233.147 279.662C234.995 277.811 236.226 275.344 236.226 272.414V271.797V216.742L246.232 206.41L246.694 206.102Z" fill="#E6DE37"/>
<path d="M246.694 206.102V279.507V280.124C246.54 282.9 245.463 285.522 243.615 287.372C243.154 287.835 242.538 288.298 242.076 288.76C241.768 288.915 241.46 289.069 241.152 289.377C240.229 289.84 239.305 290.302 238.227 290.457C237.612 290.611 236.842 290.611 236.072 290.611H165.106L181.886 273.339L208.517 245.889L246.54 206.718L246.694 206.102Z" stroke="black" stroke-width="2" stroke-miterlimit="10" stroke-linecap="round" stroke-linejoin="round"/>
<path d="M306.271 323H383.548" stroke="black" stroke-width="2" stroke-miterlimit="10" stroke-linecap="round" stroke-linejoin="round"/>
<path d="M290.255 323H298.26" stroke="black" stroke-width="2" stroke-miterlimit="10" stroke-linecap="round" stroke-linejoin="round"/>
<path d="M5.77832 323H278.866" stroke="black" stroke-width="2" stroke-miterlimit="10" stroke-linecap="round" stroke-linejoin="round"/>
<path d="M145.399 105.864L148.016 97.0742L155.867 101.701L145.399 105.864Z" fill="#E6DE37" stroke="black" stroke-width="2" stroke-miterlimit="10" stroke-linecap="round" stroke-linejoin="round"/>
<path d="M268.863 285.527C268.863 297.864 259.011 307.734 246.696 307.734C234.38 307.734 224.528 297.864 224.528 285.527C224.528 273.19 234.38 263.32 246.696 263.32C258.857 263.32 268.863 273.344 268.863 285.527Z" fill="white" stroke="black" stroke-width="2" stroke-miterlimit="10" stroke-linecap="round" stroke-linejoin="round"/>
<path d="M214.519 40.1704C214.519 61.7604 199.587 82.7335 181.268 82.7335C162.95 82.7335 148.018 61.7604 148.018 40.1704C148.018 18.5804 162.95 1 181.268 1C199.587 1.15421 214.519 18.5804 214.519 40.1704Z" fill="#FFF63D" stroke="black" stroke-width="2" stroke-miterlimit="10" stroke-linecap="round" stroke-linejoin="round"/>
<path d="M214.52 40.1685C214.52 61.2958 200.357 81.6521 182.654 82.5774C194.508 75.6377 202.82 59.9079 202.82 43.7154C202.82 22.1255 187.888 4.69927 169.569 4.69927C168.8 4.69927 167.876 4.69927 167.106 4.85348C171.417 2.38606 176.189 1.15234 181.269 1.15234C199.588 1.15234 214.52 18.5785 214.52 40.1685Z" fill="#E6DE37"/>
<path d="M214.519 40.1704C214.519 61.7604 199.587 82.7335 181.268 82.7335C162.95 82.7335 148.018 61.7604 148.018 40.1704C148.018 18.5804 162.95 1 181.268 1C199.587 1.15421 214.519 18.5804 214.519 40.1704Z" stroke="black" stroke-width="2" stroke-miterlimit="10" stroke-linecap="round" stroke-linejoin="round"/>
<path d="M174.188 92.446L181.731 82.7305L189.428 92.446H174.188Z" fill="#FFF63D" stroke="black" stroke-width="2" stroke-miterlimit="10" stroke-linecap="round" stroke-linejoin="round"/>
<path d="M121.542 35.3943C121.542 35.3943 119.079 29.9969 123.235 24.1367L121.542 35.3943Z" fill="white"/>
<path d="M121.542 35.3943C121.542 35.3943 119.079 29.9969 123.235 24.1367" stroke="black" stroke-width="2" stroke-miterlimit="10" stroke-linecap="round" stroke-linejoin="round"/>
<path d="M160.333 29.8471C160.333 29.8471 160.179 21.6738 167.414 17.9727" stroke="black" stroke-width="2" stroke-miterlimit="10" stroke-linecap="round" stroke-linejoin="round"/>
<path d="M171.11 15.8134C171.11 15.8134 172.65 14.4255 176.19 13.8086" stroke="black" stroke-width="2" stroke-miterlimit="10" stroke-linecap="round" stroke-linejoin="round"/>
<path d="M218.365 58.0601C218.365 58.0601 222.214 54.359 228.217 56.2096" stroke="black" stroke-width="2" stroke-miterlimit="10" stroke-linecap="round" stroke-linejoin="round"/>
<path d="M117.075 74.875C117.075 74.875 113.534 69.6317 117.075 63.9258" stroke="black" stroke-width="2" stroke-miterlimit="10" stroke-linecap="round" stroke-linejoin="round"/>
<path d="M215.752 20.28C215.752 20.28 218.985 15.962 226.682 17.8126" stroke="black" stroke-width="2" stroke-miterlimit="10" stroke-linecap="round" stroke-linejoin="round"/>
<path d="M167.414 24.7542C167.106 25.6795 167.106 26.6048 167.722 27.3759C168.184 27.9927 168.954 28.4554 169.723 28.4554C170.493 28.4554 171.263 28.3011 171.878 27.9927C173.264 27.2216 174.341 25.8337 174.803 24.2916C175.111 23.0579 175.111 21.8241 174.649 20.5904C174.187 19.2025 173.11 19.6651 171.878 19.9736C169.723 20.7446 168.03 22.5952 167.414 24.7542Z" fill="#FDF8CE"/>
<path d="M125.234 249.436C125.388 250.67 125.85 252.058 127.082 252.212C127.697 252.366 128.467 251.903 128.775 251.287C129.083 250.67 129.237 250.053 129.391 249.282C130.314 243.884 130.16 238.487 129.083 233.089C128.775 231.856 128.467 230.622 127.697 229.851C126.774 228.771 124.927 228.463 124.465 229.851C123.849 231.547 124.311 234.477 124.311 236.328C124.311 240.646 124.619 245.118 125.234 249.436Z" fill="#FFFBA8"/>
<path d="M256.389 285.066C253.772 288.922 250.231 291.852 246.691 294.782C243.15 291.852 239.455 288.922 236.992 285.066C235.607 283.061 234.529 280.131 235.915 278.127C237.3 276.122 240.379 275.813 242.38 277.047C244.228 277.972 246.537 281.057 246.537 281.057C246.537 281.057 246.537 281.057 246.691 280.902C246.691 281.057 246.845 281.057 246.845 281.057C246.845 281.057 249.154 277.972 251.001 277.047C253.156 275.813 256.235 276.122 257.466 278.127C258.852 280.131 257.774 283.061 256.389 285.066Z" fill="#E6DE37" stroke="black" stroke-width="2" stroke-miterlimit="10" stroke-linecap="round" stroke-linejoin="round"/>
</svg>
