<svg width="881" height="253" viewBox="0 0 881 253" fill="none" xmlns="http://www.w3.org/2000/svg">
<path d="M152.492 5.48828H142.212L135.898 14.2642H146.177L152.492 5.48828Z" fill="#E6DE37"/>
<path d="M152.902 141.329H163.181V105.945H153.009L152.902 106.075V141.329Z" fill="#E6DE37"/>
<path d="M163.181 146.871H152.902V147.151H163.181V146.871Z" fill="#E6DE37"/>
<path d="M33.0155 156.857L69.7377 105.711H59.4581L22.7358 156.857V169.277H33.0155V156.857Z" fill="#E6DE37"/>
<path d="M33.0155 180.379H22.7358V201.532H33.0155V180.379Z" fill="#E6DE37"/>
<path d="M161.091 240.062H150.811V247.954H161.091V240.062Z" fill="#E6DE37"/>
<path d="M90.7501 62.1523L71.4623 88.9759H81.7419L101.03 62.1523H90.7501Z" fill="#E6DE37"/>
<path d="M324.195 140.51H358.439V134.969H313.613C314.009 147.685 315.845 160.315 319.087 172.617H329.367C326.593 162.11 324.86 151.356 324.195 140.51V140.51Z" fill="#E6DE37"/>
<path d="M326.76 91.7578H316.481C314.365 103.287 313.34 114.989 313.42 126.71C313.42 127.638 313.42 128.5 313.42 129.406H323.7C323.7 128.5 323.7 127.638 323.7 126.71C323.62 114.989 324.644 103.287 326.76 91.7578V91.7578Z" fill="#E6DE37"/>
<path d="M457.808 180.465H482.85V174.902H450.524C449.752 176.644 448.874 178.336 447.895 179.969C444.097 186.87 437.994 192.213 430.654 195.063C432.334 195.647 434.066 196.065 435.826 196.314C444.734 194.891 452.061 189.608 457.808 180.465Z" fill="#E6DE37"/>
<path d="M322.148 182.621C323.485 186.33 324.928 189.931 326.459 193.402H336.738C335.122 189.909 333.678 186.308 332.428 182.621H322.148Z" fill="#E6DE37"/>
<path d="M341.436 202.414H331.156C339.198 216.916 350.797 229.13 364.861 237.906C381.556 247.983 400.752 253.147 420.246 252.805C421.971 252.805 423.651 252.805 425.354 252.633C407.621 252.175 390.314 247.099 375.141 237.906C361.072 229.136 349.471 216.92 341.436 202.414Z" fill="#E6DE37"/>
<path d="M635.807 128.199H651.626V119.164H633.286H632.036L604.968 156.855V177.124H615.248V156.855L635.807 128.199Z" fill="#E6DE37"/>
<path d="M743.345 201.531H733.066V201.725H743.345V201.531Z" fill="#E6DE37"/>
<path d="M736.88 224.109H726.6V247.957H736.88V224.109Z" fill="#E6DE37"/>
<path d="M735.134 147.151H745.414V105.945H735.242L735.134 106.075V147.151Z" fill="#E6DE37"/>
<path d="M688.089 41.0859L659.599 80.7606H669.879L698.369 41.0859H688.089Z" fill="#E6DE37"/>
<path d="M114.025 147.151H124.283L152.902 106.075L153.01 105.946L162.88 91.7578H152.6L114.025 147.151Z" fill="#FF441B"/>
<path d="M238.199 123.93H227.919V147.152H238.199V123.93Z" fill="#FF441B"/>
<path d="M238.199 201.531H227.919V247.933H238.199V201.531Z" fill="#FF441B"/>
<path d="M274.188 147.152H263.908V165.782H250.418V174.817H263.908V201.533H274.188V197.888H284.92V192.347H274.188V147.152Z" fill="#FF441B"/>
<path d="M238.199 105.945H227.919V113.751H238.199V105.945Z" fill="#FF441B"/>
<path d="M227.617 14.2642L233.737 5.48828H223.458L217.337 14.2642H227.617Z" fill="#FF441B"/>
<path d="M160.316 80.6531H170.595L209.106 25.3672H198.827L160.316 80.6531Z" fill="#FF441B"/>
<path d="M820.431 105.945H810.152V147.172H820.431V105.945Z" fill="#FF441B"/>
<path d="M820.431 201.531H810.152V218.544H820.431V201.531Z" fill="#FF441B"/>
<path d="M764.896 63.3616L805.196 5.48828H794.916L754.616 63.3616H764.896Z" fill="#FF441B"/>
<path d="M813.966 229.648H803.686V247.933H813.966V229.648Z" fill="#FF441B"/>
<path d="M856.421 165.457H846.142V201.552H856.421V165.457Z" fill="#FF441B"/>
<path d="M696.257 147.153H706.536L735.134 106.076L735.242 105.947L753.237 80.0938H742.957L696.257 147.153Z" fill="#FF441B"/>
<path d="M217.338 14.2642L223.459 5.48828H213.179H162.772H152.492L146.178 14.2642H217.338Z" fill="black"/>
<path d="M250.418 174.816V165.782H263.909V147.152H227.919V123.929H256.84V118.366H215.161V113.752H227.919V105.946H163.267V141.33H184.021V146.872H163.181V147.152H114.003L152.6 91.7582H174.84V86.2167H150.639V80.6536H160.315L198.826 25.3678H230.031V19.8047H131.459L109.003 51.0917H138.182V56.6332H82.9914V62.1962H101.008L81.7414 89.0198H91.8271V97.386H43.2952V105.752H69.7378L33.1017 156.898V169.318H0V174.859H77.1943V180.466H33.0155V201.618H161.091V229.046H170.487V234.587H191.8V240.15H161.091V248.042H227.898V201.532H263.887V174.816H250.418ZM96.1372 180.466H90.5125V174.903H96.0726L96.1372 180.466ZM197.425 197.974H191.93V192.433H197.49L197.425 197.974Z" fill="black"/>
<path d="M736.879 224.109V247.957H747.137H793.407H803.686V229.651H813.966H824.978V224.109H745.586H736.879Z" fill="black"/>
<path d="M835.863 147.153H810.153V105.947H745.501V147.153H696.258L742.958 80.094H780.671V71.7278H720.33V63.3616H754.531L794.83 5.48828H723.95L709.511 25.606H731.213V31.1475H661.712V41.0877H698.348L669.858 80.7624H675.095V86.0883H690.999V91.6514H662.079L648.803 110.13H695.59V119.165H651.627V128.2H635.744L615.184 156.856V177.125H672.854V182.623H633.977V187.949H615.249V201.49H743.324V201.684H746.988V207.247H766.556V212.81H743.324V218.524H810.131V201.512H846.121V165.373H762.332V159.81H846.142V147.067L835.863 147.153ZM757.16 14.2642H762.72V19.8057H757.16V14.2642ZM648.2 159.314H638.265V149.374H648.2V159.314ZM710.136 187.992H704.576V182.45H710.136V187.992ZM768.021 188.402H777.978V198.364H768.021V188.402Z" fill="black"/>
<path d="M691.02 91.649V86.0859H675.115V86.3231H662.013H655.612L638.523 110.128H648.802L662.077 91.649H691.02Z" fill="#E6DE37"/>
<path d="M731.212 31.1475V25.6059H709.51L723.949 5.48828H713.669L695.244 31.1475H702.204H731.212Z" fill="#E6DE37"/>
<path d="M122.688 56.59H138.183V51.0485H109.003L131.416 19.8047H121.136L98.7237 51.0485H98.4866V51.3719L94.7368 56.59H98.4866H122.688Z" fill="#E6DE37"/>
<path d="M161.09 228.959V201.531H150.811V228.959H130.79V234.5H170.486V228.959H161.09Z" fill="#E6DE37"/>
<path d="M856.421 154.333V147.152H846.142V159.896H848.275H875.58H880.795V154.333H856.421Z" fill="#FF441B"/>
<path d="M253.22 234.5H247.66V240.063H253.22V234.5Z" fill="#FF441B"/>
<path d="M762.719 14.2617H757.159V19.8248H762.719V14.2617Z" fill="#FF441B"/>
<path d="M85.7502 32.7656H80.2117V38.3287H85.7502V32.7656Z" fill="#E6DE37"/>
<path d="M197.49 192.348H191.93V197.911H197.49V192.348Z" fill="#E6DE37"/>
<path d="M710.135 182.449H704.575V188.012H710.135V182.449Z" fill="#E6DE37"/>
<path d="M244.75 19.8047H239.19V25.3678H244.75V19.8047Z" fill="black"/>
<path d="M332.878 32.3516H327.086V38.1463H332.878V32.3516Z" fill="black"/>
<path d="M617.712 79.8672H611.921V85.6619H617.712V79.8672Z" fill="black"/>
<path d="M553.077 206.191H547.285V211.986H553.077V206.191Z" fill="black"/>
<path d="M641.044 60.5781H635.484V66.1412H641.044V60.5781Z" fill="black"/>
<path d="M206.002 73.1289H200.442V78.692H206.002V73.1289Z" fill="black"/>
<path d="M10.8839 116.512H5.32385V122.075H10.8839V116.512Z" fill="black"/>
<path d="M698.348 228.961H692.809V234.502H698.348V228.961Z" fill="black"/>
<path d="M839.698 224.109H834.138V229.651H839.698V224.109Z" fill="black"/>
<path d="M352.836 43.2852H342.556C339.13 48.2817 336.096 53.5371 333.484 59.0041C329.395 67.7045 326.28 76.8305 324.195 86.2158H334.475C336.573 76.8288 339.703 67.7028 343.806 59.0041C346.405 53.5385 349.424 48.2831 352.836 43.2852V43.2852Z" fill="#E6DE37"/>
<path d="M381.671 15.5366C396.846 6.34587 414.151 1.26321 431.884 0.787951C430.181 0.787951 428.5 0.637016 426.776 0.637016C407.282 0.295326 388.086 5.45937 371.391 15.5366C363.51 20.396 356.392 26.3981 350.271 33.3471H360.551C366.672 26.3981 373.789 20.396 381.671 15.5366V15.5366Z" fill="#E6DE37"/>
<path d="M464.575 73.5574C458.828 64.0556 451.35 58.5859 442.141 57.1484C440.382 57.4143 438.651 57.8401 436.969 58.4206C444.308 61.2708 450.412 66.614 454.209 73.5142C461.019 84.7123 464.424 102.429 464.424 126.665C464.511 136.104 463.848 145.535 462.442 154.869H472.894C474.3 145.535 474.963 136.104 474.876 126.665C474.819 102.458 471.385 84.7554 464.575 73.5574Z" fill="#E6DE37"/>
<path d="M777.956 188.402H768.021V198.343H777.956V188.402Z" fill="#FF441B"/>
<path d="M810.346 21.5742H802.286V29.6385H810.346V21.5742Z" fill="#FF441B"/>
<path d="M633.976 187.99V182.664H604.968V187.99V201.531H615.248V187.99H633.976Z" fill="#E6DE37"/>
<path d="M766.555 212.831V207.289H746.987H737.548H733.066V218.545H743.345V212.831H766.555Z" fill="#E6DE37"/>
<path d="M286.968 50.7242V48.1367H272.637V62.4756H275.201V50.7242H286.968Z" fill="#E6DE37"/>
<path d="M275.201 50.7266V62.478V65.0439H289.532V50.7266H286.968H275.201Z" fill="#FF441B"/>
<path fill-rule="evenodd" clip-rule="evenodd" d="M572.446 129.142C572.461 128.862 572.42 128.582 572.326 128.319C572.231 128.055 572.085 127.813 571.895 127.608C571.705 127.402 571.476 127.236 571.221 127.12C570.966 127.005 570.691 126.941 570.411 126.934C570.4 122.286 570.113 117.644 569.551 113.03C569.827 112.992 570.093 112.898 570.332 112.756C570.572 112.613 570.78 112.424 570.946 112.2C571.112 111.976 571.231 111.721 571.296 111.45C571.362 111.179 571.373 110.897 571.328 110.622V110.221C571.328 109.934 571.249 109.49 571.155 108.959C571.099 108.641 571.038 108.292 570.984 107.927C570.841 106.952 570.783 106.58 570.669 105.863V105.146V104.888C570.525 104.057 570.411 103.254 570.325 102.624L569.981 101.219C569.844 100.666 569.5 100.188 569.019 99.8836C568.538 99.5792 567.959 99.4721 567.401 99.5848C566.757 96.8479 566.011 94.1367 565.163 91.4569H542.649V85.6622H565.357C565.337 85.5717 565.312 85.4822 565.28 85.3941L564.42 83.1007C564.288 82.7622 564.155 82.3935 564.019 82.014L564.019 82.0132L564.019 82.0129C563.89 81.6535 563.757 81.2843 563.618 80.9219C563.501 80.5901 563.367 80.2648 563.216 79.9472L563.105 79.6894C562.862 79.1301 562.638 78.614 562.414 78.1411C562.419 78.0648 562.419 77.9882 562.414 77.9118L561.869 76.7364V76.5644C561.632 76.0416 561.197 75.6339 560.66 75.4299C560.124 75.2259 559.528 75.2421 559.003 75.475C556.96 71.2978 554.683 67.2396 552.182 63.3198C552.651 62.9938 552.98 62.5024 553.102 61.9441C553.224 61.3859 553.131 60.802 552.841 60.3096C552.6 59.8727 552.332 59.4514 552.038 59.0483L550.061 56.4108L547.194 52.5693C546.86 52.1459 546.376 51.8678 545.842 51.793C545.308 51.7182 544.766 51.8525 544.328 52.1679C541.806 49.0718 539.14 46.0903 536.331 43.2522C536.546 43.0586 536.718 42.8221 536.836 42.5579C536.953 42.2936 537.014 42.0077 537.014 41.7184C537.014 41.4292 536.953 41.1432 536.836 40.879C536.718 40.6148 536.546 40.3783 536.331 40.1847L536.073 39.9267L529.338 33.8204C528.872 33.4741 528.292 33.3196 527.716 33.389C527.14 33.4583 526.612 33.7462 526.242 34.1931C522.584 31.2822 518.756 28.5922 514.777 26.1374C515.049 25.6533 515.12 25.0819 514.976 24.546C514.831 24.01 514.482 23.5521 514.004 23.2706L513.373 22.8979L511.051 21.4932L509.905 20.8051L509.303 20.4898L505.663 18.7124C505.159 18.4671 504.58 18.4256 504.046 18.5964C503.512 18.7673 503.065 19.1374 502.797 19.6297C499.185 17.9383 495.459 16.3903 491.676 15.0429C491.826 14.5105 491.771 13.941 491.522 13.4473C491.272 12.9535 490.846 12.5715 490.329 12.3767C488.838 11.7839 487.305 11.3047 485.743 10.9433L481.128 9.76795C480.861 9.69445 480.582 9.67479 480.307 9.71012C480.032 9.74546 479.767 9.83508 479.527 9.97377C479.287 10.1125 479.077 10.2975 478.909 10.5181C478.741 10.7386 478.618 10.9904 478.548 11.2587C474.021 10.2179 469.437 9.44258 464.819 8.93657C464.855 8.65555 464.832 8.37009 464.752 8.09846C464.671 7.82683 464.535 7.57502 464.351 7.35914C464.168 7.14325 463.941 6.96806 463.686 6.84477C463.431 6.72148 463.153 6.6528 462.87 6.64313H462.641L458.342 6.44246L452.523 5.69709C452.239 5.68536 451.955 5.73178 451.689 5.83349C451.424 5.93521 451.181 6.0901 450.977 6.28867C450.773 6.48725 450.612 6.72534 450.503 6.98839C450.395 7.25143 450.341 7.5339 450.345 7.81852C446.333 7.84444 442.324 8.07408 438.335 8.50655C438.301 8.22784 438.21 7.95902 438.069 7.71609C437.928 7.47317 437.739 7.26112 437.515 7.09259C437.29 6.92405 437.034 6.80248 436.761 6.73511C436.489 6.66774 436.205 6.65596 435.928 6.70047L434.323 6.95848L432.46 7.24516L431.113 7.44584L430.081 7.58918L428.332 7.84719H427.845L426.555 8.07653H426.383C425.827 8.21948 425.346 8.56844 425.037 9.05279C424.729 9.53714 424.616 10.1207 424.721 10.6853C420.183 11.7057 415.712 13.0078 411.336 14.5842C411.229 14.3152 411.069 14.0702 410.866 13.8636C410.664 13.657 410.422 13.4928 410.155 13.3807C409.888 13.2686 409.602 13.2108 409.312 13.2107C409.023 13.2106 408.736 13.2682 408.469 13.3801L405.317 14.6702L404.055 15.1289L403.31 15.5015L399.928 17.1356H399.756C399.497 17.253 399.264 17.4206 399.071 17.6286C398.877 17.8367 398.726 18.0811 398.628 18.3477C398.529 18.6143 398.484 18.8978 398.496 19.1819C398.508 19.4659 398.576 19.7448 398.696 20.0024C395.084 21.7798 391.587 23.7579 388.177 25.8794C387.859 25.4413 387.394 25.1332 386.867 25.0119C386.34 24.8907 385.787 24.9646 385.31 25.22C384.51 25.6432 383.751 26.1424 383.046 26.7107L381.527 27.8288L377.543 30.6956C377.314 30.8626 377.121 31.0737 376.975 31.3167C376.829 31.5596 376.733 31.8293 376.693 32.1099C376.681 32.1899 376.674 32.2704 376.672 32.3509H442.98V32.9956C446.652 32.6002 450.347 32.4446 454.042 32.5303C456.917 32.5681 459.787 32.7595 462.641 33.1037C465.507 33.4191 468.373 33.9064 471.383 34.5084C477.08 35.7694 482.646 37.5643 488.007 39.8694C490.468 40.9217 492.87 42.1084 495.201 43.4242C497.437 44.6569 499.529 45.8896 501.364 47.1224C504.36 49.0935 507.231 51.2477 509.962 53.5727L512.972 56.2961L509.762 53.802C506.912 51.6834 503.956 49.7123 500.905 47.8964C499.042 46.721 496.95 45.603 494.685 44.4562C492.421 43.3095 490.013 42.2488 487.491 41.1594C482.192 38.9728 476.704 37.2743 471.096 36.0852C468.23 35.4545 465.364 34.9385 462.498 34.5944C460.558 34.3616 458.684 34.2339 456.787 34.1045C455.881 34.0427 454.969 33.9806 454.042 33.9064C452.12 33.7526 450.352 33.8051 448.627 33.8564C447.78 33.8815 446.943 33.9064 446.103 33.9064C445.024 33.9064 443.986 33.9577 442.98 34.0343V38.1456H371.87C370.123 39.7121 368.421 41.3289 366.766 42.9942C366.573 42.7839 366.338 42.6161 366.076 42.5013C365.815 42.3865 365.532 42.3272 365.247 42.3272C364.961 42.3272 364.679 42.3865 364.417 42.5013C364.156 42.6161 363.921 42.7839 363.728 42.9942L361.979 44.8863L360.489 46.549L360.002 47.065L359.83 47.2944L358.282 48.9858C357.927 49.333 357.609 49.7175 357.336 50.1325C357.063 50.5837 356.954 51.1151 357.027 51.6372C357.101 52.1594 357.351 52.6404 357.737 52.9993C355.254 56.143 352.939 59.4157 350.801 62.8038C350.321 62.5296 349.752 62.454 349.216 62.5933C348.681 62.7325 348.221 63.0755 347.935 63.5491L346.559 65.7852C346.448 65.9705 346.331 66.1617 346.211 66.3579L346.21 66.3596L346.209 66.3604L346.209 66.3606L346.209 66.3607C345.958 66.7711 345.693 67.2033 345.441 67.6487C345.253 67.9348 345.08 68.2315 344.925 68.5374C344.639 69.0821 344.352 69.6267 344.123 70.1141C344.064 70.2661 343.987 70.4105 343.894 70.5441L343.32 71.7768C343.073 72.2775 343.027 72.8542 343.192 73.3877C343.358 73.9212 343.722 74.3708 344.209 74.6436C342.201 78.8411 340.431 83.1481 338.906 87.5443C338.628 87.4406 338.332 87.3941 338.036 87.4076C337.739 87.4211 337.448 87.4942 337.181 87.6227C336.913 87.7512 336.674 87.9323 336.478 88.1553C336.282 88.3782 336.133 88.6384 336.04 88.9203L335.782 89.637L335.553 90.2104C335.382 90.8529 335.178 91.6715 334.967 92.5226L334.967 92.5227L334.967 92.524C334.895 92.8116 334.823 93.103 334.75 93.3925V93.9659C334.206 96.0873 333.69 98.0367 333.69 98.0367C333.612 98.3079 333.591 98.5918 333.626 98.8716C333.661 99.1514 333.752 99.4212 333.894 99.6649C334.036 99.9085 334.225 100.121 334.451 100.29C334.677 100.458 334.935 100.579 335.209 100.646C334.378 104.516 333.69 108.472 333.231 112.485C332.671 112.436 332.114 112.606 331.676 112.959C331.238 113.311 330.953 113.82 330.881 114.378V115.438L330.804 116.954H357.74C357.781 116.532 357.836 116.095 357.909 115.639C358.258 111.781 358.862 107.95 359.715 104.172C359.895 103.523 360.067 102.866 360.24 102.205L360.24 102.204C360.617 100.76 361.001 99.291 361.492 97.8361L361.69 97.2508C362.341 95.3199 362.999 93.3697 363.728 91.4431C364.53 89.3217 365.505 87.2576 366.594 85.3082C367.054 84.4856 367.493 83.6578 367.927 82.8401L367.927 82.84L367.927 82.84L367.927 82.8399L367.927 82.8398L367.927 82.8398L367.927 82.8397L367.927 82.8396L367.928 82.8383L367.928 82.8369L367.928 82.8368L367.929 82.8354L367.929 82.8352L367.929 82.8351C368.523 81.7166 369.106 80.6169 369.718 79.5745C371.708 76.2495 373.93 73.0691 376.368 70.0568C377.254 68.8348 378.201 67.6579 379.205 66.5306C380.123 65.4986 380.925 64.6098 381.642 63.9218L383.849 61.7717L381.871 64.1512C380.968 65.2182 379.889 66.6525 378.582 68.3909L378.58 68.3925L378.579 68.3946L378.577 68.3973C378.059 69.0857 377.505 69.8217 376.912 70.6015C374.692 73.7126 372.635 76.9374 370.75 80.2626C369.747 82.0973 368.715 83.9894 367.884 85.9962C367.441 87.0642 366.958 88.1404 366.474 89.2204C366.048 90.1696 365.62 91.1217 365.218 92.0738C364.358 94.1092 363.556 96.2307 362.897 98.3234C362.237 100.416 361.635 102.509 361.062 104.516C360.489 106.522 360.03 108.529 359.715 110.421C359.583 111.212 359.436 111.983 359.294 112.734C359.094 113.779 358.903 114.786 358.769 115.754C358.626 116.793 358.494 117.78 358.377 118.706V122.748H357.947C357.918 123.134 357.895 123.498 357.881 123.838C357.795 125.816 357.623 126.934 357.623 126.934V123.838V122.748H330.566V123.953C330.55 124.235 330.592 124.517 330.688 124.782C330.785 125.047 330.934 125.291 331.127 125.497C331.319 125.703 331.552 125.868 331.81 125.982C332.068 126.096 332.347 126.157 332.629 126.16C332.645 130.807 332.922 135.449 333.461 140.064C332.906 140.149 332.408 140.45 332.075 140.901C331.742 141.352 331.601 141.917 331.683 142.472V142.845C331.683 143.175 331.778 143.718 331.898 144.412C331.966 144.801 332.041 145.238 332.113 145.712C332.113 146.012 332.172 146.321 332.231 146.64C332.275 146.871 332.319 147.106 332.343 147.346V147.747V148.406C332.343 148.938 332.456 149.458 332.557 149.923C332.609 150.16 332.658 150.382 332.687 150.585C332.767 150.908 332.839 151.185 332.895 151.404L332.896 151.404C332.979 151.729 333.031 151.927 333.031 151.961C333.173 152.51 333.519 152.984 333.998 153.287C334.477 153.591 335.053 153.701 335.61 153.595C336.546 157.472 337.675 161.299 338.992 165.063C338.716 165.16 338.462 165.313 338.248 165.514C338.034 165.714 337.864 165.956 337.748 166.226C337.632 166.495 337.573 166.786 337.575 167.079C337.577 167.372 337.64 167.662 337.76 167.929L338.62 170.28C338.813 170.775 339.007 171.317 339.2 171.86C339.265 172.041 339.329 172.222 339.394 172.402C339.51 172.733 339.644 173.059 339.795 173.376C340.066 174.001 340.338 174.574 340.585 175.096L340.585 175.096L340.626 175.182V175.412L341.228 176.644C341.34 176.908 341.503 177.147 341.71 177.346C341.916 177.545 342.16 177.7 342.428 177.802C342.696 177.904 342.982 177.95 343.268 177.938C343.555 177.927 343.836 177.857 344.094 177.734C346.099 182.207 348.358 186.562 350.858 190.778C350.425 191.099 350.123 191.566 350.007 192.093C349.891 192.62 349.97 193.171 350.228 193.645C350.469 194.081 350.737 194.503 351.03 194.906L351.672 195.762H400.096C392.246 189.933 385.408 182.773 379.919 174.556C370.502 160.46 365.476 143.887 365.476 126.934C365.499 104.207 374.535 82.4181 390.602 66.3479C406.669 50.2777 428.454 41.2395 451.176 41.2168C468.126 41.2168 484.695 46.244 498.788 55.6627C512.882 65.0815 523.866 78.4687 530.352 94.1315C536.839 109.794 538.536 127.029 535.229 143.657C531.923 160.284 523.76 175.558 511.775 187.545C499.79 199.533 484.519 207.697 467.895 211.004C451.271 214.312 434.04 212.614 418.38 206.127C415.154 204.79 412.025 203.263 409.006 201.556H394.661C395.861 202.466 397.577 203.646 399.727 205.054C406.428 209.342 413.641 212.77 421.195 215.26C426.229 216.934 431.398 218.171 436.644 218.958C442.485 219.851 448.399 220.158 454.3 219.876C460.602 219.681 466.865 218.826 472.988 217.324C476.155 216.584 479.268 215.626 482.303 214.458L486.889 212.766C487.769 212.434 488.591 212.025 489.434 211.606L489.434 211.606C490.046 211.301 490.668 210.992 491.332 210.702L495.746 208.581L499.902 206.144C500.406 205.818 500.925 205.512 501.443 205.206L501.444 205.206C502.339 204.678 503.23 204.152 504.029 203.535L507.927 200.668C512.964 196.865 517.585 192.541 521.714 187.768C525.586 183.317 529.041 178.519 532.032 173.434C533.449 171.041 534.713 168.561 535.815 166.009C536.939 163.73 537.897 161.373 538.682 158.956C540.335 154.8 541.742 150.55 542.895 146.228C543.612 142.3 544.213 138.831 544.586 135.993C544.987 130.26 545.188 126.934 545.188 126.934L544.873 135.993C544.557 138.86 544.07 142.357 543.44 146.342C542.535 150.771 541.318 155.129 539.799 159.386C539.019 161.851 538.062 164.256 536.933 166.582C535.829 169.115 534.585 171.584 533.207 173.978C530.235 179.197 526.76 184.113 522.831 188.656C518.615 193.522 513.908 197.941 508.787 201.844L504.86 204.71C504.079 205.305 503.216 205.82 502.369 206.325L502.369 206.325L502.369 206.325L502.368 206.325L502.367 206.326C501.786 206.673 501.212 207.015 500.676 207.377L496.434 209.957L491.934 212.164C491.415 212.399 490.916 212.647 490.418 212.895C489.458 213.374 488.5 213.851 487.405 214.228L482.733 215.948C479.644 217.13 476.473 218.088 473.246 218.815C467.017 220.313 460.647 221.149 454.243 221.309C448.256 221.566 442.259 221.171 436.358 220.134C431.077 219.242 425.881 217.909 420.823 216.149C413.296 213.479 406.154 209.826 399.584 205.284C399.22 205.029 398.87 204.786 398.533 204.552L398.53 204.549C396.833 203.37 395.479 202.429 394.481 201.556H356.025C356.347 201.883 356.769 202.097 357.227 202.161C357.761 202.236 358.303 202.102 358.741 201.786C361.263 204.882 363.957 207.864 366.766 210.702C366.555 210.898 366.387 211.135 366.272 211.399C366.157 211.663 366.097 211.948 366.097 212.236C366.097 212.524 366.157 212.808 366.272 213.072C366.387 213.336 366.555 213.574 366.766 213.769L366.995 213.999L373.788 220.277C374.249 220.622 374.825 220.775 375.396 220.706C375.968 220.636 376.49 220.349 376.855 219.904C380.519 222.808 384.347 225.498 388.32 227.96C388.053 228.442 387.982 229.009 388.12 229.542C388.259 230.076 388.597 230.536 389.065 230.827L389.667 231.2L392.017 232.604L393.135 233.292L393.766 233.608L397.406 235.385C397.909 235.638 398.49 235.683 399.026 235.512C399.562 235.34 400.009 234.965 400.272 234.468C403.912 236.159 407.61 237.707 411.422 239.055C411.263 239.583 411.31 240.153 411.555 240.648C411.8 241.143 412.223 241.526 412.74 241.721C414.22 242.316 415.743 242.795 417.297 243.154L421.941 244.33C422.21 244.403 422.491 244.423 422.768 244.388C423.045 244.353 423.312 244.264 423.554 244.126C423.796 243.987 424.009 243.802 424.18 243.581C424.35 243.361 424.476 243.108 424.549 242.839C429.077 243.877 433.661 244.653 438.278 245.161C438.242 245.444 438.266 245.732 438.348 246.006C438.43 246.279 438.569 246.532 438.756 246.749C438.942 246.965 439.172 247.14 439.431 247.261C439.689 247.383 439.97 247.449 440.256 247.454H440.485L444.756 247.655L449.8 247.913C450.084 247.921 450.366 247.872 450.63 247.768C450.894 247.665 451.134 247.51 451.337 247.312C451.54 247.115 451.702 246.878 451.812 246.617C451.922 246.356 451.979 246.075 451.979 245.792C455.981 245.766 459.98 245.536 463.959 245.104C463.998 245.384 464.092 245.653 464.236 245.896C464.38 246.139 464.571 246.351 464.798 246.519C465.025 246.687 465.283 246.809 465.557 246.876C465.832 246.943 466.117 246.954 466.396 246.91L467.886 246.68L469.892 246.365L471.125 246.164H472.157L473.877 245.906H474.364L475.682 245.677H475.854C476.403 245.522 476.876 245.171 477.183 244.69C477.49 244.209 477.608 243.631 477.517 243.068C482.192 242.068 486.797 240.766 491.303 239.169C491.41 239.438 491.57 239.683 491.772 239.89C491.975 240.097 492.217 240.261 492.484 240.373C492.751 240.485 493.037 240.543 493.326 240.543C493.616 240.543 493.902 240.485 494.169 240.373L497.408 239.198L498.669 238.739L499.443 238.367L502.797 236.761H502.997C503.515 236.518 503.916 236.081 504.114 235.545C504.313 235.009 504.293 234.416 504.058 233.894C507.65 232.163 511.151 230.25 514.548 228.161C514.869 228.594 515.334 228.898 515.86 229.019C516.385 229.14 516.936 229.07 517.414 228.82C518.22 228.405 518.979 227.905 519.679 227.329L521.198 226.211L525.182 223.345C525.599 223.006 525.873 222.522 525.947 221.99C526.022 221.458 525.892 220.918 525.583 220.478C529.212 217.588 532.667 214.487 535.93 211.189C536.123 211.4 536.358 211.567 536.62 211.682C536.881 211.797 537.164 211.856 537.449 211.856C537.735 211.856 538.017 211.797 538.279 211.682C538.54 211.567 538.775 211.4 538.968 211.189L540.34 209.669H512.516V203.874H545.457C545.659 203.462 545.732 202.997 545.664 202.54C545.585 202.016 545.326 201.536 544.93 201.184C547.413 198.041 549.728 194.768 551.866 191.38C552.348 191.647 552.915 191.718 553.448 191.579C553.982 191.441 554.441 191.102 554.733 190.634L556.137 188.312L557.226 186.535C557.405 186.248 557.568 185.952 557.713 185.646C557.922 185.286 558.105 184.926 558.28 184.583L558.281 184.58L558.281 184.58C558.371 184.405 558.458 184.234 558.545 184.069L558.745 183.639L558.874 183.369L558.874 183.369L558.874 183.368C559.093 182.908 559.251 182.576 559.347 182.407C559.592 181.903 559.634 181.323 559.463 180.789C559.292 180.255 558.922 179.808 558.43 179.54C560.44 175.347 562.201 171.04 563.704 166.639C563.982 166.743 564.278 166.789 564.575 166.776C564.871 166.762 565.162 166.689 565.429 166.561C565.697 166.432 565.936 166.251 566.132 166.028C566.328 165.805 566.477 165.545 566.57 165.263L566.828 164.518L567.029 163.944C567.119 163.606 567.218 163.219 567.324 162.803C567.488 162.164 567.669 161.458 567.86 160.762V160.189C568.404 158.068 568.92 156.118 568.92 156.118C568.993 155.845 569.011 155.56 568.972 155.28C568.934 155 568.839 154.731 568.695 154.488C568.551 154.245 568.36 154.033 568.133 153.865C567.905 153.697 567.647 153.576 567.372 153.509C568.238 149.6 568.898 145.648 569.35 141.669C569.914 141.719 570.475 141.55 570.917 141.198C571.36 140.846 571.651 140.338 571.729 139.777V138.688L572.016 132.811L572.159 130.202L572.446 129.142ZM416.143 201.556C427.002 206.665 438.947 209.394 451.176 209.411C467.485 209.411 483.428 204.574 496.989 195.511C510.549 186.448 521.119 173.567 527.36 158.496C533.601 143.425 535.234 126.842 532.052 110.843C528.871 94.8434 521.017 80.1473 509.485 68.6126C497.952 57.0778 483.259 49.2226 467.263 46.0401C451.267 42.8577 434.687 44.491 419.619 50.7336C404.552 56.9762 391.673 67.5475 382.612 81.111C373.551 94.6744 368.715 110.621 368.715 126.933C368.745 148.798 377.443 169.759 392.901 185.22C396.87 189.191 401.202 192.715 405.819 195.762H416.324V201.556H416.143ZM440.599 177.131C440.112 182.549 439.883 187.996 439.826 192.124V192.812C439.812 193.578 439.627 194.331 439.284 195.016C438.941 195.701 438.449 196.301 437.844 196.771C437.24 197.241 436.537 197.57 435.789 197.733C435.041 197.897 434.265 197.89 433.52 197.715C427.53 196.23 421.752 193.996 416.323 191.064C415.928 190.854 415.539 190.634 415.139 190.407L415.138 190.407C414.609 190.107 414.06 189.797 413.456 189.487C412.797 189.089 412.237 188.546 411.818 187.901C411.398 187.255 411.13 186.523 411.033 185.759C410.937 184.995 411.015 184.219 411.26 183.49C411.506 182.76 411.914 182.095 412.453 181.546L412.912 181.087C415.778 178.22 419.447 174.121 422.972 169.907C425.036 167.441 427.014 164.976 428.705 162.654C432.598 165.092 436.869 166.865 441.345 167.9C441.345 170.294 441.105 172.889 440.859 175.549L440.858 175.553C440.81 176.077 440.761 176.603 440.714 177.131H440.599ZM488.695 189.458C487.777 190.003 486.86 190.548 485.828 191.035C480.447 193.962 474.717 196.197 468.774 197.686C468.042 197.843 467.284 197.835 466.555 197.664C465.826 197.493 465.144 197.163 464.558 196.697C463.971 196.231 463.495 195.641 463.164 194.97C462.832 194.298 462.654 193.561 462.641 192.812C462.655 192.583 462.655 192.353 462.641 192.124C462.641 187.996 462.354 182.549 461.867 177.131C461.609 173.92 461.236 170.767 460.864 167.871C465.337 166.831 469.608 165.058 473.504 162.625C475.281 164.947 477.258 167.412 479.236 169.878C482.733 174.092 486.43 178.106 489.297 181.03C489.434 181.206 489.588 181.369 489.755 181.517C490.297 182.063 490.708 182.724 490.959 183.451C491.209 184.178 491.292 184.953 491.201 185.716C491.11 186.48 490.848 187.213 490.433 187.861C490.019 188.509 489.464 189.055 488.809 189.458H488.695ZM521.914 144.564C520.43 150.555 518.196 156.334 515.264 161.765C515.1 162.065 514.929 162.368 514.754 162.679L514.753 162.68L514.752 162.681L514.751 162.684C514.408 163.293 514.048 163.931 513.688 164.632C513.29 165.291 512.748 165.851 512.102 166.271C511.457 166.69 510.725 166.959 509.961 167.055C509.197 167.152 508.422 167.074 507.692 166.828C506.963 166.582 506.298 166.174 505.749 165.635L505.261 165.176C502.395 162.31 498.296 158.64 494.112 155.114C491.647 153.05 489.182 151.072 486.86 149.38C489.286 145.48 491.058 141.21 492.105 136.738C494.972 137.11 498.153 137.483 501.363 137.77C506.78 138.228 512.226 138.458 516.325 138.544H517.099C517.839 138.557 518.567 138.73 519.234 139.053C519.9 139.376 520.488 139.84 520.957 140.412C521.426 140.985 521.765 141.653 521.95 142.37C522.135 143.087 522.162 143.836 522.029 144.564H521.914ZM505.749 88.4034C506.298 87.8642 506.963 87.4563 507.692 87.2104C508.422 86.9644 509.197 86.8868 509.961 86.9834C510.725 87.0799 511.457 87.348 512.102 87.7677C512.748 88.1874 513.29 88.7478 513.688 89.4068L515.264 92.1302C518.184 97.5664 520.418 103.344 521.914 109.331C522.084 110.066 522.089 110.83 521.928 111.567C521.767 112.305 521.445 112.997 520.984 113.595C520.524 114.193 519.936 114.681 519.265 115.024C518.593 115.368 517.853 115.558 517.099 115.581H516.411C512.312 115.581 506.866 115.896 501.449 116.355C498.239 116.641 495.086 117.014 492.191 117.387C491.144 112.915 489.372 108.644 486.946 104.744C489.268 102.967 491.732 100.989 494.197 99.0111L494.198 99.0106C498.382 95.4844 502.395 91.8149 505.347 88.9481L505.749 88.4034ZM452.641 78.7086H461.669C461.605 79.4082 461.539 80.099 461.474 80.7804L461.473 80.786L461.473 80.7892L461.473 80.7896C461.301 82.5842 461.135 84.3135 461.036 85.9666C465.509 87.0068 469.78 88.7794 473.676 91.2129C475.367 88.8908 477.344 86.4253 479.408 83.9599C480.902 82.1594 482.427 80.3799 483.908 78.7086H493.973V72.9139H489.306L489.44 72.7793L489.927 72.3206C490.461 71.7685 490.864 71.1034 491.107 70.3746C491.35 69.6457 491.426 68.8717 491.33 68.1095C491.233 67.3473 490.967 66.6165 490.551 65.9709C490.134 65.3254 489.578 64.7816 488.924 64.3796C488.381 64.0932 487.871 63.8068 487.375 63.5287L487.374 63.5286L487.374 63.5284L487.374 63.5283L487.374 63.5281L487.371 63.5267L487.369 63.5257L487.367 63.5245L487.367 63.5244L487.367 63.5243L487.367 63.5242L487.366 63.5241L487.366 63.524L487.366 63.5239L487.366 63.5238L487.366 63.5237L487.366 63.5236L487.365 63.5235L487.365 63.5234L487.365 63.5233L487.365 63.5232L487.365 63.5231C486.921 63.2743 486.489 63.0322 486.058 62.8029C480.604 59.8573 474.796 57.6222 468.774 56.1519C468.03 55.97 467.254 55.9592 466.505 56.1202C465.755 56.2813 465.052 56.61 464.448 57.0817C463.844 57.5535 463.355 58.156 463.017 58.844C462.679 59.532 462.501 60.2876 462.497 61.0541C462.512 61.2832 462.512 61.513 462.497 61.7421C462.454 64.8965 462.309 68.8208 462.026 72.9139H452.376L451.52 54.2025L450.752 72.9139H440.746C440.451 68.8311 440.284 64.9178 440.284 61.7708V61.0828C440.27 60.3168 440.085 59.5637 439.742 58.8787C439.4 58.1936 438.908 57.594 438.303 57.1239C437.698 56.6538 436.996 56.325 436.248 56.1618C435.499 55.9986 434.724 56.005 433.979 56.1806C427.989 57.6646 422.211 59.8993 416.781 62.8315C415.721 63.3189 414.804 63.8636 413.915 64.4083C413.271 64.83 412.731 65.392 412.335 66.0521C411.94 66.7121 411.698 67.4532 411.629 68.2198C411.56 68.9864 411.666 69.7586 411.937 70.4787C412.209 71.1988 412.64 71.8481 413.198 72.378L413.657 72.8653L413.704 72.9139H396.622V78.7086H403.896L421.424 97.4912L436.529 113.717L441.316 118.849C440.378 120.045 439.652 121.393 439.166 122.834L431.829 123.321L409.501 124.812L380.667 126.704L409.329 127.421L431.456 127.965L438.507 128.137C438.676 129.916 439.203 131.641 440.055 133.212L435.211 138.572L420.221 155.114L401.59 175.726L421.969 156.949L438.278 141.898L443.466 137.139C445.134 138.455 447.104 139.332 449.198 139.69L449.628 146.8L451.004 168.96L452.724 196.31L453.497 168.874L454.157 146.685L454.357 139.518C456.167 139.089 457.859 138.267 459.316 137.11L464.418 141.927L480.469 157.207L500.79 176.5L482.246 155.372L467.513 138.572L462.698 133.068C463.558 131.473 464.076 129.715 464.217 127.908L471.239 127.593L493.338 126.561L522.573 125.213L493.195 123.894L470.809 122.92L463.472 122.576C463.014 121.281 462.345 120.07 461.494 118.992L466.223 113.746L481.07 97.2045L501.392 74.6714L479.035 95.3697L462.641 110.564L457.338 115.466C456.361 114.944 455.32 114.549 454.243 114.291L453.927 107.124L452.924 84.9059L452.641 78.7086ZM423.374 95.6564L404.474 78.7086H419.107C420.62 80.3915 422.185 82.1854 423.717 84.0172C425.695 86.4826 427.673 88.9481 429.45 91.2702C433.343 88.832 437.615 87.059 442.09 86.024C441.77 83.7156 441.487 81.2432 441.239 78.7086H450.514L450.259 84.9346L449.255 107.095L448.94 114.176C447.739 114.428 446.58 114.852 445.501 115.437L440.055 110.564L423.374 95.6564ZM380.667 109.302C382.154 103.317 384.378 97.5391 387.288 92.1016C387.403 91.9027 387.519 91.7024 387.635 91.501L387.635 91.5004C388.038 90.8019 388.448 90.09 388.893 89.3781C389.288 88.7197 389.827 88.1595 390.47 87.7398C391.113 87.3201 391.843 87.0518 392.605 86.9552C393.366 86.8586 394.14 86.9362 394.867 87.1821C395.595 87.4279 396.257 87.8357 396.804 88.3747L397.291 88.8334C400.157 91.7002 404.256 95.3697 408.44 98.8959C410.905 100.96 413.399 102.938 415.721 104.629C413.243 108.516 411.431 112.789 410.361 117.272C407.495 116.899 404.313 116.527 401.103 116.24C395.657 115.781 390.24 115.552 386.113 115.466H385.425C384.672 115.453 383.932 115.273 383.257 114.94C382.582 114.608 381.989 114.129 381.521 113.54C381.052 112.951 380.72 112.266 380.548 111.533C380.375 110.8 380.367 110.039 380.524 109.302H380.667ZM388.922 164.46C388.348 163.542 387.832 162.625 387.316 161.593C384.406 156.155 382.183 150.378 380.696 144.392C380.519 143.648 380.513 142.874 380.676 142.126C380.839 141.379 381.168 140.678 381.639 140.076C382.109 139.473 382.709 138.984 383.394 138.644C384.08 138.304 384.832 138.123 385.597 138.114H386.285C390.412 138.114 395.829 137.798 401.275 137.34C404.485 137.053 407.638 136.68 410.533 136.308C411.568 140.784 413.34 145.056 415.778 148.95C413.456 150.728 410.963 152.706 408.498 154.684C404.313 158.21 400.3 161.88 397.348 164.746L396.861 165.205C396.333 165.789 395.675 166.242 394.942 166.528C394.208 166.814 393.418 166.926 392.633 166.853C391.849 166.781 391.092 166.527 390.423 166.112C389.754 165.696 389.191 165.131 388.778 164.46H388.922ZM461.52 227.053H455.728V232.848H461.52V227.053ZM549.602 159.834H555.394V165.629H549.602V159.834ZM518.308 40.4635H512.516V46.2582H518.308V40.4635ZM460.364 96.0927H466.155V101.887H460.364V96.0927ZM364.169 155.199H358.377V160.993H364.169V155.199ZM456.887 19.6026H462.679V25.3973H456.887V19.6026ZM442.977 152.881H437.185V158.675H442.977V152.881Z" fill="#FF441B"/>
<path fill-rule="evenodd" clip-rule="evenodd" d="M564.334 129.142C564.35 128.862 564.309 128.582 564.214 128.319C564.12 128.055 563.973 127.813 563.783 127.608C563.594 127.402 563.365 127.236 563.11 127.12C562.855 127.005 562.579 126.941 562.299 126.934C562.289 122.286 562.002 117.644 561.44 113.03C561.716 112.992 561.981 112.898 562.221 112.756C562.46 112.613 562.669 112.424 562.835 112.2C563 111.976 563.119 111.721 563.185 111.45C563.251 111.179 563.261 110.897 563.217 110.622V110.221C563.217 109.934 563.138 109.49 563.044 108.959L563.044 108.958L563.044 108.957L563.043 108.953C562.987 108.637 562.926 108.29 562.873 107.927C562.729 106.952 562.672 106.58 562.557 105.863V105.146V104.888C562.414 104.057 562.299 103.254 562.213 102.624L561.869 101.219C561.733 100.666 561.388 100.188 560.908 99.8836C560.427 99.5792 559.848 99.4721 559.29 99.5848C558.646 96.8479 557.899 94.1367 557.051 91.4569H534.537V85.6622H557.246C557.226 85.5717 557.2 85.4822 557.169 85.3941L556.309 83.1007C556.176 82.7618 556.044 82.3927 555.907 82.0127L555.907 82.0105L555.906 82.0082L555.905 82.0058C555.777 81.6486 555.645 81.2819 555.506 80.9219C555.39 80.5901 555.256 80.2648 555.105 79.9472L554.993 79.6888C554.75 79.1297 554.527 78.6138 554.303 78.1411C554.308 78.0648 554.308 77.9882 554.303 77.9118L553.758 76.7364V76.5644C553.52 76.0416 553.086 75.6339 552.549 75.4299C552.012 75.2259 551.417 75.2421 550.892 75.475C548.849 71.2978 546.572 67.2396 544.07 63.3198C544.54 62.9938 544.868 62.5024 544.991 61.9441C545.113 61.3859 545.02 60.802 544.73 60.3096C544.489 59.8727 544.221 59.4514 543.927 59.0483L541.949 56.4108L539.083 52.5693C538.749 52.1459 538.265 51.8678 537.73 51.793C537.196 51.7182 536.654 51.8525 536.217 52.1679C533.695 49.0718 531.029 46.0903 528.22 43.2522C528.435 43.0586 528.607 42.8221 528.724 42.5579C528.842 42.2936 528.903 42.0077 528.903 41.7184C528.903 41.4292 528.842 41.1432 528.724 40.879C528.607 40.6148 528.435 40.3783 528.22 40.1847L527.962 39.9267L521.227 33.8204C520.761 33.4741 520.18 33.3196 519.604 33.389C519.028 33.4583 518.501 33.7462 518.131 34.1931C514.473 31.2822 510.645 28.5922 506.666 26.1374C506.938 25.6533 507.009 25.0819 506.864 24.546C506.72 24.01 506.371 23.5521 505.892 23.2706L505.262 22.8979L502.94 21.4932L501.794 20.8051L501.192 20.4898L497.552 18.7124C497.048 18.4671 496.468 18.4256 495.935 18.5964C495.401 18.7673 494.953 19.1374 494.685 19.6297C491.074 17.9383 487.348 16.3903 483.564 15.0429C483.715 14.5105 483.66 13.941 483.41 13.4473C483.161 12.9535 482.735 12.5715 482.217 12.3767C480.727 11.7839 479.194 11.3047 477.631 10.9433L473.017 9.76795C472.749 9.69445 472.47 9.67479 472.195 9.71012C471.92 9.74546 471.655 9.83508 471.415 9.97377C471.175 10.1125 470.965 10.2975 470.797 10.5181C470.629 10.7386 470.507 10.9904 470.437 11.2587C465.91 10.2179 461.326 9.44258 456.708 8.93657C456.744 8.65555 456.721 8.37009 456.64 8.09846C456.56 7.82683 456.424 7.57502 456.24 7.35914C456.057 7.14325 455.83 6.96806 455.575 6.84477C455.32 6.72148 455.042 6.6528 454.759 6.64313H454.53L450.23 6.44246L444.412 5.69709C444.128 5.68536 443.844 5.73178 443.578 5.83349C443.312 5.93521 443.07 6.0901 442.866 6.28867C442.662 6.48725 442.501 6.72534 442.392 6.98839C442.283 7.25143 442.229 7.5339 442.234 7.81852C438.221 7.84444 434.213 8.07408 430.224 8.50655C430.189 8.22784 430.099 7.95902 429.958 7.71609C429.817 7.47317 429.628 7.26112 429.403 7.09259C429.179 6.92405 428.922 6.80248 428.65 6.73511C428.377 6.66774 428.094 6.65596 427.816 6.70047L426.211 6.95848L424.348 7.24516L423.001 7.44584L421.969 7.58918L420.221 7.84719H419.734L418.444 8.07653H418.272C417.716 8.21948 417.235 8.56844 416.926 9.05279C416.617 9.53714 416.504 10.1207 416.61 10.6853C412.071 11.7057 407.601 13.0078 403.224 14.5842C403.117 14.3152 402.958 14.0702 402.755 13.8636C402.552 13.657 402.311 13.4928 402.044 13.3807C401.777 13.2686 401.49 13.2108 401.201 13.2107C400.912 13.2106 400.625 13.2682 400.358 13.3801L397.205 14.6702L395.944 15.1289L395.199 15.5015L391.817 17.1356H391.645C391.386 17.253 391.153 17.4206 390.959 17.6286C390.766 17.8367 390.615 18.0811 390.517 18.3477C390.418 18.6143 390.373 18.8978 390.385 19.1819C390.396 19.4659 390.464 19.7448 390.584 20.0024C386.973 21.7798 383.476 23.7579 380.065 25.8794C379.748 25.4413 379.283 25.1332 378.756 25.0119C378.229 24.8907 377.676 24.9646 377.199 25.22C376.398 25.6432 375.64 26.1424 374.935 26.7107L373.416 27.8288L369.432 30.6956C369.203 30.8626 369.009 31.0737 368.863 31.3167C368.717 31.5596 368.621 31.8293 368.581 32.1099C368.57 32.1899 368.563 32.2704 368.561 32.3509H434.868V32.9956C438.54 32.6002 442.236 32.4446 445.931 32.5303C448.805 32.5681 451.676 32.7595 454.53 33.1037C457.396 33.4191 460.262 33.9064 463.272 34.5084C468.969 35.7694 474.535 37.5643 479.896 39.8694C482.357 40.9217 484.759 42.1084 487.09 43.4242C489.326 44.6569 491.418 45.8896 493.252 47.1224C496.248 49.0935 499.12 51.2477 501.851 53.5727L504.86 56.2961L501.65 53.802C498.801 51.6834 495.845 49.7123 492.794 47.8964C490.931 46.721 488.838 45.603 486.574 44.4562C484.31 43.3095 481.902 42.2488 479.38 41.1594C474.08 38.9728 468.593 37.2743 462.985 36.0852C460.119 35.4545 457.253 34.9385 454.386 34.5944C452.447 34.3616 450.573 34.2339 448.676 34.1045C447.769 34.0427 446.858 33.9806 445.931 33.9064C444.009 33.7526 442.241 33.8051 440.515 33.8564C439.668 33.8815 438.831 33.9064 437.992 33.9064C436.912 33.9064 435.874 33.9577 434.868 34.0343V38.1456H363.759C362.012 39.7121 360.31 41.3289 358.655 42.9942C358.461 42.7839 358.227 42.6161 357.965 42.5013C357.704 42.3865 357.421 42.3272 357.136 42.3272C356.85 42.3272 356.568 42.3865 356.306 42.5013C356.045 42.6161 355.81 42.7839 355.616 42.9942L353.868 44.8863L352.378 46.549L351.89 47.065L351.718 47.2944L350.171 48.9858C349.815 49.333 349.498 49.7175 349.225 50.1325C348.952 50.5837 348.843 51.1151 348.916 51.6372C348.989 52.1594 349.24 52.6404 349.626 52.9993C347.143 56.143 344.828 59.4157 342.69 62.8038C342.209 62.5296 341.641 62.454 341.105 62.5933C340.57 62.7325 340.11 63.0755 339.824 63.5491L338.448 65.7852C338.336 65.9713 338.219 66.1635 338.098 66.3606C337.846 66.771 337.582 67.2033 337.33 67.6487C337.141 67.9348 336.969 68.2315 336.814 68.5374C336.527 69.0821 336.241 69.6267 336.012 70.1141C335.953 70.2661 335.876 70.4105 335.782 70.5441L335.209 71.7768C334.961 72.2775 334.916 72.8542 335.081 73.3877C335.246 73.9212 335.61 74.3708 336.098 74.6436C334.09 78.8411 332.32 83.1481 330.795 87.5443C330.517 87.4406 330.221 87.3941 329.924 87.4076C329.628 87.4211 329.337 87.4942 329.069 87.6227C328.802 87.7512 328.563 87.9323 328.367 88.1553C328.171 88.3782 328.022 88.6384 327.929 88.9203L327.671 89.637L327.442 90.2104C327.27 90.853 327.067 91.6715 326.856 92.5227L326.855 92.523L326.855 92.5233L326.855 92.5264C326.783 92.8133 326.711 93.1038 326.639 93.3925V93.9659C326.094 96.0873 325.579 98.0367 325.579 98.0367C325.501 98.3079 325.479 98.5918 325.514 98.8716C325.549 99.1514 325.64 99.4212 325.782 99.6649C325.924 99.9085 326.114 100.121 326.34 100.29C326.566 100.458 326.824 100.579 327.098 100.646C326.266 104.516 325.579 108.472 325.12 112.485C324.56 112.436 324.002 112.606 323.564 112.959C323.126 113.311 322.841 113.82 322.77 114.378V115.438L322.693 116.954H349.629C349.67 116.532 349.724 116.095 349.798 115.639C350.147 111.781 350.75 107.95 351.604 104.172C351.784 103.523 351.955 102.866 352.128 102.205L352.128 102.204C352.506 100.76 352.889 99.291 353.381 97.8361L353.578 97.2507L353.579 97.2502C354.23 95.3195 354.888 93.3695 355.616 91.4431C356.419 89.3217 357.394 87.2576 358.483 85.3082C358.942 84.4859 359.381 83.6586 359.815 82.8412L359.815 82.8412L359.815 82.8411L359.815 82.841L359.816 82.8396L359.816 82.8382L359.816 82.8381L359.817 82.8367L359.817 82.8365L359.817 82.8363L359.817 82.8361L359.818 82.8358L359.818 82.8356L359.818 82.835L359.818 82.8348C360.411 81.7165 360.995 80.6169 361.607 79.5745C363.597 76.2495 365.819 73.0691 368.256 70.0568C369.143 68.8348 370.09 67.6579 371.094 66.5306C372.011 65.4986 372.814 64.6098 373.53 63.9218L375.737 61.7717L373.76 64.1512C372.857 65.2182 371.778 66.6525 370.47 68.3909L370.47 68.391L370.47 68.3915L370.467 68.395L370.465 68.3973C369.948 69.0857 369.394 69.8217 368.801 70.6015C366.581 73.7126 364.524 76.9374 362.639 80.2626C361.636 82.0973 360.604 83.9894 359.772 85.9962C359.33 87.064 358.847 88.14 358.363 89.2197L358.363 89.22L358.362 89.2204C357.936 90.1695 357.509 91.1217 357.107 92.0738C356.247 94.1092 355.444 96.2307 354.785 98.3234C354.126 100.416 353.524 102.509 352.951 104.516C352.378 106.522 351.919 108.529 351.604 110.421C351.472 111.212 351.325 111.983 351.182 112.734C350.983 113.779 350.791 114.786 350.658 115.754C350.515 116.793 350.382 117.78 350.266 118.705V122.748H349.836C349.807 123.134 349.784 123.498 349.769 123.838C349.683 125.816 349.511 126.934 349.511 126.934V123.838V122.748H322.454V123.953C322.439 124.235 322.481 124.517 322.577 124.782C322.673 125.047 322.822 125.291 323.015 125.497C323.208 125.703 323.441 125.868 323.699 125.982C323.957 126.096 324.236 126.157 324.518 126.16C324.534 130.807 324.811 135.449 325.349 140.064C324.795 140.149 324.297 140.45 323.964 140.901C323.631 141.352 323.49 141.917 323.572 142.472V142.845C323.572 143.175 323.666 143.718 323.787 144.412C323.854 144.801 323.93 145.238 324.002 145.712C324.002 146.012 324.06 146.321 324.12 146.64C324.163 146.871 324.207 147.106 324.231 147.346V147.747V148.406C324.231 148.938 324.345 149.458 324.446 149.923C324.498 150.16 324.546 150.382 324.575 150.585C324.656 150.908 324.728 151.185 324.784 151.404L324.784 151.404C324.868 151.729 324.919 151.927 324.919 151.961C325.062 152.51 325.408 152.984 325.887 153.287C326.366 153.591 326.942 153.701 327.499 153.595C328.434 157.472 329.563 161.299 330.881 165.063C330.604 165.16 330.351 165.313 330.137 165.514C329.923 165.714 329.752 165.956 329.636 166.226C329.521 166.495 329.462 166.786 329.464 167.079C329.466 167.372 329.529 167.662 329.649 167.929L330.508 170.28C330.702 170.775 330.895 171.317 331.089 171.86C331.153 172.041 331.218 172.222 331.282 172.402C331.399 172.733 331.533 173.059 331.684 173.376C331.955 174.001 332.226 174.574 332.474 175.095L332.474 175.096L332.474 175.096L332.515 175.182V175.412L333.117 176.644C333.228 176.908 333.392 177.147 333.598 177.346C333.805 177.545 334.049 177.7 334.317 177.802C334.585 177.904 334.871 177.95 335.157 177.938C335.443 177.927 335.724 177.857 335.983 177.734C337.988 182.207 340.246 186.562 342.747 190.778C342.314 191.099 342.012 191.566 341.896 192.093C341.78 192.62 341.858 193.171 342.117 193.645C342.357 194.081 342.625 194.503 342.919 194.906L343.561 195.762H391.985C384.134 189.933 377.297 182.773 371.808 174.556C362.391 160.46 357.365 143.887 357.365 126.934C357.388 104.207 366.424 82.4181 382.491 66.3479C398.558 50.2777 420.343 41.2395 443.065 41.2168C460.015 41.2168 476.584 46.244 490.677 55.6627C504.77 65.0815 515.755 78.4687 522.241 94.1315C528.728 109.794 530.425 127.029 527.118 143.657C523.811 160.284 515.649 175.558 503.664 187.545C491.678 199.533 476.408 207.697 459.784 211.004C443.16 214.312 425.928 212.614 410.269 206.127C407.043 204.79 403.913 203.263 400.895 201.556H386.55C387.75 202.466 389.466 203.646 391.616 205.054C398.317 209.342 405.529 212.77 413.084 215.26C418.118 216.934 423.287 218.171 428.533 218.958C434.373 219.851 440.288 220.158 446.189 219.876C452.49 219.681 458.754 218.826 464.877 217.324C468.044 216.584 471.156 215.626 474.192 214.458L478.778 212.766C479.658 212.434 480.48 212.025 481.322 211.606L481.323 211.606L481.323 211.606L481.323 211.605L481.323 211.605L481.323 211.605L481.324 211.605L481.324 211.605L481.324 211.605L481.324 211.605L481.324 211.605L481.324 211.605L481.325 211.605L481.325 211.605C481.936 211.301 482.558 210.991 483.22 210.702L487.634 208.581L491.79 206.144C492.295 205.818 492.814 205.512 493.333 205.206C494.228 204.678 495.119 204.152 495.918 203.535L499.816 200.668C504.853 196.865 509.474 192.541 513.602 187.768C517.475 183.317 520.929 178.519 523.921 173.434C525.338 171.041 526.602 168.561 527.704 166.009C528.828 163.73 529.785 161.373 530.57 158.956C532.224 154.8 533.631 150.55 534.784 146.228C535.5 142.3 536.102 138.831 536.475 135.993C536.876 130.26 537.077 126.934 537.077 126.934L536.761 135.993C536.446 138.86 535.959 142.357 535.328 146.342C534.423 150.771 533.207 155.129 531.688 159.386C530.908 161.851 529.95 164.256 528.822 166.582C527.718 169.115 526.474 171.584 525.096 173.978C522.124 179.197 518.649 184.113 514.72 188.656C510.503 193.522 505.797 197.941 500.676 201.844L496.749 204.71C495.967 205.305 495.105 205.82 494.258 206.325L494.258 206.325L494.257 206.325L494.257 206.325L494.256 206.326C493.674 206.673 493.1 207.015 492.564 207.377L488.322 209.957L483.822 212.164C483.304 212.399 482.805 212.647 482.307 212.895C481.347 213.374 480.389 213.851 479.294 214.228L474.622 215.948C471.532 217.13 468.362 218.088 465.135 218.815C458.906 220.313 452.536 221.149 446.132 221.309C440.145 221.566 434.148 221.171 428.246 220.134C422.966 219.242 417.77 217.909 412.712 216.149C405.184 213.479 398.043 209.826 391.473 205.284C391.108 205.029 390.756 204.784 390.418 204.549L390.418 204.549C388.722 203.37 387.368 202.429 386.37 201.556H347.914C348.236 201.883 348.657 202.097 349.116 202.161C349.65 202.236 350.192 202.102 350.629 201.786C353.152 204.882 355.846 207.864 358.655 210.702C358.444 210.898 358.275 211.135 358.16 211.399C358.045 211.663 357.986 211.948 357.986 212.236C357.986 212.524 358.045 212.808 358.16 213.072C358.275 213.336 358.444 213.574 358.655 213.769L358.884 213.999L365.677 220.277C366.138 220.622 366.714 220.775 367.285 220.706C367.856 220.636 368.379 220.349 368.744 219.904C372.407 222.808 376.235 225.498 380.209 227.96C379.942 228.442 379.87 229.009 380.009 229.542C380.148 230.076 380.486 230.536 380.954 230.827L381.556 231.2L383.906 232.604L385.024 233.292L385.654 233.608L389.295 235.385C389.797 235.638 390.379 235.683 390.915 235.512C391.451 235.34 391.898 234.965 392.161 234.468C395.801 236.159 399.498 237.707 403.31 239.055C403.151 239.583 403.199 240.153 403.444 240.648C403.689 241.143 404.112 241.526 404.629 241.721C406.108 242.316 407.632 242.795 409.186 243.154L413.829 244.33C414.098 244.403 414.38 244.423 414.656 244.388C414.933 244.353 415.201 244.264 415.443 244.126C415.685 243.987 415.898 243.802 416.068 243.581C416.239 243.361 416.365 243.108 416.438 242.839C420.965 243.877 425.549 244.653 430.167 245.161C430.131 245.444 430.154 245.732 430.237 246.006C430.319 246.279 430.458 246.532 430.644 246.749C430.831 246.965 431.061 247.14 431.319 247.261C431.578 247.383 431.859 247.449 432.144 247.454H432.374L436.644 247.655L441.689 247.913C441.972 247.921 442.254 247.872 442.518 247.768C442.782 247.665 443.023 247.51 443.226 247.312C443.429 247.115 443.59 246.878 443.701 246.617C443.811 246.356 443.867 246.075 443.867 245.792C447.87 245.766 451.869 245.536 455.848 245.104C455.887 245.384 455.98 245.653 456.124 245.896C456.268 246.139 456.459 246.351 456.686 246.519C456.913 246.687 457.172 246.809 457.446 246.876C457.72 246.943 458.005 246.954 458.284 246.91L459.775 246.68L461.781 246.365L463.014 246.164H464.046L465.765 245.906H466.252L467.571 245.677H467.743C468.292 245.522 468.765 245.171 469.072 244.69C469.378 244.209 469.497 243.631 469.405 243.068C474.08 242.068 478.685 240.766 483.192 239.169C483.299 239.438 483.458 239.683 483.661 239.89C483.864 240.097 484.105 240.261 484.372 240.373C484.639 240.485 484.926 240.543 485.215 240.543C485.505 240.543 485.791 240.485 486.058 240.373L489.297 239.198L490.558 238.739L491.332 238.367L494.685 236.761H494.886C495.404 236.518 495.805 236.081 496.003 235.545C496.202 235.009 496.181 234.416 495.946 233.894C499.539 232.163 503.04 230.25 506.437 228.161C506.758 228.594 507.223 228.898 507.748 229.019C508.274 229.14 508.825 229.07 509.303 228.82C510.108 228.405 510.867 227.905 511.567 227.329L513.086 226.211L517.071 223.345C517.488 223.006 517.761 222.522 517.836 221.99C517.91 221.458 517.78 220.918 517.472 220.478C521.101 217.588 524.556 214.487 527.819 211.189C528.012 211.4 528.247 211.567 528.508 211.682C528.77 211.797 529.052 211.856 529.338 211.856C529.624 211.856 529.906 211.797 530.167 211.682C530.429 211.567 530.664 211.4 530.857 211.189L532.229 209.669H504.405V203.874H537.346C537.548 203.462 537.621 202.997 537.552 202.54C537.474 202.016 537.214 201.536 536.819 201.184C539.302 198.041 541.617 194.768 543.755 191.38C544.237 191.647 544.803 191.718 545.337 191.579C545.87 191.441 546.33 191.102 546.621 190.634L548.026 188.312L549.115 186.535C549.294 186.248 549.457 185.952 549.602 185.646C549.811 185.285 549.995 184.924 550.17 184.58C550.259 184.405 550.346 184.234 550.433 184.069L550.634 183.639L550.762 183.369L550.762 183.369L550.763 183.368C550.982 182.908 551.139 182.576 551.236 182.407C551.481 181.903 551.523 181.323 551.352 180.789C551.181 180.255 550.811 179.808 550.319 179.54C552.329 175.347 554.09 171.04 555.592 166.639C555.871 166.743 556.167 166.789 556.463 166.776C556.76 166.762 557.051 166.689 557.318 166.561C557.586 166.432 557.825 166.251 558.021 166.028C558.217 165.805 558.366 165.545 558.459 165.263L558.717 164.518L558.917 163.944C559.007 163.607 559.106 163.22 559.212 162.806L559.213 162.804C559.377 162.164 559.557 161.458 559.749 160.762V160.189C560.293 158.068 560.809 156.118 560.809 156.118C560.882 155.845 560.9 155.56 560.861 155.28C560.822 155 560.728 154.731 560.584 154.488C560.44 154.245 560.248 154.033 560.021 153.865C559.794 153.697 559.536 153.576 559.261 153.509C560.127 149.6 560.787 145.648 561.239 141.669C561.802 141.719 562.363 141.55 562.806 141.198C563.249 140.846 563.539 140.338 563.618 139.777V138.688L563.905 132.811L564.048 130.202L564.334 129.142ZM408.032 201.556C418.89 206.665 430.836 209.394 443.064 209.411C459.374 209.411 475.317 204.574 488.877 195.511C502.438 186.448 513.007 173.567 519.249 158.496C525.49 143.425 527.123 126.842 523.941 110.843C520.759 94.8434 512.906 80.1473 501.373 68.6126C489.841 57.0778 475.148 49.2226 459.152 46.0401C443.156 42.8577 426.576 44.491 411.508 50.7336C396.44 56.9762 383.562 67.5475 374.501 81.111C365.44 94.6744 360.603 110.621 360.603 126.933C360.634 148.798 369.331 169.759 384.789 185.22C388.759 189.191 393.091 192.715 397.708 195.762H408.213V201.556H408.032ZM432.488 177.131C432.001 182.549 431.772 187.996 431.714 192.124V192.812C431.7 193.578 431.515 194.331 431.173 195.016C430.83 195.701 430.338 196.301 429.733 196.771C429.128 197.241 428.426 197.57 427.678 197.733C426.929 197.897 426.154 197.89 425.409 197.715C419.419 196.23 413.641 193.996 408.211 191.064C407.817 190.854 407.427 190.634 407.027 190.407L407.027 190.407C406.497 190.107 405.949 189.797 405.345 189.487C404.686 189.089 404.126 188.546 403.706 187.901C403.287 187.255 403.019 186.523 402.922 185.759C402.826 184.995 402.903 184.219 403.149 183.49C403.395 182.76 403.803 182.095 404.342 181.546L404.8 181.087C407.667 178.22 411.335 174.121 414.861 169.907C416.925 167.441 418.902 164.976 420.593 162.654C424.486 165.092 428.758 166.865 433.233 167.9C433.233 170.294 432.993 172.889 432.747 175.549C432.699 176.074 432.65 176.602 432.603 177.131H432.488ZM480.583 189.458C479.666 190.003 478.749 190.548 477.717 191.035C472.336 193.962 466.605 196.197 460.663 197.686C459.931 197.843 459.173 197.835 458.444 197.664C457.715 197.493 457.033 197.163 456.446 196.697C455.86 196.231 455.384 195.641 455.052 194.97C454.721 194.298 454.542 193.561 454.529 192.812C454.544 192.583 454.544 192.353 454.529 192.124C454.529 187.996 454.243 182.549 453.755 177.131C453.498 173.92 453.125 170.767 452.752 167.871C457.226 166.831 461.497 165.058 465.392 162.625C467.169 164.947 469.147 167.412 471.125 169.878C474.622 174.092 478.319 178.106 481.185 181.03C481.323 181.206 481.477 181.369 481.644 181.517C482.186 182.063 482.597 182.724 482.847 183.451C483.098 184.178 483.18 184.953 483.09 185.716C482.999 186.48 482.736 187.213 482.322 187.861C481.908 188.509 481.353 189.055 480.698 189.458H480.583ZM513.803 144.564C512.319 150.555 510.085 156.334 507.153 161.765C506.989 162.065 506.818 162.368 506.643 162.679L506.642 162.68L506.641 162.681L506.641 162.682C506.297 163.291 505.937 163.93 505.577 164.632C505.179 165.291 504.636 165.851 503.991 166.271C503.346 166.69 502.614 166.959 501.85 167.055C501.086 167.152 500.31 167.074 499.581 166.828C498.851 166.582 498.187 166.174 497.637 165.635L497.15 165.176C494.284 162.31 490.185 158.64 486 155.114C483.535 153.05 481.071 151.072 478.749 149.38C481.175 145.48 482.947 141.21 483.994 136.738C486.86 137.11 490.042 137.483 493.252 137.77C498.669 138.228 504.115 138.458 508.214 138.544H508.988C509.728 138.557 510.456 138.73 511.122 139.053C511.789 139.376 512.377 139.84 512.846 140.412C513.315 140.985 513.654 141.653 513.839 142.37C514.024 143.087 514.051 143.836 513.917 144.564H513.803ZM497.637 88.4034C498.187 87.8642 498.851 87.4563 499.581 87.2104C500.31 86.9644 501.086 86.8868 501.85 86.9834C502.614 87.0799 503.346 87.348 503.991 87.7677C504.636 88.1874 505.179 88.7478 505.577 89.4068L507.153 92.1302C510.073 97.5664 512.307 103.344 513.803 109.331C513.973 110.066 513.977 110.83 513.817 111.567C513.656 112.305 513.334 112.997 512.873 113.595C512.412 114.193 511.825 114.681 511.153 115.024C510.481 115.368 509.742 115.558 508.988 115.581H508.3C504.201 115.581 498.755 115.896 493.338 116.355C490.128 116.641 486.975 117.014 484.08 117.387C483.033 112.915 481.261 108.644 478.835 104.744C481.156 102.967 483.62 100.99 486.085 99.0119L486.086 99.0106C490.271 95.4844 494.284 91.8149 497.236 88.9481L497.637 88.4034ZM444.529 78.7086H453.558C453.494 79.4112 453.427 80.105 453.362 80.7892L453.361 80.7896C453.189 82.5842 453.023 84.3135 452.924 85.9666C457.398 87.0068 461.669 88.7794 465.564 91.2129C467.255 88.8908 469.233 86.4253 471.297 83.9599C472.791 82.1594 474.316 80.3799 475.797 78.7086H485.862V72.9139H481.194L481.329 72.7793L481.816 72.3206C482.35 71.7685 482.753 71.1034 482.996 70.3746C483.239 69.6457 483.315 68.8717 483.218 68.1095C483.122 67.3473 482.856 66.6165 482.44 65.9709C482.023 65.3254 481.467 64.7816 480.813 64.3796C480.267 64.0918 479.754 63.8039 479.256 63.5246L479.255 63.5243C478.811 63.2751 478.379 63.0326 477.946 62.8029C472.493 59.8573 466.684 57.6222 460.663 56.1519C459.919 55.97 459.143 55.9592 458.393 56.1202C457.644 56.2813 456.941 56.61 456.337 57.0817C455.733 57.5535 455.244 58.156 454.906 58.844C454.568 59.532 454.39 60.2876 454.386 61.0541C454.4 61.2832 454.4 61.513 454.386 61.7421C454.342 64.8965 454.198 68.8208 453.915 72.9139H444.264L443.408 54.2025L442.641 72.9139H432.634C432.339 68.8311 432.173 64.9178 432.173 61.7708V61.0828C432.159 60.3168 431.974 59.5637 431.631 58.8787C431.288 58.1936 430.796 57.594 430.192 57.1239C429.587 56.6538 428.885 56.325 428.136 56.1618C427.388 55.9986 426.613 56.005 425.867 56.1806C419.878 57.6646 414.1 59.8993 408.67 62.8315C407.609 63.3189 406.692 63.8636 405.804 64.4083C405.16 64.83 404.62 65.392 404.224 66.0521C403.828 66.7121 403.587 67.4532 403.518 68.2198C403.449 68.9864 403.554 69.7586 403.826 70.4787C404.098 71.1988 404.529 71.8481 405.087 72.378L405.546 72.8653L405.593 72.9139H388.511V78.7086H395.785L413.313 97.4912L428.418 113.717L433.205 118.849C432.267 120.045 431.54 121.393 431.055 122.834L423.718 123.321L401.39 124.812L372.556 126.704L401.218 127.421L423.345 127.965L430.396 128.137C430.565 129.916 431.091 131.641 431.944 133.212L427.1 138.572L412.109 155.114L393.479 175.726L413.858 156.949L430.167 141.898L435.354 137.139C437.022 138.455 438.993 139.332 441.087 139.69L441.517 146.8L442.893 168.96L444.612 196.31L445.386 168.874L446.045 146.685L446.246 139.518C448.055 139.089 449.748 138.267 451.205 137.11L456.306 141.927L472.357 157.207L492.679 176.5L474.134 155.372L459.402 138.572L454.587 133.068C455.447 131.473 455.964 129.715 456.106 127.908L463.128 127.593L485.227 126.561L514.462 125.213L485.083 123.894L462.698 122.92L455.361 122.576C454.902 121.281 454.234 120.07 453.383 118.992L458.112 113.746L472.959 97.2045L493.281 74.6714L470.924 95.3697L454.529 110.564L449.227 115.466C448.249 114.944 447.209 114.549 446.131 114.291L445.816 107.124L444.813 84.9059L444.529 78.7086ZM415.262 95.6564L396.363 78.7086H410.996C412.509 80.3915 414.074 82.1854 415.606 84.0172C417.584 86.4826 419.562 88.9481 421.339 91.2702C425.232 88.832 429.503 87.059 433.979 86.024C433.659 83.7156 433.375 81.2432 433.128 78.7086H442.403L442.147 84.9346L441.144 107.095L440.829 114.176C439.627 114.428 438.469 114.852 437.389 115.437L431.944 110.564L415.262 95.6564ZM372.556 109.302C374.043 103.317 376.266 97.5391 379.176 92.1016C379.243 91.9872 379.309 91.8724 379.376 91.7572L379.522 91.5029L379.523 91.501L379.524 91.5004C379.926 90.8019 380.337 90.09 380.782 89.3781C381.177 88.7197 381.716 88.1595 382.359 87.7398C383.002 87.3201 383.732 87.0518 384.493 86.9552C385.255 86.8586 386.029 86.9362 386.756 87.1821C387.483 87.4279 388.145 87.8357 388.692 88.3747L389.18 88.8334C392.046 91.7002 396.144 95.3697 400.329 98.8959C402.794 100.96 405.288 102.938 407.609 104.629C405.132 108.516 403.32 112.789 402.25 117.272C399.383 116.899 396.202 116.527 392.992 116.24C387.546 115.781 382.129 115.552 378.001 115.466H377.313C376.561 115.453 375.821 115.273 375.146 114.94C374.471 114.608 373.878 114.129 373.41 113.54C372.941 112.951 372.609 112.266 372.436 111.533C372.264 110.8 372.256 110.039 372.412 109.302H372.556ZM380.81 164.46C380.237 163.542 379.721 162.625 379.205 161.593C376.295 156.155 374.071 150.378 372.584 144.392C372.408 143.648 372.401 142.874 372.565 142.126C372.728 141.379 373.057 140.678 373.528 140.076C373.998 139.473 374.598 138.984 375.283 138.644C375.968 138.304 376.721 138.123 377.485 138.114H378.173C382.301 138.114 387.718 137.798 393.164 137.34C396.374 137.053 399.527 136.68 402.422 136.308C403.456 140.784 405.229 145.056 407.667 148.95C405.345 150.728 402.851 152.706 400.387 154.684C396.202 158.21 392.189 161.88 389.237 164.746L388.75 165.205C388.221 165.789 387.564 166.242 386.83 166.528C386.097 166.814 385.306 166.926 384.522 166.853C383.738 166.781 382.981 166.527 382.312 166.112C381.643 165.696 381.08 165.131 380.667 164.46H380.81ZM453.408 227.053H447.617V232.848H453.408V227.053ZM541.491 159.834H547.282V165.629H541.491V159.834ZM510.196 40.4635H504.405V46.2582H510.196V40.4635ZM452.252 96.0927H458.044V101.887H452.252V96.0927ZM356.057 155.199H350.266V160.993H356.057V155.199ZM448.776 19.6026H454.567V25.3973H448.776V19.6026ZM434.865 152.881H429.074V158.675H434.865V152.881Z" fill="black"/>
<rect x="290" y="121.59" width="62.5828" height="5.79471" fill="black"/>
<rect x="543.809" y="151.723" width="62.5828" height="5.79474" fill="black"/>
<rect x="536.855" y="79.8672" width="62.5828" height="5.79468" fill="black"/>
</svg>
