<svg width="881" height="294" viewBox="0 0 881 294" fill="none" xmlns="http://www.w3.org/2000/svg">
<path d="M324.195 163.51H358.439V157.969H313.613C314.009 170.685 315.845 183.315 319.087 195.617H329.367C326.593 185.11 324.86 174.356 324.195 163.51Z" fill="#E6DE37"/>
<path d="M326.76 114.758H316.481C314.365 126.287 313.34 137.989 313.42 149.71C313.42 150.638 313.42 151.5 313.42 152.406H323.7C323.7 151.5 323.7 150.638 323.7 149.71C323.62 137.989 324.644 126.287 326.76 114.758Z" fill="#E6DE37"/>
<path d="M457.808 203.465H482.85V197.902H450.524C449.752 199.644 448.874 201.336 447.895 202.969C444.097 209.87 437.994 215.213 430.654 218.063C432.334 218.647 434.066 219.065 435.826 219.314C444.734 217.891 452.061 212.608 457.808 203.465Z" fill="#E6DE37"/>
<path d="M322.148 205.621C323.485 209.33 324.928 212.931 326.459 216.402H336.738C335.122 212.909 333.678 209.308 332.428 205.621H322.148Z" fill="#E6DE37"/>
<path d="M341.436 225.416H331.156C339.198 239.918 350.797 252.132 364.861 260.908C381.556 270.985 400.752 276.149 420.246 275.807C421.971 275.807 423.651 275.807 425.354 275.635C407.621 275.177 390.314 270.101 375.141 260.908C361.072 252.138 349.471 239.922 341.436 225.416Z" fill="#E6DE37"/>
<path d="M332.878 55.3516H327.086V61.1463H332.878V55.3516Z" fill="black"/>
<path d="M553.077 229.191H547.285V234.986H553.077V229.191Z" fill="black"/>
<path d="M352.836 66.2852H342.556C339.13 71.2817 336.096 76.5371 333.484 82.0041C329.395 90.7045 326.28 99.8305 324.195 109.216H334.475C336.573 99.8288 339.703 90.7028 343.806 82.0041C346.405 76.5385 349.424 71.2831 352.836 66.2852Z" fill="#E6DE37"/>
<path d="M381.671 38.5366C396.846 29.3459 414.151 24.2632 431.884 23.788C430.181 23.788 428.5 23.637 426.776 23.637C407.282 23.2953 388.086 28.4594 371.391 38.5366C363.51 43.396 356.392 49.3981 350.271 56.3471H360.551C366.672 49.3981 373.789 43.396 381.671 38.5366Z" fill="#E6DE37"/>
<path d="M464.575 96.5593C458.828 87.0575 451.35 81.5879 442.141 80.1504C440.382 80.4163 438.651 80.8421 436.969 81.4226C444.308 84.2728 450.411 89.616 454.209 96.5162C461.019 107.714 464.424 125.431 464.424 149.667C464.51 159.106 463.847 168.537 462.441 177.871H472.894C474.3 168.537 474.963 159.106 474.876 149.667C474.819 125.46 471.385 107.757 464.575 96.5593Z" fill="#E6DE37"/>
<path d="M286.968 73.7261V71.1387H272.637V85.4776H275.201V73.7261H286.968Z" fill="#E6DE37"/>
<path d="M275.201 73.7246V85.476V88.042H289.532V73.7246H286.968H275.201Z" fill="#FF441B"/>
<path d="M648.349 275.807H634.018V290.146H648.349V275.807Z" fill="#E6DE37"/>
<path d="M650.914 278.373H636.583V292.712H650.914V278.373Z" fill="#FF441B"/>
<path fill-rule="evenodd" clip-rule="evenodd" d="M572.446 152.142C572.461 151.862 572.42 151.582 572.326 151.319C572.231 151.055 572.085 150.813 571.895 150.608C571.705 150.402 571.476 150.236 571.221 150.12C570.966 150.005 570.691 149.941 570.411 149.934C570.4 145.286 570.113 140.644 569.551 136.03C569.827 135.992 570.093 135.898 570.332 135.756C570.572 135.613 570.78 135.424 570.946 135.2C571.112 134.976 571.231 134.721 571.296 134.45C571.362 134.179 571.373 133.897 571.328 133.622V133.221C571.328 132.934 571.249 132.49 571.155 131.959C571.099 131.641 571.038 131.292 570.984 130.927C570.841 129.952 570.783 129.58 570.669 128.863V128.146V127.888C570.525 127.057 570.411 126.254 570.325 125.624L569.981 124.219C569.844 123.666 569.5 123.188 569.019 122.884C568.538 122.579 567.959 122.472 567.401 122.585C566.757 119.848 566.011 117.137 565.163 114.457H542.649V108.662H565.357C565.337 108.572 565.312 108.482 565.28 108.394L564.42 106.101C564.288 105.762 564.155 105.394 564.019 105.014L564.019 105.013L564.019 105.013C563.89 104.653 563.757 104.284 563.618 103.922C563.501 103.59 563.367 103.265 563.216 102.947L563.105 102.689C562.862 102.13 562.638 101.614 562.414 101.141C562.419 101.065 562.419 100.988 562.414 100.912L561.869 99.7364V99.5644C561.632 99.0416 561.197 98.6339 560.66 98.4299C560.124 98.2259 559.528 98.2421 559.003 98.475C556.96 94.2978 554.683 90.2396 552.182 86.3198C552.651 85.9938 552.98 85.5024 553.102 84.9441C553.224 84.3859 553.131 83.802 552.841 83.3096C552.6 82.8727 552.332 82.4514 552.038 82.0483L550.061 79.4108L547.194 75.5693C546.86 75.1459 546.376 74.8678 545.842 74.793C545.308 74.7182 544.766 74.8525 544.328 75.1679C541.806 72.0718 539.14 69.0903 536.331 66.2522C536.546 66.0586 536.718 65.8221 536.836 65.5579C536.953 65.2936 537.014 65.0077 537.014 64.7184C537.014 64.4292 536.953 64.1432 536.836 63.879C536.718 63.6148 536.546 63.3783 536.331 63.1847L536.073 62.9267L529.338 56.8204C528.872 56.4741 528.292 56.3196 527.716 56.389C527.14 56.4583 526.612 56.7462 526.242 57.1931C522.584 54.2822 518.756 51.5922 514.777 49.1374C515.049 48.6533 515.12 48.0819 514.976 47.546C514.831 47.01 514.482 46.5521 514.004 46.2706L513.373 45.8979L511.051 44.4932L509.905 43.8051L509.303 43.4898L505.663 41.7124C505.159 41.4671 504.58 41.4256 504.046 41.5964C503.512 41.7673 503.065 42.1374 502.797 42.6297C499.185 40.9383 495.459 39.3903 491.676 38.0429C491.826 37.5105 491.771 36.941 491.522 36.4473C491.272 35.9535 490.846 35.5715 490.329 35.3767C488.838 34.7839 487.305 34.3047 485.743 33.9433L481.128 32.7679C480.861 32.6944 480.582 32.6748 480.307 32.7101C480.032 32.7455 479.767 32.8351 479.527 32.9738C479.287 33.1125 479.077 33.2975 478.909 33.5181C478.741 33.7386 478.618 33.9904 478.548 34.2587C474.021 33.2179 469.437 32.4426 464.819 31.9366C464.855 31.6556 464.832 31.3701 464.752 31.0985C464.671 30.8268 464.535 30.575 464.351 30.3591C464.168 30.1433 463.941 29.9681 463.686 29.8448C463.431 29.7215 463.153 29.6528 462.87 29.6431H462.641L458.342 29.4425L452.523 28.6971C452.239 28.6854 451.955 28.7318 451.689 28.8335C451.424 28.9352 451.181 29.0901 450.977 29.2887C450.773 29.4872 450.612 29.7253 450.503 29.9884C450.395 30.2514 450.341 30.5339 450.345 30.8185C446.333 30.8444 442.324 31.0741 438.335 31.5066C438.301 31.2278 438.21 30.959 438.069 30.7161C437.928 30.4732 437.739 30.2611 437.515 30.0926C437.29 29.9241 437.034 29.8025 436.761 29.7351C436.489 29.6677 436.205 29.656 435.928 29.7005L434.323 29.9585L432.46 30.2452L431.113 30.4458L430.081 30.5892L428.332 30.8472H427.845L426.555 31.0765H426.383C425.827 31.2195 425.346 31.5684 425.037 32.0528C424.729 32.5371 424.616 33.1207 424.721 33.6853C420.183 34.7057 415.712 36.0078 411.336 37.5842C411.229 37.3152 411.069 37.0702 410.866 36.8636C410.664 36.657 410.422 36.4928 410.155 36.3807C409.888 36.2686 409.602 36.2108 409.312 36.2107C409.023 36.2106 408.736 36.2682 408.469 36.3801L405.317 37.6702L404.055 38.1289L403.31 38.5015L399.928 40.1356H399.756C399.497 40.253 399.264 40.4206 399.071 40.6286C398.877 40.8367 398.726 41.0811 398.628 41.3477C398.529 41.6143 398.484 41.8978 398.496 42.1819C398.508 42.4659 398.576 42.7448 398.696 43.0024C395.084 44.7798 391.587 46.7579 388.177 48.8794C387.859 48.4413 387.394 48.1332 386.867 48.0119C386.34 47.8907 385.787 47.9646 385.31 48.22C384.51 48.6432 383.751 49.1424 383.046 49.7107L381.527 50.8288L377.543 53.6956C377.314 53.8626 377.121 54.0737 376.975 54.3167C376.829 54.5596 376.733 54.8293 376.693 55.1099C376.681 55.1899 376.674 55.2704 376.672 55.3509H442.98V55.9956C446.652 55.6002 450.347 55.4446 454.042 55.5303C456.917 55.5681 459.787 55.7595 462.641 56.1037C465.507 56.4191 468.373 56.9064 471.383 57.5084C477.08 58.7694 482.646 60.5643 488.007 62.8694C490.468 63.9217 492.87 65.1084 495.201 66.4242C497.437 67.6569 499.529 68.8896 501.364 70.1224C504.36 72.0935 507.231 74.2477 509.962 76.5727L512.972 79.2961L509.762 76.802C506.912 74.6834 503.956 72.7123 500.905 70.8964C499.042 69.721 496.95 68.603 494.685 67.4562C492.421 66.3095 490.013 65.2488 487.491 64.1594C482.192 61.9728 476.704 60.2743 471.096 59.0852C468.23 58.4545 465.364 57.9385 462.498 57.5944C460.558 57.3616 458.684 57.2339 456.787 57.1045C455.881 57.0427 454.969 56.9806 454.042 56.9064C452.12 56.7526 450.352 56.8051 448.627 56.8564C447.78 56.8815 446.943 56.9064 446.103 56.9064C445.024 56.9064 443.986 56.9577 442.98 57.0343V61.1456H371.87C370.123 62.7121 368.421 64.3289 366.766 65.9942C366.573 65.7839 366.338 65.6161 366.076 65.5013C365.815 65.3865 365.532 65.3272 365.247 65.3272C364.961 65.3272 364.679 65.3865 364.417 65.5013C364.156 65.6161 363.921 65.7839 363.728 65.9942L361.979 67.8863L360.489 69.549L360.002 70.065L359.83 70.2944L358.282 71.9858C357.927 72.333 357.609 72.7175 357.336 73.1325C357.063 73.5837 356.954 74.1151 357.027 74.6372C357.101 75.1594 357.351 75.6404 357.737 75.9993C355.254 79.143 352.939 82.4157 350.801 85.8038C350.321 85.5296 349.752 85.454 349.216 85.5933C348.681 85.7325 348.221 86.0755 347.935 86.5491L346.559 88.7852C346.448 88.9705 346.331 89.1617 346.211 89.3579L346.21 89.3596L346.209 89.3604L346.209 89.3606L346.209 89.3607C345.958 89.7711 345.693 90.2033 345.441 90.6487C345.253 90.9348 345.08 91.2315 344.925 91.5374C344.639 92.0821 344.352 92.6267 344.123 93.1141C344.064 93.2661 343.987 93.4105 343.894 93.5441L343.32 94.7768C343.073 95.2775 343.027 95.8542 343.192 96.3877C343.358 96.9212 343.722 97.3708 344.209 97.6436C342.201 101.841 340.431 106.148 338.906 110.544C338.628 110.441 338.332 110.394 338.036 110.408C337.739 110.421 337.448 110.494 337.181 110.623C336.913 110.751 336.674 110.932 336.478 111.155C336.282 111.378 336.133 111.638 336.04 111.92L335.782 112.637L335.553 113.21C335.382 113.853 335.178 114.671 334.967 115.523L334.967 115.523L334.967 115.524C334.895 115.812 334.823 116.103 334.75 116.393V116.966C334.206 119.087 333.69 121.037 333.69 121.037C333.612 121.308 333.591 121.592 333.626 121.872C333.661 122.151 333.752 122.421 333.894 122.665C334.036 122.909 334.225 123.121 334.451 123.29C334.677 123.458 334.935 123.579 335.209 123.646C334.378 127.516 333.69 131.472 333.231 135.485C332.671 135.436 332.114 135.606 331.676 135.959C331.238 136.311 330.953 136.82 330.881 137.378V138.438L330.804 139.954H357.74C357.781 139.532 357.836 139.095 357.909 138.639C358.258 134.781 358.862 130.95 359.715 127.172C359.895 126.523 360.067 125.866 360.24 125.205L360.24 125.204C360.617 123.76 361.001 122.291 361.492 120.836L361.69 120.251C362.341 118.32 362.999 116.37 363.728 114.443C364.53 112.322 365.505 110.258 366.594 108.308C367.054 107.486 367.493 106.658 367.927 105.84L367.927 105.84L367.927 105.84L367.927 105.84L367.927 105.84L367.927 105.84L367.927 105.84L367.927 105.84L367.928 105.838L367.928 105.837L367.928 105.837L367.929 105.835L367.929 105.835L367.929 105.835C368.523 104.717 369.106 103.617 369.718 102.575C371.708 99.2495 373.93 96.0691 376.368 93.0568C377.254 91.8348 378.201 90.6579 379.205 89.5306C380.123 88.4986 380.925 87.6098 381.642 86.9218L383.849 84.7717L381.871 87.1512C380.968 88.2182 379.889 89.6525 378.582 91.3909L378.58 91.3925L378.579 91.3946L378.577 91.3973C378.059 92.0857 377.505 92.8217 376.912 93.6015C374.692 96.7126 372.635 99.9374 370.75 103.263C369.747 105.097 368.715 106.989 367.884 108.996C367.441 110.064 366.958 111.14 366.474 112.22C366.048 113.17 365.62 114.122 365.218 115.074C364.358 117.109 363.556 119.231 362.897 121.323C362.237 123.416 361.635 125.509 361.062 127.516C360.489 129.522 360.03 131.529 359.715 133.421C359.583 134.212 359.436 134.983 359.294 135.734C359.094 136.779 358.903 137.786 358.769 138.754C358.626 139.793 358.494 140.78 358.377 141.706V145.748H357.947C357.918 146.134 357.895 146.498 357.881 146.838C357.795 148.816 357.623 149.934 357.623 149.934V146.838V145.748H330.566V146.953C330.55 147.235 330.592 147.517 330.688 147.782C330.785 148.047 330.934 148.291 331.127 148.497C331.319 148.703 331.552 148.868 331.81 148.982C332.068 149.096 332.347 149.157 332.629 149.16C332.645 153.807 332.922 158.449 333.461 163.064C332.906 163.149 332.408 163.45 332.075 163.901C331.742 164.352 331.601 164.917 331.683 165.472V165.845C331.683 166.175 331.778 166.718 331.898 167.412C331.966 167.801 332.041 168.238 332.113 168.712C332.113 169.012 332.172 169.321 332.231 169.64C332.275 169.871 332.319 170.106 332.343 170.346V170.747V171.406C332.343 171.938 332.456 172.458 332.557 172.923C332.609 173.16 332.658 173.382 332.687 173.585C332.767 173.908 332.839 174.185 332.895 174.404L332.896 174.404C332.979 174.729 333.031 174.927 333.031 174.961C333.173 175.51 333.519 175.984 333.998 176.287C334.477 176.591 335.053 176.701 335.61 176.595C336.546 180.472 337.675 184.299 338.992 188.063C338.716 188.16 338.462 188.313 338.248 188.514C338.034 188.714 337.864 188.956 337.748 189.226C337.632 189.495 337.573 189.786 337.575 190.079C337.577 190.372 337.64 190.662 337.76 190.929L338.62 193.28C338.813 193.775 339.007 194.317 339.2 194.86C339.265 195.041 339.329 195.222 339.394 195.402C339.51 195.733 339.644 196.059 339.795 196.376C340.066 197.001 340.338 197.574 340.585 198.096L340.585 198.096L340.626 198.182V198.412L341.228 199.644C341.34 199.908 341.503 200.147 341.71 200.346C341.916 200.545 342.16 200.7 342.428 200.802C342.696 200.904 342.982 200.95 343.268 200.938C343.555 200.927 343.836 200.857 344.094 200.734C346.099 205.207 348.358 209.562 350.858 213.778C350.425 214.099 350.123 214.566 350.007 215.093C349.891 215.62 349.97 216.171 350.228 216.645C350.469 217.081 350.737 217.503 351.03 217.906L351.672 218.762H400.096C392.246 212.933 385.408 205.773 379.919 197.556C370.502 183.46 365.476 166.887 365.476 149.934C365.499 127.207 374.535 105.418 390.602 89.3479C406.669 73.2777 428.454 64.2395 451.176 64.2168C468.126 64.2168 484.695 69.244 498.788 78.6627C512.882 88.0815 523.866 101.469 530.352 117.131C536.839 132.794 538.536 150.029 535.229 166.657C531.923 183.284 523.76 198.558 511.775 210.545C499.79 222.533 484.519 230.697 467.895 234.004C451.271 237.312 434.04 235.614 418.38 229.127C415.154 227.79 412.025 226.263 409.006 224.556H394.661C395.861 225.466 397.577 226.646 399.727 228.054C406.428 232.342 413.641 235.77 421.195 238.26C426.229 239.934 431.398 241.171 436.644 241.958C442.485 242.851 448.399 243.158 454.3 242.876C460.602 242.681 466.865 241.826 472.988 240.324C476.155 239.584 479.268 238.626 482.303 237.458L486.889 235.766C487.769 235.434 488.591 235.025 489.434 234.606L489.434 234.606C490.046 234.301 490.668 233.992 491.332 233.702L495.746 231.581L499.902 229.144C500.406 228.818 500.925 228.512 501.443 228.206L501.444 228.206C502.339 227.678 503.23 227.152 504.029 226.535L507.927 223.668C512.964 219.865 517.585 215.541 521.714 210.768C525.586 206.317 529.041 201.519 532.032 196.434C533.449 194.041 534.713 191.561 535.815 189.009C536.939 186.73 537.897 184.373 538.682 181.956C540.335 177.8 541.742 173.55 542.895 169.228C543.612 165.3 544.213 161.831 544.586 158.993C544.987 153.26 545.188 149.934 545.188 149.934L544.873 158.993C544.557 161.86 544.07 165.357 543.44 169.342C542.535 173.771 541.318 178.129 539.799 182.386C539.019 184.851 538.062 187.256 536.933 189.582C535.829 192.115 534.585 194.584 533.207 196.978C530.235 202.197 526.76 207.113 522.831 211.656C518.615 216.522 513.908 220.941 508.787 224.844L504.86 227.71C504.079 228.305 503.216 228.82 502.369 229.325L502.369 229.325L502.369 229.325L502.368 229.325L502.367 229.326C501.786 229.673 501.212 230.015 500.676 230.377L496.434 232.957L491.934 235.164C491.415 235.399 490.916 235.647 490.418 235.895C489.458 236.374 488.5 236.851 487.405 237.228L482.733 238.948C479.644 240.13 476.473 241.088 473.246 241.815C467.017 243.313 460.647 244.149 454.243 244.309C448.256 244.566 442.259 244.171 436.358 243.134C431.077 242.242 425.881 240.909 420.823 239.149C413.296 236.479 406.154 232.826 399.584 228.284C399.22 228.029 398.87 227.786 398.533 227.552L398.53 227.549C396.833 226.37 395.479 225.429 394.481 224.556H356.025C356.347 224.883 356.769 225.097 357.227 225.161C357.761 225.236 358.303 225.102 358.741 224.786C361.263 227.882 363.957 230.864 366.766 233.702C366.555 233.898 366.387 234.135 366.272 234.399C366.157 234.663 366.097 234.948 366.097 235.236C366.097 235.524 366.157 235.808 366.272 236.072C366.387 236.336 366.555 236.574 366.766 236.769L366.995 236.999L373.788 243.277C374.249 243.622 374.825 243.775 375.396 243.706C375.968 243.636 376.49 243.349 376.855 242.904C380.519 245.808 384.347 248.498 388.32 250.96C388.053 251.442 387.982 252.009 388.12 252.542C388.259 253.076 388.597 253.536 389.065 253.827L389.667 254.2L392.017 255.604L393.135 256.292L393.766 256.608L397.406 258.385C397.909 258.638 398.49 258.683 399.026 258.512C399.562 258.34 400.009 257.965 400.272 257.468C403.912 259.159 407.61 260.707 411.422 262.055C411.263 262.583 411.31 263.153 411.555 263.648C411.8 264.143 412.223 264.526 412.74 264.721C414.22 265.316 415.743 265.795 417.297 266.154L421.941 267.33C422.21 267.403 422.491 267.423 422.768 267.388C423.045 267.353 423.312 267.264 423.554 267.126C423.796 266.987 424.009 266.802 424.18 266.581C424.35 266.361 424.476 266.108 424.549 265.839C429.077 266.877 433.661 267.653 438.278 268.161C438.242 268.444 438.266 268.732 438.348 269.006C438.43 269.279 438.569 269.532 438.756 269.749C438.942 269.965 439.172 270.14 439.431 270.261C439.689 270.383 439.97 270.449 440.256 270.454H440.485L444.756 270.655L449.8 270.913C450.084 270.921 450.366 270.872 450.63 270.768C450.894 270.665 451.134 270.51 451.337 270.312C451.54 270.115 451.702 269.878 451.812 269.617C451.922 269.356 451.979 269.075 451.979 268.792C455.981 268.766 459.98 268.536 463.959 268.104C463.998 268.384 464.092 268.653 464.236 268.896C464.38 269.139 464.571 269.351 464.798 269.519C465.025 269.687 465.283 269.809 465.557 269.876C465.832 269.943 466.117 269.954 466.396 269.91L467.886 269.68L469.892 269.365L471.125 269.164H472.157L473.877 268.906H474.364L475.682 268.677H475.854C476.403 268.522 476.876 268.171 477.183 267.69C477.49 267.209 477.608 266.631 477.517 266.068C482.192 265.068 486.797 263.766 491.303 262.169C491.41 262.438 491.57 262.683 491.772 262.89C491.975 263.097 492.217 263.261 492.484 263.373C492.751 263.485 493.037 263.543 493.326 263.543C493.616 263.543 493.902 263.485 494.169 263.373L497.408 262.198L498.669 261.739L499.443 261.367L502.797 259.761H502.997C503.515 259.518 503.916 259.081 504.114 258.545C504.313 258.009 504.293 257.416 504.058 256.894C507.65 255.163 511.151 253.25 514.548 251.161C514.869 251.594 515.334 251.898 515.86 252.019C516.385 252.14 516.936 252.07 517.414 251.82C518.22 251.405 518.979 250.905 519.679 250.329L521.198 249.211L525.182 246.345C525.599 246.006 525.873 245.522 525.947 244.99C526.022 244.458 525.892 243.918 525.583 243.478C529.212 240.588 532.667 237.487 535.93 234.189C536.123 234.4 536.358 234.567 536.62 234.682C536.881 234.797 537.164 234.856 537.449 234.856C537.735 234.856 538.017 234.797 538.279 234.682C538.54 234.567 538.775 234.4 538.968 234.189L540.34 232.669H512.516V226.874H545.457C545.659 226.462 545.732 225.997 545.664 225.54C545.585 225.016 545.326 224.536 544.93 224.184C547.413 221.041 549.728 217.768 551.866 214.38C552.348 214.647 552.915 214.718 553.448 214.579C553.982 214.441 554.441 214.102 554.733 213.634L556.137 211.312L557.226 209.535C557.405 209.248 557.568 208.952 557.713 208.646C557.922 208.286 558.105 207.926 558.28 207.583L558.281 207.58L558.281 207.58C558.371 207.405 558.458 207.234 558.545 207.069L558.745 206.639L558.874 206.369L558.874 206.369L558.874 206.368C559.093 205.908 559.251 205.576 559.347 205.407C559.592 204.903 559.634 204.323 559.463 203.789C559.292 203.255 558.922 202.808 558.43 202.54C560.44 198.347 562.201 194.04 563.704 189.639C563.982 189.743 564.278 189.789 564.575 189.776C564.871 189.762 565.162 189.689 565.429 189.561C565.697 189.432 565.936 189.251 566.132 189.028C566.328 188.805 566.477 188.545 566.57 188.263L566.828 187.518L567.029 186.944C567.119 186.606 567.218 186.219 567.324 185.803C567.488 185.164 567.669 184.458 567.86 183.762V183.189C568.404 181.068 568.92 179.118 568.92 179.118C568.993 178.845 569.011 178.56 568.972 178.28C568.934 178 568.839 177.731 568.695 177.488C568.551 177.245 568.36 177.033 568.133 176.865C567.905 176.697 567.647 176.576 567.372 176.509C568.238 172.6 568.898 168.648 569.35 164.669C569.914 164.719 570.475 164.55 570.917 164.198C571.36 163.846 571.651 163.338 571.729 162.777V161.688L572.016 155.811L572.159 153.202L572.446 152.142ZM416.143 224.556C427.002 229.665 438.947 232.394 451.176 232.411C467.485 232.411 483.428 227.574 496.989 218.511C510.549 209.448 521.119 196.567 527.36 181.496C533.601 166.425 535.234 149.842 532.052 133.843C528.871 117.843 521.017 103.147 509.485 91.6126C497.952 80.0778 483.259 72.2226 467.263 69.0401C451.267 65.8577 434.687 67.491 419.619 73.7336C404.552 79.9762 391.673 90.5475 382.612 104.111C373.551 117.674 368.715 133.621 368.715 149.933C368.745 171.798 377.443 192.759 392.901 208.22C396.87 212.191 401.202 215.715 405.819 218.762H416.324V224.556H416.143ZM440.599 200.131C440.112 205.549 439.883 210.996 439.826 215.124V215.812C439.812 216.578 439.627 217.331 439.284 218.016C438.941 218.701 438.449 219.301 437.844 219.771C437.24 220.241 436.537 220.57 435.789 220.733C435.041 220.897 434.265 220.89 433.52 220.715C427.53 219.23 421.752 216.996 416.323 214.064C415.928 213.854 415.539 213.634 415.139 213.407L415.138 213.407C414.609 213.107 414.06 212.797 413.456 212.487C412.797 212.089 412.237 211.546 411.818 210.901C411.398 210.255 411.13 209.523 411.033 208.759C410.937 207.995 411.015 207.219 411.26 206.49C411.506 205.76 411.914 205.095 412.453 204.546L412.912 204.087C415.778 201.22 419.447 197.121 422.972 192.907C425.036 190.441 427.014 187.976 428.705 185.654C432.598 188.092 436.869 189.865 441.345 190.9C441.345 193.294 441.105 195.889 440.859 198.549L440.858 198.553C440.81 199.077 440.761 199.603 440.714 200.131H440.599ZM488.695 212.458C487.777 213.003 486.86 213.548 485.828 214.035C480.447 216.962 474.717 219.197 468.774 220.686C468.042 220.843 467.284 220.835 466.555 220.664C465.826 220.493 465.144 220.163 464.558 219.697C463.971 219.231 463.495 218.641 463.164 217.97C462.832 217.298 462.654 216.561 462.641 215.812C462.655 215.583 462.655 215.353 462.641 215.124C462.641 210.996 462.354 205.549 461.867 200.131C461.609 196.92 461.236 193.767 460.864 190.871C465.337 189.831 469.608 188.058 473.504 185.625C475.281 187.947 477.258 190.412 479.236 192.878C482.733 197.092 486.43 201.106 489.297 204.03C489.434 204.206 489.588 204.369 489.755 204.517C490.297 205.063 490.708 205.724 490.959 206.451C491.209 207.178 491.292 207.953 491.201 208.716C491.11 209.48 490.848 210.213 490.433 210.861C490.019 211.509 489.464 212.055 488.809 212.458H488.695ZM521.914 167.564C520.43 173.555 518.196 179.334 515.264 184.765C515.1 185.065 514.929 185.368 514.754 185.679L514.753 185.68L514.752 185.681L514.751 185.684C514.408 186.293 514.048 186.931 513.688 187.632C513.29 188.291 512.748 188.851 512.102 189.271C511.457 189.69 510.725 189.959 509.961 190.055C509.197 190.152 508.422 190.074 507.692 189.828C506.963 189.582 506.298 189.174 505.749 188.635L505.261 188.176C502.395 185.31 498.296 181.64 494.112 178.114C491.647 176.05 489.182 174.072 486.86 172.38C489.286 168.48 491.058 164.21 492.105 159.738C494.972 160.11 498.153 160.483 501.363 160.77C506.78 161.228 512.226 161.458 516.325 161.544H517.099C517.839 161.557 518.567 161.73 519.234 162.053C519.9 162.376 520.488 162.84 520.957 163.412C521.426 163.985 521.765 164.653 521.95 165.37C522.135 166.087 522.162 166.836 522.029 167.564H521.914ZM505.749 111.403C506.298 110.864 506.963 110.456 507.692 110.21C508.422 109.964 509.197 109.887 509.961 109.983C510.725 110.08 511.457 110.348 512.102 110.768C512.748 111.187 513.29 111.748 513.688 112.407L515.264 115.13C518.184 120.566 520.418 126.344 521.914 132.331C522.084 133.066 522.089 133.83 521.928 134.567C521.767 135.305 521.445 135.997 520.984 136.595C520.524 137.193 519.936 137.681 519.265 138.024C518.593 138.368 517.853 138.558 517.099 138.581H516.411C512.312 138.581 506.866 138.896 501.449 139.355C498.239 139.641 495.086 140.014 492.191 140.387C491.144 135.915 489.372 131.644 486.946 127.744C489.268 125.967 491.732 123.989 494.197 122.011L494.198 122.011C498.382 118.484 502.395 114.815 505.347 111.948L505.749 111.403ZM452.641 101.709H461.669C461.605 102.408 461.539 103.099 461.474 103.78L461.473 103.786L461.473 103.789L461.473 103.79C461.301 105.584 461.135 107.314 461.036 108.967C465.509 110.007 469.78 111.779 473.676 114.213C475.367 111.891 477.344 109.425 479.408 106.96C480.902 105.159 482.427 103.38 483.908 101.709H493.973V95.9139H489.306L489.44 95.7793L489.927 95.3206C490.461 94.7685 490.864 94.1034 491.107 93.3746C491.35 92.6457 491.426 91.8717 491.33 91.1095C491.233 90.3473 490.967 89.6165 490.551 88.9709C490.134 88.3254 489.578 87.7816 488.924 87.3796C488.381 87.0932 487.871 86.8068 487.375 86.5287L487.374 86.5286L487.374 86.5284L487.374 86.5283L487.374 86.5281L487.371 86.5267L487.369 86.5257L487.367 86.5245L487.367 86.5244L487.367 86.5243L487.367 86.5242L487.366 86.5241L487.366 86.524L487.366 86.5239L487.366 86.5238L487.366 86.5237L487.366 86.5236L487.365 86.5235L487.365 86.5234L487.365 86.5233L487.365 86.5232L487.365 86.5231C486.921 86.2743 486.489 86.0322 486.058 85.8029C480.604 82.8573 474.796 80.6222 468.774 79.1519C468.03 78.97 467.254 78.9592 466.505 79.1202C465.755 79.2813 465.052 79.61 464.448 80.0817C463.844 80.5535 463.355 81.156 463.017 81.844C462.679 82.532 462.501 83.2876 462.497 84.0541C462.512 84.2832 462.512 84.513 462.497 84.7421C462.454 87.8965 462.309 91.8208 462.026 95.9139H452.376L451.52 77.2025L450.752 95.9139H440.746C440.451 91.8311 440.284 87.9178 440.284 84.7708V84.0828C440.27 83.3168 440.085 82.5637 439.742 81.8787C439.4 81.1936 438.908 80.594 438.303 80.1239C437.698 79.6538 436.996 79.325 436.248 79.1618C435.499 78.9986 434.724 79.005 433.979 79.1806C427.989 80.6646 422.211 82.8993 416.781 85.8315C415.721 86.3189 414.804 86.8636 413.915 87.4083C413.271 87.83 412.731 88.392 412.335 89.0521C411.94 89.7121 411.698 90.4532 411.629 91.2198C411.56 91.9864 411.666 92.7586 411.937 93.4787C412.209 94.1988 412.64 94.8481 413.198 95.378L413.657 95.8653L413.704 95.9139H396.622V101.709H403.896L421.424 120.491L436.529 136.717L441.316 141.849C440.378 143.045 439.652 144.393 439.166 145.834L431.829 146.321L409.501 147.812L380.667 149.704L409.329 150.421L431.456 150.965L438.507 151.137C438.676 152.916 439.203 154.641 440.055 156.212L435.211 161.572L420.221 178.114L401.59 198.726L421.969 179.949L438.278 164.898L443.466 160.139C445.134 161.455 447.104 162.332 449.198 162.69L449.628 169.8L451.004 191.96L452.724 219.31L453.497 191.874L454.157 169.685L454.357 162.518C456.167 162.089 457.859 161.267 459.316 160.11L464.418 164.927L480.469 180.207L500.79 199.5L482.246 178.372L467.513 161.572L462.698 156.068C463.558 154.473 464.076 152.715 464.217 150.908L471.239 150.593L493.338 149.561L522.573 148.213L493.195 146.894L470.809 145.92L463.472 145.576C463.014 144.281 462.345 143.07 461.494 141.992L466.223 136.746L481.07 120.204L501.392 97.6714L479.035 118.37L462.641 133.564L457.338 138.466C456.361 137.944 455.32 137.549 454.243 137.291L453.927 130.124L452.924 107.906L452.641 101.709ZM423.374 118.656L404.474 101.709H419.107C420.62 103.392 422.185 105.185 423.717 107.017C425.695 109.483 427.673 111.948 429.45 114.27C433.343 111.832 437.615 110.059 442.09 109.024C441.77 106.716 441.487 104.243 441.239 101.709H450.514L450.259 107.935L449.255 130.095L448.94 137.176C447.739 137.428 446.58 137.852 445.501 138.437L440.055 133.564L423.374 118.656ZM380.667 132.302C382.154 126.317 384.378 120.539 387.288 115.102C387.403 114.903 387.519 114.702 387.635 114.501L387.635 114.5C388.038 113.802 388.448 113.09 388.893 112.378C389.288 111.72 389.827 111.159 390.47 110.74C391.113 110.32 391.843 110.052 392.605 109.955C393.366 109.859 394.14 109.936 394.867 110.182C395.595 110.428 396.257 110.836 396.804 111.375L397.291 111.833C400.157 114.7 404.256 118.37 408.44 121.896C410.905 123.96 413.399 125.938 415.721 127.629C413.243 131.516 411.431 135.789 410.361 140.272C407.495 139.899 404.313 139.527 401.103 139.24C395.657 138.781 390.24 138.552 386.113 138.466H385.425C384.672 138.453 383.932 138.273 383.257 137.94C382.582 137.608 381.989 137.129 381.521 136.54C381.052 135.951 380.72 135.266 380.548 134.533C380.375 133.8 380.367 133.039 380.524 132.302H380.667ZM388.922 187.46C388.348 186.542 387.832 185.625 387.316 184.593C384.406 179.155 382.183 173.378 380.696 167.392C380.519 166.648 380.513 165.874 380.676 165.126C380.839 164.379 381.168 163.678 381.639 163.076C382.109 162.473 382.709 161.984 383.394 161.644C384.08 161.304 384.832 161.123 385.597 161.114H386.285C390.412 161.114 395.829 160.798 401.275 160.34C404.485 160.053 407.638 159.68 410.533 159.308C411.568 163.784 413.34 168.056 415.778 171.95C413.456 173.728 410.963 175.706 408.498 177.684C404.313 181.21 400.3 184.88 397.348 187.746L396.861 188.205C396.333 188.789 395.675 189.242 394.942 189.528C394.208 189.814 393.418 189.926 392.633 189.853C391.849 189.781 391.092 189.527 390.423 189.112C389.754 188.696 389.191 188.131 388.778 187.46H388.922ZM461.52 250.053H455.728V255.848H461.52V250.053ZM549.602 182.834H555.394V188.629H549.602V182.834ZM518.308 63.4635H512.516V69.2582H518.308V63.4635ZM460.364 119.093H466.155V124.887H460.364V119.093ZM364.169 178.199H358.377V183.993H364.169V178.199ZM456.887 42.6026H462.679V48.3973H456.887V42.6026ZM442.977 175.881H437.185V181.675H442.977V175.881Z" fill="#FF441B"/>
<path fill-rule="evenodd" clip-rule="evenodd" d="M564.334 152.142C564.35 151.862 564.309 151.582 564.214 151.319C564.12 151.055 563.973 150.813 563.783 150.608C563.594 150.402 563.365 150.236 563.11 150.12C562.855 150.005 562.579 149.941 562.299 149.934C562.289 145.286 562.002 140.644 561.44 136.03C561.716 135.992 561.981 135.898 562.221 135.756C562.46 135.613 562.669 135.424 562.835 135.2C563 134.976 563.119 134.721 563.185 134.45C563.251 134.179 563.261 133.897 563.217 133.622V133.221C563.217 132.934 563.138 132.49 563.044 131.959L563.044 131.958L563.044 131.957L563.043 131.953C562.987 131.637 562.926 131.29 562.873 130.927C562.729 129.952 562.672 129.58 562.557 128.863V128.146V127.888C562.414 127.057 562.299 126.254 562.213 125.624L561.869 124.219C561.733 123.666 561.388 123.188 560.908 122.884C560.427 122.579 559.848 122.472 559.29 122.585C558.646 119.848 557.899 117.137 557.051 114.457H534.537V108.662H557.246C557.226 108.572 557.2 108.482 557.169 108.394L556.309 106.101C556.176 105.762 556.044 105.393 555.907 105.013L555.907 105.011L555.906 105.008L555.905 105.006C555.777 104.649 555.645 104.282 555.506 103.922C555.39 103.59 555.256 103.265 555.105 102.947L554.993 102.689C554.75 102.13 554.527 101.614 554.303 101.141C554.308 101.065 554.308 100.988 554.303 100.912L553.758 99.7364V99.5644C553.52 99.0416 553.086 98.6339 552.549 98.4299C552.012 98.2259 551.417 98.2421 550.892 98.475C548.849 94.2978 546.572 90.2396 544.07 86.3198C544.54 85.9938 544.868 85.5024 544.991 84.9441C545.113 84.3859 545.02 83.802 544.73 83.3096C544.489 82.8727 544.221 82.4514 543.927 82.0483L541.949 79.4108L539.083 75.5693C538.749 75.1459 538.265 74.8678 537.73 74.793C537.196 74.7182 536.654 74.8525 536.217 75.1679C533.695 72.0718 531.029 69.0903 528.22 66.2522C528.435 66.0586 528.607 65.8221 528.724 65.5579C528.842 65.2936 528.903 65.0077 528.903 64.7184C528.903 64.4292 528.842 64.1432 528.724 63.879C528.607 63.6148 528.435 63.3783 528.22 63.1847L527.962 62.9267L521.227 56.8204C520.761 56.4741 520.18 56.3196 519.604 56.389C519.028 56.4583 518.501 56.7462 518.131 57.1931C514.473 54.2822 510.645 51.5922 506.666 49.1374C506.938 48.6533 507.009 48.0819 506.864 47.546C506.72 47.01 506.371 46.5521 505.892 46.2706L505.262 45.8979L502.94 44.4932L501.794 43.8051L501.192 43.4898L497.552 41.7124C497.048 41.4671 496.468 41.4256 495.935 41.5964C495.401 41.7673 494.953 42.1374 494.685 42.6297C491.074 40.9383 487.348 39.3903 483.564 38.0429C483.715 37.5105 483.66 36.941 483.41 36.4473C483.161 35.9535 482.735 35.5715 482.217 35.3767C480.727 34.7839 479.194 34.3047 477.631 33.9433L473.017 32.7679C472.749 32.6944 472.47 32.6748 472.195 32.7101C471.92 32.7455 471.655 32.8351 471.415 32.9738C471.175 33.1125 470.965 33.2975 470.797 33.5181C470.629 33.7386 470.507 33.9904 470.437 34.2587C465.91 33.2179 461.326 32.4426 456.708 31.9366C456.744 31.6556 456.721 31.3701 456.64 31.0985C456.56 30.8268 456.424 30.575 456.24 30.3591C456.057 30.1433 455.83 29.9681 455.575 29.8448C455.32 29.7215 455.042 29.6528 454.759 29.6431H454.53L450.23 29.4425L444.412 28.6971C444.128 28.6854 443.844 28.7318 443.578 28.8335C443.312 28.9352 443.07 29.0901 442.866 29.2887C442.662 29.4872 442.501 29.7253 442.392 29.9884C442.283 30.2514 442.229 30.5339 442.234 30.8185C438.221 30.8444 434.213 31.0741 430.224 31.5066C430.189 31.2278 430.099 30.959 429.958 30.7161C429.817 30.4732 429.628 30.2611 429.403 30.0926C429.179 29.9241 428.922 29.8025 428.65 29.7351C428.377 29.6677 428.094 29.656 427.816 29.7005L426.211 29.9585L424.348 30.2452L423.001 30.4458L421.969 30.5892L420.221 30.8472H419.734L418.444 31.0765H418.272C417.716 31.2195 417.235 31.5684 416.926 32.0528C416.617 32.5371 416.504 33.1207 416.61 33.6853C412.071 34.7057 407.601 36.0078 403.224 37.5842C403.117 37.3152 402.958 37.0702 402.755 36.8636C402.552 36.657 402.311 36.4928 402.044 36.3807C401.777 36.2686 401.49 36.2108 401.201 36.2107C400.912 36.2106 400.625 36.2682 400.358 36.3801L397.205 37.6702L395.944 38.1289L395.199 38.5015L391.817 40.1356H391.645C391.386 40.253 391.153 40.4206 390.959 40.6286C390.766 40.8367 390.615 41.0811 390.517 41.3477C390.418 41.6143 390.373 41.8978 390.385 42.1819C390.396 42.4659 390.464 42.7448 390.584 43.0024C386.973 44.7798 383.476 46.7579 380.065 48.8794C379.748 48.4413 379.283 48.1332 378.756 48.0119C378.229 47.8907 377.676 47.9646 377.199 48.22C376.398 48.6432 375.64 49.1424 374.935 49.7107L373.416 50.8288L369.432 53.6956C369.203 53.8626 369.009 54.0737 368.863 54.3167C368.717 54.5596 368.621 54.8293 368.581 55.1099C368.57 55.1899 368.563 55.2704 368.561 55.3509H434.868V55.9956C438.54 55.6002 442.236 55.4446 445.931 55.5303C448.805 55.5681 451.676 55.7595 454.53 56.1037C457.396 56.4191 460.262 56.9064 463.272 57.5084C468.969 58.7694 474.535 60.5643 479.896 62.8694C482.357 63.9217 484.759 65.1084 487.09 66.4242C489.326 67.6569 491.418 68.8896 493.252 70.1224C496.248 72.0935 499.12 74.2477 501.851 76.5727L504.86 79.2961L501.65 76.802C498.801 74.6834 495.845 72.7123 492.794 70.8964C490.931 69.721 488.838 68.603 486.574 67.4562C484.31 66.3095 481.902 65.2488 479.38 64.1594C474.08 61.9728 468.593 60.2743 462.985 59.0852C460.119 58.4545 457.253 57.9385 454.386 57.5944C452.447 57.3616 450.573 57.2339 448.676 57.1045C447.769 57.0427 446.858 56.9806 445.931 56.9064C444.009 56.7526 442.241 56.8051 440.515 56.8564C439.668 56.8815 438.831 56.9064 437.992 56.9064C436.912 56.9064 435.874 56.9577 434.868 57.0343V61.1456H363.759C362.012 62.7121 360.31 64.3289 358.655 65.9942C358.461 65.7839 358.227 65.6161 357.965 65.5013C357.704 65.3865 357.421 65.3272 357.136 65.3272C356.85 65.3272 356.568 65.3865 356.306 65.5013C356.045 65.6161 355.81 65.7839 355.616 65.9942L353.868 67.8863L352.378 69.549L351.89 70.065L351.718 70.2944L350.171 71.9858C349.815 72.333 349.498 72.7175 349.225 73.1325C348.952 73.5837 348.843 74.1151 348.916 74.6372C348.989 75.1594 349.24 75.6404 349.626 75.9993C347.143 79.143 344.828 82.4157 342.69 85.8038C342.209 85.5296 341.641 85.454 341.105 85.5933C340.57 85.7325 340.11 86.0755 339.824 86.5491L338.448 88.7852C338.336 88.9713 338.219 89.1635 338.098 89.3606C337.846 89.771 337.582 90.2033 337.33 90.6487C337.141 90.9348 336.969 91.2315 336.814 91.5374C336.527 92.0821 336.241 92.6267 336.012 93.1141C335.953 93.2661 335.876 93.4105 335.782 93.5441L335.209 94.7768C334.961 95.2775 334.916 95.8542 335.081 96.3877C335.246 96.9212 335.61 97.3708 336.098 97.6436C334.09 101.841 332.32 106.148 330.795 110.544C330.517 110.441 330.221 110.394 329.924 110.408C329.628 110.421 329.337 110.494 329.069 110.623C328.802 110.751 328.563 110.932 328.367 111.155C328.171 111.378 328.022 111.638 327.929 111.92L327.671 112.637L327.442 113.21C327.27 113.853 327.067 114.672 326.856 115.523L326.855 115.523L326.855 115.523L326.855 115.526C326.783 115.813 326.711 116.104 326.639 116.393V116.966C326.094 119.087 325.579 121.037 325.579 121.037C325.501 121.308 325.479 121.592 325.514 121.872C325.549 122.151 325.64 122.421 325.782 122.665C325.924 122.909 326.114 123.121 326.34 123.29C326.566 123.458 326.824 123.579 327.098 123.646C326.266 127.516 325.579 131.472 325.12 135.485C324.56 135.436 324.002 135.606 323.564 135.959C323.126 136.311 322.841 136.82 322.77 137.378V138.438L322.693 139.954H349.629C349.67 139.532 349.724 139.095 349.798 138.639C350.147 134.781 350.75 130.95 351.604 127.172C351.784 126.523 351.955 125.866 352.128 125.205L352.128 125.204C352.506 123.76 352.889 122.291 353.381 120.836L353.578 120.251L353.579 120.25C354.23 118.319 354.888 116.369 355.616 114.443C356.419 112.322 357.394 110.258 358.483 108.308C358.942 107.486 359.381 106.659 359.815 105.841L359.815 105.841L359.815 105.841L359.815 105.841L359.816 105.84L359.816 105.838L359.816 105.838L359.817 105.837L359.817 105.836L359.817 105.836L359.817 105.836L359.818 105.836L359.818 105.836L359.818 105.835L359.818 105.835C360.411 104.716 360.995 103.617 361.607 102.575C363.597 99.2495 365.819 96.0691 368.256 93.0568C369.143 91.8348 370.09 90.6579 371.094 89.5306C372.011 88.4986 372.814 87.6098 373.53 86.9218L375.737 84.7717L373.76 87.1512C372.857 88.2182 371.778 89.6525 370.47 91.3909L370.47 91.391L370.47 91.3915L370.467 91.395L370.465 91.3973C369.948 92.0857 369.394 92.8217 368.801 93.6015C366.581 96.7126 364.524 99.9374 362.639 103.263C361.636 105.097 360.604 106.989 359.772 108.996C359.33 110.064 358.847 111.14 358.363 112.22L358.363 112.22L358.362 112.22C357.936 113.17 357.509 114.122 357.107 115.074C356.247 117.109 355.444 119.231 354.785 121.323C354.126 123.416 353.524 125.509 352.951 127.516C352.378 129.522 351.919 131.529 351.604 133.421C351.472 134.212 351.325 134.983 351.182 135.734C350.983 136.779 350.791 137.786 350.658 138.754C350.515 139.793 350.382 140.78 350.266 141.705V145.748H349.836C349.807 146.134 349.784 146.498 349.769 146.838C349.683 148.816 349.511 149.934 349.511 149.934V146.838V145.748H322.454V146.953C322.439 147.235 322.481 147.517 322.577 147.782C322.673 148.047 322.822 148.291 323.015 148.497C323.208 148.703 323.441 148.868 323.699 148.982C323.957 149.096 324.236 149.157 324.518 149.16C324.534 153.807 324.811 158.449 325.349 163.064C324.795 163.149 324.297 163.45 323.964 163.901C323.631 164.352 323.49 164.917 323.572 165.472V165.845C323.572 166.175 323.666 166.718 323.787 167.412C323.854 167.801 323.93 168.238 324.002 168.712C324.002 169.012 324.06 169.321 324.12 169.64C324.163 169.871 324.207 170.106 324.231 170.346V170.747V171.406C324.231 171.938 324.345 172.458 324.446 172.923C324.498 173.16 324.546 173.382 324.575 173.585C324.656 173.908 324.728 174.185 324.784 174.404L324.784 174.404C324.868 174.729 324.919 174.927 324.919 174.961C325.062 175.51 325.408 175.984 325.887 176.287C326.366 176.591 326.942 176.701 327.499 176.595C328.434 180.472 329.563 184.299 330.881 188.063C330.604 188.16 330.351 188.313 330.137 188.514C329.923 188.714 329.752 188.956 329.636 189.226C329.521 189.495 329.462 189.786 329.464 190.079C329.466 190.372 329.529 190.662 329.649 190.929L330.508 193.28C330.702 193.775 330.895 194.317 331.089 194.86C331.153 195.041 331.218 195.222 331.282 195.402C331.399 195.733 331.533 196.059 331.684 196.376C331.955 197.001 332.226 197.574 332.474 198.095L332.474 198.096L332.474 198.096L332.515 198.182V198.412L333.117 199.644C333.228 199.908 333.392 200.147 333.598 200.346C333.805 200.545 334.049 200.7 334.317 200.802C334.585 200.904 334.871 200.95 335.157 200.938C335.443 200.927 335.724 200.857 335.983 200.734C337.988 205.207 340.246 209.562 342.747 213.778C342.314 214.099 342.012 214.566 341.896 215.093C341.78 215.62 341.858 216.171 342.117 216.645C342.357 217.081 342.625 217.503 342.919 217.906L343.561 218.762H391.985C384.134 212.933 377.297 205.773 371.808 197.556C362.391 183.46 357.365 166.887 357.365 149.934C357.388 127.207 366.424 105.418 382.491 89.3479C398.558 73.2777 420.343 64.2395 443.065 64.2168C460.015 64.2168 476.584 69.244 490.677 78.6627C504.77 88.0815 515.755 101.469 522.241 117.131C528.728 132.794 530.425 150.029 527.118 166.657C523.811 183.284 515.649 198.558 503.664 210.545C491.678 222.533 476.408 230.697 459.784 234.004C443.16 237.312 425.928 235.614 410.269 229.127C407.043 227.79 403.913 226.263 400.895 224.556H386.55C387.75 225.466 389.466 226.646 391.616 228.054C398.317 232.342 405.529 235.77 413.084 238.26C418.118 239.934 423.287 241.171 428.533 241.958C434.373 242.851 440.288 243.158 446.189 242.876C452.49 242.681 458.754 241.826 464.877 240.324C468.044 239.584 471.156 238.626 474.192 237.458L478.778 235.766C479.658 235.434 480.48 235.025 481.322 234.606L481.323 234.606L481.323 234.606L481.323 234.605L481.323 234.605L481.323 234.605L481.324 234.605L481.324 234.605L481.324 234.605L481.324 234.605L481.324 234.605L481.324 234.605L481.325 234.605L481.325 234.605C481.936 234.301 482.558 233.991 483.22 233.702L487.634 231.581L491.79 229.144C492.295 228.818 492.814 228.512 493.333 228.206C494.228 227.678 495.119 227.152 495.918 226.535L499.816 223.668C504.853 219.865 509.474 215.541 513.602 210.768C517.475 206.317 520.929 201.519 523.921 196.434C525.338 194.041 526.602 191.561 527.704 189.009C528.828 186.73 529.785 184.373 530.57 181.956C532.224 177.8 533.631 173.55 534.784 169.228C535.5 165.3 536.102 161.831 536.475 158.993C536.876 153.26 537.077 149.934 537.077 149.934L536.761 158.993C536.446 161.86 535.959 165.357 535.328 169.342C534.423 173.771 533.207 178.129 531.688 182.386C530.908 184.851 529.95 187.256 528.822 189.582C527.718 192.115 526.474 194.584 525.096 196.978C522.124 202.197 518.649 207.113 514.72 211.656C510.503 216.522 505.797 220.941 500.676 224.844L496.749 227.71C495.967 228.305 495.105 228.82 494.258 229.325L494.258 229.325L494.257 229.325L494.257 229.325L494.256 229.326C493.674 229.673 493.1 230.015 492.564 230.377L488.322 232.957L483.822 235.164C483.304 235.399 482.805 235.647 482.307 235.895C481.347 236.374 480.389 236.851 479.294 237.228L474.622 238.948C471.532 240.13 468.362 241.088 465.135 241.815C458.906 243.313 452.536 244.149 446.132 244.309C440.145 244.566 434.148 244.171 428.246 243.134C422.966 242.242 417.77 240.909 412.712 239.149C405.184 236.479 398.043 232.826 391.473 228.284C391.108 228.029 390.756 227.784 390.418 227.549L390.418 227.549C388.722 226.37 387.368 225.429 386.37 224.556H347.914C348.236 224.883 348.657 225.097 349.116 225.161C349.65 225.236 350.192 225.102 350.629 224.786C353.152 227.882 355.846 230.864 358.655 233.702C358.444 233.898 358.275 234.135 358.16 234.399C358.045 234.663 357.986 234.948 357.986 235.236C357.986 235.524 358.045 235.808 358.16 236.072C358.275 236.336 358.444 236.574 358.655 236.769L358.884 236.999L365.677 243.277C366.138 243.622 366.714 243.775 367.285 243.706C367.856 243.636 368.379 243.349 368.744 242.904C372.407 245.808 376.235 248.498 380.209 250.96C379.942 251.442 379.87 252.009 380.009 252.542C380.148 253.076 380.486 253.536 380.954 253.827L381.556 254.2L383.906 255.604L385.024 256.292L385.654 256.608L389.295 258.385C389.797 258.638 390.379 258.683 390.915 258.512C391.451 258.34 391.898 257.965 392.161 257.468C395.801 259.159 399.498 260.707 403.31 262.055C403.151 262.583 403.199 263.153 403.444 263.648C403.689 264.143 404.112 264.526 404.629 264.721C406.108 265.316 407.632 265.795 409.186 266.154L413.829 267.33C414.098 267.403 414.38 267.423 414.656 267.388C414.933 267.353 415.201 267.264 415.443 267.126C415.685 266.987 415.898 266.802 416.068 266.581C416.239 266.361 416.365 266.108 416.438 265.839C420.965 266.877 425.549 267.653 430.167 268.161C430.131 268.444 430.154 268.732 430.237 269.006C430.319 269.279 430.458 269.532 430.644 269.749C430.831 269.965 431.061 270.14 431.319 270.261C431.578 270.383 431.859 270.449 432.144 270.454H432.374L436.644 270.655L441.689 270.913C441.972 270.921 442.254 270.872 442.518 270.768C442.782 270.665 443.023 270.51 443.226 270.312C443.429 270.115 443.59 269.878 443.701 269.617C443.811 269.356 443.867 269.075 443.867 268.792C447.87 268.766 451.869 268.536 455.848 268.104C455.887 268.384 455.98 268.653 456.124 268.896C456.268 269.139 456.459 269.351 456.686 269.519C456.913 269.687 457.172 269.809 457.446 269.876C457.72 269.943 458.005 269.954 458.284 269.91L459.775 269.68L461.781 269.365L463.014 269.164H464.046L465.765 268.906H466.252L467.571 268.677H467.743C468.292 268.522 468.765 268.171 469.072 267.69C469.378 267.209 469.497 266.631 469.405 266.068C474.08 265.068 478.685 263.766 483.192 262.169C483.299 262.438 483.458 262.683 483.661 262.89C483.864 263.097 484.105 263.261 484.372 263.373C484.639 263.485 484.926 263.543 485.215 263.543C485.505 263.543 485.791 263.485 486.058 263.373L489.297 262.198L490.558 261.739L491.332 261.367L494.685 259.761H494.886C495.404 259.518 495.805 259.081 496.003 258.545C496.202 258.009 496.181 257.416 495.946 256.894C499.539 255.163 503.04 253.25 506.437 251.161C506.758 251.594 507.223 251.898 507.748 252.019C508.274 252.14 508.825 252.07 509.303 251.82C510.108 251.405 510.867 250.905 511.567 250.329L513.086 249.211L517.071 246.345C517.488 246.006 517.761 245.522 517.836 244.99C517.91 244.458 517.78 243.918 517.472 243.478C521.101 240.588 524.556 237.487 527.819 234.189C528.012 234.4 528.247 234.567 528.508 234.682C528.77 234.797 529.052 234.856 529.338 234.856C529.624 234.856 529.906 234.797 530.167 234.682C530.429 234.567 530.664 234.4 530.857 234.189L532.229 232.669H504.405V226.874H537.346C537.548 226.462 537.621 225.997 537.552 225.54C537.474 225.016 537.214 224.536 536.819 224.184C539.302 221.041 541.617 217.768 543.755 214.38C544.237 214.647 544.803 214.718 545.337 214.579C545.87 214.441 546.33 214.102 546.621 213.634L548.026 211.312L549.115 209.535C549.294 209.248 549.457 208.952 549.602 208.646C549.811 208.285 549.995 207.924 550.17 207.58C550.259 207.405 550.346 207.234 550.433 207.069L550.634 206.639L550.762 206.369L550.762 206.369L550.763 206.368C550.982 205.908 551.139 205.576 551.236 205.407C551.481 204.903 551.523 204.323 551.352 203.789C551.181 203.255 550.811 202.808 550.319 202.54C552.329 198.347 554.09 194.04 555.592 189.639C555.871 189.743 556.167 189.789 556.463 189.776C556.76 189.762 557.051 189.689 557.318 189.561C557.586 189.432 557.825 189.251 558.021 189.028C558.217 188.805 558.366 188.545 558.459 188.263L558.717 187.518L558.917 186.944C559.007 186.607 559.106 186.22 559.212 185.806L559.213 185.804C559.377 185.164 559.557 184.458 559.749 183.762V183.189C560.293 181.068 560.809 179.118 560.809 179.118C560.882 178.845 560.9 178.56 560.861 178.28C560.822 178 560.728 177.731 560.584 177.488C560.44 177.245 560.248 177.033 560.021 176.865C559.794 176.697 559.536 176.576 559.261 176.509C560.127 172.6 560.787 168.648 561.239 164.669C561.802 164.719 562.363 164.55 562.806 164.198C563.249 163.846 563.539 163.338 563.618 162.777V161.688L563.905 155.811L564.048 153.202L564.334 152.142ZM408.032 224.556C418.89 229.665 430.836 232.394 443.064 232.411C459.374 232.411 475.317 227.574 488.877 218.511C502.438 209.448 513.007 196.567 519.249 181.496C525.49 166.425 527.123 149.842 523.941 133.843C520.759 117.843 512.906 103.147 501.373 91.6126C489.841 80.0778 475.148 72.2226 459.152 69.0401C443.156 65.8577 426.576 67.491 411.508 73.7336C396.44 79.9762 383.562 90.5475 374.501 104.111C365.44 117.674 360.603 133.621 360.603 149.933C360.634 171.798 369.331 192.759 384.789 208.22C388.759 212.191 393.091 215.715 397.708 218.762H408.213V224.556H408.032ZM432.488 200.131C432.001 205.549 431.772 210.996 431.714 215.124V215.812C431.7 216.578 431.515 217.331 431.173 218.016C430.83 218.701 430.338 219.301 429.733 219.771C429.128 220.241 428.426 220.57 427.678 220.733C426.929 220.897 426.154 220.89 425.409 220.715C419.419 219.23 413.641 216.996 408.211 214.064C407.817 213.854 407.427 213.634 407.027 213.407L407.027 213.407C406.497 213.107 405.949 212.797 405.345 212.487C404.686 212.089 404.126 211.546 403.706 210.901C403.287 210.255 403.019 209.523 402.922 208.759C402.826 207.995 402.903 207.219 403.149 206.49C403.395 205.76 403.803 205.095 404.342 204.546L404.8 204.087C407.667 201.22 411.335 197.121 414.861 192.907C416.925 190.441 418.902 187.976 420.593 185.654C424.486 188.092 428.758 189.865 433.233 190.9C433.233 193.294 432.993 195.889 432.747 198.549C432.699 199.074 432.65 199.602 432.603 200.131H432.488ZM480.583 212.458C479.666 213.003 478.749 213.548 477.717 214.035C472.336 216.962 466.605 219.197 460.663 220.686C459.931 220.843 459.173 220.835 458.444 220.664C457.715 220.493 457.033 220.163 456.446 219.697C455.86 219.231 455.384 218.641 455.052 217.97C454.721 217.298 454.542 216.561 454.529 215.812C454.544 215.583 454.544 215.353 454.529 215.124C454.529 210.996 454.243 205.549 453.755 200.131C453.498 196.92 453.125 193.767 452.752 190.871C457.226 189.831 461.497 188.058 465.392 185.625C467.169 187.947 469.147 190.412 471.125 192.878C474.622 197.092 478.319 201.106 481.185 204.03C481.323 204.206 481.477 204.369 481.644 204.517C482.186 205.063 482.597 205.724 482.847 206.451C483.098 207.178 483.18 207.953 483.09 208.716C482.999 209.48 482.736 210.213 482.322 210.861C481.908 211.509 481.353 212.055 480.698 212.458H480.583ZM513.803 167.564C512.319 173.555 510.085 179.334 507.153 184.765C506.989 185.065 506.818 185.368 506.643 185.679L506.642 185.68L506.641 185.681L506.641 185.682C506.297 186.291 505.937 186.93 505.577 187.632C505.179 188.291 504.636 188.851 503.991 189.271C503.346 189.69 502.614 189.959 501.85 190.055C501.086 190.152 500.31 190.074 499.581 189.828C498.851 189.582 498.187 189.174 497.637 188.635L497.15 188.176C494.284 185.31 490.185 181.64 486 178.114C483.535 176.05 481.071 174.072 478.749 172.38C481.175 168.48 482.947 164.21 483.994 159.738C486.86 160.11 490.042 160.483 493.252 160.77C498.669 161.228 504.115 161.458 508.214 161.544H508.988C509.728 161.557 510.456 161.73 511.122 162.053C511.789 162.376 512.377 162.84 512.846 163.412C513.315 163.985 513.654 164.653 513.839 165.37C514.024 166.087 514.051 166.836 513.917 167.564H513.803ZM497.637 111.403C498.187 110.864 498.851 110.456 499.581 110.21C500.31 109.964 501.086 109.887 501.85 109.983C502.614 110.08 503.346 110.348 503.991 110.768C504.636 111.187 505.179 111.748 505.577 112.407L507.153 115.13C510.073 120.566 512.307 126.344 513.803 132.331C513.973 133.066 513.977 133.83 513.817 134.567C513.656 135.305 513.334 135.997 512.873 136.595C512.412 137.193 511.825 137.681 511.153 138.024C510.481 138.368 509.742 138.558 508.988 138.581H508.3C504.201 138.581 498.755 138.896 493.338 139.355C490.128 139.641 486.975 140.014 484.08 140.387C483.033 135.915 481.261 131.644 478.835 127.744C481.156 125.967 483.62 123.99 486.085 122.012L486.086 122.011C490.271 118.484 494.284 114.815 497.236 111.948L497.637 111.403ZM444.529 101.709H453.558C453.494 102.411 453.427 103.105 453.362 103.789L453.361 103.79C453.189 105.584 453.023 107.314 452.924 108.967C457.398 110.007 461.669 111.779 465.564 114.213C467.255 111.891 469.233 109.425 471.297 106.96C472.791 105.159 474.316 103.38 475.797 101.709H485.862V95.9139H481.194L481.329 95.7793L481.816 95.3206C482.35 94.7685 482.753 94.1034 482.996 93.3746C483.239 92.6457 483.315 91.8717 483.218 91.1095C483.122 90.3473 482.856 89.6165 482.44 88.9709C482.023 88.3254 481.467 87.7816 480.813 87.3796C480.267 87.0918 479.754 86.8039 479.256 86.5246L479.255 86.5243C478.811 86.2751 478.379 86.0326 477.946 85.8029C472.493 82.8573 466.684 80.6222 460.663 79.1519C459.919 78.97 459.143 78.9592 458.393 79.1202C457.644 79.2813 456.941 79.61 456.337 80.0817C455.733 80.5535 455.244 81.156 454.906 81.844C454.568 82.532 454.39 83.2876 454.386 84.0541C454.4 84.2832 454.4 84.513 454.386 84.7421C454.342 87.8965 454.198 91.8208 453.915 95.9139H444.264L443.408 77.2025L442.641 95.9139H432.634C432.339 91.8311 432.173 87.9178 432.173 84.7708V84.0828C432.159 83.3168 431.974 82.5637 431.631 81.8787C431.288 81.1936 430.796 80.594 430.192 80.1239C429.587 79.6538 428.885 79.325 428.136 79.1618C427.388 78.9986 426.613 79.005 425.867 79.1806C419.878 80.6646 414.1 82.8993 408.67 85.8315C407.609 86.3189 406.692 86.8636 405.804 87.4083C405.16 87.83 404.62 88.392 404.224 89.0521C403.828 89.7121 403.587 90.4532 403.518 91.2198C403.449 91.9864 403.554 92.7586 403.826 93.4787C404.098 94.1988 404.529 94.8481 405.087 95.378L405.546 95.8653L405.593 95.9139H388.511V101.709H395.785L413.313 120.491L428.418 136.717L433.205 141.849C432.267 143.045 431.54 144.393 431.055 145.834L423.718 146.321L401.39 147.812L372.556 149.704L401.218 150.421L423.345 150.965L430.396 151.137C430.565 152.916 431.091 154.641 431.944 156.212L427.1 161.572L412.109 178.114L393.479 198.726L413.858 179.949L430.167 164.898L435.354 160.139C437.022 161.455 438.993 162.332 441.087 162.69L441.517 169.8L442.893 191.96L444.612 219.31L445.386 191.874L446.045 169.685L446.246 162.518C448.055 162.089 449.748 161.267 451.205 160.11L456.306 164.927L472.357 180.207L492.679 199.5L474.134 178.372L459.402 161.572L454.587 156.068C455.447 154.473 455.964 152.715 456.106 150.908L463.128 150.593L485.227 149.561L514.462 148.213L485.083 146.894L462.698 145.92L455.361 145.576C454.902 144.281 454.234 143.07 453.383 141.992L458.112 136.746L472.959 120.204L493.281 97.6714L470.924 118.37L454.529 133.564L449.227 138.466C448.249 137.944 447.209 137.549 446.131 137.291L445.816 130.124L444.813 107.906L444.529 101.709ZM415.262 118.656L396.363 101.709H410.996C412.509 103.392 414.074 105.185 415.606 107.017C417.584 109.483 419.562 111.948 421.339 114.27C425.232 111.832 429.503 110.059 433.979 109.024C433.659 106.716 433.375 104.243 433.128 101.709H442.403L442.147 107.935L441.144 130.095L440.829 137.176C439.627 137.428 438.469 137.852 437.389 138.437L431.944 133.564L415.262 118.656ZM372.556 132.302C374.043 126.317 376.266 120.539 379.176 115.102C379.243 114.987 379.309 114.872 379.376 114.757L379.522 114.503L379.523 114.501L379.524 114.5C379.926 113.802 380.337 113.09 380.782 112.378C381.177 111.72 381.716 111.159 382.359 110.74C383.002 110.32 383.732 110.052 384.493 109.955C385.255 109.859 386.029 109.936 386.756 110.182C387.483 110.428 388.145 110.836 388.692 111.375L389.18 111.833C392.046 114.7 396.144 118.37 400.329 121.896C402.794 123.96 405.288 125.938 407.609 127.629C405.132 131.516 403.32 135.789 402.25 140.272C399.383 139.899 396.202 139.527 392.992 139.24C387.546 138.781 382.129 138.552 378.001 138.466H377.313C376.561 138.453 375.821 138.273 375.146 137.94C374.471 137.608 373.878 137.129 373.41 136.54C372.941 135.951 372.609 135.266 372.436 134.533C372.264 133.8 372.256 133.039 372.412 132.302H372.556ZM380.81 187.46C380.237 186.542 379.721 185.625 379.205 184.593C376.295 179.155 374.071 173.378 372.584 167.392C372.408 166.648 372.401 165.874 372.565 165.126C372.728 164.379 373.057 163.678 373.528 163.076C373.998 162.473 374.598 161.984 375.283 161.644C375.968 161.304 376.721 161.123 377.485 161.114H378.173C382.301 161.114 387.718 160.798 393.164 160.34C396.374 160.053 399.527 159.68 402.422 159.308C403.456 163.784 405.229 168.056 407.667 171.95C405.345 173.728 402.851 175.706 400.387 177.684C396.202 181.21 392.189 184.88 389.237 187.746L388.75 188.205C388.221 188.789 387.564 189.242 386.83 189.528C386.097 189.814 385.306 189.926 384.522 189.853C383.738 189.781 382.981 189.527 382.312 189.112C381.643 188.696 381.08 188.131 380.667 187.46H380.81ZM453.408 250.053H447.617V255.848H453.408V250.053ZM541.491 182.834H547.282V188.629H541.491V182.834ZM510.196 63.4635H504.405V69.2582H510.196V63.4635ZM452.252 119.093H458.044V124.887H452.252V119.093ZM356.057 178.199H350.266V183.993H356.057V178.199ZM448.776 42.6026H454.567V48.3973H448.776V42.6026ZM434.865 175.881H429.074V181.675H434.865V175.881Z" fill="black"/>
<rect x="290" y="144.59" width="62.5828" height="5.79471" fill="black"/>
<rect x="543.809" y="174.723" width="62.5828" height="5.79474" fill="black"/>
<rect x="536.855" y="102.867" width="62.5828" height="5.79468" fill="black"/>
<rect x="-7" y="113" width="62.5828" height="5.79468" fill="black"/>
<rect x="76" y="81" width="62.5828" height="5.79468" fill="black"/>
<rect x="201" y="28" width="62.5828" height="5.79468" fill="black"/>
<rect x="151" y="181" width="62.5828" height="5.79468" fill="black"/>
<rect x="21" y="146" width="62.5828" height="5.79468" fill="black"/>
<rect x="-4" y="232" width="62.5828" height="5.79468" fill="black"/>
<path d="M87.0072 162.227H14V28H232.839V76.5268H87.0072V162.227ZM163.125 271V162.227H87.0072V116.813H195.512L244 165.523V222.473L195.512 271H163.125ZM163.125 222.473V271H62.6714L14 222.473V195.188H95.0581V222.473H163.125Z" fill="#E6DE37"/>
<path d="M107.007 162.227H34V28H252.839V76.5268H107.007V162.227ZM183.125 271V162.227H107.007V116.813H215.512L264 165.523V222.473L215.512 271H183.125ZM183.125 222.473V271H82.6714L34 222.473V195.188H115.058V222.473H183.125Z" fill="#FF441B"/>
<path fill-rule="evenodd" clip-rule="evenodd" d="M24 162.227H97.0072H173.125V222.473H105.058V216.795H80V211H105.058V195.188H24V222.473L59.6327 258H90.5828V263.795H65.4446L72.6714 271H173.125H205.512L254 222.473V165.523L241.33 152.795H214V147H235.561L205.512 116.813H97.0072V76.5268H242.839V28H174.583V33.7947H112V28H24V60H55.5828V65.7947H24V162.227ZM78.7915 113H73V118.795H78.7915V113ZM84 60H89.7915V65.7947H84V60ZM203.792 60H198V65.7947H203.792V60ZM143 135H148.792V140.795H143V135ZM142.792 248H137V253.795H142.792V248ZM214 205H219.792V210.795H214V205Z" fill="black"/>
<path d="M279.792 146H274V151.795H279.792V146Z" fill="black"/>
<path d="M123.792 211H118V216.795H123.792V211Z" fill="black"/>
<path d="M102.792 285H97V290.795H102.792V285Z" fill="black"/>
<path d="M148.792 0H143V5.79468H148.792V0Z" fill="black"/>
<rect x="679" y="84" width="62.5828" height="5.79468" fill="black"/>
<rect x="804" y="31" width="62.5828" height="5.79468" fill="black"/>
<rect x="754" y="184" width="62.5828" height="5.79468" fill="black"/>
<rect x="624" y="149" width="62.5828" height="5.79468" fill="black"/>
<path d="M580.792 63H575V68.7947H580.792V63Z" fill="black"/>
<path d="M690.007 165.227H617V31H835.839V79.5268H690.007V165.227ZM766.125 274V165.227H690.007V119.813H798.512L847 168.523V225.473L798.512 274H766.125ZM766.125 225.473V274H665.671L617 225.473V198.188H698.058V225.473H766.125Z" fill="#E6DE37"/>
<path d="M710.007 165.227H637V31H855.839V79.5268H710.007V165.227ZM786.125 274V165.227H710.007V119.813H818.512L867 168.523V225.473L818.512 274H786.125ZM786.125 225.473V274H685.671L637 225.473V198.188H718.058V225.473H786.125Z" fill="#FF441B"/>
<path fill-rule="evenodd" clip-rule="evenodd" d="M627 165.227H700.007H776.125V225.473H708.058V219.795H683V214H708.058V198.188H627V225.473L662.633 261H693.583V266.795H668.445L675.671 274H776.125H808.512L857 225.473V168.523L844.33 155.795H817V150H838.561L808.512 119.813H700.007V79.5268H845.839V31H777.583V36.7947H715V31H627V63H658.583V68.7947H627V165.227ZM681.792 116H676V121.795H681.792V116ZM687 63H692.792V68.7947H687V63ZM806.792 63H801V68.7947H806.792V63ZM746 138H751.792V143.795H746V138ZM745.792 251H740V256.795H745.792V251ZM817 208H822.792V213.795H817V208Z" fill="black"/>
<path d="M882.792 149H877V154.795H882.792V149Z" fill="black"/>
<path d="M726.792 214H721V219.795H726.792V214Z" fill="black"/>
<path d="M705.792 288H700V293.795H705.792V288Z" fill="black"/>
<path d="M751.792 3H746V8.79468H751.792V3Z" fill="black"/>
</svg>
