<svg width="731" height="209" viewBox="0 0 731 209" fill="none" xmlns="http://www.w3.org/2000/svg">
<path d="M607.937 151.336H581.107V178.181H607.937V151.336Z" fill="#E6DE37"/>
<path d="M612.743 156.141H585.913V182.986H612.743V156.141Z" fill="#FF441B"/>
<path d="M27.7082 23.6406H0.877686V50.4857H27.7082V23.6406Z" fill="#E6DE37"/>
<path d="M32.5142 28.4727H5.68372V55.3178H32.5142V28.4727Z" fill="#FF441B"/>
<path d="M725.56 37.0742H698.73V63.9194H725.56V37.0742Z" fill="#E6DE37"/>
<path d="M730.366 41.8828H703.536V68.7278H730.366V41.8828Z" fill="#FF441B"/>
<path d="M475.336 191.094H461.005V205.433H475.336V191.094Z" fill="#E6DE37"/>
<path d="M477.9 193.684H463.569V208.023H477.9V193.684Z" fill="#FF441B"/>
<path d="M121.066 134.902H106.735V149.241H121.066V134.902Z" fill="#E6DE37"/>
<path d="M123.631 137.469H109.3V151.808H123.631V137.469Z" fill="#FF441B"/>
<path d="M625.349 0.808594H611.018V15.1475H625.349V0.808594Z" fill="#E6DE37"/>
<path d="M627.914 3.375H613.583V17.714H627.914V3.375Z" fill="#FF441B"/>
<path d="M153.37 55.4688H139.039V69.8076H153.37V55.4688Z" fill="#E6DE37"/>
<path d="M155.935 58.0352H141.604V72.374H155.935V58.0352Z" fill="#FF441B"/>
</svg>
