<svg width="697" height="210" viewBox="0 0 697 210" fill="none" xmlns="http://www.w3.org/2000/svg">
<path d="M149.001 81.6992H122.17V108.544H149.001V81.6992Z" fill="#E6DE37"/>
<path d="M153.828 86.5078H126.998V113.353H153.828V86.5078Z" fill="#FF441B"/>
<path d="M691.344 97.5273H664.513V124.372H691.344V97.5273Z" fill="#E6DE37"/>
<path d="M696.171 102.336H669.34V129.181H696.171V102.336Z" fill="#FF441B"/>
<path d="M600.658 171.961H568.699V203.938H600.658V171.961Z" fill="#E6DE37"/>
<path d="M606.391 177.695H574.432V209.672H606.391V177.695Z" fill="#FF441B"/>
<path d="M366.791 0H334.832V31.977H366.791V0Z" fill="#E6DE37"/>
<path d="M372.524 5.73438H340.565V37.7113H372.524V5.73438Z" fill="#FF441B"/>
<path d="M457.542 61.1523H443.21V75.4913H457.542V61.1523Z" fill="#E6DE37"/>
<path d="M460.106 63.7148H445.775V78.0538H460.106V63.7148Z" fill="#FF441B"/>
<path d="M14.4603 185.219H0.12915V199.558H14.4603V185.219Z" fill="#E6DE37"/>
<path d="M17.0249 187.785H2.69373V202.124H17.0249V187.785Z" fill="#FF441B"/>
</svg>
