<svg width="100" height="100" viewBox="0 0 100 100" fill="none" xmlns="http://www.w3.org/2000/svg">
<g clip-path="url(#clip0)">
<path d="M99.9541 74.6143C99.8762 74.3855 99.7058 74.1999 99.4842 74.1028L59.9608 56.8113L63.8356 54.5749C67.6227 52.3904 70.9553 49.5799 73.7504 46.2206L91.3862 46.6847C91.3938 46.685 91.4013 46.685 91.4088 46.685C91.5723 46.685 91.7326 46.6383 91.8708 46.5505L95.2722 44.386C95.5668 44.1986 95.7189 43.8517 95.6574 43.5079C95.5958 43.1641 95.3325 42.8919 94.991 42.8183L78.4241 39.2585L81.227 34.5198C81.7957 33.5587 81.9306 32.4485 81.607 31.3935C81.3613 30.5925 80.8714 29.8964 80.2201 29.4003L85.4087 15.9859C85.5395 15.6479 85.4446 15.2643 85.1711 15.0263C84.8979 14.7885 84.505 14.7474 84.1881 14.923L74.4475 20.3343C74.3404 20.3937 74.2474 20.4752 74.1745 20.5736L66.0225 31.5504L61.5128 24.7847C61.2537 24.3959 60.7321 24.2846 60.3371 24.5344L57.3987 26.3898C57.1228 26.564 56.9692 26.879 57.0019 27.2037L58.0568 37.6749C53.4505 40.327 47.8849 43.5337 42.1397 46.85L22.0952 29.1008C21.8514 28.8852 21.5067 28.8254 21.2051 28.9461C18.6012 29.9877 17.3231 32.8639 18.2957 35.4945L22.0255 45.5831L15.9965 49.592C15.2374 50.0544 14.7778 50.9333 14.7367 52.0181C14.6997 52.995 14.9927 54.0759 15.5621 55.062C16.1314 56.0481 16.921 56.8425 17.7855 57.2988C18.3092 57.5753 18.8426 57.7143 19.3459 57.7143C19.7839 57.7143 20.1992 57.6089 20.5654 57.3974C20.5863 57.3853 25.2017 54.176 25.2017 54.176L25.9539 56.211C19.6856 59.8461 14.1779 63.0561 10.6652 65.1349C6.77083 67.4397 3.69124 70.7283 1.75932 74.6446C1.09706 75.9872 0.564536 77.4008 0.176387 78.846C-0.300838 80.6273 0.201131 82.4599 1.51899 83.7476C2.47946 84.6861 3.71878 85.1844 5.00566 85.1844C5.48288 85.1844 5.96678 85.1158 6.44508 84.9757C9.63677 84.0381 12.7975 82.902 15.8388 81.5994C18.8831 80.2962 21.8867 78.7929 24.7664 77.1308L40.4765 68.0588L54.3705 70.6932L51.6696 72.4448C50.9053 72.9057 50.4428 73.7878 50.4014 74.877C50.3644 75.8538 50.6575 76.9345 51.2268 77.9206C52.1866 79.5832 53.6783 80.5748 55.0134 80.5748C55.4429 80.5748 55.856 80.4722 56.2301 80.2564C56.2512 80.2441 66.643 73.0204 66.643 73.0204L93.81 78.1715C94.1695 78.2397 94.5289 78.2728 94.8847 78.2728C96.9436 78.2728 98.8717 77.162 99.8924 75.306C100.01 75.0943 100.032 74.8432 99.9541 74.6143ZM92.5776 44.0604L91.1685 44.957L69.8892 44.3972C71.3516 43.2704 73.8608 41.7677 76.2222 40.546L92.5776 44.0604ZM75.4454 21.7488L82.9453 17.5824L77.5798 31.4536L62.2038 39.5793L75.4454 21.7488ZM60.546 26.438L64.9323 33.0184L64.0247 34.2405C62.7476 34.9753 61.2909 35.8133 59.6921 36.7338L58.7679 27.5611L60.546 26.438ZM19.8126 55.8273L19.6847 55.9162C19.4207 56.0552 19.024 56.0061 18.5894 55.7768C18.0164 55.4745 17.4563 54.9002 17.0531 54.2016C16.6497 53.503 16.4324 52.731 16.4569 52.0833C16.4758 51.5803 16.6381 51.2044 16.9019 51.0521C17.0036 50.9935 17.1265 50.9643 17.2651 50.9643C17.4852 50.9643 17.7442 51.0381 18.0177 51.1825C18.5907 51.4848 19.1507 52.059 19.5539 52.7576C20.3042 54.057 20.2992 55.3826 19.8126 55.8273ZM21.8574 54.4053C21.7948 53.6015 21.5278 52.7335 21.0448 51.897C20.4965 50.9475 19.7433 50.1789 18.9164 49.7155L22.6387 47.2418L24.5857 52.5085L21.8574 54.4053ZM19.9098 34.8974C19.3237 33.3119 19.967 31.5923 21.3824 30.7689L40.5676 47.7573C36.1467 50.31 31.6629 52.9022 27.4656 55.335L19.9098 34.8974ZM3.07201 82.8149C2.95045 82.7245 2.83362 82.6253 2.72259 82.5169C1.85743 81.6715 1.52716 80.469 1.83785 79.2994C2.12187 79.1059 2.45386 78.9997 2.79403 78.9997C3.78097 78.9997 4.58416 79.8609 4.58416 80.9197C4.58394 81.8708 3.92491 82.6703 3.07201 82.8149ZM23.9064 75.6401C21.0859 77.268 18.1438 78.7406 15.1617 80.0171C12.1828 81.2933 9.08703 82.4061 5.96118 83.3242C5.74516 83.3872 5.52764 83.4281 5.31097 83.4477C5.92504 82.7899 6.30523 81.8966 6.30523 80.9195C6.30523 78.9117 4.73004 77.2782 2.79381 77.2782C2.6901 77.2782 2.58704 77.2831 2.48441 77.2924C2.72711 76.6505 3.00036 76.0201 3.30353 75.4058C3.35301 75.3056 3.40637 75.2075 3.45737 75.1081C4.39138 76.2237 6.21055 76.7854 8.88026 76.7854C9.56167 76.7854 10.2984 76.7489 11.09 76.6757C11.5633 76.6318 11.9114 76.2127 11.8675 75.7391C11.8237 75.2655 11.4034 74.9224 10.9312 74.9615C6.65292 75.3587 5.25137 74.5454 4.79652 74.0264C4.5407 73.7347 4.51036 73.444 4.51703 73.2848C6.2736 70.5974 8.66596 68.318 11.542 66.6159C21.5056 60.719 47.534 45.7161 61.4491 37.7076L58.5584 41.6001C58.3187 41.9228 58.3342 42.3686 58.596 42.6737C58.7641 42.8695 59.0048 42.9741 59.2497 42.9741C59.3863 42.9741 59.524 42.9416 59.6514 42.8743L78.6688 32.8246C78.8523 32.7277 78.9945 32.5679 79.0692 32.3742L79.5496 31.1321C79.7321 31.3557 79.8741 31.6143 79.961 31.8979C80.1409 32.4842 80.0641 33.1038 79.7452 33.6432L76.6497 38.8768L76.2829 38.798C76.0892 38.7567 75.8872 38.7832 75.7105 38.8731C74.4551 39.5141 68.1412 42.814 67.1379 44.8208C67.0062 45.0842 67.0183 45.3964 67.1695 45.6485C67.321 45.9009 67.5908 46.0584 67.8849 46.0662L71.5259 46.1619C69.0554 48.9067 66.1865 51.2311 62.975 53.0838L58.002 55.9543L57.4297 55.7038C57.2392 55.6206 57.0252 55.6092 56.8268 55.6713C56.2753 55.8445 43.2547 59.981 37.2965 66.0963C37.0753 66.3233 36.9967 66.6533 37.0921 66.9556C37.1874 67.2579 37.4413 67.4832 37.7526 67.5424L37.8858 67.5675L23.9064 75.6401ZM55.4749 78.6896L55.3555 78.7727C54.7591 79.0943 53.5142 78.4387 52.7183 77.0604C52.3149 76.3618 52.0978 75.5898 52.1223 74.9424C52.1412 74.4391 52.3037 74.0632 52.5672 73.9109C52.6705 73.8515 52.794 73.8223 52.9322 73.8223C53.5839 73.8223 54.5573 74.4701 55.2191 75.6165C55.9713 76.9188 55.9648 78.2477 55.4749 78.6896ZM57.5228 77.2659C57.4606 76.4616 57.1934 75.5932 56.7099 74.7558C56.1471 73.7807 55.4009 73.038 54.6108 72.589L56.8332 71.1603L64.2748 72.5713L57.5228 77.2659ZM94.1315 76.4808L39.7431 66.1679C45.2929 61.4402 55.1853 58.0261 57.04 57.4124L97.8264 75.2565C96.9053 76.2617 95.5184 76.7441 94.1315 76.4808Z" fill="black"/>
</g>
<defs>
<clipPath id="clip0">
<rect width="100" height="100" fill="white"/>
</clipPath>
</defs>
</svg>
