<svg width="100" height="100" viewBox="0 0 100 100" fill="none" xmlns="http://www.w3.org/2000/svg">
<g clip-path="url(#clip0)">
<path d="M99.7153 36.8892C99.2433 33.5155 97.3766 30.6094 94.4936 28.7628L94.8169 28.6375C95.1255 28.5178 95.3381 28.2319 95.3634 27.902C95.3888 27.5721 95.2229 27.2567 94.9361 27.0915L80.1142 18.532V9.3416C80.1142 7.36159 77.6222 5.86841 74.3175 5.86841C71.013 5.86841 68.521 7.36159 68.521 9.3416V11.8381L62.5746 8.4049C62.3491 8.27465 62.0768 8.2538 61.8341 8.34773L39.1559 17.1385C38.8473 17.2582 38.6347 17.5441 38.6093 17.874C38.584 18.204 38.7501 18.5193 39.0366 18.6846L46.9122 23.2322V34.8024L5.83526 58.5155C2.16066 60.6363 -0.0130103 64.4274 0.010418 68.6565C-0.0138701 69.636 0.0119225 73.233 0.0119225 73.3686C0.0119225 77.5812 2.18904 81.354 5.8359 83.4615C6.23504 83.6921 12.7922 87.9731 12.7922 87.9731C18.4545 91.7631 25.0469 93.8854 31.8568 94.1111C32.2613 94.1246 32.6641 94.1313 33.0678 94.1313C39.4605 94.1313 45.7358 92.453 51.286 89.2485L85.2127 69.6609C92.1196 65.6734 96.891 58.8845 98.304 51.0354C98.304 51.0354 99.0013 47.6744 99.0731 47.4844C99.6667 45.9151 100.038 42.4916 99.9971 39.8986C99.9827 38.9879 99.7478 37.1207 99.7153 36.8892ZM71.3982 37.3715C71.5304 37.4478 71.6791 37.4867 71.8281 37.4867C71.9332 37.4867 72.0385 37.4674 72.1387 37.4285L72.1524 37.4231V46.9247L61.4055 40.719V31.6011L71.3982 37.3715ZM90.3154 30.3826V45.2078L86.3384 47.5037V31.9244L90.3154 30.3826ZM84.6189 48.4963L79.2454 51.5985V34.6738L84.6189 32.5909V48.4963ZM77.5259 52.5911L73.8719 54.7005V36.7566L77.5259 35.3402V52.5911ZM72.1524 48.9103V54.7005L48.6317 41.1192V35.3288L72.1524 48.9103ZM47.3423 42.3601L72.5825 56.9344C72.7156 57.0111 72.8641 57.0496 73.0124 57.0496C73.1607 57.0496 73.3092 57.0111 73.4423 56.9344L91.6052 46.4486C91.8711 46.2952 92.0351 46.0112 92.0351 45.7041V33.5697C92.3928 33.7597 92.7461 33.9544 93.092 34.1541C95.6197 35.6133 97.3073 37.9682 97.8636 40.7959C97.2603 43.4414 95.5926 45.7453 93.1479 47.1564L41.0921 77.2113C35.7876 80.2737 29.8424 81.8047 23.8953 81.8043C17.9481 81.8041 11.9993 80.2722 6.69544 77.2091C6.68383 77.2025 6.67201 77.1958 6.65998 77.1896C4.99313 76.2187 3.6878 74.8332 2.84052 73.2005C1.99237 71.5661 2.00505 69.6386 2.88608 68.0216C3.74111 66.4527 5.02021 65.1416 6.63956 64.2071L46.9126 40.9578V41.6159C46.9124 41.9227 47.0762 42.2064 47.3423 42.3601ZM93.1479 29.9523C95.5986 31.3662 97.2616 33.6391 97.8627 36.3201C96.8865 34.8436 95.5666 33.5972 93.9517 32.665C93.3308 32.3063 92.6879 31.9618 92.0349 31.6357V29.7161L92.4448 29.5572C92.6909 29.6911 92.9235 29.8216 93.1479 29.9523ZM70.2408 16.3348C71.2725 16.9345 72.6969 17.2945 74.3177 17.2945C75.9388 17.2945 77.3632 16.9347 78.3949 16.3348V26.518C78.3949 27.2331 76.8065 28.2717 74.3177 28.2717C71.8289 28.2717 70.2408 27.2331 70.2408 26.518V16.3348ZM74.3177 15.575C71.8289 15.575 70.2408 14.5365 70.2408 13.8214V11.8555C71.2725 12.4554 72.6969 12.8152 74.3177 12.8152C75.9388 12.8152 77.3632 12.4554 78.3949 11.8555V13.8214C78.3947 14.5365 76.8065 15.575 74.3177 15.575ZM74.3177 7.58792C76.8065 7.58792 78.3949 8.6265 78.3949 9.3416C78.3949 10.0567 76.8065 11.0955 74.3177 11.0955C71.8289 11.0955 70.2408 10.0567 70.2408 9.3416C70.2408 8.6265 71.8287 7.58792 74.3177 7.58792ZM62.0716 10.0997L68.5213 13.8233V26.5178C68.5213 28.4978 71.0133 29.991 74.3177 29.991C77.6224 29.991 80.1144 28.4978 80.1144 26.5178V20.5173L92.5224 27.683L71.9016 35.6765L41.4508 18.0933L62.0716 10.0997ZM59.686 30.6085V39.7264L48.6317 33.3434V24.2255L59.686 30.6085ZM6.69501 60.0046L46.9122 36.7878V38.972L5.77959 62.7175C4.25696 63.5964 2.99248 64.7616 2.03213 66.1376C2.67415 63.5762 4.31414 61.3789 6.69501 60.0046ZM1.85588 74.9308C2.83923 76.4526 4.18668 77.7471 5.83311 78.6978C5.84536 78.7049 5.85761 78.7116 5.87029 78.718C11.4312 81.9212 17.6627 83.5228 23.8948 83.5228C30.1386 83.5228 36.3823 81.9152 41.9514 78.7L94.007 48.6453C95.6175 47.7159 96.9402 46.4559 97.9167 44.981C97.791 45.7516 97.6381 46.4174 97.4647 46.8759C96.6574 49.0096 95.1642 50.7534 93.1461 51.9188L41.0929 81.9724C35.788 85.0355 29.842 86.5667 23.8942 86.5663C17.9477 86.5661 11.9993 85.0346 6.69566 81.9726C4.04675 80.4416 2.31198 77.8778 1.85588 74.9308ZM40.7477 84.163C40.7477 86.0934 39.969 87.3742 39.4538 87.3742C39.068 87.3742 38.4879 86.6041 38.2579 85.314C39.0989 84.9501 39.9297 84.5553 40.7467 84.1244C40.7469 84.1373 40.7477 84.1499 40.7477 84.163ZM84.353 68.1718L50.4262 87.7594C44.8041 91.0054 38.4034 92.6069 31.9138 92.3926C25.7448 92.1882 19.7652 90.347 14.5542 87.0634C17.6102 87.8776 20.7518 88.2856 23.8942 88.2854C28.2164 88.2851 32.5395 87.5131 36.6385 85.9722C37.0661 87.8542 38.1416 89.094 39.4538 89.094C41.1716 89.094 42.4673 86.9742 42.4673 84.1633C42.4673 83.8346 42.4466 83.5124 42.4103 83.1978L94.0061 53.4083C94.9155 52.8832 95.7334 52.2563 96.4508 51.5418C94.954 58.5469 90.5813 64.5759 84.353 68.1718Z" fill="black"/>
</g>
<defs>
<clipPath id="clip0">
<rect width="100" height="100" fill="white"/>
</clipPath>
</defs>
</svg>
