<svg width="100" height="100" viewBox="0 0 100 100" fill="none" xmlns="http://www.w3.org/2000/svg">
<g clip-path="url(#clip0)">
<path d="M46.0324 37.0386L55.5428 42.5292C55.6756 42.6057 55.8238 42.6441 55.9717 42.6441C56.1195 42.6441 56.2677 42.6059 56.4002 42.5294L84.6654 26.2319C84.9309 26.0788 85.0947 25.7955 85.0947 25.4891C85.0947 25.1826 84.9313 24.8993 84.6658 24.746L75.1545 19.2548C74.8893 19.1017 74.5625 19.1015 74.2972 19.2546L46.0328 35.5528C45.7673 35.7059 45.6035 35.9892 45.6035 36.2956C45.6035 36.602 45.7669 36.8853 46.0324 37.0386ZM74.7254 20.9877L82.5206 25.4882L55.9719 40.7959L48.1777 36.2962L74.7254 20.9877Z" fill="black"/>
<path d="M99.9991 25.1642C99.9991 25.164 99.8357 24.5741 99.5702 24.4208L75.7362 10.6601C75.4709 10.507 75.1441 10.5068 74.8789 10.6599L4.05207 51.5014C3.78681 51.6546 3.62319 51.9372 3.62276 52.2434V57.39H0.857763C0.384064 57.39 0 57.7741 0 58.2478V61.5958C0 62.0695 0.384064 62.4536 0.857763 62.4536C1.33146 62.4536 1.71553 62.0695 1.71553 61.5958V59.1055H3.62276V74.8388C3.62276 75.1453 3.78638 75.4286 4.05164 75.5817L27.8835 89.3402C28.0163 89.4167 28.1644 89.4551 28.3124 89.4551C28.4602 89.4551 28.6083 89.417 28.7409 89.3404L43.3188 80.9335C43.5354 82.0492 44.101 82.9117 44.9567 83.4057C45.451 83.6912 45.9976 83.8267 46.5682 83.8267C48.4044 83.8267 50.4845 82.4206 51.8368 80.0783C52.7679 78.4657 53.1412 76.7767 52.9845 75.3616L82.2848 58.4678C82.4868 59.5861 83.0424 60.5011 83.9394 61.0192C84.4339 61.3046 84.9805 61.4401 85.5512 61.4401C87.3874 61.4401 89.4675 60.034 90.8198 57.6917C91.7697 56.0463 92.1394 54.3213 91.9574 52.8891L99.5709 48.5006C99.8364 48.3474 100 48.0642 100 47.7575L99.9991 25.1642ZM98.2845 30.2973L73.1417 44.7944V41.1448L98.2845 26.6477V30.2973ZM71.4262 45.7836L65.2503 49.3446V45.695L71.4262 42.134V45.7836ZM63.5347 50.3336L41.1851 63.2202V59.5709L63.5347 46.6842V50.3336ZM39.4698 64.2094L33.2941 67.7702V64.1209L39.4698 60.5601V64.2094ZM31.5786 68.7594L29.1702 70.1482V66.4988L31.5786 65.1101V68.7594ZM31.5786 79.6961L29.1702 81.0855V72.1283L31.5786 70.7396V79.6961ZM27.4544 70.1471L5.33829 57.3791V53.7303L27.4546 66.4984V70.1471H27.4544ZM5.33829 59.3601L25.1108 70.775H24.6896C24.2159 70.775 23.8319 71.159 23.8319 71.6327V74.9808C23.8319 75.4545 24.2159 75.8386 24.6896 75.8386C25.1633 75.8386 25.5474 75.4545 25.5474 74.9808V72.4905H27.4546V81.0849L5.33829 68.3168V59.3601ZM29.17 83.0661L31.5783 81.6767V85.7234L29.17 87.1124V83.0661ZM33.2941 69.7506L35.5241 68.4648V83.4482L33.2941 84.7342V69.7506ZM37.2396 67.4756L39.4696 66.1898V81.1728L37.2396 82.4588V67.4756ZM41.1853 65.2006L47.8143 61.3784V68.9882L41.1853 72.8106V65.2006ZM49.5298 60.3892L55.5786 56.9015V64.5111L49.5298 67.9988V60.3892ZM57.2941 55.9123L63.535 52.314V59.9236L57.2941 63.5221V55.9123ZM65.2503 51.3247L67.4802 50.039V65.0232L65.2503 66.309V51.3247ZM69.196 49.0497L71.4262 47.7637V62.748L69.196 64.034V49.0497ZM73.1417 46.7747L77.9471 44.0039V51.614L73.1417 54.3848V46.7747ZM79.6626 43.0147L85.7112 39.5273V47.1376L79.6626 50.625V43.0147ZM87.4267 38.5381L92.4075 35.6663V43.2766L87.4267 46.1484V38.5381ZM94.123 34.6771L98.2845 32.2777V39.888L94.123 42.2873V34.6771ZM75.3073 12.3932L97.4252 25.163L28.3124 65.0127L6.1967 52.2449L75.3073 12.3932ZM5.33829 70.2978L27.4546 83.0659V87.1115L25.6338 86.0603V83.9165L23.1785 82.5774V84.6431L9.01852 76.4684V74.3188L6.56318 72.9796V75.0509L5.33808 74.3437V70.2978H5.33829ZM50.3511 79.2203C49.1243 81.345 47.0048 82.6076 45.8144 81.9197C45.0986 81.5064 44.9582 80.5578 44.938 80.0289C44.8983 78.9853 45.2432 77.7505 45.8837 76.641C46.8826 74.9109 48.4731 73.7533 49.6722 73.7533C49.9456 73.7533 50.1993 73.8138 50.4204 73.9414C51.6103 74.6287 51.5777 77.0954 50.3511 79.2203ZM51.2782 72.4557C49.1927 71.2519 46.1706 72.7133 44.398 75.7832C43.8023 76.8147 43.4215 77.9156 43.2812 78.9743L41.1851 80.1831V74.7906L63.5347 61.9038V67.298L52.4685 73.6785C52.1816 73.1679 51.7847 72.7482 51.2782 72.4557ZM89.3341 56.8337C88.1071 58.9588 85.9871 60.22 84.7972 59.5333C83.6073 58.8463 83.6399 56.3795 84.8665 54.2544C86.0937 52.1293 88.2139 50.8682 89.4034 51.5548C90.5933 52.2421 90.5609 54.7088 89.3341 56.8337ZM91.4114 51.2233C91.1279 50.7438 90.7447 50.3484 90.2612 50.0692C88.1755 48.8653 85.1534 50.3267 83.3808 53.3967C82.7849 54.4288 82.4182 55.492 82.2717 56.4949L73.1417 61.759V56.365L98.2845 41.8681V47.2615L91.4114 51.2233Z" fill="black"/>
</g>
<defs>
<clipPath id="clip0">
<rect width="100" height="100" fill="white"/>
</clipPath>
</defs>
</svg>
