<svg width="100" height="100" viewBox="0 0 100 100" fill="none" xmlns="http://www.w3.org/2000/svg">
<g clip-path="url(#clip0)">
<path d="M51.635 72.317C51.1939 72.0621 50.2474 71.7831 48.8712 72.7806C48.0488 73.3767 47.2445 74.3136 46.6062 75.4191C45.9677 76.5246 45.5585 77.6897 45.4536 78.7C45.2777 80.3903 45.9923 81.0705 46.4341 81.3255C46.6964 81.4769 47.0017 81.5558 47.3366 81.5556C48.5415 81.5556 50.1268 80.5368 51.4625 78.2232C52.101 77.1177 52.5102 75.9526 52.6152 74.9423C52.791 73.2522 52.0766 72.572 51.635 72.317ZM50.8859 74.7628C50.8071 75.5241 50.4682 76.4685 49.9571 77.3539C48.8403 79.2883 47.5344 79.9526 47.3032 79.8199C47.2712 79.8014 47.1132 79.5495 47.1828 78.8797C47.2617 78.1184 47.6005 77.174 48.1116 76.2886C48.6227 75.4032 49.2715 74.6376 49.891 74.1884C50.3289 73.8711 50.6067 73.8157 50.7158 73.8157C50.7425 73.8157 50.759 73.8192 50.7655 73.8226C50.7977 73.8411 50.9557 74.093 50.8859 74.7628Z" fill="black"/>
<path d="M89.829 49.8909C89.3876 49.636 88.4409 49.3572 87.0651 50.3545C86.2427 50.9504 85.4384 51.8875 84.8001 52.993C83.0931 55.9499 83.4212 58.2024 84.628 58.8991C84.8319 59.0169 85.1431 59.1395 85.5547 59.1395C86.0347 59.1395 86.6511 58.9724 87.3919 58.4354C88.2143 57.8395 89.0186 56.9024 89.6568 55.7969C90.2953 54.6914 90.7043 53.5263 90.8095 52.5162C90.9851 50.8259 90.2706 50.1459 89.829 49.8909ZM89.0801 52.3367C89.001 53.0977 88.6624 54.0422 88.1512 54.9278C87.6401 55.8134 86.9914 56.5788 86.3718 57.028C85.8266 57.4231 85.5297 57.4118 85.4975 57.3938C85.2678 57.2612 85.1887 55.7975 86.306 53.8625C86.8173 52.9769 87.4658 52.2115 88.0854 51.7623C88.5233 51.4452 88.8008 51.3896 88.9099 51.3896C88.9369 51.3896 88.9534 51.3929 88.9597 51.3965C88.9916 51.415 89.1498 51.6669 89.0801 52.3367Z" fill="black"/>
<path d="M99.5654 33.0487L71.6112 16.9104C71.4107 16.7946 71.172 16.7637 70.9486 16.8243L66.4953 18.0346L56.1345 12.0165C55.8656 11.8603 55.5333 11.8596 55.2636 12.0152L24.987 29.474C24.819 29.5709 24.688 29.7213 24.6154 29.9012L19.1406 43.4432L0.280128 56.9172C0.101707 57.0817 0 57.3134 0 57.5563V70.1632C0 70.4737 0.165817 70.7608 0.434644 70.916L30.0013 87.9844C30.1358 88.062 30.286 88.1009 30.4359 88.1009C30.5859 88.1009 30.736 88.062 30.8706 87.9844C30.8884 87.9742 41.2429 81.954 41.2429 81.954C41.5821 83.6701 42.4456 85.0627 43.8188 85.8558C44.5729 86.291 45.4185 86.5077 46.3198 86.5077C47.4018 86.5077 48.564 86.195 49.7432 85.5726C51.7732 84.501 53.6389 82.6155 54.9968 80.2634C56.3548 77.9113 57.0548 75.3528 56.9679 73.0592C56.9655 72.9966 56.9601 72.9362 56.9566 72.8742L79.5148 59.8267C79.8975 61.452 80.7551 62.7036 82.0125 63.4294C82.7842 63.8749 83.6389 64.0868 84.5343 64.0868C87.5166 64.0868 90.9407 61.7341 93.1907 57.8375C94.9351 54.8161 95.5217 51.6478 95.0025 49.1725L99.448 45.4476C99.6399 45.2868 99.7531 45.0507 99.7588 44.8004L100 33.8206C100.007 33.5034 99.8403 33.2074 99.5654 33.0487ZM71.0555 18.597L97.1659 33.6709L90.6712 36.3466L85.9204 29.4138C85.8519 29.303 85.7598 29.2084 85.6505 29.138C85.5866 29.0967 68.6081 19.2623 68.6081 19.2623L71.0555 18.597ZM55.6014 47.9746L66.3153 41.7807V50.2917L51.1171 59.066L55.6014 47.9746ZM68.0537 40.7756L79.7171 34.0327L81.4425 41.558L68.0537 49.2877V40.7756ZM83.0176 40.6487L81.2921 33.1224L84.9179 31.0263L89.1039 37.135L83.0176 40.6487ZM55.6966 13.7727L83.4273 29.8799L54.8955 46.3745L27.044 30.295L55.6966 13.7727ZM25.8083 31.589L53.8137 47.7581L48.9989 59.6669L20.9939 43.4973L25.8083 31.589ZM20.0271 44.9467L47.9534 61.0708L30.3879 73.5934L2.55331 57.4059L20.0271 44.9467ZM41.081 80.0343L31.305 85.754V83.1425L41.4681 77.2639C41.2242 78.2182 41.096 79.1503 41.081 80.0343ZM1.73857 58.9435L29.5666 75.127V81.2194L1.73857 65.0359V58.9435ZM1.73857 69.6611V67.047L29.5666 83.2305V85.7258L1.73857 69.6611ZM53.4912 79.3941C52.2948 81.4663 50.6755 83.1145 48.9318 84.035C47.3184 84.8863 45.8114 84.9984 44.6883 84.3497C42.2728 82.9552 42.2224 78.3292 44.5784 74.2484C46.4621 70.9855 49.4168 68.8807 51.7604 68.8807C52.3481 68.8807 52.8972 69.0131 53.3816 69.2926C54.505 69.9411 55.1615 71.3021 55.2308 73.125C55.3052 75.0957 54.6875 77.3222 53.4912 79.3941ZM91.6848 56.9682C89.3284 61.0495 85.2964 63.3188 82.8816 61.9238C81.7582 61.2753 81.1017 59.9143 81.0324 58.0916C80.9576 56.1209 81.5755 53.8944 82.7718 51.8223C83.9682 49.7503 85.5874 48.1022 87.3312 47.1816C88.2524 46.6952 89.1389 46.4503 89.9393 46.4503C90.5404 46.4503 91.0931 46.5887 91.5746 46.8669C93.9904 48.2615 94.0408 52.8874 91.6848 56.9682ZM94.3864 47.4202C93.9311 46.5524 93.2826 45.8451 92.4442 45.3611C90.7849 44.4027 88.6808 44.5033 86.5197 45.644C84.4897 46.7157 82.624 48.6009 81.2662 50.953C79.9492 53.2338 79.2536 55.7078 79.2916 57.9473L56.656 71.0398C56.2372 69.5849 55.416 68.46 54.2507 67.7872C50.9068 65.8576 45.997 68.3135 43.0725 73.3793C42.8135 73.8279 42.5814 74.2799 42.3732 74.7321L31.3052 81.134V75.0748L49.8404 61.8608C49.8947 61.8221 49.9427 61.7761 49.9864 61.7263L90.7367 38.1999L98.2327 35.1115L98.0291 44.3679L94.3864 47.4202Z" fill="black"/>
<path d="M3.26294 63.9567L7.8267 66.6123V64.0979L3.26294 61.4423V63.9567Z" fill="black"/>
<path d="M23.4741 73.3948V75.9092L28.0379 78.5648V76.0504L23.4741 73.3948Z" fill="black"/>
</g>
<defs>
<clipPath id="clip0">
<rect width="100" height="100" fill="white"/>
</clipPath>
</defs>
</svg>
