<svg width="100" height="100" viewBox="0 0 100 100" fill="none" xmlns="http://www.w3.org/2000/svg">
<path d="M99.9993 36.5601C99.999 36.22 99.8178 35.9058 99.5229 35.7357L89.646 30.0322C92.6433 25.7436 95.8796 21.1162 96.7502 19.935C96.8631 19.7818 96.9274 19.5984 96.9353 19.4085C97.3309 9.71888 89.0048 6.718 88.9207 6.68894C88.7982 6.64654 88.6679 6.62938 88.5386 6.63891L64.3402 8.41401C62.8805 8.52596 61.4825 8.92614 60.1852 9.60383L48.1833 15.8717C46.9876 16.496 45.9328 17.3288 45.0479 18.3464C45.0479 18.3464 28.9648 36.7583 28.8638 36.8372L18.9824 31.1315C18.6875 30.9612 18.3243 30.9612 18.0296 31.1315L3.69335 39.41C3.39869 39.5801 3.27196 39.8993 3.21694 40.2351C2.89608 42.1996 0 59.3105 0 59.5203V75.6362C0 75.9766 0.181511 76.2913 0.476407 76.4614L29.5327 93.2362C29.6814 93.3219 29.8455 93.3636 30.0084 93.3636C30.1747 93.3636 30.3381 93.3167 30.4843 93.2321L30.4858 93.2345L39.9413 87.776C40.038 89.6702 40.8071 91.2438 42.2233 92.0613C42.8721 92.436 43.5901 92.614 44.3404 92.614C46.7937 92.614 49.5895 90.7102 51.4158 87.5471C52.5129 85.6465 53.0784 83.5749 53.0082 81.7138C52.9896 81.2271 52.9279 80.7683 52.8266 80.3398L67.9845 71.6709C68.1272 73.547 68.9223 74.9902 70.245 75.7539C70.8939 76.1284 71.6119 76.3065 72.3624 76.3065C74.8157 76.3065 77.6115 74.4026 79.4376 71.2397C80.5516 69.3103 81.079 67.3029 81.0428 65.5483C81.3691 66.8723 82.0845 67.8953 83.1264 68.497C83.7752 68.8715 84.4932 69.0494 85.2438 69.0494C87.697 69.0494 90.4928 67.1455 92.3189 63.9826C93.4161 62.082 93.9815 60.0103 93.9113 58.1492C93.8934 57.6771 93.8339 57.2317 93.7381 56.8141L95.4968 55.7991C95.7914 55.6291 95.9732 55.3144 95.9732 54.974V45.4604L99.5224 43.4178C99.8178 43.2477 100 42.9328 100 42.5919V36.5601H99.9993ZM34.0953 57.608L46.5571 50.4145V65.6505L31.4145 74.3931L34.0953 57.608ZM48.4628 54.0097L63.2228 51.3874C64.5634 51.1492 65.8309 50.6656 66.99 49.9498L80.433 41.6498C81.524 40.9762 82.4763 40.1222 83.2638 39.112C83.4606 38.8595 84.3269 37.6328 85.5615 35.8724L91.954 39.5422L48.4628 64.5736V54.0097ZM93.8651 38.4419L86.6589 34.3051C87.2473 33.4644 87.8847 32.5526 88.5503 31.6L97.1382 36.5592L93.8651 38.4419ZM91.7767 10.7575C94.0156 12.8996 95.113 15.6868 95.0404 19.0455C93.912 20.6017 83.8691 34.9718 82.7462 36.563C83.7486 31.171 82.8539 25.5547 80.1272 20.6503C77.4114 15.7662 73.1173 12.053 68.0031 10.0557L88.4648 8.55478C88.9435 8.75202 90.3678 9.40946 91.7767 10.7575ZM61.0675 11.2929C61.6368 10.9957 62.2304 10.7653 62.8414 10.5993L63.4591 10.7172C69.8391 11.9454 75.3073 15.9034 78.4616 21.5767C81.5666 27.1611 82.0902 33.747 79.9185 39.7028C79.7598 39.8157 79.5983 39.9255 79.4318 40.0284L66.8559 47.7931C68.8482 41.7975 68.3847 35.2965 65.4788 29.5631C62.29 23.2717 56.6169 18.8056 49.8055 17.1744L61.0675 11.2929ZM47.4635 18.6365L48.3749 18.8121C55.0784 20.1029 60.6928 24.3355 63.779 30.4245C66.7692 36.3243 66.9504 43.1079 64.3007 49.1359C63.8431 49.2983 48.5154 52.0741 48.5154 52.0741C48.5154 52.0741 48.5154 48.8398 48.5154 48.734C48.5154 48.3936 48.3339 48.079 48.039 47.9089L44.9695 46.1366C44.5998 44.4828 43.8609 42.8242 42.8111 41.3171C42.6211 41.04 42.404 40.7497 42.1449 40.4259C41.1166 39.1535 39.9322 38.0873 38.6249 37.2571C36.6464 36.0011 34.556 35.4096 32.6596 35.4958C32.6594 35.4958 47.115 18.9302 47.4635 18.6365ZM42.5251 44.7253L30.7164 37.9067C32.5641 36.962 35.1519 37.31 37.6035 38.866C38.7355 39.5849 39.7648 40.5127 40.6599 41.6203C40.8869 41.9038 41.0765 42.1572 41.2438 42.4009C41.7623 43.1458 42.1913 43.9287 42.5251 44.7253ZM18.506 33.0569L45.6567 48.7338L33.2261 55.9094L6.07514 40.2349L18.506 33.0569ZM4.98274 41.8047L32.1818 57.507L29.4117 74.8502L2.10072 59.0828L4.98274 41.8047ZM29.0568 76.8458V84.7211L1.90563 69.0466V61.1706L29.0568 76.8458ZM24.7031 84.4083V88.2477L6.55369 77.7696V73.9305L24.7031 84.4083ZM1.90563 71.2471L4.64783 72.8302V76.6691L1.90563 75.086V71.2471ZM26.6088 89.3477V85.5083L29.0568 86.9216V90.761L26.6088 89.3477ZM40.1323 85.4657L30.9624 90.7591V76.8544L46.615 67.8508V77.176C46.3423 77.2803 46.0679 77.4028 45.7923 77.5481C44.1451 78.4175 42.6337 79.943 41.5365 81.8436C40.8414 83.0477 40.3762 84.2816 40.1323 85.4657ZM49.7655 86.5948C47.9766 89.6929 44.9595 91.441 43.1761 90.4115C41.3931 89.382 41.3979 85.895 43.1865 82.7966C44.1067 81.2031 45.348 79.9375 46.6817 79.2336C47.3704 78.8701 48.0283 78.6869 48.6164 78.6869C49.0449 78.6869 49.4365 78.7843 49.776 78.9801C50.5811 79.4449 51.0525 80.4415 51.1037 81.7867C51.1609 83.2935 50.6857 85.0012 49.7655 86.5948ZM77.7873 70.2874C75.9984 73.3859 72.9803 75.1334 71.1979 74.1041C70.3927 73.6391 69.9216 72.6425 69.8703 71.2976C69.8134 69.7905 70.2886 68.0828 71.2086 66.489C72.9977 63.3907 76.016 61.6437 77.798 62.6723C79.581 63.7018 79.576 67.1891 77.7873 70.2874ZM90.6686 63.0303C88.8797 66.1288 85.8617 67.8768 84.0792 66.847C83.2741 66.3823 82.8027 65.3856 82.7517 64.0405C82.6945 62.5336 83.17 60.8259 84.0899 59.2321C85.0101 57.6385 86.2514 56.373 87.5851 55.6688C88.2737 55.3053 88.9314 55.1222 89.5198 55.1222C89.9483 55.1222 90.3397 55.2196 90.6791 55.4154C91.4842 55.8801 91.9556 56.8768 92.0068 58.2219C92.064 59.729 91.5888 61.4367 90.6686 63.0303ZM94.0675 54.424L92.9923 55.0445C92.6343 54.514 92.1788 54.0807 91.6321 53.7651C90.2391 52.9607 88.486 53.0386 86.6956 53.9835C85.0484 54.853 83.537 56.3787 82.4399 58.2793C81.7543 59.4668 81.2763 60.7211 81.0314 61.9491L80.1974 62.4305C79.8318 61.8483 79.3492 61.3676 78.7511 61.0222C75.981 59.4232 71.9432 61.406 69.5585 65.5364C68.8365 66.7872 68.3463 68.1119 68.1145 69.402L52.0692 78.5785C51.7142 78.0619 51.2655 77.6395 50.729 77.3299C50.0637 76.9456 49.3155 76.7651 48.5206 76.7818V72.7702L94.0675 46.5573V54.424ZM48.5206 70.5716V66.7724L94.3405 40.3666L98.0944 38.2076V42.041L48.5206 70.5716Z" fill="black"/>
</svg>
