<svg width="62" height="62" viewBox="0 0 62 62" fill="none" xmlns="http://www.w3.org/2000/svg">
<g clip-path="url(#clip0)">
<path d="M47.502 16.5C44.4989 16.5 39.6232 17.6274 33.449 22.9979C33.0706 23.327 33.0306 23.9008 33.3598 24.2792C33.6891 24.6576 34.2627 24.6974 34.6411 24.3683C40.3915 19.3663 44.8089 18.3163 47.502 18.3163C54.4948 18.3164 60.1837 24.0054 60.1837 30.9981C60.1837 37.9907 54.4948 43.6797 47.502 43.6797C43.9298 43.6797 39.819 41.8703 35.6138 38.4471C32.2402 35.7009 29.8723 32.7992 29.4307 32.2438C29.4099 32.2176 28.8428 31.5154 27.8929 30.4959L27.7941 30.3804C25.5252 27.9591 19.6926 22.3244 14.498 22.3244C9.71532 22.3244 5.82422 26.2155 5.82422 30.9982C5.82422 35.7809 9.71532 39.672 14.498 39.672C19.2345 39.672 24.5056 34.9904 27.1186 32.3291C27.4769 32.7298 27.7786 33.086 28.0103 33.376C28.4712 33.9555 30.9483 36.9915 34.467 39.8558C39.0647 43.5985 43.4503 45.4962 47.502 45.4962C55.4964 45.4961 62.0001 38.9923 62.0001 30.9981C62.0001 23.0038 55.4964 16.5 47.502 16.5ZM14.4982 37.8555C10.717 37.8555 7.64075 34.7792 7.64075 30.9981C7.64075 27.2169 10.717 24.1406 14.4982 24.1406C18.6563 24.1406 23.7196 28.7977 25.8786 30.9981C23.7195 33.1983 18.6562 37.8555 14.4982 37.8555Z" fill="black"/>
<path d="M27.489 37.5141C21.6805 42.6101 17.2184 43.6799 14.4979 43.6799C7.50527 43.6799 1.81641 37.9909 1.81641 30.9982C1.81641 24.0055 7.50527 18.3165 14.4981 18.3165C18.0703 18.3165 22.1811 20.1259 26.3863 23.5491C29.7599 26.2954 32.1277 29.197 32.5694 29.7525C32.5902 29.7787 34.1651 31.5817 34.2001 31.6192C36.4691 34.0404 42.3074 39.6719 47.5019 39.6719C52.2846 39.6719 56.1758 35.7808 56.1758 30.9981C56.1758 26.2154 52.2846 22.3242 47.5019 22.3242C42.7653 22.3242 37.4941 27.0062 34.8812 29.6674C34.5227 29.2664 34.2216 28.9105 33.9897 28.6203C33.5288 28.0407 31.0517 25.0048 27.533 22.1404C22.9353 18.3978 18.5496 16.5 14.4979 16.5C6.5037 16.5001 0 23.0039 0 30.9982C0 38.9924 6.5037 45.4963 14.4981 45.4963C17.5305 45.4963 22.4537 44.3484 28.687 38.8796C29.0641 38.5489 29.1015 37.975 28.7707 37.5979C28.4398 37.2208 27.8661 37.1833 27.489 37.5141ZM47.5019 24.1408C51.2831 24.1408 54.3593 27.217 54.3593 30.9982C54.3593 34.7794 51.2831 37.8556 47.5019 37.8556C43.3438 37.8556 38.2805 33.1986 36.1215 30.9982C38.2806 28.7979 43.3439 24.1408 47.5019 24.1408Z" fill="black"/>
</g>
<defs>
<clipPath id="clip0">
<rect width="62" height="62" fill="white"/>
</clipPath>
</defs>
</svg>
