<svg width="101" height="101" viewBox="0 0 101 101" fill="none" xmlns="http://www.w3.org/2000/svg">
<path d="M27.7813 52.9686C25.9108 52.9607 23.8899 53.4936 21.8158 54.6545C13.3063 59.4175 6.22872 71.1546 6.22872 81.5181C6.22872 91.8816 14.2021 96.5324 22.7116 91.7694C31.2212 87.0064 37.9404 76.4264 37.9404 66.0629C37.9404 59.9659 35.369 55.1785 31.4662 53.4599" stroke="black" stroke-width="1.4" stroke-linecap="round"/>
<path d="M29.6981 57.7991C32.7012 59.23 34.7146 62.7817 34.7146 67.5379C34.7146 75.7935 29.362 84.2217 22.5832 88.016C15.8044 91.8102 9.45273 88.1053 9.45273 79.8496C9.45273 71.594 15.0908 62.2441 21.8696 58.4499C23.5331 57.5188 25.1537 57.0948 26.6523 57.1071" stroke="black" stroke-width="1.4" stroke-linecap="round"/>
<path d="M27.8694 52.5135C22.8986 51.7544 20.5469 50.3935 15.7263 52.5135C7.21745 57.2778 0.444072 69.3951 1.03626 79.2885C1.22336 82.4144 1.91292 85.369 2.36721 86.3663C2.5374 86.9977 3.30689 89.1785 4.38166 89.5918C7.77377 91.1679 12.8115 93.0587 12.8115 93.0587" stroke="black" stroke-width="1.4" stroke-linecap="round"/>
<path d="M22.8919 8.73888C30.7744 12.5605 26.2957 19.5089 28.8038 21.4196M22.8919 8.73888L16.6218 5.091C14.2929 3.87502 12.8598 5.95952 14.1137 7.52296L21.1005 11.3445M22.8919 8.73888C21.2379 9.20713 20.6054 9.92984 21.1005 11.3445M21.1005 11.3445C27.7289 13.429 23.6085 18.6403 25.7583 21.5934" stroke="black" stroke-width="1.4" stroke-linecap="round"/>
<path d="M86.1107 40.2843C84.9957 40.9086 83.8862 40.2887 83.8862 38.8793C83.8862 37.4846 84.8289 35.9311 85.9566 35.2996C86.4751 35.0094 87.0129 35.0188 87.4365 35.3259C87.859 35.6323 88.1195 36.2035 88.1195 36.9037C88.1195 38.2694 87.2644 39.6384 86.1107 40.2843Z" stroke="black" stroke-width="1.4" stroke-linecap="round"/>
<path d="M44.0001 50.3709C42.8851 50.9952 41.7756 50.3752 41.7756 48.9658C41.7756 47.5711 42.7183 46.0176 43.846 45.3862C44.3645 45.0959 44.9023 45.1053 45.3259 45.4125C45.7484 45.7188 46.0089 46.2901 46.0089 46.9903C46.0089 48.3559 45.1538 49.7249 44.0001 50.3709Z" stroke="black" stroke-width="1.4" stroke-linecap="round"/>
<path d="M85.5921 55.1623C77.448 59.7207 70.7949 55.4838 70.7949 45.5897C70.7949 35.6957 77.448 24.0111 85.5921 19.4527C93.7361 14.8943 100.389 19.1312 100.389 29.0252C100.389 38.9193 93.7361 50.6039 85.5921 55.1623Z" stroke="black" stroke-width="1.4" stroke-linecap="round"/>
<path d="M85.5913 52.1263C78.9453 55.8462 73.4926 52.3062 73.4926 44.0797C73.4926 35.8532 78.9453 26.2092 85.5913 22.4893C92.2373 18.7694 97.69 22.3094 97.69 30.5359C97.69 38.7625 92.2373 48.4064 85.5913 52.1263Z" stroke="black" stroke-width="1.4" stroke-linecap="round"/>
<path d="M64.4541 44.0018C64.8178 50.7543 68.2447 53.2726 76.5223 56.4397" stroke="black" stroke-width="1.4" stroke-linecap="round"/>
<path d="M29.1621 48.7961L27.1915 47.6496C26.2449 46.9744 26.0011 46.381 25.9375 45.044V41.2746L30.9536 43.3069M32.0285 50.4637L37.0446 53.382C37.0446 53.382 38.4778 54.0768 39.7318 54.0768C40.8844 54.0768 42.2399 53.382 42.2399 53.382L47.7934 50.4289C47.7934 50.4289 48.5376 50.0904 49.0474 50.2552C49.5849 50.4289 51.0845 50.5559 51.9138 50.4289C52.7879 50.2951 55.855 48.8656 55.855 48.8656L65.7081 43.1332C66.8055 42.3044 67.4037 40.897 67.8578 39.8327L72.6948 26.9783L41.5233 45.044C41.5233 45.044 38.8361 46.4336 37.9403 46.4336C37.0464 46.4336 34.7157 45.3914 34.7157 45.3914L33.82 44.8703" stroke="black" stroke-width="1.4" stroke-linecap="round" stroke-linejoin="round"/>
<path d="M36.8654 35.49L24.5043 74.0533C23.4294 76.659 20.9214 75.0956 21.638 73.1848L32.5659 38.2693" stroke="black" stroke-width="1.4" stroke-linecap="round"/>
<path d="M23.6087 37.2271L19.4883 51.1237M22.5338 50.7763L26.2959 38.9641" stroke="black" stroke-width="1.4" stroke-linecap="round"/>
<path d="M33.6573 30.2788C33.6573 32.6356 32.9366 34.7425 31.8044 36.2447C30.6726 37.7466 29.1614 38.6117 27.5498 38.6117C25.9382 38.6117 24.427 37.7466 23.2951 36.2447C22.163 34.7425 21.4422 32.6356 21.4422 30.2788C21.4422 27.9221 22.163 25.8151 23.2951 24.3129C24.427 22.8111 25.9382 21.946 27.5498 21.946C29.1614 21.946 30.6726 22.8111 31.8044 24.3129C32.9366 25.8151 33.6573 27.9221 33.6573 30.2788Z" stroke="black" stroke-width="1.4" stroke-linecap="round"/>
<path d="M27.4592 38.4793C33.0128 38.4793 39.0153 35.8375 39.0153 30.2788C39.0153 25.482 34.8054 21.4467 27.6395 21.9678" stroke="black" stroke-width="1.4" stroke-linecap="round"/>
<path d="M38.4778 27.1519C45.4645 32.0157 38.1755 20.2869 46.1811 22.2881L49.5294 23.5421M58.1839 28.3678C59.7962 29.4102 57.8256 32.3632 56.3925 31.4946M58.1839 28.3678L49.5294 23.5421M58.1839 28.3678C56.7508 28.1942 55.6759 30.6261 56.3925 31.4946M56.3925 31.4946L48.1517 26.457M39.1072 30.7881C48.0645 33.22 41.8816 23.504 46.1811 25.2411L48.1517 26.457M49.5294 23.5421C48.0962 24.1287 47.6143 25.5885 48.1517 26.457" stroke="black" stroke-width="1.4" stroke-linecap="round"/>
<path d="M64.8769 34.3145L53.4115 40.7418C52.3367 41.4366 51.4409 41.9577 51.4409 43V46.6479C51.4409 47.5164 52.3367 48.0375 53.4115 47.3427L62.7272 41.9577C63.6229 41.4366 64.8769 39.6995 65.2352 39.0047L66.6684 35.7042C67.2058 34.1408 66.4892 33.446 64.8769 34.3145Z" stroke="black" stroke-width="1.4" stroke-linecap="round"/>
<path d="M31.6704 21.5933C40.8069 13.2553 59.7965 15.3398 60.3339 34.1003" stroke="black" stroke-width="1.4" stroke-linecap="round"/>
<path d="M72.1575 27.3257C75.5613 23.8515 71.0826 21.4196 88.2807 14.6362M52.9888 19.1614C60.5129 15.3398 57.2883 9.92949 64.0959 7.5229C73.6052 4.16121 78.2422 2.26552 80.2191 1.31964C81.2194 0.879341 81.7289 0.89449 82.548 1.36156L89.7139 6.60827C90.131 7.00245 90.2436 7.32083 90.2513 8.04404V13.429C90.2659 13.7839 90.1509 13.9458 89.6611 14.1504C89.185 14.3146 88.7251 14.4764 88.2807 14.6362M96.0783 18.8119L88.2807 14.6362" stroke="black" stroke-width="1.4" stroke-linecap="round"/>
<path d="M59.6169 28.1942C71.7989 23.8515 65.3496 17.4243 75.561 13.7764L90.0016 7.4679" stroke="black" stroke-width="1.4" stroke-linecap="round"/>
</svg>
