<svg width="100" height="100" viewBox="0 0 100 100" fill="none" xmlns="http://www.w3.org/2000/svg">
<g clip-path="url(#clip0)">
<path d="M99.9872 55.5389C99.8389 51.6287 98.4419 48.5626 96.0287 46.7959C95.792 46.6226 88.6717 42.5625 87.2845 41.7631C85.4122 40.6828 83.196 40.3956 80.8264 40.8807V17.0441L82.7427 15.9379C83.0051 15.7864 83.1669 15.5065 83.1669 15.2031C83.1669 14.9 83.0053 14.62 82.7427 14.4684L59.3106 0.936718C59.0484 0.785056 58.7245 0.785056 58.4615 0.93693L30.7258 16.9785C30.463 17.1308 30.3011 17.4119 30.3022 17.7158C30.3031 18.0198 30.4662 18.3 30.7303 18.4504L32.5112 19.4658V27.2816L29.9702 25.0393V13.8187C29.9702 9.98108 31.9088 6.46909 35.1556 4.42367C35.552 4.1738 35.671 3.65009 35.4214 3.25344C35.1715 2.85699 34.648 2.73778 34.2511 2.98766C30.508 5.34552 28.2731 9.39458 28.2731 13.8187V47.0235L22.2686 53.9599C20.8983 53.1814 19.4706 52.3686 18.9483 52.0687C16.6102 50.7194 13.626 50.8717 10.5461 52.4976C7.59342 54.056 4.87474 56.8062 2.89062 60.2423C0.906501 63.6771 -0.116316 67.4065 0.0105281 70.7441C0.142676 74.2255 1.50233 76.8865 3.83983 78.2373C4.95832 78.8825 10.0317 81.7558 10.2139 81.8589C10.2145 81.8593 10.2149 81.8598 10.2156 81.86C10.2166 81.8606 10.2177 81.861 10.219 81.8617C10.2194 81.8619 10.2217 81.8634 10.2222 81.8634C11.266 82.4649 12.4511 82.7629 13.717 82.7629C15.3468 82.7629 17.1099 82.2677 18.8733 81.2911L24.2022 84.3288C24.3324 84.403 24.4775 84.4399 24.6222 84.4399C24.7775 84.4399 24.9327 84.3973 25.0695 84.3122L29.4773 81.5772C28.9192 83.4767 28.6564 85.3688 28.7239 87.1493C28.8558 90.6305 30.215 93.2913 32.5521 94.6416C33.6856 95.2949 39.3264 98.4815 39.5288 98.5725C40.4254 98.9759 41.403 99.1768 42.435 99.1768C43.9766 99.1768 45.6387 98.7282 47.3299 97.8352C50.2834 96.2761 53.0021 93.5259 54.9854 90.0904C56.9688 86.6555 57.9915 82.9256 57.8648 79.5882C57.7872 77.5403 57.2817 75.7797 56.4055 74.3997L64.7189 69.5906C65.5079 71.6432 66.7995 73.2401 68.5329 74.2414C69.9551 75.0613 77.1815 79.1337 77.5134 79.2703C78.5443 79.6943 79.6592 79.9058 80.8322 79.9058C82.7327 79.9058 84.7851 79.3509 86.8762 78.247C90.5485 76.3085 93.9309 72.8852 96.4005 68.6073C98.8708 64.3295 100.144 59.6885 99.9872 55.5389ZM79.1295 41.3495C78.4096 41.6014 77.6804 41.9194 76.946 42.3069C74.6781 43.5039 72.5213 45.2689 70.6212 47.4507V22.9353L79.1295 18.0236V41.3495ZM64.6818 58.3973L56.7495 62.986V30.9431L68.9241 23.9149V49.606C68.3931 50.3529 67.8906 51.1343 67.4214 51.9471C66.2111 54.0435 65.2899 56.227 64.6818 58.3973ZM58.8868 2.65145L80.6215 15.2029L54.7039 30.1644L32.8544 17.7078L58.8868 2.65145ZM54.2883 31.8809C54.4203 31.956 54.5645 31.992 54.7073 31.992C54.8263 31.992 54.944 31.9661 55.0526 31.9178V53.7819L34.2081 41.7444V20.433L54.2883 31.8809ZM12.6504 68.8058L14.4263 69.8182V76.8032L12.6504 75.7909V68.8058ZM16.1232 70.7857L17.3112 71.463V78.4477L16.1232 77.7706V70.7857ZM19.0082 72.4302L20.196 73.1073V80.0918L19.0082 79.4147V72.4302ZM21.8929 74.0747L23.7727 75.1463V82.1306L21.8929 81.059V74.0747ZM24.6029 73.6664L13.1205 67.1205L33.6634 43.3896L54.2495 55.278L24.6029 73.6664ZM29.9702 27.3024L32.5112 29.5446V42.1279L29.9702 45.0634V27.3024ZM4.36015 61.091C8.05752 54.6879 14.222 51.301 18.102 53.5393C18.5061 53.7711 19.447 54.3073 20.4849 54.8976C16.4511 55.5374 12.0975 58.9662 9.267 63.8673C7.28373 67.3025 6.26112 71.0321 6.38754 74.3696C6.441 75.7818 6.69978 77.056 7.14055 78.1651C6.07786 77.5617 5.1051 77.0078 4.68829 76.7675C0.80914 74.5259 0.662144 67.4937 4.36015 61.091ZM11.0642 80.3902C9.25088 79.3441 8.19222 77.1833 8.08319 74.3053C7.96886 71.2833 8.91107 67.8776 10.7365 64.7158C13.1031 60.6177 16.5595 57.6492 19.8433 56.7617L11.1616 66.7907C11.1213 66.8374 11.0865 66.9059 11.0575 66.9791C10.9836 67.1649 10.9537 67.3653 10.9537 67.5653V76.2839C10.9537 76.5887 11.1173 76.8702 11.3822 77.021L17.0983 80.2793C14.8403 81.2779 12.6946 81.3324 11.0642 80.3902ZM25.4696 82.0672V75.1257L55.0526 56.7766V72.8245C54.7372 72.553 54.4003 72.3076 54.0368 72.0978C54.0349 72.0967 48.7651 69.1093 47.6608 68.473C45.3235 67.1246 42.3397 67.2769 39.2592 68.9027C36.3059 70.4616 33.5872 73.2121 31.6037 76.6479C31.1589 77.4183 30.7653 78.2037 30.4193 78.996L25.4696 82.0672ZM33.4006 93.1718C29.5227 90.9313 29.3759 83.8992 33.0733 77.4963C36.7702 71.093 42.9334 67.7047 46.8132 69.9432C47.2143 70.1744 48.1531 70.7089 49.19 71.2981C48.0422 71.4801 46.8467 71.8882 45.6353 72.5278C42.6819 74.0868 39.9632 76.8371 37.9799 80.2725C35.9964 83.7077 34.974 87.4375 35.1005 90.7747C35.1541 92.187 35.4129 93.4609 35.8537 94.5703C34.7906 93.9662 33.8174 93.4122 33.4006 93.1718ZM53.516 89.2422C51.6906 92.4042 49.2124 94.923 46.5381 96.3349C43.9915 97.6788 41.5903 97.8428 39.7774 96.7962C35.8995 94.5572 35.7523 87.5253 39.4497 81.1212C41.2751 77.9594 43.7535 75.4405 46.4276 74.0287C48.9742 72.6843 51.375 72.5203 53.1883 73.5673C55.0015 74.6143 56.0601 76.7754 56.1694 79.6529C56.2837 82.6747 55.3415 86.0804 53.516 89.2422ZM56.7495 72.2403V64.9464L64.1636 60.6576C63.8971 62.1441 63.782 63.6079 63.8354 65.0149C63.8744 66.0468 64.0028 67.0181 64.2115 67.924L56.7495 72.2403ZM69.3812 72.7717C64.4094 69.899 64.1892 60.9378 68.891 52.7956C73.5919 44.6527 81.4624 40.3623 86.4369 43.2332C87.0123 43.5648 88.4685 44.3933 89.9837 45.2543C88.3743 45.4142 86.6764 45.947 84.951 46.8579C81.2789 48.7964 77.8963 52.2197 75.4266 56.4976C72.957 60.7756 71.6835 65.4166 71.8406 69.566C71.9166 71.5699 72.3245 73.348 73.0251 74.8472C71.4807 73.9706 69.9778 73.1157 69.3812 72.7717ZM94.9314 67.759C92.6194 71.7635 89.4773 74.9554 86.0844 76.7465C82.8186 78.4704 79.7302 78.6744 77.387 77.3218C75.0438 75.9689 73.6763 73.1917 73.5363 69.5019C73.391 65.668 74.5841 61.3508 76.8962 57.3463C81.5981 49.2026 89.4691 44.9134 94.4408 47.7835C96.784 49.1364 98.1516 51.9136 98.2913 55.6033C98.4366 59.4373 97.2435 63.7545 94.9314 67.759Z" fill="black"/>
<path d="M51.0336 77.2992C48.7095 75.9575 44.9996 78.3334 42.4048 82.8269C39.8107 87.3205 39.6074 91.7213 41.932 93.0635C42.3641 93.3132 42.8481 93.4367 43.3704 93.4367C44.2918 93.4367 45.332 93.0521 46.4146 92.2959C47.9251 91.2406 49.3976 89.5503 50.5606 87.5358C53.155 83.042 53.3582 78.6412 51.0336 77.2992ZM50.9191 81.4193C50.7817 83.0127 50.1324 84.8833 49.0911 86.6872C48.0496 88.491 46.754 89.9887 45.4429 90.9046C44.3501 91.668 43.3545 91.9255 42.7805 91.594C42.2061 91.2625 41.9316 90.2715 42.0461 88.9432C42.1836 87.35 42.8329 85.4792 43.8741 83.6753C44.9156 81.8715 46.2114 80.374 47.5223 79.4581C48.6149 78.6951 49.6108 78.4374 50.185 78.7687C50.7596 79.1002 51.0339 80.091 50.9191 81.4193Z" fill="black"/>
<path d="M91.9205 52.1487C88.8143 50.3546 83.7424 53.5202 80.3743 59.3544C78.8188 62.0483 77.877 64.8967 77.722 67.3751C77.554 70.0639 78.3299 72.0459 79.907 72.9563C80.4945 73.2956 81.1519 73.4573 81.8553 73.4573C84.8705 73.4568 88.722 70.4811 91.4532 65.7507C94.8216 59.9167 95.0267 53.9421 91.9205 52.1487ZM81.8438 60.2027C83.0879 58.0476 84.5094 56.3772 85.892 55.2231C86.4138 54.9825 87.1282 54.7687 87.6439 55.065C88.8752 55.7769 88.6686 59.3152 86.5487 62.985C85.5079 64.7886 84.2125 66.2861 82.9014 67.2018C81.8088 67.9648 80.8138 68.2216 80.2404 67.8907C79.7748 67.6209 79.5928 67.0043 79.5224 66.4976C79.817 64.5152 80.6229 62.3179 81.8438 60.2027ZM89.9837 64.9023C86.8981 70.2461 82.7211 72.6207 80.7554 71.4867C80.1359 71.1291 79.7137 70.4085 79.5192 69.4229C79.9186 69.6267 80.3573 69.7332 80.8297 69.7332C81.7507 69.7332 82.7903 69.3488 83.8727 68.5931C85.3836 67.538 86.8556 65.8477 88.0182 63.8336C90.598 59.3676 90.8137 54.9929 88.5305 53.6203C89.037 53.4358 89.5132 53.3408 89.9432 53.3408C90.3691 53.3408 90.7503 53.4324 91.0718 53.6182C93.0375 54.7528 93.0691 59.5578 89.9837 64.9023Z" fill="black"/>
</g>
<defs>
<clipPath id="clip0">
<rect width="100" height="100" fill="white"/>
</clipPath>
</defs>
</svg>
