<svg width="100" height="100" viewBox="0 0 100 100" fill="none" xmlns="http://www.w3.org/2000/svg">
<g clip-path="url(#clip0)">
<path d="M97.0378 27.6336C96.8362 27.5173 73.1006 13.8596 67.5635 10.6736C67.059 10.3832 66.4495 10.0977 66.1199 9.94852C65.971 9.88124 65.8202 9.81875 65.6645 9.76994C64.0957 9.28093 62.394 9.47047 60.9539 10.3023L11.6425 38.7729C8.8777 40.369 6.84619 42.9308 5.92156 45.9868L0.196967 64.9097C-0.165909 66.1101 -0.0242712 67.3534 0.596107 68.4105C0.85247 68.8478 1.21306 69.2538 1.66809 69.6171L1.79262 69.7165C1.9785 69.8652 2.17762 70.0012 2.38449 70.1205L12.0268 75.687L6.32526 85.6076L0.847224 88.7704C0.418433 89.0178 0.225705 89.5618 0.453329 90.0016C0.617091 90.3179 0.936175 90.4956 1.26484 90.4956C1.41971 90.4956 1.5764 90.4561 1.72009 90.3731L7.31878 87.1405L25.583 83.5129L32.3577 87.3426C33.0483 87.7543 33.8101 87.9659 34.5794 87.9657C35.3362 87.9657 36.0993 87.7643 36.8055 87.3565L67.8344 69.4424C68.0459 70.8266 68.7043 71.9604 69.7952 72.5901C70.3632 72.9181 70.9974 73.0812 71.671 73.0812C72.4651 73.0812 73.3138 72.854 74.1712 72.4015C75.6181 71.6377 76.9449 70.2991 77.9074 68.632C78.8699 66.965 79.3659 65.1465 79.3039 63.5118C79.2952 63.286 79.2763 63.0669 79.2471 62.8545L94.2929 54.1667C97.8131 52.1363 99.9997 48.3488 99.9997 44.2828V32.7648C100 30.6226 98.8926 28.7045 97.0378 27.6336ZM98.1755 32.7648V42.073L65.1517 61.1407V47.9666C65.1517 47.6406 64.9777 47.3396 64.6956 47.1765C64.4132 47.0134 64.0656 47.0134 63.7833 47.1765L53.4672 53.1314C53.1851 53.2943 53.011 53.5956 53.011 53.9215V68.1494L33.0389 79.6818L37.8273 63.8476C38.6192 61.2354 40.3551 59.0472 42.7155 57.6855L92.0265 29.2142C93.1231 28.5813 94.4003 28.4908 95.5494 28.9387C95.5494 28.9387 95.9889 29.1346 96.1257 29.2136C97.4091 29.9548 98.1755 31.2823 98.1755 32.7648ZM63.3271 69.9382L54.8357 74.8408V54.4484L63.3271 49.5467V69.9382ZM6.85714 70.5367C6.57729 70.3132 6.36289 70.076 6.21989 69.8326C5.96535 69.3984 5.71948 68.6904 5.99386 67.7836L11.3923 49.9383L31.5623 61.5827L26.0496 79.8061C25.8715 80.3953 25.8165 80.9942 25.8784 81.5767L7.52793 70.9828L6.85714 70.5367ZM69.3512 13.9176C69.379 13.9276 70.984 14.7569 70.984 14.7569L88.1069 24.6421C87.658 24.7742 87.221 24.9585 86.8064 25.198L38.8757 52.8714L18.9292 41.3561L65.916 14.2275C66.9839 13.6108 68.2039 13.5009 69.3512 13.9176ZM17.1048 42.4096L37.0632 53.9318C34.8385 55.3374 33.1302 57.3876 32.151 59.8156L11.96 48.1591C12.8317 45.8598 14.4584 43.9378 16.6048 42.6981L17.1048 42.4096ZM28.8628 83.2173C28.6901 83.1069 28.5243 82.9831 28.3797 82.8378C28.2328 82.6902 28.1133 82.5381 28.0225 82.3832C27.7678 81.9492 27.5217 81.2414 27.7963 80.3344L33.5209 61.4112C34.3103 58.8013 36.0457 56.6129 38.4075 55.2489L87.7187 26.7783C88.7873 26.1621 90.0066 26.0517 91.1538 26.4686C91.1816 26.4787 92.3551 27.0949 92.3551 27.0949C91.9297 27.2263 91.5135 27.404 91.1144 27.6346L41.8034 56.1054C39.0402 57.699 37.008 60.2608 36.0806 63.3189L30.3581 82.2423C30.1724 82.8549 30.1216 83.4721 30.1902 84.066L28.8628 83.2173ZM2.80689 68.1911C2.52726 67.9678 2.3131 67.7311 2.17009 67.4873C1.91532 67.0532 1.66945 66.3453 1.94383 65.4382L7.66842 46.5153C8.45804 43.9051 10.1933 41.7165 12.555 40.353L61.866 11.8824C62.9337 11.2659 64.1534 11.1553 65.3011 11.5727C65.329 11.5827 66.346 12.0797 66.346 12.0797C65.8825 12.2125 65.4314 12.4006 65.0039 12.6476L15.6925 41.118C12.9277 42.7143 10.896 45.2764 9.97158 48.332L4.24699 67.2551C4.07274 67.8315 4.01777 68.4174 4.07365 68.9883L2.80689 68.1911ZM13.6072 76.5991L17.7676 79.0008L9.47505 83.7889L13.6072 76.5991ZM12.2305 84.3046L19.592 80.0541L23.1854 82.1284L12.2305 84.3046ZM35.8934 85.7766C34.7635 86.4284 33.6461 86.0927 32.9764 85.5615C32.307 85.0303 31.7266 84.0183 32.1047 82.7712L32.2669 82.2347L53.0108 70.2564V75.8941L35.8934 85.7766ZM76.3275 67.7197C75.5344 69.093 74.4665 70.1827 73.3195 70.7881C72.7347 71.0966 71.6185 71.5357 70.7078 71.0102C69.1956 70.1371 69.2139 67.1552 70.7477 64.4983C71.5407 63.125 72.6086 62.0355 73.7556 61.4301C74.34 61.1216 75.4571 60.6832 76.3671 61.208C77.2776 61.7337 77.4555 62.9202 77.4806 63.5807C77.5297 64.8767 77.12 66.3466 76.3275 67.7197ZM93.381 52.5866L78.6792 61.0757C78.3393 60.461 77.869 59.9684 77.2795 59.6281C76.0424 58.9137 74.4878 58.9803 72.9037 59.8167C71.4568 60.5806 70.1301 61.9192 69.1676 63.586C68.4457 64.8363 68.0048 66.1245 67.8369 67.3345L65.1517 68.8847V63.2475L98.1755 44.1797V44.2828C98.1755 47.6988 96.3385 50.8805 93.381 52.5866Z" fill="black"/>
<path d="M90.1377 32.8577C89.8553 32.6946 89.5078 32.6946 89.2254 32.8577L68.3314 44.8675C68.0493 45.0303 67.8752 45.3316 67.8752 45.6575V53.5407C67.8752 53.8666 68.0493 54.1679 68.3314 54.3307C68.4726 54.4122 68.6302 54.453 68.7876 54.453C68.9449 54.453 69.1025 54.4122 69.2437 54.3307L90.1377 42.3209C90.4198 42.1581 90.5939 41.8568 90.5939 41.5309V33.6477C90.5939 33.3218 90.4201 33.0203 90.1377 32.8577ZM78.1911 47.0577L69.6999 51.9603V46.1842L78.1911 41.2816V47.0577ZM88.7692 41.0038L80.278 45.9064V40.1302L88.7692 35.2276V41.0038Z" fill="black"/>
<path d="M50.908 55.6653C50.6256 55.5022 50.278 55.5022 49.9956 55.6653L39.6798 61.6211C39.3977 61.784 39.2236 62.0853 39.2236 62.4112V70.2941C39.2236 70.62 39.3977 70.9213 39.6798 71.0842C39.821 71.1656 39.9786 71.2064 40.136 71.2064C40.2933 71.2064 40.4509 71.1656 40.5921 71.0842L50.908 65.1283C51.1901 64.9655 51.3641 64.6642 51.3641 64.3383V56.4553C51.3641 56.1294 51.1903 55.8279 50.908 55.6653ZM49.5395 63.8114L41.0483 68.714V62.9378L49.5395 58.0353V63.8114Z" fill="black"/>
<path d="M54.5547 25.3943C54.5558 25.7212 54.7312 26.0222 55.0152 26.1839L64.3286 31.4937C64.3439 31.5023 64.3596 31.5108 64.3754 31.5187C64.5063 31.584 64.6456 31.6152 64.7827 31.6152C64.9574 31.6152 65.1287 31.5648 65.2754 31.4711L76.158 25.1888C76.4401 25.026 76.6142 24.7249 76.6142 24.3988C76.6142 24.0728 76.4404 23.7718 76.158 23.6087L66.8913 18.2577C66.6092 18.0946 66.2609 18.0948 65.9783 18.2579L55.0099 24.6015C54.7274 24.7653 54.5536 25.0675 54.5547 25.3943ZM66.4356 20.1015L73.877 24.3988L64.7795 29.6505L57.2987 25.3857L66.4356 20.1015Z" fill="black"/>
</g>
<defs>
<clipPath id="clip0">
<rect width="100" height="100" fill="white"/>
</clipPath>
</defs>
</svg>
