<svg width="100" height="100" viewBox="0 0 100 100" fill="none" xmlns="http://www.w3.org/2000/svg">
<g clip-path="url(#clip0)">
<path d="M99.9985 36.8878C99.9989 36.5659 99.8277 36.2686 99.549 36.1076L59.3822 12.9148C59.1046 12.7544 58.7629 12.7541 58.4858 12.9133L3.58398 44.3732C3.30482 44.5333 3.1322 44.8302 3.13175 45.1518V45.1532H3.1304V61.4906C3.1304 61.8118 3.3019 62.1087 3.57993 62.2692L14.75 68.718L7.39266 81.5189L0.449602 85.5276C0.0196226 85.7758 -0.1276 86.3258 0.120543 86.7558C0.287095 87.0441 0.589182 87.2055 0.900035 87.2055C1.05265 87.2055 1.20707 87.1666 1.34867 87.0848L8.37242 83.0294L31.5614 78.4237L43.7483 85.4595C43.8874 85.5398 44.0427 85.58 44.1978 85.58C44.3522 85.58 44.5062 85.5402 44.6447 85.4611L58.2916 77.6426C58.8529 79.3333 59.8531 80.6266 61.2259 81.4216C61.2259 81.4216 68.1517 85.4436 68.2038 85.4737C69.1542 86.0221 70.2216 86.2954 71.3609 86.2954C72.7401 86.2954 74.2247 85.8951 75.7335 85.0986C78.3536 83.7156 80.7641 81.278 82.5208 78.2351C84.2776 75.1922 85.1834 71.8861 85.071 68.9254C84.9533 65.8126 83.7319 63.4306 81.6326 62.2177L76.7106 59.3638C78.4379 59.0424 80.0745 59.2369 81.4651 60.0393C82.319 60.5326 83.0427 61.2407 83.6159 62.1431C83.8735 62.549 84.4046 62.6796 84.8215 62.4411L99.5476 54.005C99.8272 53.8447 99.9998 53.5471 99.9998 53.2248V36.8874H99.9985V36.8878ZM44.1996 67.3053L20.0372 53.3561L58.9306 31.0686L83.0935 45.0208L44.1996 67.3053ZM84.8984 43.9866L59.8317 29.5125V15.2508L97.2963 36.8831L84.8984 43.9866ZM58.0336 15.2448V29.5103L18.2356 52.3161L5.8339 45.1563L58.0336 15.2448ZM4.92854 46.7097L43.2987 68.8614V83.1237L4.92854 60.9714V46.7097ZM16.3071 69.6168L22.1569 72.9942L10.4969 79.7264L16.3071 69.6168ZM13.2128 80.2348L23.9551 74.0324L29.1987 77.0598L13.2128 80.2348ZM83.2745 68.9938C83.374 71.6204 82.5536 74.5831 80.9641 77.3362C77.7576 82.8895 72.4367 85.8412 69.1031 83.9167C65.7692 81.9921 65.6653 75.9078 68.8714 70.3545C72.0775 64.8012 77.3984 61.8495 80.7324 63.7742C82.2779 64.6668 83.1807 66.5204 83.2745 68.9938ZM76.9151 61.5612C76.0003 61.7468 75.0561 62.0883 74.1013 62.5922C71.4814 63.9752 69.0708 66.4125 67.3142 69.4554C65.5574 72.4983 64.6516 75.8047 64.7638 78.7653C64.8042 79.8311 64.9769 80.8087 65.267 81.6855L62.1273 79.8655C60.8387 79.1198 60.2051 77.8438 59.8931 76.7251L62.2176 75.3933C62.4246 75.2749 62.5761 75.0789 62.6384 74.8487C63.1803 72.8519 64.0077 70.8836 65.0976 68.9985C67.5875 64.6879 71.0224 61.5313 74.3744 60.088L76.9151 61.5612ZM84.6377 60.4746C83.9967 59.6536 83.2349 58.9853 82.3644 58.4823C79.6364 56.9085 76.1478 57.0894 72.5416 58.9928C69.0712 60.8246 65.8746 64.0588 63.541 68.099C62.439 70.005 61.5865 71.994 61.0043 74.0164L45.0971 83.1301V68.8636L98.2022 38.4369V52.7042L84.6377 60.4746Z" fill="black"/>
<path d="M78.2046 68.1521C77.2925 67.6254 76.0992 67.8365 74.8443 68.7461C73.7936 69.5076 72.7637 70.7086 71.944 72.1286C69.7857 75.8663 70.1526 78.6858 71.6304 79.539C71.9428 79.7195 72.3061 79.8128 72.7055 79.8128C74.1966 79.8128 76.1894 78.5105 77.8913 75.5626C78.711 74.1428 79.2363 72.6501 79.3705 71.3595C79.5307 69.8178 79.1167 68.6785 78.2046 68.1521ZM77.582 71.1736C77.4748 72.203 77.0201 73.475 76.3341 74.6633C74.8524 77.2293 73.0285 78.2693 72.5292 77.9818C72.0298 77.6934 72.0192 75.5934 73.5007 73.0277C74.1869 71.8394 75.061 70.8095 75.8992 70.2022C76.4258 69.8205 76.8556 69.6688 77.1156 69.6688C77.1954 69.6688 77.2597 69.6829 77.3053 69.7095C77.5002 69.8216 77.6699 70.3278 77.582 71.1736Z" fill="black"/>
</g>
<defs>
<clipPath id="clip0">
<rect width="100" height="100" fill="white"/>
</clipPath>
</defs>
</svg>
