<svg width="100" height="100" viewBox="0 0 100 100" fill="none" xmlns="http://www.w3.org/2000/svg">
<path d="M99.5786 35.713L96.6354 34.0129C97.9697 32.6555 98.739 30.6455 98.8321 28.1839C98.947 25.1479 98.017 21.7557 96.2135 18.6326C94.4112 15.5089 91.9386 13.0073 89.2513 11.5886C86.454 10.1121 83.7411 9.96711 81.6074 11.1792C81.5941 11.186 71.7314 16.8829 71.7314 16.8829L70.5659 16.2099C70.3066 16.06 69.987 16.0593 69.7269 16.2075L63.0885 19.9906C62.826 20.1401 62.6635 20.4188 62.6627 20.7208C62.6618 21.0229 62.8227 21.3025 63.0843 21.4536L63.4509 21.6652L55.0725 26.5038L54.0296 25.9018C53.7705 25.7521 53.451 25.751 53.1906 25.8994L46.552 29.6825C46.2895 29.832 46.127 30.1107 46.1262 30.4128C46.1253 30.7148 46.2862 30.9944 46.5478 31.1455L46.7927 31.287L38.4575 36.1015L37.5869 35.5987C37.3278 35.4491 37.0083 35.448 36.7479 35.5964L30.1093 39.3795C29.8468 39.529 29.6843 39.8076 29.6835 40.1097C29.6826 40.4118 29.8435 40.6913 30.1051 40.8425L30.1761 40.8834C30.1761 40.8834 22.6721 45.2141 22.6327 45.2369C20.4309 46.5085 19.1747 49.1231 19.1247 52.3945L14.397 49.6646C14.138 49.5149 13.8184 49.5139 13.558 49.6623L2.40169 56.0199C2.17908 56.1468 2.02962 56.3667 1.98851 56.6146L0.0417391 68.3393C0.0153887 68.4209 0 68.5065 0 68.5948V78.4912C0 78.7924 0.160843 79.0709 0.421607 79.2214L18.2645 89.5219C18.3949 89.5971 18.5406 89.6349 18.6861 89.6349C18.8315 89.6349 18.9772 89.5971 19.1077 89.5219C19.1098 89.5206 26.9213 85.083 26.9213 85.083C27.0678 86.1931 27.586 87.0515 28.41 87.5271C28.8422 87.7766 29.3236 87.901 29.8329 87.901C30.4255 87.901 31.056 87.7328 31.6907 87.3976C32.7446 86.8413 33.7094 85.8693 34.4072 84.6608C35.1051 83.4522 35.4646 82.1307 35.4194 80.9399C35.4102 80.6932 35.3783 80.4609 35.336 80.236L46.4027 73.8467C46.5663 74.8691 47.0602 75.7102 47.875 76.1805C48.3073 76.4301 48.7886 76.5543 49.2981 76.5543C49.8907 76.5543 50.5212 76.3861 51.1559 76.0509C52.21 75.4946 53.1746 74.5226 53.8724 73.314C54.5703 72.1055 54.9297 70.784 54.8846 69.5929C54.8811 69.5002 54.8697 69.4127 54.8614 69.3229L55.8343 68.7613C56.0953 68.6108 56.2561 68.3323 56.2561 68.0311V62.2481L61.6896 65.3849C61.8197 65.4599 61.9653 65.4976 62.1112 65.4976C62.2402 65.4976 62.3699 65.4679 62.4887 65.4085C62.5022 65.4017 64.3858 64.3323 64.3858 64.3323C64.6337 65.0537 65.0736 65.6208 65.6854 65.9739C66.1219 66.226 66.6049 66.3459 67.1081 66.3459C68.7087 66.3459 70.5134 65.1328 71.6827 63.1076C72.1598 62.2812 72.4743 61.403 72.6139 60.549C72.8637 60.9525 73.1902 61.2837 73.5954 61.5177C74.0277 61.7673 74.509 61.8916 75.0185 61.8916C75.6111 61.8916 76.2416 61.7234 76.8763 61.3882C77.9301 60.8319 78.8947 59.8599 79.5925 58.6514C80.0491 57.8607 80.3575 57.0219 80.5059 56.2027C80.7275 56.4871 80.9925 56.7278 81.3059 56.9087C81.7383 57.1583 82.2196 57.2826 82.7291 57.2826C83.3216 57.2826 83.9521 57.1144 84.5869 56.7792C85.6409 56.2229 86.6055 55.2509 87.3033 54.0424C87.793 53.1943 88.1018 52.3214 88.2386 51.4908C88.4878 51.8911 88.8131 52.2198 89.2159 52.4525C89.6483 52.7021 90.1295 52.8265 90.639 52.8265C91.2316 52.8265 91.8621 52.6582 92.4969 52.3231C93.5507 51.7667 94.5153 50.7947 95.2131 49.5862C95.911 48.3777 96.2705 47.0561 96.2253 45.8653C96.2163 45.6286 96.1866 45.4049 96.1469 45.1882L97.07 44.6553C97.3308 44.5046 97.4916 44.2263 97.4916 43.9251V38.3763L99.5775 37.1739C99.8385 37.0233 99.9994 36.7451 99.9996 36.4438C100 36.142 99.8394 35.8637 99.5786 35.713ZM32.6642 73.8014V69.8769C32.8358 69.8885 33.0064 69.8959 33.175 69.8959C34.3452 69.8959 35.4397 69.6159 36.3908 69.067C36.395 69.0644 36.399 69.0617 36.4033 69.0592L36.4016 69.0676L95.1776 35.1177L97.4699 36.4419L32.6642 73.8014ZM70.1415 17.9123L79.0668 23.0658L74.126 25.8807L65.2005 20.728L70.1415 17.9123ZM53.6053 27.6038L62.5305 32.7573L57.5897 35.5722L48.6642 30.4195L53.6053 27.6038ZM37.1626 37.3008L46.0878 42.4543L41.1468 45.2691L32.2213 40.1165L37.1626 37.3008ZM40.7224 46.9716C40.8529 47.0469 40.9984 47.0846 41.144 47.0846C41.288 47.0846 41.432 47.0477 41.5614 46.9741L48.2001 43.1921C48.4625 43.0426 48.625 42.764 48.6259 42.4619C48.6267 42.1598 48.4659 41.8803 48.2043 41.7291L40.1438 37.0748L48.4792 32.26L57.1653 37.2746C57.2958 37.3499 57.4415 37.3876 57.5869 37.3876C57.7309 37.3876 57.8749 37.3507 58.0043 37.2772L64.6429 33.4951C64.9054 33.3457 65.0679 33.067 65.0688 32.7649C65.0696 32.4628 64.9088 32.1833 64.6472 32.0321L56.7587 27.4773L65.1373 22.6387L73.7016 27.5831C73.8321 27.6584 73.9778 27.6961 74.1232 27.6961C74.2672 27.6961 74.4112 27.6592 74.5406 27.5857L81.1792 23.8036C81.4417 23.6542 81.6042 23.3755 81.6051 23.0734C81.6059 22.7713 81.4451 22.4918 81.1834 22.3407L73.4176 17.8567C73.4176 17.8567 82.4015 12.6681 82.4135 12.6612C84.0329 11.7263 86.1814 11.8753 88.4642 13.0801C90.8741 14.352 93.1073 16.6235 94.7531 19.4756C98.0817 25.2398 97.9611 31.5631 94.4839 33.5712L39.3018 65.4452C39.6471 64.493 39.8491 63.4147 39.8948 62.2321C40.0122 59.2085 39.0921 55.8293 37.3038 52.7147C37.2956 52.6991 37.287 52.6837 37.2779 52.6684C35.4747 49.5449 33.0015 47.0435 30.3142 45.625C29.2684 45.0729 28.2346 44.7078 27.2384 44.5294L31.8626 41.8569L40.7224 46.9716ZM23.4757 46.6973C26.9525 44.6901 32.4891 47.7469 35.8132 53.5046L35.8143 53.5067C35.8193 53.5164 35.8248 53.5261 35.8303 53.5358C39.1433 59.2916 39.0164 65.6039 35.5476 67.6069C34.7111 68.0897 33.7427 68.2836 32.6642 68.1873V60.6974H32.6607C32.6607 60.3962 32.5002 60.1177 32.2393 59.9672L20.8341 53.3817C20.6337 50.258 21.6036 47.7785 23.4757 46.6973ZM13.9723 51.3668L30.1228 60.6924L20.664 66.0812L4.51352 56.7571L13.9723 51.3668ZM13.3681 84.7482L6.16116 80.5876V77.4357L13.3681 81.5963V84.7482ZM14.6329 80.3791L5.73955 75.245C5.47858 75.0945 5.1571 75.0945 4.89634 75.245C4.63536 75.3955 4.47473 75.674 4.47473 75.9752V76.01L1.68643 74.3331V70.055L17.8428 79.3827L17.8426 83.8365L15.0545 82.1594V81.1091C15.0545 80.8083 14.8939 80.5298 14.6329 80.3791ZM19.4116 69.5303L3.1142 60.1217L3.45107 58.0913L19.7369 67.4933L19.4116 69.5303ZM19.1269 71.3133L18.1232 77.5974L1.78003 68.162L2.81929 61.8988L19.1269 71.3133ZM21.4301 67.5854L23.7095 66.2867V75.027L19.8891 77.2327L21.4301 67.5854ZM1.68643 76.3011L4.47473 77.9781V79.6141L1.68643 78.0042V76.3011ZM15.0545 85.7219V84.1278L17.8426 85.8048V87.3314L15.0545 85.7219ZM27.8938 80.8998C27.4873 81.6039 27.1996 82.3459 27.0358 83.0785L19.5293 87.3422V79.3879L24.9743 76.2442C25.2353 76.0937 25.3959 75.8152 25.3959 75.514V65.3258L30.9778 62.1459V77.9884C30.8555 78.0407 30.7331 78.0978 30.6102 78.1625C29.5564 78.719 28.5915 79.6913 27.8938 80.8998ZM32.9469 83.8173C32.4136 84.7409 31.6688 85.5021 30.9038 85.9062C30.5273 86.1048 29.8127 86.3898 29.2532 86.0666C28.6935 85.7437 28.5829 84.9822 28.5669 84.557C28.534 83.6923 28.8211 82.6666 29.3542 81.743C29.8873 80.8195 30.6321 80.0583 31.3973 79.6542C31.6507 79.5205 32.0573 79.3475 32.4671 79.3475C32.6657 79.3475 32.8651 79.3881 33.0479 79.4935C33.6076 79.8167 33.7183 80.5781 33.7343 81.0033C33.7672 81.8682 33.4801 82.8938 32.9469 83.8173ZM33.8911 78.0335C33.515 77.8164 33.101 77.6956 32.6642 77.6676V75.748L41.6259 70.5818V74.6573L34.6475 78.6862C34.4344 78.4256 34.1846 78.2028 33.8911 78.0335ZM52.4121 72.4708C51.879 73.3944 51.1342 74.1558 50.369 74.5597C49.9929 74.7583 49.2783 75.0433 48.7184 74.7201C47.8689 74.2296 47.7013 72.3332 48.8194 70.3965C49.3525 69.473 50.0973 68.7118 50.8623 68.3077C51.1157 68.174 51.5225 68.0009 51.9321 68.0009C52.1307 68.0009 52.3301 68.0416 52.5129 68.1472C53.0724 68.4702 53.1832 69.2316 53.1993 69.6568C53.2324 70.5217 52.9452 71.5473 52.4121 72.4708ZM53.3563 66.6868C52.4214 66.1469 51.2561 66.1929 50.0754 66.8162C49.0213 67.3725 48.0567 68.3446 47.3589 69.5531C46.9171 70.3183 46.626 71.1029 46.4717 71.8593L43.3119 73.6834V69.6094L54.5695 63.1196V67.5439L54.3479 67.6719C54.0973 67.261 53.7672 66.9239 53.3563 66.6868ZM57.8568 61.2249L61.2684 59.2581V63.1946L57.8568 61.2249ZM70.2225 62.2646C69.1042 64.2012 67.3788 65.0042 66.5288 64.5138C65.9693 64.1907 65.8584 63.4292 65.8424 63.0041C65.8097 62.1393 66.0966 61.1138 66.6298 60.1903C67.1629 59.2667 67.9077 58.5053 68.6729 58.1014C68.9261 57.9677 69.3329 57.7947 69.7425 57.7947C69.9411 57.7947 70.1405 57.8354 70.3233 57.941C70.8829 58.2641 70.9936 59.0256 71.0096 59.4505C71.0427 60.3155 70.7556 61.341 70.2225 62.2646ZM78.1325 57.8082C77.5994 58.7317 76.8546 59.4931 76.0894 59.897C75.7135 60.0956 74.9987 60.3808 74.439 60.0574C73.8793 59.7343 73.7686 58.9729 73.7526 58.5479C73.7197 57.6832 74.0066 56.6576 74.5398 55.7341C75.6581 53.7974 77.3837 52.9945 78.2335 53.4848C78.7929 53.808 78.9038 54.5694 78.9198 54.9946C78.9525 55.8591 78.6656 56.8846 78.1325 57.8082ZM85.8433 53.1989C85.3101 54.1225 84.5652 54.8837 83.8002 55.2878C83.4241 55.4864 82.7092 55.7714 82.1496 55.4482C81.5901 55.1253 81.4792 54.3638 81.4632 53.9387C81.4305 53.0737 81.7174 52.0482 82.2505 51.1246C83.1543 49.5594 84.4547 48.7348 85.3689 48.7348C85.5859 48.7348 85.7813 48.7813 85.9442 48.8754C86.794 49.3661 86.9612 51.2623 85.8433 53.1989ZM93.753 48.7428C93.2199 49.6663 92.4751 50.4277 91.7099 50.8316C91.3341 51.0302 90.6192 51.3154 90.0595 50.992C89.4999 50.6689 89.3892 49.9075 89.3732 49.4825C89.3403 48.6178 89.6272 47.5922 90.1603 46.6687C91.2786 44.732 93.0041 43.9289 93.854 44.4194C94.4135 44.7426 94.5244 45.504 94.5404 45.9292C94.5733 46.7937 94.2864 47.8192 93.753 48.7428ZM95.8058 43.4379L95.4702 43.6316C95.254 43.3622 94.9985 43.1326 94.6974 42.9587C92.8717 41.9043 90.2368 43.1632 88.7001 45.8252C88.2228 46.652 87.9083 47.5309 87.7687 48.3852C87.5219 47.9856 87.1975 47.6516 86.7877 47.4151C84.9608 46.3609 82.3268 47.6198 80.7903 50.2816C80.3337 51.0724 80.0251 51.9111 79.8769 52.7303C79.6553 52.446 79.3904 52.2052 79.0769 52.0243C77.2511 50.9695 74.6163 52.2288 73.0795 54.8909C72.6025 55.7172 72.2879 56.5954 72.1484 57.4494C71.8986 57.0459 71.5721 56.7147 71.1669 56.4807C70.232 55.9411 69.0669 55.9868 67.8859 56.6102C66.8321 57.1665 65.8675 58.1385 65.1697 59.347C64.5778 60.3722 64.2325 61.478 64.1678 62.5169L62.9553 63.206V58.2861L95.8061 39.3483V43.4379H95.8058Z" fill="black"/>
</svg>
