<svg width="190" height="189" viewBox="0 0 190 189" fill="none" xmlns="http://www.w3.org/2000/svg">
<g clip-path="url(#clip0)">
<path d="M188.97 96.526L183.073 87.6767C182.854 87.3499 182.517 87.1238 182.131 87.0475L138.71 78.509C135.554 76.2448 108.628 57.5215 81.5849 57.5215C55.9813 57.5215 40.3125 62.3408 37.3434 63.3388L28.9718 60.5476C28.1928 60.2913 27.3636 60.7077 27.1073 61.4796C26.8492 62.253 27.267 63.0884 28.0387 63.3447L36.8851 66.2949C37.2007 66.4 37.5432 66.3941 37.8544 66.2835C38.0155 66.2244 54.2012 60.4716 81.5845 60.4716C108.778 60.4716 136.956 80.8772 137.235 81.0833C137.411 81.2113 137.613 81.2995 137.823 81.3411L180.959 89.8246L186.269 97.7914V113.569C186.269 113.58 186.248 114.721 184.503 115.072C182.252 115.522 172.078 116.219 167.012 116.522C166.2 116.571 165.581 117.268 165.63 118.08C165.676 118.864 166.326 119.469 167.101 119.469C167.13 119.469 167.159 119.469 167.191 119.465C167.796 119.428 182.071 118.569 185.086 117.964C188.354 117.308 189.218 114.801 189.218 113.568V97.3444C189.218 97.0535 189.132 96.768 188.97 96.526Z" fill="black"/>
<path d="M29.8744 67.2983C29.5721 66.5393 28.7083 66.1719 27.958 66.4758C13.1029 72.42 4.24206 81.1817 3.87189 81.5519C3.59537 81.8286 3.43978 82.2033 3.43978 82.595V91.0958L0.646556 96.6841C0.544427 96.8888 0.490967 97.1149 0.490967 97.3439V112.093C0.490967 112.49 0.672365 114.574 4.25644 116.362C7.34057 117.9 18.2418 119.301 19.4758 119.456C19.5377 119.462 19.5997 119.468 19.6601 119.468C20.3931 119.468 21.028 118.92 21.1216 118.177C21.2223 117.368 20.6493 116.63 19.8415 116.53C16.6306 116.127 7.80697 114.838 5.57231 113.724C3.71631 112.797 3.44716 112.001 3.43978 112.082V97.6928L6.23338 92.1041C6.33514 91.8995 6.3886 91.6734 6.3886 91.4443V83.2271C8.31245 81.4398 16.5443 74.2206 29.0522 69.2154C29.8081 68.913 30.1768 68.0544 29.8744 67.2983Z" fill="black"/>
<path d="M131.715 116.52H55.045C54.2301 116.52 53.5706 117.179 53.5706 117.994C53.5706 118.809 54.2301 119.468 55.045 119.468H131.715C132.531 119.468 133.19 118.809 133.19 117.994C133.19 117.179 132.531 116.52 131.715 116.52Z" fill="black"/>
<path d="M96.3286 87.0195H90.431C89.6161 87.0195 88.9565 87.6788 88.9565 88.4939C88.9565 89.3088 89.6161 89.9683 90.431 89.9683H96.3286C97.1438 89.9683 97.803 89.3088 97.803 88.4939C97.803 87.6788 97.1438 87.0195 96.3286 87.0195Z" fill="black"/>
<path d="M63.8913 87.0195H57.9937C57.1789 87.0195 56.5193 87.6788 56.5193 88.4939C56.5193 89.3088 57.1789 89.9683 57.9937 89.9683H63.8913C64.7061 89.9683 65.3657 89.3088 65.3657 88.4939C65.3657 87.6788 64.7061 87.0195 63.8913 87.0195Z" fill="black"/>
<path d="M131.715 78.172H60.943C47.3319 78.172 41.8442 67.6327 41.6182 67.185C41.2495 66.4592 40.3698 66.1638 39.6383 66.5311C38.9124 66.897 38.6189 67.7799 38.9817 68.5072C39.2394 69.0228 45.4655 81.1218 60.9426 81.1218H131.715C132.53 81.1218 133.19 80.462 133.19 79.6473C133.19 78.8319 132.53 78.172 131.715 78.172Z" fill="black"/>
<path d="M28.5052 60.4727C27.69 60.4727 27.0308 61.1325 27.0308 61.9476V64.8974C27.0308 65.7128 27.69 66.3723 28.5052 66.3723C29.32 66.3723 29.9799 65.7124 29.9796 64.8974V61.9476C29.9796 61.1325 29.32 60.4727 28.5052 60.4727Z" fill="black"/>
<path d="M10.8122 101.77H1.96538C1.15056 101.77 0.490967 102.429 0.490967 103.244C0.490967 104.059 1.15056 104.718 1.96538 104.718H10.8122C11.627 104.718 12.2866 104.059 12.2866 103.244C12.2866 102.429 11.627 101.77 10.8122 101.77Z" fill="black"/>
<path d="M21.0274 84.997C20.725 84.2395 19.8612 83.871 19.1109 84.1749L4.36682 90.0745C3.61099 90.3769 3.2423 91.2356 3.54463 91.9916C3.77506 92.5692 4.32958 92.9192 4.91396 92.9192C5.09683 92.9192 5.28265 92.886 5.4611 92.8137L20.2052 86.9141C20.961 86.6117 21.3297 85.7531 21.0274 84.997Z" fill="black"/>
<path d="M19.948 84.0991L5.20353 81.1493C4.39867 80.9852 3.62699 81.5078 3.46845 82.3059C3.30844 83.1051 3.82682 83.8815 4.62468 84.0416L19.3691 86.9914C19.4672 87.0116 19.5653 87.0201 19.66 87.0201C20.348 87.0201 20.9645 86.5359 21.1042 85.8347C21.2639 85.0352 20.7458 84.2588 19.948 84.0991Z" fill="black"/>
<path d="M83.03 76.4066L80.0812 61.6573C79.9212 60.858 79.1583 60.3306 78.3461 60.5007C77.5483 60.6607 77.0299 61.4371 77.1899 62.2363L80.1387 76.9857C80.2784 77.6871 80.8945 78.171 81.5829 78.171C81.678 78.171 81.7761 78.1625 81.8738 78.1423C82.6713 77.9822 83.19 77.2058 83.03 76.4066Z" fill="black"/>
<path d="M187.985 95.8891L170.292 92.9393C169.497 92.7936 168.731 93.3469 168.596 94.152C168.461 94.956 169.005 95.715 169.808 95.8489L187.501 98.7987C187.582 98.8131 187.665 98.819 187.746 98.819C188.452 98.819 189.077 98.3063 189.198 97.5861C189.333 96.782 188.789 96.023 187.985 95.8891Z" fill="black"/>
<path d="M170.709 93.0766L164.811 90.1268C164.086 89.7664 163.199 90.0589 162.833 90.7862C162.471 91.515 162.764 92.4009 163.493 92.7653L169.39 95.7151C169.603 95.8202 169.828 95.8707 170.05 95.8707C170.588 95.8707 171.11 95.5723 171.369 95.0556C171.731 94.3268 171.438 93.4409 170.709 93.0766Z" fill="black"/>
<path d="M177.918 89.9707H164.152C163.337 89.9707 162.678 90.6303 162.678 91.4451C162.678 92.2599 163.337 92.9195 164.152 92.9195H177.918C178.732 92.9195 179.392 92.2599 179.392 91.4451C179.392 90.6303 178.732 89.9707 177.918 89.9707Z" fill="black"/>
<path d="M149.497 113.568H149.466C148.654 113.568 148.009 114.228 148.009 115.043C148.009 115.858 148.683 116.518 149.497 116.518C150.31 116.518 150.972 115.858 150.972 115.043C150.972 114.228 150.31 113.568 149.497 113.568Z" fill="black"/>
<path d="M149.408 98.8203C140.466 98.8203 133.189 106.097 133.189 115.044C133.189 123.992 140.466 131.268 149.408 131.268C158.349 131.268 165.627 123.992 165.627 115.044C165.627 106.097 158.349 98.8203 149.408 98.8203ZM149.408 128.318C142.091 128.318 136.138 122.364 136.138 115.044C136.138 107.724 142.09 101.77 149.408 101.77C156.726 101.77 162.678 107.724 162.678 115.044C162.678 122.364 156.726 128.318 149.408 128.318Z" fill="black"/>
<path d="M149.408 104.719C148.593 104.719 147.934 105.379 147.934 106.194V109.143C147.934 109.959 148.593 110.618 149.408 110.618C150.223 110.618 150.883 109.959 150.883 109.143V106.194C150.883 105.379 150.223 104.719 149.408 104.719Z" fill="black"/>
<path d="M149.408 119.469C148.593 119.469 147.934 120.128 147.934 120.943V123.893C147.934 124.709 148.593 125.368 149.408 125.368C150.223 125.368 150.883 124.709 150.883 123.893V120.943C150.883 120.128 150.223 119.469 149.408 119.469Z" fill="black"/>
<path d="M143.51 113.568H140.562C139.747 113.568 139.087 114.228 139.087 115.043C139.087 115.858 139.747 116.518 140.562 116.518H143.51C144.326 116.518 144.985 115.858 144.985 115.043C144.985 114.228 144.326 113.568 143.51 113.568Z" fill="black"/>
<path d="M158.255 113.568H155.306C154.491 113.568 153.832 114.228 153.832 115.043C153.832 115.858 154.491 116.518 155.306 116.518H158.255C159.07 116.518 159.729 115.858 159.729 115.043C159.729 114.228 159.07 113.568 158.255 113.568Z" fill="black"/>
<path d="M146.28 109.83L144.196 107.745C143.62 107.168 142.687 107.168 142.111 107.745C141.535 108.321 141.535 109.254 142.111 109.83L144.196 111.916C144.484 112.204 144.861 112.348 145.238 112.348C145.616 112.348 145.992 112.204 146.28 111.916C146.856 111.34 146.856 110.406 146.28 109.83Z" fill="black"/>
<path d="M156.705 120.258L154.62 118.172C154.045 117.596 153.111 117.596 152.535 118.172C151.96 118.748 151.96 119.682 152.535 120.258L154.62 122.344C154.908 122.632 155.286 122.775 155.663 122.775C156.04 122.775 156.417 122.632 156.705 122.344C157.281 121.768 157.281 120.834 156.705 120.258Z" fill="black"/>
<path d="M146.28 118.172C145.705 117.596 144.772 117.596 144.196 118.172L142.111 120.258C141.535 120.834 141.535 121.768 142.111 122.344C142.399 122.632 142.776 122.775 143.153 122.775C143.53 122.775 143.908 122.632 144.196 122.344L146.28 120.258C146.856 119.682 146.856 118.748 146.28 118.172Z" fill="black"/>
<path d="M156.705 107.745C156.129 107.168 155.196 107.168 154.62 107.745L152.535 109.83C151.959 110.406 151.959 111.339 152.535 111.916C152.823 112.204 153.201 112.348 153.578 112.348C153.955 112.348 154.332 112.204 154.62 111.916L156.705 109.83C157.281 109.254 157.281 108.321 156.705 107.745Z" fill="black"/>
<path d="M37.4397 113.568H37.411C36.5961 113.568 35.9509 114.228 35.9509 115.043C35.9509 115.858 36.626 116.518 37.4397 116.518C38.2545 116.518 38.9141 115.858 38.9141 115.043C38.9141 114.228 38.2545 113.568 37.4397 113.568Z" fill="black"/>
<path d="M37.3519 98.8203C28.4103 98.8203 21.136 106.097 21.136 115.044C21.136 123.992 28.4103 131.268 37.3519 131.268C46.2946 131.268 53.5704 123.992 53.5704 115.044C53.5704 106.097 46.295 98.8203 37.3519 98.8203ZM37.3519 128.318C30.0363 128.318 24.0852 122.364 24.0852 115.044C24.0852 107.724 30.0359 101.77 37.3519 101.77C44.669 101.77 50.6216 107.724 50.6216 115.044C50.6216 122.364 44.6694 128.318 37.3519 128.318Z" fill="black"/>
<path d="M37.3516 104.719C36.5368 104.719 35.8772 105.379 35.8772 106.194V109.143C35.8772 109.959 36.5368 110.618 37.3516 110.618C38.1664 110.618 38.826 109.959 38.826 109.143V106.194C38.826 105.379 38.1664 104.719 37.3516 104.719Z" fill="black"/>
<path d="M37.3516 119.469C36.5368 119.469 35.8772 120.128 35.8772 120.943V123.893C35.8772 124.709 36.5368 125.368 37.3516 125.368C38.1664 125.368 38.826 124.709 38.826 123.893V120.943C38.826 120.128 38.1664 119.469 37.3516 119.469Z" fill="black"/>
<path d="M31.4545 113.568H28.5086C27.6934 113.568 27.0342 114.228 27.0342 115.043C27.0342 115.858 27.6934 116.518 28.5086 116.518H31.4545C32.2689 116.518 32.9289 115.858 32.9289 115.043C32.9289 114.228 32.2693 113.568 31.4545 113.568Z" fill="black"/>
<path d="M46.1981 113.568H43.2493C42.4345 113.568 41.7749 114.228 41.7749 115.043C41.7749 115.858 42.4345 116.518 43.2493 116.518H46.1981C47.0129 116.518 47.6725 115.858 47.6725 115.043C47.6725 114.228 47.0129 113.568 46.1981 113.568Z" fill="black"/>
<path d="M34.2244 109.83L32.1394 107.745C31.5635 107.168 30.6304 107.168 30.0545 107.745C29.4786 108.321 29.4786 109.254 30.0545 109.83L32.1394 111.916C32.4274 112.204 32.8049 112.348 33.1821 112.348C33.5593 112.348 33.9365 112.204 34.2244 111.916C34.8003 111.34 34.8003 110.406 34.2244 109.83Z" fill="black"/>
<path d="M44.6487 120.258L42.5638 118.172C41.9879 117.596 41.0547 117.596 40.4788 118.172C39.9029 118.748 39.9029 119.682 40.4788 120.258L42.5638 122.344C42.8517 122.632 43.2293 122.775 43.6064 122.775C43.9836 122.775 44.3608 122.632 44.6487 122.344C45.2246 121.768 45.2246 120.834 44.6487 120.258Z" fill="black"/>
<path d="M34.2247 118.172C33.6488 117.596 32.7156 117.596 32.1397 118.172L30.0547 120.258C29.4788 120.834 29.4788 121.768 30.0547 122.344C30.3427 122.632 30.7199 122.775 31.097 122.775C31.4742 122.775 31.8514 122.632 32.1397 122.344L34.2247 120.258C34.8006 119.682 34.8006 118.748 34.2247 118.172Z" fill="black"/>
<path d="M44.649 107.745C44.0731 107.168 43.1399 107.168 42.564 107.745L40.479 109.83C39.9031 110.406 39.9031 111.339 40.479 111.916C40.767 112.204 41.1442 112.348 41.5213 112.348C41.8989 112.348 42.2761 112.204 42.564 111.916L44.649 109.83C45.2249 109.254 45.2249 108.321 44.649 107.745Z" fill="black"/>
</g>
<defs>
<clipPath id="clip0">
<rect width="188.727" height="188.79" fill="white" transform="translate(0.490967)"/>
</clipPath>
</defs>
</svg>
