<svg width="123" height="28" viewBox="0 0 123 28" fill="none" xmlns="http://www.w3.org/2000/svg">
<path d="M0.989063 27V1.30078H7.93242V21.3926H17.8289V27H0.989063ZM53.1891 14.1152C53.1891 18.4395 52.1285 21.7266 50.0074 23.9766C47.8863 26.2266 44.7809 27.3516 40.691 27.3516C36.6598 27.3516 33.566 26.2207 31.4098 23.959C29.2652 21.6973 28.193 18.4043 28.193 14.0801C28.193 9.80273 29.2594 6.53906 31.3922 4.28906C33.5367 2.02734 36.648 0.896484 40.7262 0.896484C44.816 0.896484 47.9156 2.01563 50.025 4.25391C52.1344 6.49219 53.1891 9.7793 53.1891 14.1152ZM35.5055 14.1152C35.5055 19.084 37.234 21.5684 40.691 21.5684C42.4488 21.5684 43.7496 20.9648 44.5934 19.7578C45.4488 18.5508 45.8766 16.6699 45.8766 14.1152C45.8766 11.5488 45.443 9.65625 44.5758 8.4375C43.7203 7.20703 42.4371 6.5918 40.7262 6.5918C37.2457 6.5918 35.5055 9.09961 35.5055 14.1152ZM75.3481 11.9531H86.4398V25.8047C83.4281 26.8359 80.1176 27.3516 76.5082 27.3516C72.5473 27.3516 69.4828 26.2031 67.3148 23.9062C65.1586 21.6094 64.0805 18.334 64.0805 14.0801C64.0805 9.93164 65.2641 6.70312 67.6313 4.39453C69.9984 2.08594 73.3148 0.931641 77.5805 0.931641C79.1977 0.931641 80.7211 1.08398 82.1508 1.38867C83.5922 1.69336 84.8461 2.08008 85.9125 2.54883L83.7152 7.99805C81.8637 7.08398 79.8305 6.62695 77.6156 6.62695C75.5883 6.62695 74.018 7.28906 72.9047 8.61328C71.8031 9.92578 71.2523 11.8066 71.2523 14.2559C71.2523 16.6582 71.7504 18.4922 72.7465 19.7578C73.7543 21.0117 75.2016 21.6387 77.0883 21.6387C78.1195 21.6387 79.0688 21.5391 79.9359 21.3398V17.3145H75.3481V11.9531ZM122.925 14.1152C122.925 18.4395 121.864 21.7266 119.743 23.9766C117.622 26.2266 114.517 27.3516 110.427 27.3516C106.396 27.3516 103.302 26.2207 101.146 23.959C99.0012 21.6973 97.9289 18.4043 97.9289 14.0801C97.9289 9.80273 98.9953 6.53906 101.128 4.28906C103.273 2.02734 106.384 0.896484 110.462 0.896484C114.552 0.896484 117.652 2.01563 119.761 4.25391C121.87 6.49219 122.925 9.7793 122.925 14.1152ZM105.241 14.1152C105.241 19.084 106.97 21.5684 110.427 21.5684C112.185 21.5684 113.486 20.9648 114.329 19.7578C115.185 18.5508 115.613 16.6699 115.613 14.1152C115.613 11.5488 115.179 9.65625 114.312 8.4375C113.456 7.20703 112.173 6.5918 110.462 6.5918C106.982 6.5918 105.241 9.09961 105.241 14.1152Z" fill="white"/>
</svg>
