<svg width="164" height="36" viewBox="0 0 164 36" fill="none" xmlns="http://www.w3.org/2000/svg">
<path d="M0.703125 35V0.734375H9.96094V27.5234H23.1562V35H0.703125ZM70.3031 17.8203C70.3031 23.5859 68.8891 27.9688 66.0609 30.9688C63.2328 33.9688 59.0922 35.4688 53.6391 35.4688C48.2641 35.4688 44.1391 33.9609 41.2641 30.9453C38.4047 27.9297 36.975 23.5391 36.975 17.7734C36.975 12.0703 38.3969 7.71875 41.2406 4.71875C44.1 1.70312 48.2484 0.195312 53.6859 0.195312C59.1391 0.195312 63.2719 1.6875 66.0844 4.67188C68.8969 7.65625 70.3031 12.0391 70.3031 17.8203ZM46.725 17.8203C46.725 24.4453 49.0297 27.7578 53.6391 27.7578C55.9828 27.7578 57.7172 26.9531 58.8422 25.3438C59.9828 23.7344 60.5531 21.2266 60.5531 17.8203C60.5531 14.3984 59.975 11.875 58.8187 10.25C57.6781 8.60938 55.9672 7.78906 53.6859 7.78906C49.0453 7.78906 46.725 11.1328 46.725 17.8203ZM99.8484 14.9375H114.637V33.4062C110.622 34.7812 106.208 35.4688 101.395 35.4688C96.1141 35.4688 92.0281 33.9375 89.1375 30.875C86.2625 27.8125 84.825 23.4453 84.825 17.7734C84.825 12.2422 86.4031 7.9375 89.5594 4.85938C92.7156 1.78125 97.1375 0.242188 102.825 0.242188C104.981 0.242188 107.012 0.445312 108.919 0.851562C110.841 1.25781 112.512 1.77344 113.934 2.39844L111.005 9.66406C108.536 8.44531 105.825 7.83594 102.872 7.83594C100.169 7.83594 98.075 8.71875 96.5906 10.4844C95.1219 12.2344 94.3875 14.7422 94.3875 18.0078C94.3875 21.2109 95.0516 23.6562 96.3797 25.3438C97.7234 27.0156 99.6531 27.8516 102.169 27.8516C103.544 27.8516 104.809 27.7188 105.966 27.4531V22.0859H99.8484V14.9375ZM163.284 17.8203C163.284 23.5859 161.87 27.9688 159.042 30.9688C156.214 33.9688 152.073 35.4688 146.62 35.4688C141.245 35.4688 137.12 33.9609 134.245 30.9453C131.386 27.9297 129.956 23.5391 129.956 17.7734C129.956 12.0703 131.378 7.71875 134.222 4.71875C137.081 1.70312 141.23 0.195312 146.667 0.195312C152.12 0.195312 156.253 1.6875 159.066 4.67188C161.878 7.65625 163.284 12.0391 163.284 17.8203ZM139.706 17.8203C139.706 24.4453 142.011 27.7578 146.62 27.7578C148.964 27.7578 150.698 26.9531 151.823 25.3438C152.964 23.7344 153.534 21.2266 153.534 17.8203C153.534 14.3984 152.956 11.875 151.8 10.25C150.659 8.60938 148.948 7.78906 146.667 7.78906C142.027 7.78906 139.706 11.1328 139.706 17.8203Z" fill="black"/>
</svg>
