<svg  viewBox="0 0 56 32" fill="none" xmlns="http://www.w3.org/2000/svg">
  <path d="M37.2024 0.132812V31.6881H29.3159V0.132812H37.2024ZM13.5429 2.75551C20.8036 2.75551 26.6932 8.64509 26.6932 15.9058C26.6932 23.1666 20.8036 29.0561 13.5429 29.0561C6.28215 29.0561 0.392578 23.1666 0.392578 15.9058C0.392578 8.64509 6.28215 2.75551 13.5429 2.75551ZM45.411 8.01932L47.7208 10.3291L50.0306 8.01932H55.6073V13.596L53.2975 15.9058L55.6073 18.2157V23.7923H50.0306L47.7208 21.4825L45.411 23.7923H39.8343V18.2157L42.1441 15.9058L39.8343 13.596V8.01932H45.411ZM13.5429 10.6512C10.6441 10.6512 8.28828 13.0071 8.28828 15.9058C8.28828 18.8046 10.6441 21.1604 13.5429 21.1604C16.4417 21.1604 18.7975 18.8046 18.7975 15.9058C18.7975 13.0071 16.4417 10.6512 13.5429 10.6512Z" fill="white"/>
</svg>
