<svg width="80" height="80" viewBox="0 0 80 80" fill="none" xmlns="http://www.w3.org/2000/svg">
<g clip-path="url(#clip0)">
<path d="M1.60156 4.00078C1.60156 2.23347 3.03425 0.800781 4.80156 0.800781H75.2016C76.9689 0.800781 78.4016 2.23347 78.4016 4.00078V75.2008C78.4016 76.9681 76.9689 78.4008 75.2016 78.4008H4.80156C3.03425 78.4008 1.60156 76.9681 1.60156 75.2008V4.00078Z" fill="#FFF63D"/>
<path d="M60.6705 41.3252V55.4274C60.6705 55.8993 60.2881 56.2817 59.8163 56.2817H55.5072C54.7253 56.2817 54.0914 55.6476 54.0914 54.8656V51.5895C54.0914 50.8963 53.5295 50.3345 52.8366 50.3345H26.5083C25.8153 50.3345 25.2534 50.8963 25.2534 51.5895V54.8657C25.2534 55.6477 24.6195 56.2818 23.8377 56.2818H19.6277C19.1559 56.2818 18.7734 55.8993 18.7734 55.4276V41.3254C18.7734 38.6135 20.9716 36.4151 23.683 36.4151C28.4898 35.9415 33.7798 35.6352 39.4862 35.6271C45.3755 35.6187 50.8245 35.9288 55.7606 36.4151C56.0927 36.4201 57.8936 36.4804 59.3 37.9571C60.6002 39.3217 60.665 40.9537 60.6705 41.3252Z" fill="#FFFCBB"/>
<path d="M55.2547 36.4154C50.3572 35.9285 44.9445 35.6177 39.0906 35.6276C33.4458 35.6371 28.215 35.9432 23.4648 36.4154C24.0525 33.534 24.64 30.6526 25.2277 27.771C25.7259 25.3274 27.8748 23.5723 30.3683 23.5723H48.3509C50.8444 23.5723 52.9933 25.3274 53.4916 27.771L55.2547 36.4154Z" fill="#FFFCBB"/>
<path d="M30.3716 24.7441H43.3322C43.9795 24.7441 44.5041 24.2195 44.5041 23.5723C44.5041 22.9251 43.9795 22.4004 43.3322 22.4004H30.3716C27.3344 22.4004 24.6897 24.5605 24.0827 27.5368L22.4866 35.3631C19.7045 35.9207 17.6016 38.3815 17.6016 41.3256V55.4277C17.6016 56.5449 18.5103 57.454 19.6277 57.454H23.8375C25.2644 57.454 26.4253 56.2931 26.4253 54.866V51.5899C26.4253 51.544 26.4625 51.5068 26.5081 51.5068H52.8366C52.8823 51.5068 52.9195 51.544 52.9195 51.5899V54.8662C52.9195 56.2932 54.0803 57.4542 55.5072 57.4542H59.8163C60.9334 57.4542 61.8423 56.5452 61.8423 55.4279V41.3257C61.8423 41.3199 61.8424 41.3141 61.8422 41.3084C61.8316 40.5813 61.6448 38.7202 60.1488 37.1491C58.7916 35.724 57.162 35.3556 56.2198 35.2684L54.6431 27.5368C54.0361 24.5605 51.3913 22.4004 48.3542 22.4004C47.7069 22.4004 47.1823 22.9251 47.1823 23.5723C47.1823 24.2195 47.7069 24.7441 48.3542 24.7441C50.2822 24.7441 51.9613 26.1155 52.3467 28.0051L53.7848 35.057C49.1155 34.6576 44.3953 34.4554 39.7202 34.4554C39.5108 34.4554 39.3013 34.4552 39.0919 34.4556C34.3858 34.4634 29.6302 34.6801 24.9323 35.1001L26.3792 28.0052C26.7645 26.1155 28.4436 24.7441 30.3716 24.7441ZM59.4986 41.3348V55.1102H55.5072C55.3728 55.1102 55.2633 55.0007 55.2633 54.866V51.5899C55.2633 51.5546 55.2595 51.5202 55.258 51.4854H56.5948C57.2422 51.4854 57.7667 50.9609 57.7667 50.3135C57.7667 49.6662 57.2422 49.1416 56.5948 49.1416H22.1855C21.5381 49.1416 21.0136 49.6662 21.0136 50.3135C21.0136 50.9609 21.5381 51.4854 22.1855 51.4854H24.087C24.0855 51.5202 24.0817 51.5546 24.0817 51.5899V54.8662C24.0817 55.0007 23.9723 55.1104 23.8377 55.1104H19.9455V41.3257C19.9455 39.2643 21.6222 37.5873 23.6833 37.5873C23.7216 37.5873 23.76 37.5854 23.7981 37.5816C28.9761 37.0715 34.2386 36.8087 39.4411 36.7996C44.6644 36.8023 49.9453 37.0649 55.142 37.5815C55.1808 37.5852 55.2195 37.5873 55.2581 37.5873C55.3314 37.5873 55.4039 37.5793 55.4752 37.5659C55.532 37.5713 55.5892 37.576 55.6461 37.5816C55.6784 37.5849 55.7108 37.5866 55.7433 37.5871C56.1208 37.5929 57.432 37.6948 58.4517 38.7656C59.3713 39.731 59.4908 40.8777 59.4986 41.3348Z" fill="black"/>
<path d="M25.248 38.9512C23.3408 38.9512 21.7891 40.5031 21.7891 42.4106C21.7891 44.3179 23.3408 45.8698 25.248 45.8698C27.1553 45.8698 28.707 44.3179 28.707 42.4106C28.707 40.5031 27.1553 38.9512 25.248 38.9512ZM25.248 43.5259C24.633 43.5259 24.1328 43.0256 24.1328 42.4104C24.1328 41.7952 24.633 41.2948 25.248 41.2948C25.863 41.2948 26.3633 41.7952 26.3633 42.4104C26.3633 43.0256 25.863 43.5259 25.248 43.5259Z" fill="black"/>
<path d="M50.8477 42.4106C50.8477 44.3179 52.3994 45.8698 54.3066 45.8698C56.2138 45.8698 57.7655 44.3179 57.7655 42.4106C57.7655 40.5031 56.2138 38.9512 54.3066 38.9512C52.3994 38.9512 50.8477 40.5031 50.8477 42.4106ZM55.4216 42.4106C55.4216 43.0257 54.9214 43.526 54.3064 43.526C53.6914 43.526 53.1913 43.0257 53.1913 42.4106C53.1913 41.7954 53.6914 41.2949 54.3064 41.2949C54.9214 41.2949 55.4216 41.7954 55.4216 42.4106Z" fill="black"/>
<path d="M44.8138 41.2383H33.8359C33.1886 41.2383 32.6641 41.7628 32.6641 42.4102C32.6641 43.0575 33.1886 43.582 33.8359 43.582H44.8138C45.4611 43.582 45.9856 43.0575 45.9856 42.4102C45.9856 41.7628 45.461 41.2383 44.8138 41.2383Z" fill="black"/>
<path d="M78.3984 40L78.3984 68.4L77.1984 78L71.1984 78.4L65.1984 78.4L46.7984 78.4L78.3984 40Z" fill="#E6DE37"/>
<path fill-rule="evenodd" clip-rule="evenodd" d="M4.79844 2.80039C3.69387 2.80039 2.79844 3.69582 2.79844 4.80039V75.2004C2.79844 76.305 3.69387 77.2004 4.79844 77.2004H13.5984C14.2612 77.2004 14.7984 77.7377 14.7984 78.4004C14.7984 79.0631 14.2612 79.6004 13.5984 79.6004H4.79844C2.36838 79.6004 0.398438 77.6305 0.398438 75.2004V4.80039C0.398438 2.37034 2.36838 0.400391 4.79844 0.400391H75.1984C77.6285 0.400391 79.5984 2.37034 79.5984 4.80039V59.8004C79.5984 60.4631 79.0612 61.0004 78.3984 61.0004C77.7357 61.0004 77.1984 60.4631 77.1984 59.8004V4.80039C77.1984 3.69582 76.303 2.80039 75.1984 2.80039H4.79844ZM78.3984 67.9004C79.0612 67.9004 79.5984 68.4377 79.5984 69.1004V75.2004C79.5984 77.6305 77.6285 79.6004 75.1984 79.6004H22.7984C22.1357 79.6004 21.5984 79.0631 21.5984 78.4004C21.5984 77.7377 22.1357 77.2004 22.7984 77.2004H75.1984C76.303 77.2004 77.1984 76.305 77.1984 75.2004V69.1004C77.1984 68.4377 77.7357 67.9004 78.3984 67.9004Z" fill="black"/>
</g>
<defs>
<clipPath id="clip0">
<rect width="80" height="80" fill="white"/>
</clipPath>
</defs>
</svg>
