<svg width="60" height="60" viewBox="0 0 60 60" fill="none" xmlns="http://www.w3.org/2000/svg">
    <g clip-path="url(#clip0)">
        <path d="M1.20007 2.99961C1.20007 1.67413 2.27459 0.599609 3.60007 0.599609H56.4001C57.7256 0.599609 58.8001 1.67413 58.8001 2.99961V55.7996C58.8001 57.1251 57.7256 58.1996 56.4001 58.1996H3.60007C2.27459 58.1996 1.20007 57.1251 1.20007 55.7996V2.99961Z" fill="#FFF63D"/>
        <path d="M58.7998 30L58.4998 51.3L57.8998 58.5L53.3998 58.8L48.8998 58.8L35.0998 58.8L58.7998 30Z" fill="#E6DE37"/>
        <path fill-rule="evenodd" clip-rule="evenodd" d="M3.59993 2.10078C2.7715 2.10078 2.09993 2.77236 2.09993 3.60078V56.4008C2.09993 57.2292 2.7715 57.9008 3.59993 57.9008H44.3999C44.897 57.9008 45.2999 58.3037 45.2999 58.8008C45.2999 59.2978 44.897 59.7008 44.3999 59.7008H3.59993C1.77739 59.7008 0.299927 58.2233 0.299927 56.4008V3.60078C0.299927 1.77824 1.77739 0.300781 3.59993 0.300781H23.9999C24.497 0.300781 24.8999 0.703725 24.8999 1.20078C24.8999 1.69784 24.497 2.10078 23.9999 2.10078H3.59993ZM29.0999 1.20078C29.0999 0.703725 29.5029 0.300781 29.9999 0.300781H56.3999C58.2225 0.300781 59.6999 1.77824 59.6999 3.60078V56.4008C59.6999 58.2233 58.2225 59.7008 56.3999 59.7008H51.5999C51.1029 59.7008 50.6999 59.2978 50.6999 58.8008C50.6999 58.3037 51.1029 57.9008 51.5999 57.9008H56.3999C57.2283 57.9008 57.8999 57.2292 57.8999 56.4008V3.60078C57.8999 2.77235 57.2283 2.10078 56.3999 2.10078H29.9999C29.5029 2.10078 29.0999 1.69784 29.0999 1.20078Z" fill="black"/>
        <g clip-path="url(#clip1)">
            <path d="M44.1229 35.7051L35.1368 28.6293C34.8679 28.418 34.4731 28.61 34.4731 28.9515V33.6567H24.2454C21.7789 33.6567 19.2502 32.9726 17.3825 31.3507C17.0899 31.0967 16.639 31.3555 16.7108 31.7362C16.8377 32.4105 17.0964 33.4261 17.6081 34.4344C18.921 37.0222 21.1541 38.3343 24.2454 38.3343H34.3938V42.8263C34.3938 42.9816 34.4815 43.1235 34.6204 43.193C34.7567 43.2614 34.9237 43.2489 35.0496 43.1542L44.1152 36.3551C44.2171 36.2787 44.2777 36.1593 44.2792 36.0319C44.2807 35.9047 44.2229 35.7839 44.1229 35.7051Z" fill="#FFF63D"/>
            <path d="M43.2762 26.3034C42.5245 22.3083 40.015 19.7052 35.7416 19.7052H25.5931V15.2132C25.5931 14.8757 25.2068 14.683 24.9372 14.8852L15.8718 21.6844C15.6567 21.8456 15.6524 22.1679 15.8641 22.3345C25.5439 29.9564 24.9005 29.4982 25.1039 29.4982C25.3285 29.4982 25.5139 29.3162 25.5139 29.0881V24.3829H35.7416C38.2138 24.3829 40.7414 25.0703 42.6045 26.6888C42.8978 26.9433 43.3481 26.6834 43.2762 26.3034Z" fill="#FFFCBB"/>
            <path d="M44.7569 35.6412L34.7331 27.7484C34.4473 27.5235 34.0252 27.727 34.0252 28.092V33.1796H26.9654C26.7238 33.1796 26.5281 33.3754 26.5281 33.617C26.5281 33.8586 26.7238 34.0543 26.9654 34.0543H34.4625C34.7041 34.0543 34.8999 33.8586 34.8999 33.617V28.993L43.7688 35.9764L34.8209 42.6873V38.2738C34.8209 38.0322 34.6252 37.8364 34.3836 37.8364H24.2809C20.3485 37.8364 17.9719 35.5063 17.2254 31.7062C17.4854 31.9273 17.8008 32.1674 18.1749 32.4068C20.8615 34.1262 23.6561 34.0544 25.2453 34.0544C25.4869 34.0544 25.6827 33.8586 25.6827 33.617C25.6827 33.3755 25.4869 33.1797 25.2453 33.1797C24.0052 33.1797 21.2535 33.3182 18.6859 31.6953C17.5241 30.9609 16.9876 30.2154 16.9831 30.2092C16.7353 29.8552 16.176 30.0398 16.1877 30.4717C16.1899 30.5555 16.2546 32.546 17.2701 34.5635C18.2226 36.4556 20.212 38.7111 24.2808 38.7111H33.9462V43.5619C33.9462 43.9218 34.3583 44.1274 34.6459 43.9118L44.7486 36.3347C44.8573 36.2533 44.9219 36.1258 44.9235 35.99C44.9252 35.8541 44.8636 35.7252 44.7569 35.6412Z" fill="black" stroke="black" stroke-width="0.4"/>
            <path d="M25.9802 29.9076V24.82H35.7245C38.4079 24.82 40.2482 25.6273 41.3195 26.3044C42.4813 27.0388 43.0178 27.7843 43.0222 27.7905C43.2699 28.1444 43.8294 27.9599 43.8177 27.528C43.8155 27.4442 43.7508 25.4537 42.7352 23.4362C41.7827 21.5441 39.7933 19.2886 35.7245 19.2886H34.6026C34.361 19.2886 34.1653 19.4844 34.1653 19.7259C34.1653 19.9675 34.361 20.1633 34.6026 20.1633H35.7245C39.6571 20.1633 42.0335 22.4935 42.78 26.2935C40.8554 24.6569 38.2797 23.9454 35.7245 23.9454H25.5429C25.3013 23.9454 25.1056 24.1411 25.1056 24.3827V29.0067L16.2368 22.0233L25.1846 15.3125V19.726C25.1846 19.9676 25.3803 20.1633 25.6219 20.1633H32.941C33.1826 20.1633 33.3784 19.9676 33.3784 19.726C33.3784 19.4844 33.1826 19.2887 32.941 19.2887H26.0592V14.4379C26.0592 14.0784 25.6475 13.872 25.3595 14.088L15.2568 21.6651C15.0272 21.8373 15.0231 22.181 15.2487 22.3585L25.2724 30.2512C25.559 30.4769 25.9802 30.2718 25.9802 29.9076Z" fill="black" stroke="black" stroke-width="0.4"/>
        </g>
    </g>
    <defs>
        <clipPath id="clip0">
            <rect width="60" height="60" fill="white"/>
        </clipPath>
        <clipPath id="clip1">
            <rect width="30" height="30" fill="white" transform="translate(15 14)"/>
        </clipPath>
    </defs>
</svg>
