<svg width="80" height="80" viewBox="0 0 80 80" fill="none" xmlns="http://www.w3.org/2000/svg">
<g clip-path="url(#clip0)">
<path d="M1.60156 4.00078C1.60156 2.23347 3.03425 0.800781 4.80156 0.800781H75.2016C76.9689 0.800781 78.4016 2.23347 78.4016 4.00078V75.2008C78.4016 76.9681 76.9689 78.4008 75.2016 78.4008H4.80156C3.03425 78.4008 1.60156 76.9681 1.60156 75.2008V4.00078Z" fill="#FFF63D"/>
<path d="M57.8013 56.8562H25.293V29.8398H58.025C59.2892 29.8398 60.3142 30.8647 60.3142 32.1291V54.3433C60.3142 55.7311 59.1891 56.8562 57.8013 56.8562Z" fill="#FFFCBB"/>
<path d="M55.3923 54.3429C55.3923 55.7309 56.5173 56.856 57.9051 56.856H22.8838C21.4959 56.856 20.3711 55.7309 20.3711 54.3429V24.9716C20.3711 23.7565 21.3559 22.7715 22.5709 22.7715H53.1925C54.4075 22.7715 55.3923 23.7565 55.3923 24.9716V54.3429Z" fill="#FFFCBB"/>
<path d="M37.8283 41.1574H25.6412C25.188 41.1574 24.8203 40.7899 24.8203 40.3365V28.1471C24.8203 27.6937 25.1878 27.3262 25.6412 27.3262H37.8283C38.2816 27.3262 38.6492 27.6937 38.6492 28.1471V40.3365C38.6492 40.7899 38.2817 41.1574 37.8283 41.1574Z" fill="#FFFCBB"/>
<path d="M20.3711 38.2493C19.7239 38.2493 19.1992 38.774 19.1992 39.4212V54.343C19.1992 56.3749 20.8522 58.028 22.8839 58.028H25.2914H57.8C57.8167 58.0279 57.8334 58.0279 57.8503 58.028H57.9053C57.9072 58.028 57.9089 58.0284 57.9109 58.028C57.9128 58.028 57.915 58.0296 57.9167 58.028C57.9663 58.0276 58.0147 58.023 58.0627 58.0166C59.9658 57.8804 61.4848 56.2705 61.4848 54.343V50.156C61.4848 49.5087 60.9602 48.9841 60.313 48.9841C59.6658 48.9841 59.1411 49.5087 59.1411 50.156V54.343C59.1411 55.059 58.5653 55.6541 57.8528 55.6815C57.1289 55.6552 56.5645 55.0715 56.5645 54.343V31.0116H58.0248C58.6403 31.0116 59.1411 31.5132 59.1411 32.1299V44.9516C59.1411 45.599 59.6658 46.1235 60.313 46.1235C60.9602 46.1235 61.4848 45.599 61.4848 44.9516V32.1299C61.4848 30.221 59.9327 28.6679 58.0248 28.6679H56.5645V24.9721C56.5645 23.1126 55.0519 21.5996 53.1925 21.5996H22.5713C20.7119 21.5996 19.1992 23.1126 19.1992 24.9721V34.0076C19.1992 34.6548 19.7239 35.1795 20.3711 35.1795C21.0183 35.1795 21.543 34.6548 21.543 34.0076V24.9721C21.543 24.4049 22.0042 23.9434 22.5713 23.9434H53.1922C53.7592 23.9434 54.2205 24.4049 54.2205 24.9721V54.343C54.2205 54.8148 54.3114 55.2674 54.4767 55.6843H25.2913H22.8838C22.1444 55.6843 21.5428 55.0826 21.5428 54.343V39.4212C21.543 38.774 21.0183 38.2493 20.3711 38.2493Z" fill="black"/>
<path d="M37.8284 26.1543H25.6417C24.5427 26.1543 23.6484 27.0485 23.6484 28.1476V40.3363C23.6484 41.1023 24.0948 41.8076 24.7866 42.1354C25.0548 42.2643 25.3425 42.3298 25.6417 42.3298H37.8284C38.9275 42.3298 39.8217 41.4355 39.8217 40.3363V28.1476C39.8217 27.0485 38.9275 26.1543 37.8284 26.1543ZM37.478 39.986H25.9922V28.498H37.478V39.986Z" fill="black"/>
<path d="M43.2227 28.498H50.2636C50.9108 28.498 51.4355 27.9734 51.4355 27.3262C51.4355 26.679 50.9108 26.1543 50.2636 26.1543H43.2227C42.5755 26.1543 42.0508 26.679 42.0508 27.3262C42.0508 27.9734 42.5755 28.498 43.2227 28.498Z" fill="black"/>
<path d="M43.2227 33.0527H50.2636C50.9108 33.0527 51.4355 32.528 51.4355 31.8809C51.4355 31.2337 50.9108 30.709 50.2636 30.709H43.2227C42.5755 30.709 42.0508 31.2337 42.0508 31.8809C42.0508 32.528 42.5755 33.0527 43.2227 33.0527Z" fill="black"/>
<path d="M43.2227 37.6094H50.2636C50.9108 37.6094 51.4355 37.0847 51.4355 36.4375C51.4355 35.7903 50.9108 35.2656 50.2636 35.2656H43.2227C42.5755 35.2656 42.0508 35.7903 42.0508 36.4375C42.0508 37.0847 42.5755 37.6094 43.2227 37.6094Z" fill="black"/>
<path d="M43.2227 42.3301H50.2636C50.9108 42.3301 51.4355 41.8055 51.4355 41.1582C51.4355 40.5109 50.9108 39.9863 50.2636 39.9863H43.2227C42.5755 39.9863 42.0508 40.5109 42.0508 41.1582C42.0508 41.8055 42.5755 42.3301 43.2227 42.3301Z" fill="black"/>
<path d="M23.6484 46.3848C23.6484 47.0321 24.1731 47.5566 24.8203 47.5566H50.2617C50.9089 47.5566 51.4336 47.0321 51.4336 46.3848C51.4336 45.7374 50.9089 45.2129 50.2617 45.2129H24.8203C24.1731 45.2129 23.6484 45.7376 23.6484 46.3848Z" fill="black"/>
<path d="M24.8203 50.4395C24.1731 50.4395 23.6484 50.964 23.6484 51.6113C23.6484 52.2587 24.1731 52.7832 24.8203 52.7832H39.5303C40.1775 52.7832 40.7022 52.2587 40.7022 51.6113C40.7022 50.964 40.1775 50.4395 39.5303 50.4395H24.8203Z" fill="black"/>
<path d="M78.3984 40L78.3984 68.4L77.1984 78L71.1984 78.4L65.1984 78.4L46.7984 78.4L78.3984 40Z" fill="#E6DE37"/>
<path fill-rule="evenodd" clip-rule="evenodd" d="M4.79844 2.80039C3.69387 2.80039 2.79844 3.69582 2.79844 4.80039V75.2004C2.79844 76.305 3.69387 77.2004 4.79844 77.2004H27.1984C27.8612 77.2004 28.3984 77.7377 28.3984 78.4004C28.3984 79.0631 27.8612 79.6004 27.1984 79.6004H4.79844C2.36838 79.6004 0.398438 77.6305 0.398438 75.2004V4.80039C0.398438 2.37034 2.36838 0.400391 4.79844 0.400391H75.1984C77.6285 0.400391 79.5984 2.37034 79.5984 4.80039V41.6004C79.5984 42.2631 79.0612 42.8004 78.3984 42.8004C77.7357 42.8004 77.1984 42.2631 77.1984 41.6004V4.80039C77.1984 3.69582 76.303 2.80039 75.1984 2.80039H4.79844ZM78.3984 48.4004C79.0612 48.4004 79.5984 48.9377 79.5984 49.6004V75.2004C79.5984 77.6305 77.6285 79.6004 75.1984 79.6004H38.7984C38.1357 79.6004 37.5984 79.0631 37.5984 78.4004C37.5984 77.7377 38.1357 77.2004 38.7984 77.2004H75.1984C76.303 77.2004 77.1984 76.305 77.1984 75.2004V49.6004C77.1984 48.9377 77.7357 48.4004 78.3984 48.4004Z" fill="black"/>
</g>
<defs>
<clipPath id="clip0">
<rect width="80" height="80" fill="white"/>
</clipPath>
</defs>
</svg>
