<svg width="120" height="120" viewBox="0 0 120 120" fill="none" xmlns="http://www.w3.org/2000/svg">
<g clip-path="url(#clip0)">
<path d="M2.39844 7.20039C2.39844 4.54942 4.54747 2.40039 7.19844 2.40039H112.798C115.449 2.40039 117.598 4.54942 117.598 7.20039V111.6C117.598 114.251 115.449 116.4 112.798 116.4H7.19844C4.54747 116.4 2.39844 114.251 2.39844 111.6V7.20039Z" fill="#FFF63D"/>
<path d="M117.602 59.4004L117.002 102L115.802 116.4L97.8016 117L70.2016 117L117.602 59.4004Z" fill="#E6DE37"/>
<path d="M86.8482 41.7432L86.8079 41.7029C80.1491 35.0156 69.3243 35.0149 62.6646 41.701L60.6615 43.7121L58.5435 41.5857C51.8724 34.8881 41.0293 34.8881 34.3584 41.5857C27.6722 48.2986 27.6722 59.1548 34.3584 65.8677L57.5476 89.1497C59.2653 90.8745 62.0575 90.8745 63.7754 89.1497L86.8482 65.9846C93.5156 59.2907 93.5156 48.4373 86.8482 41.7432Z" fill="#FFFCBB"/>
<path d="M63.1509 92.2689L74.9401 80.4326C75.625 79.7449 75.6229 78.6322 74.9351 77.9472C74.2474 77.2623 73.1345 77.2644 72.4497 77.9522L60.6632 89.7879L35.6039 64.6288C29.6173 58.6183 29.6173 48.8381 35.6039 42.8274C38.5018 39.918 42.3541 38.3156 46.4513 38.3156C50.5484 38.3156 54.4007 39.918 57.2986 42.8274L59.4165 44.9537C59.7465 45.2849 60.1945 45.4709 60.6618 45.4709C61.1291 45.4709 61.5774 45.2849 61.9071 44.9535L63.9102 42.9424C66.8022 40.0387 70.6465 38.4398 74.7357 38.4398C74.736 38.4398 74.7367 38.4398 74.7369 38.4398C78.8263 38.4401 82.6709 40.0397 85.5619 42.9431L85.6032 42.9846C91.5788 48.9841 91.5788 58.7462 85.6032 64.7458L77.9621 72.4173C77.2771 73.1051 77.2792 74.218 77.967 74.903C78.6548 75.5877 79.7677 75.5856 80.4527 74.898L88.0937 67.2265C95.4316 59.8591 95.4316 47.8715 88.0947 40.5053L88.0537 40.464C84.4973 36.8925 79.7681 34.9254 74.7371 34.925C74.7364 34.925 74.7364 34.925 74.7357 34.925C69.7054 34.925 64.9762 36.8916 61.4197 40.4622L60.6618 41.2231L59.7891 40.3471C56.2267 36.7704 51.49 34.8008 46.4513 34.8008C41.4125 34.8008 36.6758 36.7704 33.1134 40.3469C25.7643 47.7253 25.7643 59.7309 33.1134 67.1093L58.1724 92.2686C58.837 92.936 59.7212 93.3037 60.662 93.3037C61.6024 93.3035 62.4864 92.936 63.1509 92.2689Z" fill="black"/>
<path fill-rule="evenodd" clip-rule="evenodd" d="M7.20156 4.19961C5.54471 4.19961 4.20156 5.54276 4.20156 7.19961V112.8C4.20156 114.456 5.54471 115.8 7.20156 115.8H112.802C114.458 115.8 115.802 114.456 115.802 112.8V73.7996C115.802 72.8055 116.607 71.9996 117.602 71.9996C118.596 71.9996 119.402 72.8055 119.402 73.7996V112.8C119.402 116.445 116.447 119.4 112.802 119.4H7.20156C3.55648 119.4 0.601562 116.445 0.601562 112.8V7.19961C0.601562 3.55453 3.55648 0.599609 7.20156 0.599609H31.2016C32.1957 0.599609 33.0016 1.4055 33.0016 2.39961C33.0016 3.39372 32.1957 4.19961 31.2016 4.19961H7.20156ZM43.8016 2.39961C43.8016 1.4055 44.6075 0.599609 45.6016 0.599609H112.802C116.447 0.599609 119.402 3.55453 119.402 7.19961V62.3996C119.402 63.3937 118.596 64.1996 117.602 64.1996C116.607 64.1996 115.802 63.3937 115.802 62.3996V7.19961C115.802 5.54276 114.458 4.19961 112.802 4.19961H45.6016C44.6075 4.19961 43.8016 3.39372 43.8016 2.39961Z" fill="black"/>
</g>
<defs>
<clipPath id="clip0">
<rect width="120" height="120" fill="white"/>
</clipPath>
</defs>
</svg>
