<svg width="120" height="120" viewBox="0 0 120 120" fill="none" xmlns="http://www.w3.org/2000/svg">
<g clip-path="url(#clip0)">
<path d="M2.39844 6.0002C2.39844 3.34923 4.54747 1.2002 7.19844 1.2002H112.798C115.449 1.2002 117.598 3.34923 117.598 6.0002V111.6C117.598 114.251 115.449 116.4 112.798 116.4H7.19844C4.54747 116.4 2.39844 114.251 2.39844 111.6V6.0002Z" fill="#FFF63D"/>
<path d="M117.602 60L117.002 102.6L115.802 117L106.802 117.6L97.8016 117.6L70.2016 117.6L117.602 60Z" fill="#E6DE37"/>
<path fill-rule="evenodd" clip-rule="evenodd" d="M7.20156 4.19961C5.54471 4.19961 4.20156 5.54276 4.20156 7.19961V112.8C4.20156 114.456 5.54471 115.8 7.20156 115.8H88.8016C89.7957 115.8 90.6016 116.605 90.6016 117.6C90.6016 118.594 89.7957 119.4 88.8016 119.4H7.20156C3.55648 119.4 0.601562 116.445 0.601562 112.8V7.19961C0.601562 3.55453 3.55648 0.599609 7.20156 0.599609H48.0016C48.9957 0.599609 49.8016 1.4055 49.8016 2.39961C49.8016 3.39372 48.9957 4.19961 48.0016 4.19961H7.20156ZM58.2016 2.39961C58.2016 1.4055 59.0075 0.599609 60.0016 0.599609H112.802C116.447 0.599609 119.402 3.55453 119.402 7.19961V112.8C119.402 116.445 116.447 119.4 112.802 119.4H103.202C102.207 119.4 101.402 118.594 101.402 117.6C101.402 116.605 102.207 115.8 103.202 115.8H112.802C114.458 115.8 115.802 114.456 115.802 112.8V7.19961C115.802 5.54276 114.458 4.19961 112.802 4.19961H60.0016C59.0075 4.19961 58.2016 3.39372 58.2016 2.39961Z" fill="black"/>
<path d="M55.1992 67.2002C55.1992 73.8276 49.8266 79.2002 43.1992 79.2002C36.5718 79.2002 31.1992 73.8276 31.1992 67.2002C31.1992 60.5728 36.5718 55.2002 43.1992 55.2002C49.8266 55.2002 55.1992 60.5728 55.1992 67.2002Z" fill="#FFFCBB"/>
<path d="M88.8008 67.2002C88.8008 73.8276 83.4282 79.2002 76.8008 79.2002C70.1734 79.2002 64.8008 73.8276 64.8008 67.2002C64.8008 60.5728 70.1734 55.2002 76.8008 55.2002C83.4282 55.2002 88.8008 60.5728 88.8008 67.2002Z" fill="#FFFCBB"/>
<path fill-rule="evenodd" clip-rule="evenodd" d="M52.7539 72.4917C51.75 74.2131 50.2918 75.6441 48.5204 76.616C46.0848 77.9523 43.2356 78.323 40.5392 77.6544C37.8428 76.9858 35.4968 75.3268 33.9678 73.0074C32.4388 70.688 31.8387 67.8781 32.2869 65.1365C32.7351 62.3948 34.1987 59.9223 36.3868 58.2105C36.8229 57.8694 37.2814 57.5634 37.7579 57.294C38.3969 56.9327 39.0685 56.637 39.762 56.4101C39.8001 56.4052 39.8382 56.3997 39.8764 56.3935C40.1555 56.3481 40.4368 56.2664 40.7159 56.1446C41.8141 55.8914 42.9535 55.8054 44.0959 55.8981C44.634 55.9418 45.1651 56.0246 45.6855 56.1445C45.9646 56.2664 46.2459 56.348 46.525 56.3935C46.5633 56.3997 46.6016 56.4052 46.6398 56.4101C47.336 56.6379 48.0073 56.9342 48.6438 57.294C49.6365 57.8553 50.5447 58.5714 51.3309 59.424C52.7006 60.9095 53.6272 62.7303 54.0307 64.6818C54.07 64.8721 54.1044 65.0637 54.1337 65.2563C54.1535 65.3865 54.1855 65.5135 54.2284 65.6354C54.4862 66.3679 55.1393 66.9206 55.9302 66.9206C56.8529 66.9206 57.6109 66.1702 57.5041 65.2537C57.4846 65.0864 57.4622 64.9197 57.4369 64.7535C57.3922 64.4598 57.3384 64.1679 57.2758 63.8784C56.7369 61.3853 55.541 59.0611 53.7872 57.1591C52.7634 56.0488 51.5809 55.1164 50.2882 54.3855C50.3263 54.3078 50.3616 54.2286 50.394 54.1481C50.752 53.2588 50.7526 52.2068 50.1987 51.1737L47.4312 46.0115C45.6213 42.6355 40.7804 42.6355 38.9704 46.0115L36.2029 51.1737C35.6491 52.2068 35.6497 53.2588 36.0076 54.1481C36.04 54.2286 36.0753 54.3078 36.1135 54.3855C35.4929 54.7363 34.8959 55.1347 34.328 55.579C31.4789 57.8079 29.5731 61.0274 28.9895 64.5974C28.4059 68.1674 29.1872 71.8262 31.1782 74.8464C33.1692 77.8665 36.224 80.0267 39.735 80.8973C43.2461 81.768 46.9562 81.2853 50.1275 79.5452C52.3958 78.3008 54.2695 76.4783 55.5743 74.2867C55.7258 74.0321 55.8697 73.7726 56.0056 73.5084C56.0825 73.3589 56.1569 73.208 56.2286 73.0556C56.6217 72.2208 56.1422 71.2681 55.2676 70.9743C54.5178 70.7224 53.7227 71.0384 53.2451 71.6506C53.1655 71.7526 53.0948 71.8627 53.0346 71.9799C52.9454 72.1531 52.8518 72.3238 52.7539 72.4917ZM46.9748 52.7793L44.2584 47.7125C43.8059 46.8685 42.5957 46.8685 42.1432 47.7125L39.4269 52.7793L39.5819 52.7117L39.907 52.6367C41.3626 52.301 42.8731 52.187 44.3872 52.3099C45.1004 52.3678 45.8045 52.4775 46.4943 52.6366L46.8195 52.7116L46.9748 52.7793Z" fill="black"/>
<path fill-rule="evenodd" clip-rule="evenodd" d="M74.5535 77.7491C74.3632 77.7096 74.1737 77.6651 73.9853 77.6155C73.8579 77.582 73.7287 77.5609 73.5998 77.5519C72.8252 77.4977 72.0585 77.8775 71.7444 78.6034C71.3781 79.4502 71.7658 80.4439 72.6493 80.7098C72.8106 80.7583 72.9726 80.804 73.1351 80.8467C73.4225 80.9223 73.7117 80.9889 74.0023 81.0464C76.5043 81.5418 79.1123 81.3672 81.5544 80.5129C84.9689 79.3183 87.8086 76.8824 89.5091 73.6896C91.2095 70.4969 91.6459 66.781 90.7317 63.2811C89.8174 59.7812 87.6193 56.7536 84.5746 54.8003C84.3486 54.6553 84.1192 54.517 83.8866 54.3855C83.9247 54.3078 83.96 54.2286 83.9924 54.1481C84.3503 53.2589 84.351 52.2068 83.7971 51.1737L81.0296 46.0115C79.2197 42.6355 74.3787 42.6355 72.5688 46.0115L69.8013 51.1737C69.2474 52.2068 69.2481 53.2588 69.606 54.1481C69.6384 54.2286 69.6737 54.3078 69.7119 54.3855C68.029 55.337 66.5403 56.6258 65.3479 58.1898C63.1547 61.0664 62.1244 64.6631 62.4621 68.2647C62.7035 70.8406 63.6321 73.284 65.1254 75.3517C65.2988 75.5919 65.4799 75.827 65.6684 76.0567C65.7751 76.1866 65.8841 76.3148 65.9954 76.4412C66.6054 77.1334 67.6703 77.0716 68.2873 76.3856C68.8161 75.7975 68.8418 74.9422 68.4696 74.2608C68.4076 74.1473 68.3346 74.0387 68.251 73.9369C68.1274 73.7862 68.008 73.6326 67.8928 73.4761C66.7115 71.8712 65.9773 69.9646 65.7887 67.9528C65.5294 65.1869 66.3206 62.4247 68.0049 60.2156C68.9207 59.0145 70.064 58.0247 71.3563 57.294C71.9914 56.9349 72.6624 56.6384 73.3602 56.4101C73.3984 56.4052 73.4366 56.3997 73.4748 56.3935C73.754 56.3481 74.0353 56.2664 74.3144 56.1446C74.5013 56.1015 74.6896 56.0632 74.8793 56.0298C76.3532 55.7699 77.8506 55.8141 79.2841 56.1446C79.5633 56.2665 79.8446 56.3481 80.1237 56.3935C80.1619 56.3997 80.2 56.4052 80.2381 56.4101C80.93 56.6365 81.6015 56.9318 82.242 57.2939C82.4207 57.395 82.5969 57.5012 82.7705 57.6126C85.1088 59.1126 86.7968 61.4377 87.499 64.1256C88.2011 66.8134 87.8659 69.6671 86.56 72.1191C85.2542 74.571 83.0733 76.4417 80.4511 77.3591C78.5438 78.0263 76.5047 78.1537 74.5535 77.7491ZM80.5732 52.7793L77.8568 47.7125C77.4043 46.8685 76.1941 46.8685 75.7416 47.7125L73.0252 52.7793L73.1805 52.7116L73.5057 52.6366C73.7533 52.5795 74.0029 52.5288 74.2543 52.4844L74.2543 52.4844C76.208 52.14 78.1931 52.1986 80.093 52.6367L80.4181 52.7117L80.5732 52.7793Z" fill="black"/>
<path d="M36 42.5998C36 41.6057 36.8059 40.7998 37.8 40.7998H82.2C83.1941 40.7998 84 41.6057 84 42.5998C84 43.5939 83.1941 44.3998 82.2 44.3998H37.8C36.8059 44.3998 36 43.5939 36 42.5998Z" fill="black"/>
<path d="M49.1992 40.2004C49.1992 39.2063 50.0051 38.4004 50.9992 38.4004H68.9992C69.9933 38.4004 70.7992 39.2063 70.7992 40.2004C70.7992 41.1945 69.9933 42.0004 68.9992 42.0004H50.9992C50.0051 42.0004 49.1992 41.1945 49.1992 40.2004Z" fill="black"/>
</g>
<defs>
<clipPath id="clip0">
<rect width="120" height="120" fill="white"/>
</clipPath>
</defs>
</svg>
