<svg width="60" height="60" viewBox="0 0 60 60" fill="none" xmlns="http://www.w3.org/2000/svg">
    <g clip-path="url(#clip0)">
        <path d="M1.20007 2.99961C1.20007 1.67413 2.27459 0.599609 3.60007 0.599609H56.4001C57.7256 0.599609 58.8001 1.67413 58.8001 2.99961V55.7996C58.8001 57.1251 57.7256 58.1996 56.4001 58.1996H3.60007C2.27459 58.1996 1.20007 57.1251 1.20007 55.7996V2.99961Z" fill="#FFF63D"/>
        <path d="M35.1063 17.0781H24.9928C18.6342 17.0781 13.4796 22.2336 13.4796 28.5932C13.4796 33.352 16.3659 37.4361 20.483 39.1908C21.1151 39.4602 21.5285 40.077 21.5285 40.7643V43.7255C21.5285 44.6816 22.7275 45.1101 23.3332 44.3704L26.3108 40.7342C26.6352 40.3381 27.1201 40.1084 27.632 40.1084H35.1062C41.4648 40.1084 46.6194 34.953 46.6194 28.5933C46.6195 22.2336 41.4649 17.0781 35.1063 17.0781Z" fill="#FFFCBB"/>
        <path d="M23.3214 30.2053C24.2971 30.2053 25.0881 29.4143 25.0881 28.4386C25.0881 27.4629 24.2971 26.6719 23.3214 26.6719C22.3457 26.6719 21.5547 27.4629 21.5547 28.4386C21.5547 29.4143 22.3457 30.2053 23.3214 30.2053Z" fill="#FFF63D"/>
        <path d="M30.0488 30.2053C31.0246 30.2053 31.8155 29.4143 31.8155 28.4386C31.8155 27.4629 31.0246 26.6719 30.0488 26.6719C29.0731 26.6719 28.2821 27.4629 28.2821 28.4386C28.2821 29.4143 29.0731 30.2053 30.0488 30.2053Z" fill="#FFF63D"/>
        <path d="M36.774 30.2053C37.7498 30.2053 38.5408 29.4143 38.5408 28.4386C38.5408 27.4629 37.7498 26.6719 36.774 26.6719C35.7983 26.6719 35.0073 27.4629 35.0073 28.4386C35.0073 29.4143 35.7983 30.2053 36.774 30.2053Z" fill="#FFF63D"/>
        <path d="M38.7455 40.4443C41.2272 39.683 43.4566 38.1147 45.0229 36.0283C46.6431 33.87 47.4994 31.2992 47.4994 28.5932C47.4994 21.7592 41.9403 16.1992 35.1073 16.1992H24.9937C18.1607 16.1992 12.6016 21.7592 12.6016 28.5932C12.6016 33.5705 15.5603 38.0478 20.1392 39.9994C20.4498 40.1318 20.6505 40.4321 20.6505 40.7643V43.7255C20.6505 44.5374 21.1444 45.2385 21.9091 45.5116C22.1229 45.588 22.3416 45.6251 22.5571 45.6251C23.1114 45.6251 23.6437 45.3795 24.0141 44.9273L26.9918 41.2909C27.1499 41.0979 27.3836 40.9873 27.633 40.9873H34.4487C34.9341 40.9873 35.3276 40.5938 35.3276 40.1084C35.3276 39.623 34.9341 39.2295 34.4487 39.2295H27.633C26.8544 39.2295 26.125 39.575 25.6318 40.1773L22.654 43.8135C22.6355 43.8361 22.592 43.889 22.5003 43.8563C22.4082 43.8234 22.4082 43.7548 22.4082 43.7255V40.7643C22.4082 39.7264 21.788 38.7914 20.8284 38.3823C16.8986 36.7074 14.3593 32.8649 14.3593 28.5932C14.3593 22.7284 19.1297 17.957 24.9936 17.957H35.1072C40.9709 17.957 45.7415 22.7284 45.7415 28.5932C45.7415 30.9155 45.0068 33.1216 43.617 34.9729C42.272 36.7643 40.3589 38.1106 38.2299 38.7637C37.7658 38.9061 37.505 39.3977 37.6473 39.8617C37.79 40.3258 38.2816 40.5868 38.7455 40.4443Z" fill="black"/>
        <path d="M20.6797 28.4389C20.6797 29.8979 21.8664 31.0849 23.3253 31.0849C24.7842 31.0849 25.9711 29.8979 25.9711 28.4389C25.9711 26.98 24.7842 25.793 23.3253 25.793C21.8664 25.793 20.6797 26.98 20.6797 28.4389ZM24.2132 28.4389C24.2132 28.9287 23.8149 29.3271 23.3253 29.3271C22.8357 29.3271 22.4375 28.9287 22.4375 28.4389C22.4375 27.9492 22.8357 27.5508 23.3253 27.5508C23.8149 27.5508 24.2132 27.9492 24.2132 28.4389Z" fill="black"/>
        <path d="M27.4031 28.4389C27.4031 29.8979 28.5898 31.0849 30.0487 31.0849C31.5076 31.0849 32.6943 29.8979 32.6943 28.4389C32.6943 26.98 31.5076 25.793 30.0487 25.793C28.5898 25.793 27.4031 26.98 27.4031 28.4389ZM30.9365 28.4389C30.9365 28.9287 30.5383 29.3271 30.0487 29.3271C29.5591 29.3271 29.1609 28.9287 29.1609 28.4389C29.1609 27.9492 29.5591 27.5508 30.0487 27.5508C30.5383 27.5508 30.9365 27.9492 30.9365 28.4389Z" fill="black"/>
        <path d="M39.4204 28.4389C39.4204 26.98 38.2336 25.793 36.7748 25.793C35.3159 25.793 34.129 26.98 34.129 28.4389C34.129 29.8979 35.3159 31.0849 36.7748 31.0849C38.2336 31.0849 39.4204 29.8979 39.4204 28.4389ZM36.7748 29.3271C36.2852 29.3271 35.8868 28.9287 35.8868 28.4389C35.8868 27.9492 36.2852 27.5508 36.7748 27.5508C37.2644 27.5508 37.6626 27.9492 37.6626 28.4389C37.6626 28.9287 37.2644 29.3271 36.7748 29.3271Z" fill="black"/>
        <path d="M58.7998 30L58.4998 51.3L57.8998 58.5L53.3998 58.8L48.8998 58.8L35.0998 58.8L58.7998 30Z" fill="#E6DE37"/>
        <path fill-rule="evenodd" clip-rule="evenodd" d="M3.59993 2.10078C2.7715 2.10078 2.09993 2.77236 2.09993 3.60078V56.4008C2.09993 57.2292 2.7715 57.9008 3.59993 57.9008H44.3999C44.897 57.9008 45.2999 58.3037 45.2999 58.8008C45.2999 59.2978 44.897 59.7008 44.3999 59.7008H3.59993C1.77739 59.7008 0.299927 58.2233 0.299927 56.4008V3.60078C0.299927 1.77824 1.77739 0.300781 3.59993 0.300781H23.9999C24.497 0.300781 24.8999 0.703725 24.8999 1.20078C24.8999 1.69784 24.497 2.10078 23.9999 2.10078H3.59993ZM29.0999 1.20078C29.0999 0.703725 29.5029 0.300781 29.9999 0.300781H56.3999C58.2225 0.300781 59.6999 1.77824 59.6999 3.60078V56.4008C59.6999 58.2233 58.2225 59.7008 56.3999 59.7008H51.5999C51.1029 59.7008 50.6999 59.2978 50.6999 58.8008C50.6999 58.3037 51.1029 57.9008 51.5999 57.9008H56.3999C57.2283 57.9008 57.8999 57.2292 57.8999 56.4008V3.60078C57.8999 2.77235 57.2283 2.10078 56.3999 2.10078H29.9999C29.5029 2.10078 29.0999 1.69784 29.0999 1.20078Z" fill="black"/>
    </g>
    <defs>
        <clipPath id="clip0">
            <rect width="60" height="60" fill="white"/>
        </clipPath>
    </defs>
</svg>
