<svg width="120" height="120" viewBox="0 0 120 120" fill="none" xmlns="http://www.w3.org/2000/svg">
<g clip-path="url(#clip0)">
<path d="M2.39844 6.00117C2.39844 3.35021 4.54747 1.20117 7.19844 1.20117H112.798C115.449 1.20117 117.598 3.3502 117.598 6.00117V112.801C117.598 115.452 115.449 117.601 112.798 117.601H7.19844C4.54747 117.601 2.39844 115.452 2.39844 112.801V6.00117Z" fill="#FFF63D"/>
<path d="M88.7992 59.9992C88.7992 75.905 75.905 88.7992 59.9992 88.7992C44.0934 88.7992 31.1992 75.905 31.1992 59.9992C31.1992 44.0934 44.0934 31.1992 59.9992 31.1992C75.905 31.1992 88.7992 44.0934 88.7992 59.9992Z" fill="#FFFCBB"/>
<path fill-rule="evenodd" clip-rule="evenodd" d="M87.5864 62.0505C87.1211 68.3094 84.5373 74.2478 80.2286 78.867C75.4513 83.9885 68.9092 87.1072 61.9224 87.5937C54.9356 88.0802 48.0244 85.8984 42.5835 81.4884C37.1425 77.0785 33.5769 70.7688 32.6062 63.8327C31.6355 56.8966 33.332 49.8505 37.3534 44.1164C41.3747 38.3822 47.4215 34.3869 54.2734 32.9368C61.1253 31.4866 68.2722 32.6895 74.2718 36.3028C79.6832 39.5618 83.7978 44.5627 85.9634 50.4535C85.9961 50.5423 86.0283 50.6314 86.0601 50.7206C86.0827 50.7843 86.1085 50.8462 86.1371 50.9061C86.5223 51.7129 87.4264 52.1693 88.301 51.9197C89.2406 51.6514 89.7896 50.6701 89.4686 49.7472C89.4438 49.676 89.4188 49.6049 89.3935 49.5339C89.3433 49.3928 89.292 49.2521 89.2398 49.1118C86.7855 42.5199 82.1639 36.9253 76.0973 33.2717C69.3302 29.1962 61.2691 27.8394 53.5407 29.4751C45.8123 31.1107 38.9921 35.6171 34.4564 42.0847C29.9207 48.5524 28.0071 56.4998 29.102 64.3231C30.1968 72.1464 34.2185 79.2632 40.3555 84.2373C46.4924 89.2113 54.2877 91.6723 62.1682 91.1235C70.0487 90.5748 77.4277 87.0572 82.816 81.2806C87.6465 76.102 90.5548 69.4536 91.1052 62.4412C91.1169 62.292 91.1276 62.1426 91.1371 61.9931C91.1419 61.9179 91.1465 61.8427 91.1508 61.7674C91.2061 60.7918 90.4088 59.9989 89.4317 59.9989C88.5222 59.9989 87.7781 60.6861 87.6291 61.5676C87.6181 61.6331 87.6103 61.6996 87.606 61.7671C87.5999 61.8616 87.5934 61.9561 87.5864 62.0505Z" fill="black"/>
<path d="M54.1391 56.3115C54.1391 59.8568 57.0689 62.7408 60.6696 62.7408C61.8704 62.7408 62.8467 63.7018 62.8467 64.883C62.8467 66.0651 61.8704 67.0261 60.6696 67.0261C59.74 67.0261 58.7357 66.4502 57.8427 65.4054C57.0697 64.4996 55.6963 64.3824 54.7761 65.1442C53.8559 65.9052 53.7369 67.2572 54.5108 68.163C55.6741 69.5258 57.0425 70.4752 58.4933 70.954V73.4546C58.4933 74.6383 59.4679 75.5977 60.6696 75.5977C61.8721 75.5977 62.8467 74.6383 62.8467 73.4546V70.9431C65.3801 70.0583 67.2 67.6766 67.2 64.883C67.2 61.3385 64.2711 58.4546 60.6696 58.4546C59.4696 58.4546 58.4933 57.4935 58.4933 56.3115C58.4933 55.1303 59.4696 54.1692 60.6696 54.1692C61.4409 54.1692 62.2556 54.556 63.0244 55.2893C63.8884 56.1122 65.2661 56.0896 66.1021 55.2391C66.9381 54.3885 66.916 53.0315 66.0519 52.2094C64.9472 51.1563 63.8417 50.5619 62.8467 50.2363V47.7408C62.8467 46.557 61.8721 45.5977 60.6696 45.5977C59.4671 45.5977 58.4925 46.557 58.4925 47.7408V50.2522C55.959 51.1362 54.1391 53.5179 54.1391 56.3115Z" fill="black"/>
<path d="M117.602 60L117.002 102.6L115.802 117L106.802 117.6L97.8016 117.6L70.2016 117.6L117.602 60Z" fill="#E6DE37"/>
<path fill-rule="evenodd" clip-rule="evenodd" d="M7.20156 4.19961C5.54471 4.19961 4.20156 5.54276 4.20156 7.19961V112.8C4.20156 114.456 5.54471 115.8 7.20156 115.8H60.0016C60.9957 115.8 61.8016 116.605 61.8016 117.6C61.8016 118.594 60.9957 119.4 60.0016 119.4H7.20156C3.55648 119.4 0.601562 116.445 0.601562 112.8V7.19961C0.601562 3.55453 3.55648 0.599609 7.20156 0.599609H79.8016C80.7957 0.599609 81.6016 1.4055 81.6016 2.39961C81.6016 3.39372 80.7957 4.19961 79.8016 4.19961H7.20156ZM92.4016 2.39961C92.4016 1.4055 93.2074 0.599609 94.2016 0.599609H112.802C116.447 0.599609 119.402 3.55453 119.402 7.19961V112.8C119.402 116.445 116.447 119.4 112.802 119.4H69.6016C68.6074 119.4 67.8016 118.594 67.8016 117.6C67.8016 116.605 68.6074 115.8 69.6016 115.8H112.802C114.458 115.8 115.802 114.456 115.802 112.8V7.19961C115.802 5.54276 114.458 4.19961 112.802 4.19961H94.2016C93.2074 4.19961 92.4016 3.39372 92.4016 2.39961Z" fill="black"/>
</g>
<defs>
<clipPath id="clip0">
<rect width="120" height="120" fill="white"/>
</clipPath>
</defs>
</svg>
