<svg width="120" height="120" viewBox="0 0 120 120" fill="none" xmlns="http://www.w3.org/2000/svg">
<g clip-path="url(#clip0)">
<path d="M2.39844 5.99922C2.39844 3.34825 4.54747 1.19922 7.19844 1.19922H112.798C115.449 1.19922 117.598 3.34825 117.598 5.99922V112.799C117.598 115.45 115.449 117.599 112.798 117.599H7.19844C4.54747 117.599 2.39844 115.45 2.39844 112.799V5.99922Z" fill="#FFF63D"/>
<path d="M117.602 60L117.002 102.6L115.802 117L106.802 117.6L97.8016 117.6L70.2016 117.6L117.602 60Z" fill="#E6DE37"/>
<path fill-rule="evenodd" clip-rule="evenodd" d="M7.20156 4.19961C5.54471 4.19961 4.20156 5.54276 4.20156 7.19961V112.8C4.20156 114.456 5.54471 115.8 7.20156 115.8H60.0016C60.9957 115.8 61.8016 116.605 61.8016 117.6C61.8016 118.594 60.9957 119.4 60.0016 119.4H7.20156C3.55648 119.4 0.601562 116.445 0.601562 112.8V7.19961C0.601562 3.55453 3.55648 0.599609 7.20156 0.599609H79.8016C80.7957 0.599609 81.6016 1.4055 81.6016 2.39961C81.6016 3.39372 80.7957 4.19961 79.8016 4.19961H7.20156ZM92.4016 2.39961C92.4016 1.4055 93.2075 0.599609 94.2016 0.599609H112.802C116.447 0.599609 119.402 3.55453 119.402 7.19961V112.8C119.402 116.445 116.447 119.4 112.802 119.4H69.6016C68.6075 119.4 67.8016 118.594 67.8016 117.6C67.8016 116.605 68.6075 115.8 69.6016 115.8H112.802C114.458 115.8 115.802 114.456 115.802 112.8V7.19961C115.802 5.54276 114.458 4.19961 112.802 4.19961H94.2016C93.2075 4.19961 92.4016 3.39372 92.4016 2.39961Z" fill="black"/>
<path d="M89.9816 63.7608V56.2404L84.1912 54.7979C83.5545 51.8238 82.3843 49.0478 80.784 46.5756L83.858 41.4618L78.5394 36.1432L73.4256 39.2172C70.9534 37.617 68.1774 36.4467 65.2033 35.81L63.7608 30.0195H56.2404L54.7977 35.8099C51.8236 36.4466 49.0477 37.6168 46.5755 39.2171L41.4617 36.1431L36.1431 41.4617L39.2171 46.5755C37.6169 49.0477 36.4466 51.8236 35.8099 54.7977L30.0195 56.2402V63.7607L35.8099 65.2032C36.4466 68.1773 37.6168 70.9532 39.2171 73.4255L36.1431 78.5393L41.4617 83.8579L46.5755 80.7838C49.0477 82.384 51.8236 83.5544 54.7977 84.1911L56.2402 89.9816H63.7607L65.2032 84.1912C68.1773 83.5545 70.9532 82.3843 73.4255 80.784L78.5393 83.858L83.8579 78.5394L80.7838 73.4256C82.384 70.9534 83.5544 68.1774 84.1911 65.2033L89.9816 63.7608Z" fill="#FFFCBB"/>
<path d="M59.9999 77.0622C69.4232 77.0622 77.0622 69.4232 77.0622 59.9999C77.0622 50.5766 69.4232 42.9375 59.9999 42.9375C50.5766 42.9375 42.9375 50.5766 42.9375 59.9999C42.9375 69.4232 50.5766 77.0622 59.9999 77.0622Z" fill="#FFF63D"/>
<path d="M60.0015 67.5577C64.1747 67.5577 67.5577 64.1747 67.5577 60.0015C67.5577 55.8283 64.1747 52.4453 60.0015 52.4453C55.8283 52.4453 52.4453 55.8283 52.4453 60.0015C52.4453 64.1747 55.8283 67.5577 60.0015 67.5577Z" fill="#FFFCBB"/>
<path d="M90.2761 55.0577L85.2115 53.7959C84.5857 51.2414 83.58 48.8145 82.2139 46.5622L84.9026 42.0894C85.1909 41.6099 85.1155 40.9955 84.7198 40.5998L79.4011 35.2811C79.0054 34.8853 78.391 34.81 77.9114 35.0983L73.4386 37.7869C71.1864 36.4208 68.7595 35.4151 66.2049 34.7893L64.9434 29.725C64.8081 29.1819 64.3204 28.8008 63.7608 28.8008H56.2404C55.6807 28.8008 55.1931 29.1819 55.0577 29.725L53.796 34.7896C51.2417 35.4154 48.8144 36.4213 46.5623 37.7873L42.0896 35.0985C41.6099 34.8101 40.9955 34.8855 40.5999 35.2813L35.2812 40.5999C34.8855 40.9956 34.8101 41.61 35.0984 42.0896L37.787 46.5623C36.421 48.8146 35.4153 51.2415 34.7894 53.7961L29.725 55.0577C29.1819 55.193 28.8008 55.6807 28.8008 56.2402V63.7607C28.8008 64.3204 29.1819 64.808 29.725 64.9434L34.7895 66.205C35.4154 68.7595 36.4211 71.1865 37.7873 73.4387L35.0985 77.9115C34.8101 78.3912 34.8856 79.0056 35.2813 79.4012L40.6 84.7199C40.9956 85.1156 41.6101 85.1909 42.0897 84.9027L46.5625 82.2139C48.8148 83.58 51.2417 84.5857 53.7962 85.2116L55.0578 90.2762C55.1931 90.8193 55.6808 91.2004 56.2405 91.2004H63.761C64.3206 91.2004 64.8082 90.8193 64.9436 90.2762L66.2054 85.2116C68.7597 84.5858 71.1867 83.5801 73.4391 82.2139L77.9119 84.9027C78.3914 85.1909 79.0058 85.1156 79.4015 84.7199L84.7202 79.4012C85.116 79.0055 85.1913 78.3911 84.9031 77.9115L82.2144 73.4387C83.5805 71.1865 84.5862 68.7595 85.212 66.205L90.2766 64.9434C90.8197 64.8081 91.2008 64.3204 91.2008 63.7607V56.2402C91.2003 55.6807 90.8192 55.193 90.2761 55.0577ZM88.7628 62.8084L83.8965 64.0207C83.4448 64.1332 83.0968 64.4931 82.9994 64.9481C82.4027 67.7359 81.313 70.3652 79.7608 72.7633C79.5079 73.154 79.4996 73.6546 79.7394 74.0533L82.3227 78.351L78.351 82.3227L74.0533 79.7394C73.6544 79.4995 73.1539 79.5079 72.7633 79.7608C70.3651 81.3131 67.7356 82.4027 64.9481 82.9994C64.4931 83.0968 64.1332 83.4448 64.0207 83.8965L62.8084 88.7628H57.1927L55.9804 83.8965C55.8679 83.4448 55.508 83.0968 55.0529 82.9994C52.2653 82.4027 49.636 81.3131 47.2378 79.7608C46.8469 79.5078 46.3464 79.4997 45.9477 79.7394L41.6501 82.3227L37.6782 78.3511L40.2617 74.0535C40.5014 73.6547 40.4931 73.154 40.2402 72.7634C38.6879 70.3652 37.5983 67.7359 37.0016 64.9483C36.9042 64.4932 36.5561 64.1333 36.1044 64.0208L31.2383 62.8084V57.1927L36.1046 55.9804C36.5562 55.8679 36.9043 55.508 37.0017 55.0529C37.5984 52.2652 38.6881 49.6359 40.2402 47.2378C40.4931 46.847 40.5014 46.3465 40.2617 45.9477L37.6782 41.65L41.65 37.6782L45.9476 40.2616C46.3465 40.5014 46.847 40.493 47.2378 40.2401C49.6358 38.6879 52.2651 37.5983 55.0529 37.0016C55.508 36.9042 55.8679 36.5561 55.9804 36.1044L57.1927 31.2383H62.8084L64.0207 36.1046C64.1332 36.5562 64.4931 36.9043 64.9481 37.0017C67.7359 37.5984 70.3652 38.6881 72.7633 40.2402C73.1539 40.4931 73.6546 40.5014 74.0533 40.2617L78.351 37.6783L82.3227 41.6501L79.7394 45.9477C79.4996 46.3465 79.5079 46.8472 79.7608 47.2378C81.313 49.6359 82.4027 52.2652 82.9994 55.0529C83.0968 55.508 83.4448 55.8679 83.8965 55.9804L88.7628 57.1927V62.8084Z" fill="black"/>
<path d="M59.9999 41.7188C57.1575 41.7188 54.4334 42.3535 51.903 43.6054C51.2998 43.9038 51.0526 44.6348 51.3512 45.2381C51.6497 45.8414 52.3805 46.0887 52.9839 45.79C55.1752 44.7059 57.5358 44.1562 59.9999 44.1562C68.736 44.1562 75.8435 51.2637 75.8435 59.9999C75.8435 68.736 68.736 75.8435 59.9999 75.8435C51.2637 75.8435 44.1562 68.736 44.1562 59.9999C44.1562 57.1598 44.916 54.3744 46.3536 51.9447C46.6965 51.3654 46.5046 50.618 45.9254 50.2752C45.3462 49.9326 44.5986 50.1242 44.2558 50.7034C42.596 53.5087 41.7188 56.7234 41.7188 59.9999C41.7188 70.0801 49.9197 78.281 59.9999 78.281C70.0801 78.281 78.281 70.0801 78.281 59.9999C78.281 49.9197 70.0801 41.7188 59.9999 41.7188Z" fill="black"/>
<path d="M60.0015 51.2266C55.163 51.2266 51.2266 55.163 51.2266 60.0015C51.2266 64.84 55.163 68.7764 60.0015 68.7764C64.84 68.7764 68.7764 64.84 68.7764 60.0015C68.7764 55.163 64.84 51.2266 60.0015 51.2266ZM60.0015 66.3389C56.507 66.3389 53.664 63.496 53.664 60.0015C53.664 56.507 56.507 53.664 60.0015 53.664C63.496 53.664 66.3389 56.507 66.3389 60.0015C66.3389 63.496 63.496 66.3389 60.0015 66.3389Z" fill="black"/>
<path d="M48.3711 48.7344C48.6916 48.7344 49.006 48.604 49.2327 48.3773C49.4594 48.1506 49.5898 47.8361 49.5898 47.5156C49.5898 47.1951 49.4594 46.8807 49.2327 46.654C49.006 46.4273 48.6916 46.2969 48.3711 46.2969C48.0506 46.2969 47.7361 46.4273 47.5094 46.654C47.2827 46.8807 47.1523 47.1951 47.1523 47.5156C47.1523 47.8361 47.2827 48.1506 47.5094 48.3773C47.7361 48.604 48.0506 48.7344 48.3711 48.7344Z" fill="black"/>
</g>
<defs>
<clipPath id="clip0">
<rect width="120" height="120" fill="white"/>
</clipPath>
</defs>
</svg>
