<svg width="120" height="120" viewBox="0 0 120 120" fill="none" xmlns="http://www.w3.org/2000/svg">
<g clip-path="url(#clip0)">
<path d="M2.39844 7.20039C2.39844 4.54942 4.54747 2.40039 7.19844 2.40039H112.798C115.449 2.40039 117.598 4.54942 117.598 7.20039V111.6C117.598 114.251 115.449 116.4 112.798 116.4H7.19844C4.54747 116.4 2.39844 114.251 2.39844 111.6V7.20039Z" fill="#FFF63D"/>
<path d="M117.602 59.4004L117.002 102L115.802 116.4L97.8016 117L70.2016 117L117.602 59.4004Z" fill="#E6DE37"/>
<path fill-rule="evenodd" clip-rule="evenodd" d="M7.20156 4.19961C5.54471 4.19961 4.20156 5.54276 4.20156 7.19961V112.8C4.20156 114.456 5.54471 115.8 7.20156 115.8H112.802C114.458 115.8 115.802 114.456 115.802 112.8V73.7996C115.802 72.8055 116.607 71.9996 117.602 71.9996C118.596 71.9996 119.402 72.8055 119.402 73.7996V112.8C119.402 116.445 116.447 119.4 112.802 119.4H7.20156C3.55648 119.4 0.601562 116.445 0.601562 112.8V7.19961C0.601562 3.55453 3.55648 0.599609 7.20156 0.599609H31.2016C32.1957 0.599609 33.0016 1.4055 33.0016 2.39961C33.0016 3.39372 32.1957 4.19961 31.2016 4.19961H7.20156ZM43.8016 2.39961C43.8016 1.4055 44.6075 0.599609 45.6016 0.599609H112.802C116.447 0.599609 119.402 3.55453 119.402 7.19961V62.3996C119.402 63.3937 118.596 64.1996 117.602 64.1996C116.607 64.1996 115.802 63.3937 115.802 62.3996V7.19961C115.802 5.54276 114.458 4.19961 112.802 4.19961H45.6016C44.6075 4.19961 43.8016 3.39372 43.8016 2.39961Z" fill="black"/>
<g clip-path="url(#clip1)">
<path d="M84.6919 76.333C83.2964 75.0573 82.4961 73.2486 82.4961 71.3707V58.537C82.4961 57.8252 81.9189 57.248 81.207 57.248C80.495 57.248 79.9179 57.8252 79.9179 58.537V71.3707C79.9179 73.9708 81.0239 76.473 82.9524 78.2359C83.6455 78.8695 84.0429 79.7709 84.0429 80.7093C84.0429 82.5572 82.5395 84.0607 80.6916 84.0607H40.4724C38.6245 84.0607 37.1211 82.5572 37.1211 80.7093C37.1211 79.771 37.5185 78.8696 38.2116 78.2359C40.1401 76.473 41.2461 73.9708 41.2461 71.3707V56.4745C41.2461 45.8127 49.9202 37.1386 60.5821 37.1386C63.5144 37.1386 66.4027 37.8054 69.0185 39.0737C68.1093 40.5342 67.5821 42.2561 67.5821 44.0995C67.5821 49.3594 71.8613 53.6386 77.1212 53.6386C82.3811 53.6386 86.6603 49.3594 86.6603 44.0995C86.6603 38.8396 82.3811 34.5604 77.1212 34.5604C74.6561 34.5604 72.4063 35.5004 70.7116 37.0407C68.7901 36.0385 66.7287 35.3297 64.6001 34.9339C65.075 34.1927 65.3516 33.3127 65.3516 32.369C65.3516 29.7392 63.212 27.5996 60.5821 27.5996C57.9521 27.5996 55.8125 29.7392 55.8125 32.369C55.8125 33.3117 56.0885 34.1906 56.5624 34.9314C46.3922 36.8244 38.668 45.7638 38.668 56.4745V71.3707C38.668 73.2486 37.8677 75.0573 36.4722 76.333C35.2462 77.4537 34.543 79.0488 34.543 80.7092C34.543 83.9787 37.203 86.6387 40.4724 86.6387H52.4334C53.0542 90.5775 56.4715 93.5996 60.5821 93.5996C64.6927 93.5996 68.11 90.5775 68.7308 86.6387H80.6918C83.9612 86.6387 86.6212 83.9787 86.6212 80.7092C86.6212 79.0488 85.918 77.4537 84.6919 76.333ZM77.121 37.1386C80.9594 37.1386 84.082 40.2613 84.082 44.0995C84.082 47.9377 80.9594 51.0605 77.121 51.0605C73.2827 51.0605 70.1601 47.9377 70.1601 44.0995C70.1601 40.2613 73.2827 37.1386 77.121 37.1386ZM60.5821 30.1776C61.7905 30.1776 62.7735 31.1607 62.7735 32.3689C62.7735 33.5773 61.7905 34.5603 60.5821 34.5603C59.3737 34.5603 58.3907 33.5773 58.3907 32.3689C58.3907 31.1607 59.3737 30.1776 60.5821 30.1776ZM60.5821 91.0215C57.8981 91.0215 55.6452 89.1469 55.0597 86.6387H66.1044C65.5189 89.1469 63.266 91.0215 60.5821 91.0215Z" fill="black"/>
<path d="M40.2 57.5992C41.5838 43.8438 45.3327 38.5328 60.6 35.9992L57.6 34.7992L57 32.3992L57.6 29.3992L60 28.1992L63 29.3992L63.6 31.1992L63 34.7992L67.8 37.1992L70.2 38.9992L73.8 36.5992L78.6 35.9992L82.8 37.7992L84.6 40.7992L85.2 47.3992L81 50.9992V58.1992V67.7992L81.6 73.7992C82.2 74.7992 83.52 76.9192 84 77.3992C84.48 77.8792 84.6 78.7992 84.6 79.1992V82.1992L82.8 83.9992L80.4 85.1992L67.2 85.7992L66.6 88.1992L65.4 90.5992L62.4 91.7992H58.8C58.32 91.7992 55.8 90.5992 54.6 89.9992L53.4 85.7992H46.8L39.6 85.1992L36.6 83.9992L36 79.7992L37.8 76.7992L40.2 72.5992V57.5992Z" fill="#FFFCBB"/>
<path d="M84.6919 76.333C83.2964 75.0573 82.4961 73.2486 82.4961 71.3707V58.537C82.4961 57.8252 81.9189 57.248 81.207 57.248C80.495 57.248 79.9179 57.8252 79.9179 58.537V71.3707C79.9179 73.9708 81.0239 76.473 82.9524 78.2359C83.6455 78.8695 84.0429 79.7709 84.0429 80.7093C84.0429 82.5572 82.5395 84.0607 80.6916 84.0607H40.4724C38.6245 84.0607 37.1211 82.5572 37.1211 80.7093C37.1211 79.771 37.5185 78.8696 38.2116 78.2359C40.1401 76.473 41.2461 73.9708 41.2461 71.3707V56.4745C41.2461 45.8127 49.9202 37.1386 60.5821 37.1386C63.5144 37.1386 66.4027 37.8054 69.0185 39.0737C68.1093 40.5342 67.5821 42.2561 67.5821 44.0995C67.5821 49.3594 71.8613 53.6386 77.1212 53.6386C82.3811 53.6386 86.6603 49.3594 86.6603 44.0995C86.6603 38.8396 82.3811 34.5604 77.1212 34.5604C74.6561 34.5604 72.4063 35.5004 70.7116 37.0407C68.7901 36.0385 66.7287 35.3297 64.6001 34.9339C65.075 34.1927 65.3516 33.3127 65.3516 32.369C65.3516 29.7392 63.212 27.5996 60.5821 27.5996C57.9521 27.5996 55.8125 29.7392 55.8125 32.369C55.8125 33.3117 56.0885 34.1906 56.5624 34.9314C46.3922 36.8244 38.668 45.7638 38.668 56.4745V71.3707C38.668 73.2486 37.8677 75.0573 36.4722 76.333C35.2462 77.4537 34.543 79.0488 34.543 80.7092C34.543 83.9787 37.203 86.6387 40.4724 86.6387H52.4334C53.0542 90.5775 56.4715 93.5996 60.5821 93.5996C64.6927 93.5996 68.11 90.5775 68.7308 86.6387H80.6918C83.9612 86.6387 86.6212 83.9787 86.6212 80.7092C86.6212 79.0488 85.918 77.4537 84.6919 76.333ZM77.121 37.1386C80.9594 37.1386 84.082 40.2613 84.082 44.0995C84.082 47.9377 80.9594 51.0605 77.121 51.0605C73.2827 51.0605 70.1601 47.9377 70.1601 44.0995C70.1601 40.2613 73.2827 37.1386 77.121 37.1386ZM60.5821 30.1776C61.7905 30.1776 62.7735 31.1607 62.7735 32.3689C62.7735 33.5773 61.7905 34.5603 60.5821 34.5603C59.3737 34.5603 58.3907 33.5773 58.3907 32.3689C58.3907 31.1607 59.3737 30.1776 60.5821 30.1776ZM60.5821 91.0215C57.8981 91.0215 55.6452 89.1469 55.0597 86.6387H66.1044C65.5189 89.1469 63.266 91.0215 60.5821 91.0215Z" fill="black"/>
<path d="M46.1445 55.1582C45.4326 55.1582 44.8555 55.7354 44.8555 56.4473V56.4741C44.8555 57.1859 45.4326 57.7631 46.1445 57.7631C46.8565 57.7631 47.4336 57.1859 47.4336 56.4741V56.4473C47.4336 55.7354 46.8565 55.1582 46.1445 55.1582Z" fill="black"/>
<path d="M60.581 40.748C54.2555 40.748 48.5708 44.5106 46.0989 50.3338C45.8207 50.989 46.1265 51.7458 46.7817 52.024C46.9461 52.0938 47.1169 52.1269 47.2848 52.1269C47.7865 52.1269 48.2636 51.8321 48.4721 51.3412C50.539 46.4723 55.292 43.3262 60.581 43.3262C61.293 43.3262 61.8701 42.7489 61.8701 42.0371C61.8701 41.3253 61.293 40.748 60.581 40.748Z" fill="black"/>
<path d="M77.5773 39.9222C77.0958 39.7231 76.5413 39.833 76.1725 40.2016L74.69 41.684C74.1867 42.1874 74.1867 43.0037 74.69 43.5072C74.9909 43.8079 75.4038 43.9293 75.7949 43.8702V46.2049C75.7949 46.9168 76.372 47.494 77.084 47.494C77.7959 47.494 78.373 46.9168 78.373 46.2049V41.1131C78.373 40.5917 78.0589 40.1217 77.5773 39.9222Z" fill="black"/>
</g>
</g>
<defs>
<clipPath id="clip0">
<rect width="120" height="120" fill="white"/>
</clipPath>
<clipPath id="clip1">
<rect width="66" height="66" fill="white" transform="translate(27.6016 27.5996)"/>
</clipPath>
</defs>
</svg>
