<svg width="52" id="car" height="52" viewBox="0 0 52 52" fill="none" xmlns="http://www.w3.org/2000/svg">
  <rect x="1" y="1" width="50" height="50" rx="3"  stroke="black" stroke-width="2"/>
  <g clip-path="url(#clip0)">
    <path d="M41.1909 23.9019L40.5193 23.1908L38.1621 16.8368C37.7604 15.7636 36.7333 15.0525 35.5876 15.0459H18.7514C17.6057 15.0459 16.5786 15.7636 16.1769 16.8368L13.8526 23.1117L12.8847 24.0072C12.0419 24.7249 11.5547 25.7784 11.5547 26.8846V36.1422C11.5613 37.6566 12.7925 38.8813 14.307 38.8813H16.0452C17.5596 38.8813 18.7909 37.6566 18.7975 36.1422V34.799H35.1267V36.1422C35.1333 37.6566 36.3646 38.8813 37.879 38.8813H39.6172C41.1316 38.8813 42.3629 37.6566 42.3695 36.1422V26.641C42.3629 25.6072 41.9415 24.6196 41.1909 23.9019ZM17.4148 17.2846C17.6255 16.7249 18.1588 16.3628 18.7514 16.3628H35.5942C36.1868 16.3628 36.7201 16.7315 36.9308 17.2846L38.9851 22.8154H37.451C37.0888 20.3463 34.7909 18.641 32.3218 19.0097C30.353 19.2994 28.8057 20.8467 28.516 22.8154H15.3604L17.4148 17.2846ZM36.1078 22.8154H29.846C30.2082 21.0838 31.9069 19.9776 33.6386 20.3397C34.8765 20.6031 35.8444 21.571 36.1078 22.8154ZM17.4806 36.1422C17.474 36.9323 16.8353 37.5644 16.0452 37.5644H14.307C13.5168 37.5644 12.8781 36.9323 12.8716 36.1422V34.4171C13.2666 34.6739 13.7868 34.799 14.307 34.799H17.4806V36.1422ZM41.0526 36.1422C41.046 36.9323 40.4074 37.5644 39.6172 37.5644H37.879C37.0888 37.5644 36.4502 36.9257 36.4436 36.1422V34.799H39.6172C40.1374 34.799 40.6576 34.6739 41.0526 34.4171V36.1422ZM39.6172 33.4821H14.307C13.5234 33.4887 12.8781 32.8632 12.8716 32.0731V26.8846C12.8716 26.1603 13.1942 25.4689 13.7473 25.0015C13.7539 24.9949 13.767 24.9817 13.7736 24.9751L14.6691 24.1323H39.6041L40.2362 24.8105C40.2428 24.8237 40.2625 24.8303 40.2691 24.8434C40.7629 25.3109 41.046 25.9628 41.046 26.641V32.0731H41.0526C41.046 32.8566 40.4008 33.4887 39.6172 33.4821Z" fill="black"/>
    <path d="M20.2451 26.7656H15.3069C14.9447 26.7656 14.6484 27.0619 14.6484 27.4241V30.8479C14.6484 31.2101 14.9447 31.5064 15.3069 31.5064H20.2451C20.6073 31.5064 20.9036 31.2101 20.9036 30.8479V27.4241C20.9036 27.0619 20.6073 26.7656 20.2451 26.7656ZM19.5867 30.1895H15.9653V28.0825H19.5867V30.1895Z" fill="black"/>
    <path d="M38.6162 26.7656H33.678C33.3158 26.7656 33.0195 27.0619 33.0195 27.4241V30.8479C33.0195 31.2101 33.3158 31.5064 33.678 31.5064H38.6162C38.9784 31.5064 39.2747 31.2101 39.2747 30.8479V27.4241C39.2747 27.0619 38.9784 26.7656 38.6162 26.7656ZM37.9578 30.1895H34.3364V28.0825H37.9578V30.1895Z" fill="black"/>
    <path d="M30.1439 29.5312H23.7834C23.4213 29.5312 23.125 29.8275 23.125 30.1897C23.125 30.5518 23.4213 30.8481 23.7834 30.8481H30.1439C30.5061 30.8481 30.8024 30.5518 30.8024 30.1897C30.8024 29.8275 30.5061 29.5312 30.1439 29.5312Z" fill="black"/>
    <path d="M30.1439 27.4902H23.7834C23.4213 27.4902 23.125 27.7865 23.125 28.1487C23.125 28.5108 23.4213 28.8071 23.7834 28.8071H30.1439C30.5061 28.8071 30.8024 28.5108 30.8024 28.1487C30.8024 27.7865 30.5061 27.4902 30.1439 27.4902Z" fill="black"/>
  </g>
  <defs>
    <clipPath id="clip0">
      <rect width="30.8148" height="30.8148" fill="white" transform="translate(11.5547 11.5557)"/>
    </clipPath>
  </defs>
</svg>
