<svg width="75" height="75" viewBox="0 0 75 75" fill="none" xmlns="http://www.w3.org/2000/svg">
  <rect x="1" y="1" width="73" height="73" rx="3" fill="#2D9CDB" stroke="black" stroke-width="2"/>
  <path d="M27.0166 44V44.5H27.5166V44H27.0166ZM23.5537 44L23.1203 44.2493L23.2645 44.5H23.5537V44ZM17.9639 34.2793L18.3973 34.03L18.2531 33.7793H17.9639V34.2793ZM17.8848 34.2793V33.7793H17.3513L17.3858 34.3117L17.8848 34.2793ZM18.0518 44V44.5H18.5518V44H18.0518ZM15.6172 44H15.1172V44.5H15.6172V44ZM15.6172 31.1504V30.6504H15.1172V31.1504H15.6172ZM19.0537 31.1504L19.4862 30.8996L19.3417 30.6504H19.0537V31.1504ZM24.6348 40.7744L24.2022 41.0252L24.3467 41.2744H24.6348V40.7744ZM24.6963 40.7744V41.2744H25.2233L25.1956 40.7481L24.6963 40.7744ZM24.5645 31.1504V30.6504H24.0645V31.1504H24.5645ZM27.0166 31.1504H27.5166V30.6504H27.0166V31.1504ZM27.0166 43.5H23.5537V44.5H27.0166V43.5ZM23.9872 43.7507L18.3973 34.03L17.5304 34.5285L23.1203 44.2493L23.9872 43.7507ZM17.9639 33.7793H17.8848V34.7793H17.9639V33.7793ZM17.3858 34.3117C17.4971 36.0281 17.5518 37.2384 17.5518 37.9531H18.5518C18.5518 37.203 18.4951 35.9641 18.3837 34.2469L17.3858 34.3117ZM17.5518 37.9531V44H18.5518V37.9531H17.5518ZM18.0518 43.5H15.6172V44.5H18.0518V43.5ZM16.1172 44V31.1504H15.1172V44H16.1172ZM15.6172 31.6504H19.0537V30.6504H15.6172V31.6504ZM18.6212 31.4012L24.2022 41.0252L25.0673 40.5236L19.4862 30.8996L18.6212 31.4012ZM24.6348 41.2744H24.6963V40.2744H24.6348V41.2744ZM25.1956 40.7481C25.1077 39.0782 25.0645 37.9093 25.0645 37.2324H24.0645C24.0645 37.9384 24.1091 39.1308 24.197 40.8007L25.1956 40.7481ZM25.0645 37.2324V31.1504H24.0645V37.2324H25.0645ZM24.5645 31.6504H27.0166V30.6504H24.5645V31.6504ZM26.5166 31.1504V44H27.5166V31.1504H26.5166ZM39.4602 44V44.5H39.9602V44H39.4602ZM32.0598 44H31.5598V44.5H32.0598V44ZM32.0598 31.1504V30.6504H31.5598V31.1504H32.0598ZM39.4602 31.1504H39.9602V30.6504H39.4602V31.1504ZM39.4602 33.3828V33.8828H39.9602V33.3828H39.4602ZM34.7844 33.3828V32.8828H34.2844V33.3828H34.7844ZM34.7844 36.2041H34.2844V36.7041H34.7844V36.2041ZM39.135 36.2041H39.635V35.7041H39.135V36.2041ZM39.135 38.4365V38.9365H39.635V38.4365H39.135ZM34.7844 38.4365V37.9365H34.2844V38.4365H34.7844ZM34.7844 41.75H34.2844V42.25H34.7844V41.75ZM39.4602 41.75H39.9602V41.25H39.4602V41.75ZM39.4602 43.5H32.0598V44.5H39.4602V43.5ZM32.5598 44V31.1504H31.5598V44H32.5598ZM32.0598 31.6504H39.4602V30.6504H32.0598V31.6504ZM38.9602 31.1504V33.3828H39.9602V31.1504H38.9602ZM39.4602 32.8828H34.7844V33.8828H39.4602V32.8828ZM34.2844 33.3828V36.2041H35.2844V33.3828H34.2844ZM34.7844 36.7041H39.135V35.7041H34.7844V36.7041ZM38.635 36.2041V38.4365H39.635V36.2041H38.635ZM39.135 37.9365H34.7844V38.9365H39.135V37.9365ZM34.2844 38.4365V41.75H35.2844V38.4365H34.2844ZM34.7844 42.25H39.4602V41.25H34.7844V42.25ZM38.9602 41.75V44H39.9602V41.75H38.9602ZM56.4652 44V44.5H56.8539L56.9498 44.1233L56.4652 44ZM53.3627 44L52.8785 44.1248L52.9753 44.5H53.3627V44ZM51.6225 37.25L52.1067 37.1252L52.1054 37.1204L51.6225 37.25ZM51.2885 35.7646L50.7983 35.8634L50.7992 35.8678L51.2885 35.7646ZM51.0248 34.2441L51.5228 34.1989L50.5279 34.1889L51.0248 34.2441ZM50.7611 35.7734L51.2513 35.8723L51.2514 35.8715L50.7611 35.7734ZM50.4359 37.2676L50.9202 37.3921L50.9204 37.3911L50.4359 37.2676ZM48.7045 44V44.5H49.0922L49.1887 44.1245L48.7045 44ZM45.6107 44L45.1263 44.1236L45.2223 44.5H45.6107V44ZM42.3324 31.1504V30.6504H41.6888L41.8479 31.274L42.3324 31.1504ZM45.0131 31.1504L45.4999 31.0363L45.4095 30.6504H45.0131V31.1504ZM46.6566 38.1641L47.1448 38.0558L47.1435 38.05L46.6566 38.1641ZM47.2807 41.5303L46.7852 41.5976L47.7779 41.5826L47.2807 41.5303ZM47.518 39.9834L47.0262 39.8932L47.0256 39.8965L47.518 39.9834ZM47.8783 38.3486L48.359 38.487L48.3622 38.4745L47.8783 38.3486ZM49.7504 31.1504V30.6504H49.3638L49.2665 31.0245L49.7504 31.1504ZM52.3256 31.1504L52.8095 31.0245L52.7122 30.6504H52.3256V31.1504ZM54.1977 38.3486L54.6822 38.2253L54.6816 38.2228L54.1977 38.3486ZM54.7865 41.5303L54.2911 41.5976L55.2825 41.5939L54.7865 41.5303ZM55.0678 39.8252L55.559 39.9184L55.5592 39.9176L55.0678 39.8252ZM55.4193 38.1641L55.9045 38.2853L55.9063 38.2776L55.4193 38.1641ZM57.0541 31.1504V30.6504H56.6572L56.5672 31.0369L57.0541 31.1504ZM59.7348 31.1504L60.2193 31.2737L60.3779 30.6504H59.7348V31.1504ZM56.4652 43.5H53.3627V44.5H56.4652V43.5ZM53.8469 43.8752L52.1066 37.1252L51.1383 37.3748L52.8785 44.1248L53.8469 43.8752ZM52.1054 37.1204C52.0451 36.8956 51.9364 36.4139 51.7777 35.6615L50.7992 35.8678C50.9569 36.6154 51.071 37.124 51.1395 37.3796L52.1054 37.1204ZM51.7786 35.6659C51.6254 34.9057 51.5433 34.4253 51.5228 34.1989L50.5269 34.2894C50.5532 34.5786 50.6469 35.1119 50.7983 35.8634L51.7786 35.6659ZM50.5279 34.1889C50.4953 34.482 50.4112 34.9734 50.2708 35.6754L51.2514 35.8715C51.3923 35.1672 51.484 34.6391 51.5217 34.2994L50.5279 34.1889ZM50.271 35.6746C50.1305 36.3714 50.0242 36.8586 49.9514 37.1441L50.9204 37.3911C51 37.0789 51.1105 36.57 51.2513 35.8723L50.271 35.6746ZM49.9517 37.143L48.2202 43.8755L49.1887 44.1245L50.9202 37.3921L49.9517 37.143ZM48.7045 43.5H45.6107V44.5H48.7045V43.5ZM46.0952 43.8764L42.8169 31.0268L41.8479 31.274L45.1263 44.1236L46.0952 43.8764ZM42.3324 31.6504H45.0131V30.6504H42.3324V31.6504ZM44.5263 31.2645L46.1698 38.2781L47.1435 38.05L45.4999 31.0363L44.5263 31.2645ZM46.1685 38.2723C46.4537 39.5584 46.6587 40.6662 46.7852 41.5976L47.7761 41.463C47.6448 40.4959 47.4338 39.3596 47.1448 38.0558L46.1685 38.2723ZM47.7779 41.5826C47.8111 41.267 47.8876 40.7657 48.0104 40.0703L47.0256 39.8965C46.9022 40.5956 46.8205 41.1256 46.7834 41.4779L47.7779 41.5826ZM48.0098 40.0736C48.1376 39.3763 48.2542 38.8502 48.3588 38.487L47.3978 38.2103C47.2797 38.6205 47.1561 39.1842 47.0262 39.8932L48.0098 40.0736ZM48.3622 38.4745L50.2343 31.2762L49.2665 31.0245L47.3944 38.2228L48.3622 38.4745ZM49.7504 31.6504H52.3256V30.6504H49.7504V31.6504ZM51.8417 31.2762L53.7138 38.4745L54.6816 38.2228L52.8095 31.0245L51.8417 31.2762ZM53.7131 38.472C53.7909 38.7777 53.8911 39.2567 54.0137 39.9166L54.9969 39.7338C54.8734 39.0695 54.7684 38.5641 54.6822 38.2253L53.7131 38.472ZM54.0137 39.9166C54.1358 40.5736 54.2281 41.1335 54.2911 41.5976L55.282 41.463C55.2161 40.9778 55.1208 40.401 54.9969 39.7338L54.0137 39.9166ZM55.2825 41.5939C55.3393 41.1503 55.4312 40.5926 55.559 39.9184L54.5765 39.732C54.4466 40.4172 54.3509 40.9962 54.2906 41.4667L55.2825 41.5939ZM55.5592 39.9176C55.6872 39.2367 55.8023 38.6937 55.9044 38.2853L54.9343 38.0428C54.8254 38.4782 54.7062 39.0426 54.5764 39.7328L55.5592 39.9176ZM55.9063 38.2776L57.541 31.2639L56.5672 31.0369L54.9324 38.0506L55.9063 38.2776ZM57.0541 31.6504H59.7348V30.6504H57.0541V31.6504ZM59.2502 31.0271L55.9807 43.8767L56.9498 44.1233L60.2193 31.2737L59.2502 31.0271Z" fill="black"/>
</svg>
